<?xml version="1.0" encoding="UTF-8"?>
<svg version="1.1" xmlns="http://www.w3.org/2000/svg" width="512" height="512">
<path d="M0 0 C2.31050083 0.39353903 4.62226057 0.77879242 6.93448257 1.16208267 C13.50083653 2.25183044 20.06507026 3.35398353 26.62781143 4.46527481 C43.3126071 7.28604992 59.96320133 10.00365772 76.81384659 11.62298965 C78.01967392 11.73947861 79.22550125 11.85596756 80.4678688 11.97598648 C119.7338482 15.45990311 157.9512718 9.06075248 196.50897598 2.54639053 C201.93588183 1.63007601 207.36422733 0.72346807 212.79499054 -0.16971207 C215.29648061 -0.58509292 217.79528575 -1.01450456 220.29428482 -1.44457626 C231.37964317 -3.30215269 240.03790189 -3.62609337 250.43103409 1.20111465 C251.20479385 1.55528458 251.97855362 1.9094545 252.77576065 2.27435684 C276.73222747 13.54396363 297.95910204 30.60103964 307.86853409 55.76361465 C316.75918003 80.75043314 316.7280318 107.47165279 312.52478409 133.41205215 C311.68490717 138.07894789 311.68490717 138.07894789 311.86853409 142.76361465 C313.71303973 145.0646683 313.71303973 145.0646683 316.24353409 147.20111465 C335.45835521 165.6299981 345.39896658 191.56744285 347.86853409 217.76361465 C348.02193253 218.78197403 348.17533096 219.8003334 348.33337784 220.84955215 C349.36159122 232.03313332 343.29792293 240.47723535 337.86853409 249.76361465 C336.3654892 252.39618136 334.8718061 255.03390378 333.37903214 257.67230606 C332.31605178 259.55013353 331.24971847 261.42606635 330.18030167 263.30023575 C325.4066383 271.70050461 320.87645148 280.21919031 316.36853409 288.76361465 C311.19016105 298.56619873 305.97432481 308.34077694 300.55603409 318.01361465 C300.03525284 318.95334122 299.51447159 319.89306778 298.97790909 320.8612709 C293.37491986 330.77425185 293.37491986 330.77425185 288.49353409 332.70111465 C284.83036814 332.78833289 282.97658019 331.68989418 279.86853409 329.76361465 C278.28304167 327.55874295 277.11324612 325.66439519 275.93103409 323.26361465 C275.43071671 322.27989883 275.43071671 322.27989883 274.9202919 321.27630997 C267.25842516 305.75686181 261.12747829 288.48997205 260.64197159 271.05267715 C260.15752008 255.99482835 256.41275719 247.61587622 245.86853409 236.76361465 C233.59217865 252.36848752 226.39414912 264.51044784 227.86853409 284.76361465 C228.71344978 291.45423649 230.04177241 298.07148122 231.28897476 304.69626236 C235.1029589 325.29330304 236.84432375 344.97010334 236.10626602 365.87765884 C235.90366565 371.6810543 235.83423954 377.47522265 235.82890701 383.28212357 C235.82447831 387.67868966 235.79463526 392.07491241 235.76181412 396.47134781 C235.74975704 398.60162686 235.74593247 400.73197058 235.75088882 402.86227798 C235.75345585 405.83952268 235.71776507 408.81409384 235.67322159 411.7909584 C235.6822702 412.6673497 235.69131882 413.543741 235.70064163 414.44668961 C235.47691798 423.99080869 229.64100424 430.38017203 223.30603409 437.01361465 C222.79282608 437.55808243 222.27961807 438.1025502 221.75085831 438.663517 C220.13180628 440.37178109 218.50104654 442.06821952 216.86853409 443.76361465 C216.34307999 444.3163002 215.81762589 444.86898575 215.27624893 445.43841934 C188.16724916 473.87653751 150.67449012 496.86707244 110.47009659 497.96673965 C65.58402411 498.55902289 30.26895461 479.76872941 -1.74962997 449.11371231 C-4.76846625 446.16421327 -7.49183812 443.05325786 -10.13146591 439.76361465 C-10.7857457 438.95392227 -10.7857457 438.95392227 -11.45324326 438.12787247 C-12.95722833 436.26199255 -14.45243675 434.38946421 -15.94396591 432.51361465 C-16.42494736 431.91049454 -16.9059288 431.30737442 -17.40148544 430.68597794 C-23.34759503 423.11340143 -23.34759503 423.11340143 -23.45031357 417.53802872 C-23.47013794 416.70482605 -23.48996231 415.87162338 -23.51038742 415.01317215 C-23.52198395 414.11097443 -23.53358047 413.2087767 -23.54552841 412.27923965 C-23.56530243 411.3289035 -23.58507645 410.37856735 -23.60544968 409.39943314 C-23.66708291 406.27091009 -23.71339842 403.1424457 -23.75646591 400.01361465 C-23.77248856 398.9353038 -23.7885112 397.85699295 -23.80501938 396.74600601 C-23.87073192 392.30107195 -23.93475903 387.85615463 -23.98868942 383.41106033 C-24.06219787 377.55580203 -24.18180328 371.70708969 -24.38732529 365.85499954 C-25.14115433 343.89246979 -23.04628683 323.25740785 -18.97741318 301.64471817 C-15.28668894 281.88196376 -13.63592519 265.89313478 -25.24865341 248.4237709 C-28.07629735 244.42869721 -31.045716 240.56218218 -34.13146591 236.76361465 C-45.64175789 248.61016779 -48.53313447 257.70034942 -48.9859581 273.96380997 C-49.87312283 291.0342883 -56.52079476 308.17675156 -64.19396591 323.26361465 C-64.4978624 323.88075333 -64.80175888 324.497892 -65.11486435 325.13373184 C-67.38302992 329.35218519 -69.53826364 331.36935007 -74.13146591 332.76361465 C-78.5071174 332.06915522 -80.53372889 331.52941889 -83.29699326 327.98920059 C-83.88947861 326.83710098 -84.48196396 325.68500137 -85.09240341 324.49798965 C-85.42299759 323.87382156 -85.75359177 323.24965347 -86.09420395 322.6065712 C-86.78305508 321.30547836 -87.46319011 319.99973542 -88.13476181 318.68964005 C-89.65977916 315.74270511 -91.29541811 312.8593854 -92.92052841 309.96673965 C-94.20060868 307.64980594 -95.4793693 305.33218967 -96.75646591 303.01361465 C-97.09707047 302.39621414 -97.43767502 301.77881363 -97.78860092 301.14270401 C-103.27405683 291.19744917 -108.66918331 281.20591692 -114.02990341 271.19281387 C-118.52090278 262.83155385 -123.15328982 254.55638178 -127.87047958 246.32074356 C-129.305121 243.80937159 -130.72494514 241.29083081 -132.13146591 238.76361465 C-132.53985703 238.03287735 -132.94824814 237.30214005 -133.36901474 236.54925919 C-140.25075237 223.64542955 -135.00760307 205.11545093 -130.94396591 191.70111465 C-125.20213052 173.87518419 -115.90964974 156.48715659 -101.35802841 144.2753334 C-99.92847166 142.81015515 -99.92847166 142.81015515 -99.98693466 140.6268959 C-100.09650497 139.78513809 -100.20607529 138.94338028 -100.31896591 138.07611465 C-100.43498154 137.08224747 -100.55099716 136.08838028 -100.67052841 135.0643959 C-100.97965678 132.85072242 -101.30803131 130.63965731 -101.65490341 128.4315834 C-104.50278007 109.05364007 -104.50056902 88.90424255 -100.13146591 69.76361465 C-99.96517685 69.02965469 -99.79888779 68.29569473 -99.62755966 67.53949356 C-93.59601911 42.08974331 -77.10938126 23.53026207 -55.15636826 9.96136856 C-49.89076803 6.84670318 -44.42502662 4.15073679 -38.8765831 1.58148575 C-37.35492038 0.8683394 -35.85429704 0.11063958 -34.35802841 -0.6543541 C-23.72650557 -5.69486573 -11.15766331 -1.90363488 0 0 Z " fill="#484F69" transform="translate(150.13146591186523,7.236385345458984)"/>
<path d="M0 0 C0.90234375 0.44730469 1.8046875 0.89460938 2.734375 1.35546875 C9.05729016 4.61299272 14.57550212 8.4165828 20 13 C20.80179687 13.65613281 21.60359375 14.31226562 22.4296875 14.98828125 C32.97638639 23.97433155 40.29953295 33.9144507 45 47 C48.45293223 56.02180273 52.59074757 64.07074886 58.37109375 71.84375 C60.21608096 74.3462932 61.01901956 75.58156963 60.875 78.75 C60 81 60 81 58 83 C56.18206675 83.49763046 54.34455901 83.92504753 52.5 84.3125 C39.63515773 87.42892361 30.80819406 94.13399171 22.375 104.25 C17.7769216 109.68114202 11.97808004 113.40085666 5 115 C-2.13524994 115.54786197 -7.74305064 113.75909484 -14.4453125 111.421875 C-15.53278778 111.05402893 -16.62026306 110.68618286 -17.74069214 110.30718994 C-21.20610994 109.13279921 -24.66566991 107.94219033 -28.125 106.75 C-32.66756336 105.19808541 -37.21243192 103.65301578 -41.7578125 102.109375 C-42.84146088 101.73963058 -43.92510925 101.36988617 -45.04159546 100.98893738 C-51.7935225 98.69883348 -58.54340694 96.59271915 -65.44433594 94.79321289 C-71.26154237 92.9877005 -75.21555727 89.66112327 -78.17282104 84.26025391 C-79.94917277 79.40639985 -79.58771109 74.19981821 -79.56640625 69.09375 C-79.57260483 67.85508179 -79.57880341 66.61641357 -79.58518982 65.34020996 C-79.59408499 62.06131304 -79.58301932 58.78317014 -79.56610107 55.5043335 C-79.56250252 53.50140444 -79.57643886 51.49940079 -79.59692383 49.49658203 C-79.63383383 45.63270008 -79.63643035 41.77027464 -79.62890625 37.90625 C-79.64879356 36.12317444 -79.64879356 36.12317444 -79.66908264 34.30407715 C-79.58913757 27.17229588 -78.94606906 23.25872822 -74 18 C-71.68073213 16.27475329 -69.31557634 14.89085987 -66.75 13.5625 C-66.05398682 13.18834961 -65.35797363 12.81419922 -64.64086914 12.42871094 C-62.43945926 11.26020405 -60.22397885 10.12489971 -58 9 C-57.28634277 8.63696777 -56.57268555 8.27393555 -55.83740234 7.89990234 C-38.33663595 -0.90443389 -18.9028398 -10.10863784 0 0 Z " fill="#9EAACD" transform="translate(341,38)"/>
<path d="M0 0 C0.99386719 0.3609375 1.98773438 0.721875 3.01171875 1.09375 C9.53645412 3.64176381 15.72993077 6.83376431 21.9375 10.0625 C22.75516846 10.48619873 23.57283691 10.90989746 24.4152832 11.34643555 C31.05906734 14.86575273 36.19858917 17.68406068 39 25 C39.45295335 29.1116984 39.44417296 33.20249579 39.43359375 37.3359375 C39.4388356 38.5292569 39.44407745 39.72257629 39.44947815 40.95205688 C39.45589092 43.47193627 39.45457105 45.99184563 39.44604492 48.51171875 C39.43754487 52.35471291 39.46629391 56.19621541 39.49804688 60.0390625 C39.49965934 62.49218706 39.4990805 64.94531423 39.49609375 67.3984375 C39.50732773 68.54138275 39.51856171 69.684328 39.53013611 70.86190796 C39.473652 77.37180004 38.94255832 82.64103383 35 88 C30.14706154 92.72643697 24.61880394 94.28304594 18.1875 95.9375 C9.81129553 98.21568085 1.57880659 100.76584811 -6.63671875 103.5625 C-7.56845413 103.87884903 -8.50018951 104.19519806 -9.4601593 104.52113342 C-13.24800482 105.80989003 -17.03453885 107.10174525 -20.81362915 108.41598511 C-23.49731762 109.34887378 -26.18567407 110.26710746 -28.875 111.18359375 C-29.67632858 111.46763062 -30.47765717 111.75166748 -31.30326843 112.04431152 C-37.44782084 114.11987322 -42.84146397 115.0658595 -49.16015625 112.93359375 C-56.42086867 109.19085774 -61.51400952 105.31558918 -66.625 98.98828125 C-74.60622326 89.28887798 -84.86768508 85.56809945 -96.5625 81.875 C-99 81 -99 81 -101 79 C-100.71911104 74.55462687 -99.59557725 71.96477103 -96.875 68.5 C-90.97584909 60.4370212 -86.85934628 51.5456483 -83.4375 42.1875 C-76.16219896 22.73960789 -58.11872417 7.54022446 -39.9140625 -1.5390625 C-25.81935268 -7.64790767 -13.76847997 -5.144348 0 0 Z " fill="#9EAACD" transform="translate(211,39)"/>
<path d="M0 0 C0.89879883 0.30881104 1.79759766 0.61762207 2.72363281 0.93579102 C3.97998535 1.38523071 3.97998535 1.38523071 5.26171875 1.84375 C6.01799561 2.11380859 6.77427246 2.38386719 7.5534668 2.66210938 C9.3125 3.5 9.3125 3.5 10.3125 5.5 C9.07886719 5.81130859 9.07886719 5.81130859 7.8203125 6.12890625 C-0.24021077 8.35346175 -6.23546019 11.20574873 -12.6875 16.5 C-13.50863281 17.15871094 -14.32976562 17.81742188 -15.17578125 18.49609375 C-29.73715945 30.83816392 -38.95876221 47.01597682 -45.25683594 64.80297852 C-48.82620617 74.85179831 -53.7868851 82.3703331 -60.6875 90.5 C-61.35136719 91.28761719 -62.01523438 92.07523437 -62.69921875 92.88671875 C-66.39418457 97.16242576 -70.23028906 101.02659074 -74.54296875 104.67578125 C-77.86382046 107.50062232 -81.06796066 110.4534723 -84.29296875 113.38671875 C-91.2198475 119.5 -91.2198475 119.5 -93.6875 119.5 C-94.17093366 116.37564509 -94.64843059 113.25040869 -95.125 110.125 C-95.25970703 109.25488281 -95.39441406 108.38476562 -95.53320312 107.48828125 C-99.9536788 78.37783168 -100.59084929 46.44497018 -83.6171875 21.09375 C-77.07766625 12.30378621 -69.18400981 6.81062453 -59.6875 1.5 C-58.80707031 0.99210937 -57.92664063 0.48421875 -57.01953125 -0.0390625 C-39.45035843 -9.5917765 -18.06349623 -6.20714122 0 0 Z " fill="#9EAACD" transform="translate(158.6875,27.5)"/>
<path d="M0 0 C17.23998818 15.85551494 23.40349136 36.13856604 24.4140625 59.1875 C24.66638244 71.17933739 23.73264893 83.01712461 22.04296875 94.87890625 C21.85003446 96.28512527 21.65732359 97.69137496 21.46484375 99.09765625 C21.00798251 102.36095081 20.53534912 105.62081489 20.04296875 108.87890625 C16.05372176 107.19973416 12.9775341 104.48249674 9.73046875 101.69140625 C9.15232422 101.19817871 8.57417969 100.70495117 7.97851562 100.19677734 C3.80272191 96.60460834 -0.15744717 92.86846954 -3.95703125 88.87890625 C-4.78203125 88.05390625 -5.60703125 87.22890625 -6.45703125 86.37890625 C-7.28203125 85.55390625 -8.10703125 84.72890625 -8.95703125 83.87890625 C-9.75753906 83.13060547 -9.75753906 83.13060547 -10.57421875 82.3671875 C-20.17803868 73.21154584 -25.61453154 62.55799981 -29.98144531 50.1652832 C-34.88780268 36.39545588 -42.20181728 24.79029373 -51.95703125 13.87890625 C-52.529375 13.2240625 -53.10171875 12.56921875 -53.69140625 11.89453125 C-61.52361326 3.46558466 -73.34198241 -3.92980669 -84.95703125 -5.12109375 C-63.7341703 -26.3439547 -20.12277971 -16.87595221 0 0 Z " fill="#9EAACD" transform="translate(426.95703125,38.12109375)"/>
<path d="M0 0 C4.6591968 1.1647992 6.93278253 3.16719194 10.484375 6.33203125 C12.98230386 8.45950456 15.58988602 10.0384348 18.453125 11.63671875 C33.45328843 20.3332674 38.19811896 30.22512522 43.52783203 46.37744141 C45.87034499 53.20095798 48.7846202 59.80488782 51.58056641 66.45239258 C58.11857923 82.56343832 57.393336 98.54229245 55.20581055 115.46630859 C54.93341584 117.59440775 54.68389936 119.72444416 54.43554688 121.85546875 C54.26437059 123.22933551 54.09189399 124.60304104 53.91796875 125.9765625 C53.76610107 127.19553223 53.6142334 128.41450195 53.45776367 129.67041016 C52.73139624 133.02337633 51.7630796 135.17802609 49.75 137.9375 C46.5224218 139.5512891 43.24396734 139.47136901 39.75 138.9375 C13.55323789 122.52264906 0.99196636 82.9419846 -6.25 54.9375 C-6.49645264 54.21546387 -6.74290527 53.49342773 -6.99682617 52.74951172 C-9.61863332 44.56622447 -9.80850191 36.62559614 -9.8059082 28.11132812 C-9.81252902 25.67682863 -9.86733637 23.24629195 -9.92382812 20.8125 C-10.06432946 7.83840718 -10.06432946 7.83840718 -6.41796875 3.38671875 C-4.19236941 1.31458497 -3.03941439 0.87675415 0 0 Z " fill="#9EAACD" transform="translate(411.25,130.0625)"/>
<path d="M0 0 C2.98824051 1.64133965 5.46183418 3.92366836 7 7 C7.14784464 9.48828137 7.23619882 11.94700188 7.2734375 14.4375 C7.28605621 15.18505554 7.29867493 15.93261108 7.31167603 16.70281982 C7.71132678 46.09293095 7.71132678 46.09293095 2.81689453 58.78662109 C1.87540751 61.33758384 1.09077371 63.91536335 0.30859375 66.51953125 C-7.09040142 90.7331639 -19.12349328 123.84719158 -42 138 C-45.83555835 138.83153706 -49.01230627 138.59781463 -52.375 136.5625 C-60.91885385 123.08949969 -61.02277246 94.81200185 -58.0625 79.609375 C-55.67175519 69.68033515 -51.70282186 60.25490269 -47.93066406 50.78613281 C-46.61947302 47.48608955 -45.33254317 44.17724489 -44.046875 40.8671875 C-43.21238269 38.75463689 -42.37649439 36.64263707 -41.5390625 34.53125 C-41.15867828 33.54789673 -40.77829407 32.56454346 -40.38638306 31.5513916 C-37.66596275 24.8030507 -34.50600444 20.44748079 -28.36328125 16.38671875 C-27.70827637 15.94690674 -27.05327148 15.50709473 -26.37841797 15.05395508 C-25.69666504 14.6030249 -25.01491211 14.15209473 -24.3125 13.6875 C-18.63281564 9.88659987 -13.29983017 5.94695895 -8.2109375 1.36328125 C-5.27681024 -0.44592443 -3.38968809 -0.41073451 0 0 Z " fill="#9EAACD" transform="translate(103,131)"/>
<path d="M0 0 C1.84368164 -0.00580078 1.84368164 -0.00580078 3.72460938 -0.01171875 C5.63790039 0.00568359 5.63790039 0.00568359 7.58984375 0.0234375 C8.86923828 0.01183594 10.14863281 0.00023437 11.46679688 -0.01171875 C13.30854492 -0.00591797 13.30854492 -0.00591797 15.1875 0 C16.30777588 0.00338379 17.42805176 0.00676758 18.58227539 0.01025391 C21.9469119 0.45373994 23.13352946 1.03108876 25.52734375 3.3984375 C26.027915 5.93001556 26.027915 5.93001556 26.02854919 9.01599121 C26.03838333 10.18534714 26.04821747 11.35470306 26.05834961 12.55949402 C26.04384766 14.48587456 26.04384766 14.48587456 26.02905273 16.45117188 C26.0328354 17.81619321 26.03833501 19.18121071 26.04542542 20.54621887 C26.05940454 24.25496482 26.04819346 27.96324813 26.0317142 31.67196846 C26.01787932 35.55031843 26.02432199 39.42864111 26.02784729 43.30700684 C26.03055066 49.82046987 26.01706303 56.33374875 25.99389648 62.84716797 C25.96728584 70.38114103 25.96553911 77.91480615 25.97728485 85.4488101 C25.9880584 92.69168767 25.98187892 99.93445368 25.96772957 107.17732239 C25.96196606 110.26181165 25.96205528 113.34621937 25.96679497 116.43070984 C25.97156203 120.06200525 25.96147477 123.69296283 25.93984032 127.32419395 C25.93160727 129.29523986 25.93812879 131.26632999 25.94503784 133.23738098 C25.93513321 134.40673691 25.92522858 135.57609283 25.9150238 136.78088379 C25.91259391 137.79925575 25.91016401 138.81762772 25.90766048 139.86685944 C25.52734375 142.3984375 25.52734375 142.3984375 24.18931675 144.248909 C22.52734375 145.3984375 22.52734375 145.3984375 19.5480957 145.40844727 C15.65809858 144.10779924 15.04226937 142.84879946 13.1953125 139.23828125 C12.62868896 138.14644531 12.06206543 137.05460938 11.47827148 135.9296875 C10.88877186 134.73260177 10.30100276 133.53466252 9.71484375 132.3359375 C9.0979358 131.10797334 8.48082744 129.88010984 7.86352539 128.65234375 C-6.13959729 100.44736486 -15.39648575 69.31017696 -15.7109375 37.63671875 C-15.71900925 36.84242966 -15.72708099 36.04814056 -15.73539734 35.2297821 C-15.74910818 33.56686507 -15.75988724 31.90392143 -15.76782227 30.2409668 C-15.77941563 28.54882495 -15.79998155 26.85672169 -15.8293457 25.16479492 C-15.87204033 22.69685491 -15.88818258 20.22998213 -15.8984375 17.76171875 C-15.91594559 17.01159012 -15.93345367 16.26146149 -15.95149231 15.48860168 C-15.93010426 10.28872881 -14.8510637 7.33684585 -11.47265625 3.3984375 C-7.67488964 0.40275983 -4.77772873 0.0144166 0 0 Z " fill="#FC004F" transform="translate(224.47265625,332.6015625)"/>
<path d="M0 0 C1.76537109 -0.00580078 1.76537109 -0.00580078 3.56640625 -0.01171875 C4.79746094 -0.00011719 6.02851563 0.01148438 7.296875 0.0234375 C8.51246094 0.01183594 9.72804688 0.00023437 10.98046875 -0.01171875 C22.78328483 0.02689461 22.78328483 0.02689461 28.046875 3.3984375 C31.74374028 7.95777847 32.56488049 11.09446089 32.61328125 16.91796875 C32.62156448 17.6412738 32.62984772 18.36457886 32.63838196 19.10980225 C32.65428635 21.47762161 32.63521981 23.84322601 32.609375 26.2109375 C32.60544739 27.0254538 32.60151978 27.83997009 32.59747314 28.6791687 C32.43525554 52.68766662 29.3288381 76.76431953 21.046875 99.3984375 C20.77037109 100.17799805 20.49386719 100.95755859 20.20898438 101.76074219 C16.34084442 112.54001706 11.54777755 122.85087658 6.421875 133.0859375 C5.88361084 134.19219482 5.34534668 135.29845215 4.79077148 136.43823242 C4.26427002 137.46021729 3.73776855 138.48220215 3.1953125 139.53515625 C2.73302246 140.44998779 2.27073242 141.36481934 1.79443359 142.30737305 C0.046875 144.3984375 0.046875 144.3984375 -2.96240234 145.38989258 C-5.953125 145.3984375 -5.953125 145.3984375 -7.61623573 144.25006866 C-9.46666587 141.68716821 -9.33057959 139.92883667 -9.33407593 136.78088379 C-9.3425354 135.61152786 -9.35099487 134.44217194 -9.35971069 133.23738098 C-9.353638 131.95312729 -9.34756531 130.6688736 -9.34130859 129.34570312 C-9.34537331 127.98068318 -9.35071463 126.61566653 -9.35723877 125.25065613 C-9.37093025 121.54199108 -9.3656063 117.83357603 -9.35610151 114.12490654 C-9.34851434 110.24655348 -9.3555479 106.36822205 -9.36026001 102.48986816 C-9.36572032 95.97644196 -9.35851876 89.46311775 -9.34423828 82.94970703 C-9.32791118 75.41574317 -9.3331995 67.88202286 -9.3497175 60.3480649 C-9.36332455 53.88344628 -9.36525587 47.41890105 -9.35740149 40.95427275 C-9.35272065 37.0915296 -9.35211132 33.22890098 -9.36201096 29.36616516 C-9.37066707 25.73488762 -9.36468391 22.10392455 -9.34732819 18.47268105 C-9.34145883 16.50162312 -9.35039046 14.53053865 -9.35971069 12.55949402 C-9.35125122 11.39013809 -9.34279175 10.22078217 -9.33407593 9.01599121 C-9.33294485 7.99761925 -9.33181377 6.97924728 -9.33064842 5.93001556 C-8.953125 3.3984375 -8.953125 3.3984375 -7.59856606 1.57160187 C-5.1084218 -0.20381786 -3.02631997 0.00956255 0 0 Z " fill="#FD004F" transform="translate(270.953125,332.6015625)"/>
<path d="M0 0 C2.94250868 2.39829916 2.9868465 2.87144537 3.40405273 6.94897461 C3.43063771 8.59991298 3.43931703 10.25120126 3.43359375 11.90234375 C3.4388356 12.77645401 3.44407745 13.65056427 3.44947815 14.55116272 C3.45590058 16.39957619 3.45455848 18.24803052 3.44604492 20.09643555 C3.43754134 22.92375584 3.46628148 25.74905161 3.49804688 28.57617188 C3.49965915 30.37239523 3.49908085 32.16862216 3.49609375 33.96484375 C3.50732773 34.80973862 3.51856171 35.65463348 3.53013611 36.52513123 C3.46075425 42.37424881 3.46075425 42.37424881 1.16333008 45.49438477 C-1.71130982 47.49505109 -4.34641052 48.18196991 -7.75 49 C-8.4090332 49.16532227 -9.06806641 49.33064453 -9.74707031 49.50097656 C-13.11245497 50.33953813 -16.48883327 51.1084106 -19.875 51.859375 C-28.62528589 53.87052942 -36.54069626 56.67691286 -44.70605469 60.44628906 C-45.46821289 60.79014648 -46.23037109 61.13400391 -47.015625 61.48828125 C-47.68883789 61.80321533 -48.36205078 62.11814941 -49.05566406 62.44262695 C-51.44908613 63.12873727 -52.68737371 62.87304323 -55 62 C-63.81143592 54.61744558 -70.81727561 43.0963735 -72.48046875 31.7109375 C-72.74209716 25.8985442 -72.74209716 25.8985442 -72 23 C-68.28501191 19.39307162 -64.54608036 18.00341787 -59.640625 16.7421875 C-52.5636129 14.791826 -45.61498657 12.57823517 -38.671875 10.1953125 C-37.69947876 9.86416443 -36.72708252 9.53301636 -35.72521973 9.1918335 C-31.70386087 7.82200083 -27.68396831 6.4483138 -23.66943359 5.05859375 C-20.69466523 4.0308172 -17.71509961 3.01816185 -14.734375 2.0078125 C-13.37659943 1.53143845 -13.37659943 1.53143845 -11.99139404 1.04544067 C-3.94220249 -1.66002092 -3.94220249 -1.66002092 0 0 Z " fill="#FC014F" transform="translate(247,143)"/>
<path d="M0 0 C1.03159744 0.35384262 2.06319489 0.70768524 3.12605286 1.07225037 C4.77621651 1.64568932 4.77621651 1.64568932 6.4597168 2.23071289 C8.17955025 2.82076866 8.17955025 2.82076866 9.93412781 3.42274475 C14.82619644 5.10128547 19.71447512 6.7907431 24.60302734 8.47949219 C28.17891398 9.71300948 31.75675174 10.94073995 35.3347168 12.16821289 C36.4287532 12.54848129 37.52278961 12.92874969 38.64997864 13.32054138 C43.31890887 14.92159555 47.89956174 16.40451395 52.73583984 17.40893555 C56.59643555 18.26586914 56.59643555 18.26586914 58.62768555 20.07446289 C60.89921085 25.21287294 60.39045909 30.82271978 58.68237305 36.07836914 C57.44326894 38.89233459 56.0779005 41.57194208 54.59643555 44.26586914 C54.1272168 45.14629883 53.65799805 46.02672852 53.17456055 46.93383789 C46.75738834 58.33639389 46.75738834 58.33639389 41.59643555 61.26586914 C36.29514013 61.07267324 31.75754766 58.72480695 26.97143555 56.64086914 C17.17265488 52.5067303 7.16343835 49.9465473 -3.19702148 47.61303711 C-4.34928223 47.34765137 -5.50154297 47.08226562 -6.6887207 46.80883789 C-7.71876221 46.58220459 -8.74880371 46.35557129 -9.81005859 46.12207031 C-12.60269997 45.20012799 -13.59354907 44.5307994 -15.40356445 42.26586914 C-15.79124451 40.33081055 -15.79124451 40.33081055 -15.80761719 38.11743164 C-15.82030136 37.28646973 -15.83298553 36.45550781 -15.84605408 35.59936523 C-15.84311844 34.70556152 -15.8401828 33.81175781 -15.8371582 32.89086914 C-15.84240005 31.96999512 -15.84764191 31.04912109 -15.8530426 30.1003418 C-15.85946543 28.15357471 -15.85812243 26.20676883 -15.84960938 24.26000977 C-15.8410959 21.27688747 -15.86986229 18.29567733 -15.90161133 15.31274414 C-15.90322329 13.42211972 -15.9026459 11.53149189 -15.8996582 9.64086914 C-15.91089218 8.74706543 -15.92212616 7.85326172 -15.93370056 6.93237305 C-15.86520188 0.86477956 -15.86520188 0.86477956 -13.74755859 -1.88256836 C-9.17933472 -3.54218349 -4.43181234 -1.53215237 0 0 Z " fill="#FD004F" transform="translate(277.403564453125,144.734130859375)"/>
<path d="M0 0 C0.71686478 0.00278961 1.43372955 0.00557922 2.1723175 0.00845337 C3.67769029 0.02114967 5.18300632 0.05066667 6.68774414 0.09619141 C8.99285331 0.16419739 11.29358496 0.1781961 13.59960938 0.18359375 C15.06645031 0.20258606 16.53325576 0.22461553 18 0.25 C18.68752853 0.25647552 19.37505707 0.26295105 20.0834198 0.2696228 C24.7894003 0.43381113 24.7894003 0.43381113 26.98019409 1.95573425 C28.84095408 4.53896689 28.68849096 6.40648996 28.70483398 9.57397461 C28.71751816 10.76208237 28.73020233 11.95019012 28.74327087 13.17430115 C28.74033524 14.45869583 28.7373996 15.74309052 28.734375 17.06640625 C28.73961685 18.38443741 28.7448587 19.70246857 28.7502594 21.06044006 C28.75919396 23.85053065 28.7567641 26.64033508 28.74682617 29.43041992 C28.73534025 33.00294885 28.75553857 36.5744888 28.78474331 40.14688778 C28.80752192 43.55761304 28.80063811 46.96810671 28.796875 50.37890625 C28.81372597 52.30246193 28.81372597 52.30246193 28.83091736 54.26487732 C28.81684593 56.0517672 28.81684593 56.0517672 28.80249023 57.87475586 C28.80232407 58.92271835 28.8021579 59.97068085 28.80198669 61.05039978 C28.17103417 64.49802025 27.05266117 65.67820955 24.30078125 67.7890625 C21.09619141 68.32250977 21.09619141 68.32250977 17.33984375 68.35546875 C16.33756241 68.36476662 16.33756241 68.36476662 15.31503296 68.37425232 C13.9046982 68.38133865 12.49427959 68.37819693 11.08398438 68.36547852 C8.93851563 68.35164461 6.79744193 68.38564597 4.65234375 68.42382812 C3.27734269 68.4247798 1.90233623 68.42291789 0.52734375 68.41796875 C-0.71450684 68.41869385 -1.95635742 68.41941895 -3.23583984 68.42016602 C-7.80207522 67.58809789 -9.42843682 66.02834167 -12.69921875 62.7890625 C-13.94019758 60.30710483 -13.85982448 58.58493075 -13.90795898 55.80786133 C-13.9272496 54.76950638 -13.94654022 53.73115143 -13.96641541 52.66133118 C-14.02412313 47.90047606 -14.07345092 43.13977377 -14.10424805 38.37866211 C-14.12581943 35.86940746 -14.15991145 33.36022787 -14.20678711 30.85131836 C-14.27379658 27.23256838 -14.3012525 23.61537675 -14.3203125 19.99609375 C-14.34814316 18.87918655 -14.37597382 17.76227936 -14.40464783 16.61152649 C-14.3913174 11.54690774 -14.25518835 7.71688691 -11.14160156 3.57543945 C-7.80061325 0.33195951 -4.54160811 -0.1780628 0 0 Z " fill="#FE004F" transform="translate(221.69921875,258.2109375)"/>
<path d="M0 0 C2.22650847 0.000969 4.44952944 -0.04057395 6.67553711 -0.08496094 C8.10066017 -0.09017108 9.52579515 -0.09285608 10.95092773 -0.09277344 C12.2410376 -0.09986328 13.53114746 -0.10695313 14.86035156 -0.11425781 C19.52430137 0.68926673 21.11311354 2.19174717 24.43139648 5.50097656 C25.67588923 7.98996205 25.58529324 9.71295343 25.62426758 12.49804688 C25.64033051 13.53962952 25.65639343 14.58121216 25.67294312 15.65435791 C25.71736687 20.42500195 25.75846483 25.19550607 25.78149414 29.96630859 C25.7980492 32.48235323 25.82533288 34.99835094 25.86352539 37.51416016 C25.91829974 41.14022241 25.94017106 44.76518125 25.95483398 48.39160156 C25.97750336 49.51367004 26.00017273 50.63573853 26.02352905 51.79180908 C25.99995779 60.51051182 25.99995779 60.51051182 23.08618164 64.1953125 C17.69163453 68.88044244 10.90011402 67.75878397 4.12524414 67.79614258 C1.93890546 67.81341723 -0.24594382 67.85733349 -2.43188477 67.90136719 C-3.82119659 67.91148966 -5.21052122 67.92000716 -6.59985352 67.92675781 C-7.8637793 67.94134033 -9.12770508 67.95592285 -10.42993164 67.97094727 C-13.56860352 67.50097656 -13.56860352 67.50097656 -15.24050903 65.84124756 C-16.90818375 62.9025931 -16.94910808 60.95829818 -16.95678711 57.58666992 C-16.96624359 56.39541 -16.97570007 55.20415009 -16.98544312 53.97679138 C-16.97937042 52.69442093 -16.97329773 51.41205048 -16.96704102 50.09082031 C-16.96991119 48.77183243 -16.97278137 47.45284454 -16.97573853 46.09388733 C-16.98015582 43.30556675 -16.97374939 40.51753499 -16.9597168 37.72924805 C-16.9426081 34.15566802 -16.9524797 30.58276311 -16.97043419 27.00920773 C-16.98387952 23.59885772 -16.97446752 20.1886895 -16.96704102 16.77832031 C-16.97311371 15.49392563 -16.9791864 14.20953094 -16.98544312 12.88621521 C-16.97125839 11.10405357 -16.97125839 11.10405357 -16.95678711 9.28588867 C-16.95440033 8.23872177 -16.95201355 7.19155487 -16.94955444 6.11265564 C-16.56860352 3.50097656 -16.56860352 3.50097656 -15.24327087 1.66566467 C-11.2064495 -1.14184085 -4.81317016 -0.01480162 0 0 Z " fill="#FE004F" transform="translate(278.568603515625,258.4990234375)"/>
<path d="M0 0 C2.625 0.375 2.625 0.375 5 1 C7.14293101 7.28593096 7.6944157 13.3837446 8 20 C8.03399902 20.72364746 8.06799805 21.44729492 8.10302734 22.19287109 C9.03386664 44.93464537 1.12899376 57.53080625 -13.40185547 74.16357422 C-15.52273229 76.60067099 -17.61981897 79.0576208 -19.71582031 81.51611328 C-21.21773986 83.27472627 -22.72728383 85.02652931 -24.23828125 86.77734375 C-25.97377576 88.79085147 -27.67153335 90.82076298 -29.35546875 92.87890625 C-30.04253906 93.70261719 -30.72960937 94.52632813 -31.4375 95.375 C-32.01371094 96.08398438 -32.58992188 96.79296875 -33.18359375 97.5234375 C-35 99 -35 99 -37.59765625 99.3515625 C-40 99 -40 99 -42 97 C-45.8216238 71.99044123 -37.00387191 45.79678083 -22.68359375 25.54296875 C-18.5603775 19.95466571 -13.79706933 15.00978342 -9 10 C-7.09325482 7.8574745 -5.21348081 5.69484084 -3.33984375 3.5234375 C-2.27112096 2.30827165 -1.1442894 1.1442894 0 0 Z " fill="#FC8464" transform="translate(357,331)"/>
<path d="M0 0 C4.00463819 0.2793175 5.9282958 1.44137411 8.63671875 4.32421875 C9.2915625 5.01588135 9.94640625 5.70754395 10.62109375 6.42016602 C11.30300781 7.16838623 11.98492187 7.91660645 12.6875 8.6875 C13.75097656 9.84173462 13.75097656 9.84173462 14.8359375 11.01928711 C34.86520922 33.09389771 45.98746086 58.15398089 46.25 88.25 C46.25942627 89.0850708 46.26885254 89.9201416 46.27856445 90.78051758 C46.2458134 96.7541866 46.2458134 96.7541866 44 99 C41.703125 99.45703125 41.703125 99.45703125 39 99 C37.00742474 97.27008238 35.43489698 95.68034001 33.75 93.6875 C33.27183838 93.14424072 32.79367676 92.60098145 32.30102539 92.04125977 C28.50186045 87.69150951 24.86060874 83.21067827 21.24609375 78.70703125 C18.92607822 75.91090819 16.48706585 73.27301619 14 70.625 C1.28208345 56.67887344 -4.85669035 43.93394523 -4.265625 24.9609375 C-4.03055463 19.93879845 -3.63971022 14.93848115 -3.125 9.9375 C-3.04685059 9.16962158 -2.96870117 8.40174316 -2.88818359 7.6105957 C-2.25023408 2.25023408 -2.25023408 2.25023408 0 0 Z " fill="#FD8464" transform="translate(151,331)"/>
<path d="M0 0 C2.05968501 1.5441618 2.89049941 2.42267625 3.3742218 4.97302246 C3.37359238 5.72120239 3.37296295 6.46938232 3.37231445 7.24023438 C3.38165764 8.51670837 3.38165764 8.51670837 3.39118958 9.81896973 C3.38197983 10.73464722 3.37277008 11.65032471 3.36328125 12.59375 C3.36402901 14.0083551 3.36402901 14.0083551 3.36479187 15.45153809 C3.3624514 17.44541531 3.35272445 19.43929549 3.33618164 21.43310547 C3.31259093 24.48822397 3.31562071 27.54246984 3.32226562 30.59765625 C3.31668882 32.53385938 3.30957892 34.47005883 3.30078125 36.40625 C3.30214836 37.77976624 3.30214836 37.77976624 3.30354309 39.18103027 C3.29401108 40.03201294 3.28447906 40.88299561 3.2746582 41.75976562 C3.27005081 42.50794556 3.26544342 43.25612549 3.26069641 44.02697754 C3 46 3 46 1 49 C-0.80134583 49.39440918 -0.80134583 49.39440918 -3.00317383 49.41992188 C-3.82775589 49.43583374 -4.65233795 49.45174561 -5.50190735 49.46813965 C-6.84094368 49.46844177 -6.84094368 49.46844177 -8.20703125 49.46875 C-9.58334969 49.48017029 -9.58334969 49.48017029 -10.98747253 49.49182129 C-12.9318062 49.50264029 -14.87619806 49.50546811 -16.82055664 49.50097656 C-19.79087026 49.50000706 -22.75857726 49.54154749 -25.72851562 49.5859375 C-27.61718211 49.59114654 -29.50585758 49.59383266 -31.39453125 49.59375 C-32.28114944 49.61014526 -33.16776764 49.62654053 -34.08125305 49.64343262 C-38.549699 49.59357789 -40.39897665 49.47851119 -44.00146484 46.61035156 C-48.51678287 40.7127483 -51.95888855 34.63899678 -51.3984375 27.01953125 C-50.05729405 20.22177472 -44.5453905 16.7435946 -39.18359375 13.01953125 C-28.04047439 5.95082854 -13.64491626 -1.80215875 0 0 Z " fill="#FD004F" transform="translate(247,200)"/>
<path d="M0 0 C14.72140622 2.82134016 30.42579289 9.45430968 40.6484375 20.69921875 C43.23399297 24.98850117 43.48485611 28.81049621 42.6484375 33.69921875 C38.04586609 45.74361016 38.04586609 45.74361016 32.6484375 48.69921875 C29.47997424 49.14786159 26.33627946 49.11941749 23.140625 49.09765625 C22.21879425 49.10052643 21.2969635 49.10339661 20.34719849 49.10635376 C18.40219507 49.10839248 16.45717106 49.10287604 14.51220703 49.09033203 C11.52720662 49.07423907 8.54355275 49.09020599 5.55859375 49.109375 C3.66926783 49.10739325 1.77994276 49.103551 -0.109375 49.09765625 C-1.45311691 49.10676529 -1.45311691 49.10676529 -2.82400513 49.11605835 C-4.06571976 49.10187363 -4.06571976 49.10187363 -5.33251953 49.08740234 C-6.4269487 49.08382217 -6.4269487 49.08382217 -7.54348755 49.08016968 C-9.3515625 48.69921875 -9.3515625 48.69921875 -11.3515625 45.69921875 C-11.61225891 43.72619629 -11.61225891 43.72619629 -11.6262207 41.45898438 C-11.64051872 40.18251038 -11.64051872 40.18251038 -11.65510559 38.88024902 C-11.65419418 37.96457153 -11.65328278 37.04889404 -11.65234375 36.10546875 C-11.65877144 34.69086365 -11.65877144 34.69086365 -11.66532898 33.24768066 C-11.67107182 31.25383304 -11.67157288 29.25996446 -11.66723633 27.26611328 C-11.66407459 24.21090098 -11.68754226 21.15665517 -11.71289062 18.1015625 C-11.71516339 16.16536581 -11.71586722 14.22916651 -11.71484375 12.29296875 C-11.7240535 11.37729126 -11.73326324 10.46161377 -11.74275208 9.51818848 C-11.73652328 8.66720581 -11.73029449 7.81622314 -11.72387695 6.93945312 C-11.72450638 6.19127319 -11.7251358 5.44309326 -11.7257843 4.67224121 C-10.51707761 -1.7004646 -5.09410164 -0.57354897 0 0 Z " fill="#FD004F" transform="translate(273.3515625,200.30078125)"/>
<path d="M0 0 C0.99 0.33 1.98 0.66 3 1 C3.12519644 5.88882486 3.21507557 10.77668253 3.2746582 15.66674805 C3.29953915 17.3241403 3.3334573 18.98142594 3.37719727 20.63842773 C3.71619308 33.82735914 2.8044508 44.62507942 -6.0625 55.1875 C-11.25390462 60.49213995 -16.85577064 65.82085702 -23 70 C-24.32 70 -25.64 70 -27 70 C-27.10012648 65.78660063 -27.17204874 61.57386186 -27.21972656 57.35961914 C-27.23963609 55.93111076 -27.26677429 54.50268162 -27.30175781 53.07446289 C-27.77465437 33.24757934 -20.19906448 22.17600311 -7 8 C-4.64698252 5.3502432 -2.31882383 2.67970039 0 0 Z " fill="#FC8464" transform="translate(355,228)"/>
<path d="M0 0 C4.18502942 1.60426128 6.81302642 4.692648 9.75 7.9375 C10.27787109 8.51725586 10.80574219 9.09701172 11.34960938 9.69433594 C21.10292875 20.55841702 29.15922123 31.15001874 29.09765625 46.171875 C29.0962413 46.8542926 29.09482635 47.53671021 29.09336853 48.23980713 C29.08779084 50.40991684 29.07524254 52.5799217 29.0625 54.75 C29.05748211 56.22525892 29.05291971 57.70051947 29.04882812 59.17578125 C29.03782875 62.78388798 29.02057953 66.39193375 29 70 C25.51099204 69.47432528 23.3299861 68.8394047 20.66015625 66.5234375 C20.07169922 66.01683594 19.48324219 65.51023437 18.87695312 64.98828125 C18.27818359 64.45589844 17.67941406 63.92351562 17.0625 63.375 C16.17014648 62.61123047 16.17014648 62.61123047 15.25976562 61.83203125 C9.7009068 56.98397732 4.26416363 51.93528536 1.6875 44.875 C1.38199219 44.06804687 1.07648438 43.26109375 0.76171875 42.4296875 C-0.84551048 37.30303836 -1.14795851 32.45749815 -1.1328125 27.109375 C-1.13376923 26.36415588 -1.13472595 25.61893677 -1.13571167 24.85113525 C-1.13638946 23.28454503 -1.13456327 21.71795195 -1.13037109 20.15136719 C-1.12498675 17.74407744 -1.13034509 15.33697171 -1.13671875 12.9296875 C-1.13605849 11.40624959 -1.13477841 9.88281179 -1.1328125 8.359375 C-1.13483673 7.63651306 -1.13686096 6.91365112 -1.13894653 6.16888428 C-1.1149722 1.1149722 -1.1149722 1.1149722 0 0 Z " fill="#FC8464" transform="translate(155,228)"/>
<path d="M0 0 C1.796875 0.78125 1.796875 0.78125 2.796875 1.78125 C3.10677269 5.10506299 3.07551378 8.44479153 3.109375 11.78125 C3.13837891 12.70292969 3.16738281 13.62460937 3.19726562 14.57421875 C3.29739041 25.49552175 -0.91276507 32.06280844 -8.203125 39.78125 C-9.18784083 40.89714769 -10.16936591 42.01586562 -11.1484375 43.13671875 C-12.20784545 44.33116207 -13.2677434 45.52517096 -14.328125 46.71875 C-14.83085937 47.29915039 -15.33359375 47.87955078 -15.8515625 48.47753906 C-18.07906345 50.94391018 -19.79648545 52.63238053 -22.9453125 53.78515625 C-25.203125 53.78125 -25.203125 53.78125 -27.203125 51.78125 C-27.65935813 48.26034689 -27.52709662 44.70327475 -27.515625 41.15625 C-27.53173828 40.18300781 -27.54785156 39.20976562 -27.56445312 38.20703125 C-27.57062215 29.03985384 -25.32928776 21.75075464 -19.203125 14.78125 C-17.32446009 12.9806915 -15.39152476 11.29253313 -13.390625 9.62890625 C-11.82831596 8.30931308 -10.31149923 6.93508541 -8.828125 5.52734375 C-8.044375 4.78613281 -7.260625 4.04492188 -6.453125 3.28125 C-5.73640625 2.5903125 -5.0196875 1.899375 -4.28125 1.1875 C-2.203125 -0.21875 -2.203125 -0.21875 0 0 Z " fill="#FB8464" transform="translate(355.203125,290.21875)"/>
<path d="M0 0 C3.93103827 0.24411158 6.04412475 2.5847913 8.8125 5.1875 C11.75345928 7.9251871 14.68940312 10.59775713 17.8125 13.125 C23.25189079 17.78183692 26.71486404 22.86550392 28 30 C28.27465891 33.77522763 28.2798125 37.52879703 28.25 41.3125 C28.25773437 42.31345703 28.26546875 43.31441406 28.2734375 44.34570312 C28.27085937 45.30025391 28.26828125 46.25480469 28.265625 47.23828125 C28.26336914 48.10493408 28.26111328 48.97158691 28.25878906 49.86450195 C28 52 28 52 26 54 C21.57925715 53.77235377 19.60431099 52.07276771 16.625 48.9375 C15.84898437 48.12410156 15.07296875 47.31070313 14.2734375 46.47265625 C13.52320313 45.65667969 12.77296875 44.84070313 12 44 C11.35289062 43.29746094 10.70578125 42.59492188 10.0390625 41.87109375 C1.43675865 32.27332679 -2.35790314 25.39619973 -2.25 12.25 C-2.25773438 11.29222656 -2.26546875 10.33445312 -2.2734375 9.34765625 C-2.27085937 8.43371094 -2.26828125 7.51976562 -2.265625 6.578125 C-2.26336914 5.74700195 -2.26111328 4.91587891 -2.25878906 4.05957031 C-2 2 -2 2 0 0 Z " fill="#FB8464" transform="translate(156,290)"/>
<path d="M0 0 C5.20753928 0.96226269 7.76017751 3.974766 11 8 C16.70606237 16.52176417 20.53540339 24.99873839 23 35 C23.29777344 36.1446875 23.59554688 37.289375 23.90234375 38.46875 C27.93376007 55.26322167 25.83731688 67.33150272 17 82 C15.68 82 14.36 82 13 82 C12.9906543 80.68507568 12.98130859 79.37015137 12.97167969 78.01538086 C12.93135572 73.06681277 12.86548586 68.11883908 12.79248047 63.1706543 C12.76451404 61.04215212 12.74318054 58.91355079 12.72900391 56.78491211 C12.61384777 40.45960994 11.42594544 26.52472876 3.75 11.8125 C0 4.49202128 0 4.49202128 0 0 Z " fill="#9CA7CA" transform="translate(461,175)"/>
<path d="M0 0 C0.99 0 1.98 0 3 0 C2.43149201 4.61739413 1.15660655 8.20060445 -0.875 12.375 C-6.3580833 23.94456812 -9.25967813 34.11424532 -9.4140625 46.94140625 C-9.43342865 47.94968979 -9.4527948 48.95797333 -9.4727478 49.99681091 C-9.53204433 53.18529062 -9.57872769 56.37380741 -9.625 59.5625 C-9.6632258 61.73764507 -9.70228014 63.91277575 -9.7421875 66.08789062 C-9.83770413 71.39179836 -9.92289436 76.69579435 -10 82 C-11.32 82 -12.64 82 -14 82 C-15.31746333 79.41909233 -16.62909617 76.83549542 -17.9375 74.25 C-18.31068359 73.52039063 -18.68386719 72.79078125 -19.06835938 72.0390625 C-19.42607422 71.33007812 -19.78378906 70.62109375 -20.15234375 69.890625 C-20.48226318 69.24125977 -20.81218262 68.59189453 -21.15209961 67.92285156 C-26.8149726 55.08070136 -21.91608133 38.12773937 -17.40625 25.609375 C-13.40841629 15.34826848 -7.7639209 7.7639209 0 0 Z " fill="#9CA7CA" transform="translate(48,175)"/>
<path d="M0 0 C0.66 0 1.32 0 2 0 C3.32304941 20.01724753 -3.33240003 34.37585891 -16.421875 49.63671875 C-18 51 -18 51 -21 51 C-19.41576612 45.80769421 -17.22356903 41.03174433 -14.9375 36.125 C-10.79293771 27.10784584 -7.22992677 17.92953631 -3.83178711 8.60791016 C-3.47479736 7.62999512 -3.11780762 6.65208008 -2.75 5.64453125 C-2.43546875 4.77159424 -2.1209375 3.89865723 -1.796875 2.99926758 C-1 1 -1 1 0 0 Z " fill="#9AA6C8" transform="translate(110,195)"/>
<path d="M0 0 C3 1 3 1 3.9921875 2.93579102 C4.28351563 3.78326904 4.57484375 4.63074707 4.875 5.50390625 C5.21539307 6.46151855 5.55578613 7.41913086 5.90649414 8.40576172 C6.26735107 9.44748535 6.62820801 10.48920898 7 11.5625 C10.67307883 21.80857941 14.88822479 31.67044143 19.54492188 41.50610352 C19.99544922 42.46057373 20.44597656 43.41504395 20.91015625 44.3984375 C21.51549194 45.66179932 21.51549194 45.66179932 22.13305664 46.95068359 C23 49 23 49 23 51 C17.52793068 50.08402318 15.14965977 46.28862765 12 42 C2.9842934 27.94560877 -0.70245291 16.64423154 0 0 Z " fill="#9AA6C9" transform="translate(400,195)"/>
</svg>
