<?xml version="1.0" encoding="UTF-8"?>
<svg version="1.1" xmlns="http://www.w3.org/2000/svg" width="512" height="512">
<path d="M0 0 C0.7101123 0.13015503 1.42022461 0.26031006 2.15185547 0.39440918 C10.82897405 2.02554158 10.82897405 2.02554158 14.375 3.1875 C16.37443127 6.18664691 16.65664603 7.06191345 16.91137695 10.46850586 C16.98454132 11.33082321 17.05770569 12.19314056 17.13308716 13.08158875 C17.20905121 14.0124379 17.28501526 14.94328705 17.36328125 15.90234375 C18.2460141 37.73029234 18.2460141 37.73029234 27.5234375 56.23828125 C31.77714346 58.92753352 36.42357732 60.46056132 41.19726562 61.98681641 C46.71910294 64.07320208 51.56261608 67.33355636 56.52053833 70.4911499 C59.48195095 72.36496118 62.48298683 74.1729617 65.48046875 75.98828125 C66.6517449 76.70098149 67.82280904 77.41403029 68.99365234 78.12744141 C70.10949707 78.80726074 71.2253418 79.48708008 72.375 80.1875 C73.40963379 80.81962402 74.44426758 81.45174805 75.51025391 82.10302734 C85.02240995 87.9001554 94.37806512 93.45883318 104.67602539 97.73779297 C127.41939576 107.24466804 147.44016846 122.95877406 157 146.25 C165.24934332 169.00863849 167.55189264 194.39638937 163.76171875 218.328125 C162.71197118 224.82173293 162.71197118 224.82173293 165 230.73046875 C166.5408878 232.37033719 168.13320233 233.96294507 169.765625 235.51171875 C174.74547011 240.61829645 177.94817288 246.97848052 181.375 253.1875 C182.00535156 254.3115625 182.63570313 255.435625 183.28515625 256.59375 C192.12888053 273.23161371 196.37138072 291.5597197 198.375 310.1875 C198.49976967 311.3044223 198.49976967 311.3044223 198.62705994 312.44390869 C202.43812814 347.67151203 202.43812814 347.67151203 194.78245544 358.26374817 C188.92956575 365.31374411 181.71945877 370.78764082 174.375 376.1875 C167.09619601 382.09451062 160.63130588 388.85818774 154.05859375 395.52441406 C152.66867409 396.93232315 151.27579023 398.33730398 149.8828125 399.7421875 C149.06441895 400.57218262 148.24602539 401.40217773 147.40283203 402.25732422 C144.05294615 405.44588644 141.90121174 405.28589591 137.375 405.1875 C127.90639174 388.67751554 119.03772875 368.99598263 119.41015625 349.5859375 C119.57046964 336.73669241 117.14482434 330.39581556 108.375 321.1875 C106.97924602 319.43297827 105.60138321 317.66392122 104.25 315.875 C103.29203899 314.64554313 102.33386875 313.41624903 101.375 312.1875 C98.44352989 316.26027369 95.52554128 320.34207199 92.62304688 324.43554688 C91.59717561 325.87561968 90.55818158 327.30633532 89.515625 328.734375 C82.138023 339.15428711 79.1461258 350.97724995 80.99584961 363.67602539 C81.32599956 365.54819995 81.67037894 367.41790889 82.02734375 369.28515625 C82.39731317 371.3905425 82.76582826 373.49618471 83.13305664 375.60205078 C83.32674835 376.68778381 83.52044006 377.77351685 83.72000122 378.89215088 C86.65396037 395.51968243 89.19375943 411.89576827 88.9375 428.8125 C88.92749969 429.48773712 88.91749939 430.16297424 88.90719604 430.8586731 C88.84583327 434.02699689 88.72528841 437.18442453 88.55126953 440.34863281 C88.42210616 443.1616036 88.38478365 445.89663969 88.42919922 448.70605469 C88.46374341 459.72630895 88.46374341 459.72630895 85.74853516 463.37036133 C83.36879114 465.01349218 81.04833274 466.08632454 78.375 467.1875 C76.39216138 468.22072513 74.41182382 469.25875969 72.43359375 470.30078125 C70.23167048 471.37769497 68.02437228 472.44367133 65.8125 473.5 C64.63228271 474.06468994 63.45206543 474.62937988 62.23608398 475.21118164 C35.57949663 487.82577685 5.18678658 499.14755396 -24.625 500.1875 C-26.3265625 500.26484375 -26.3265625 500.26484375 -28.0625 500.34375 C-63.11277438 501.19174051 -97.08415188 488.93643284 -128.25 473.9375 C-128.85942444 473.64544678 -129.46884888 473.35339355 -130.09674072 473.05249023 C-133.98452341 471.17820502 -137.81554768 469.21578178 -141.625 467.1875 C-142.54692139 466.71900635 -143.46884277 466.2505127 -144.41870117 465.76782227 C-150.11185989 462.53808732 -150.11185989 462.53808732 -151.40917969 459.12353516 C-151.75410799 456.57633096 -151.76967973 454.19422243 -151.6875 451.625 C-151.68834595 450.17335449 -151.68834595 450.17335449 -151.68920898 448.69238281 C-151.68804845 446.59611871 -151.66996323 444.49980939 -151.63671875 442.40380859 C-151.62530223 439.27044954 -151.75902744 436.17851295 -151.9375 433.05078125 C-152.78548103 414.03649253 -149.71791555 395.88353131 -146.47094727 377.19824219 C-146.28726089 376.13589859 -146.10357452 375.07355499 -145.9143219 373.97901917 C-145.56512807 371.97685268 -145.20899635 369.9758787 -144.84458923 367.97642517 C-142.28207511 353.44739963 -144.46004041 340.65442755 -152.625 328.1875 C-155.52903267 324.10696179 -158.54419362 320.13680037 -161.625 316.1875 C-162.62818608 314.85656218 -163.62955642 313.52423852 -164.625 312.1875 C-167.95678034 316.40582496 -167.95678034 316.40582496 -171.26879883 320.63964844 C-173.36068567 323.32771795 -175.44660259 325.98380996 -177.69140625 328.546875 C-181.38946882 332.85979616 -182.05727628 335.55901956 -181.72265625 341.1875 C-180.99889984 363.42129703 -189.29652594 386.39371815 -200.625 405.1875 C-204.36935969 405.5822202 -206.11312721 405.54864194 -209.23828125 403.34375 C-210.12902344 402.4671875 -211.01976562 401.590625 -211.9375 400.6875 C-212.99215004 399.67053406 -214.0468399 398.65360943 -215.1015625 397.63671875 C-215.94895996 396.80406494 -215.94895996 396.80406494 -216.81347656 395.95458984 C-219.39869255 393.43278481 -222.03778377 390.97013236 -224.67431641 388.50219727 C-229.09099182 384.36641797 -233.48631707 380.20788067 -237.88476562 376.05273438 C-239.38475081 374.63586526 -240.88515563 373.21944026 -242.38598633 371.8034668 C-243.78001778 370.48824543 -245.17316728 369.17208825 -246.56518555 367.85473633 C-247.21269775 367.2439624 -247.86020996 366.63318848 -248.52734375 366.00390625 C-249.1728418 365.36501465 -249.81833984 364.72612305 -250.48339844 364.06787109 C-252.60049767 362.08118156 -252.60049767 362.08118156 -255.32128906 360.65478516 C-258.80095015 358.41997622 -260.50790267 356.78251742 -262.625 353.1875 C-264.20769603 345.64952313 -263.80584254 337.82033506 -263.59912109 330.16357422 C-263.50137385 326.48914477 -263.47621109 322.82013645 -263.46484375 319.14453125 C-263.14261884 285.59982643 -255.37195058 255.75923613 -231.625 231.1875 C-230.90449463 230.7322998 -230.18398926 230.27709961 -229.44165039 229.80810547 C-227.38972895 228.35172708 -227.38972895 228.35172708 -227.44433594 226.03100586 C-227.58129883 225.18417236 -227.71826172 224.33733887 -227.859375 223.46484375 C-231.88617495 192.34912688 -229.40333444 153.96507034 -210 128.1875 C-197.67277945 113.45553757 -182.75127159 104.29977441 -165.4609375 96.42578125 C-155.12770557 91.68006098 -145.35671656 86.35875294 -135.6875 80.375 C-133.24177213 78.87271468 -130.79317541 77.37515395 -128.34375 75.87890625 C-127.71815689 75.49647766 -127.09256378 75.11404907 -126.44801331 74.72003174 C-119.24665245 70.32894267 -111.97107166 66.0653735 -104.6875 61.8125 C-104.06376495 61.44828949 -103.44002991 61.08407898 -102.7973938 60.70883179 C-100.00256883 59.07738668 -97.20714862 57.44699527 -94.41040039 55.81884766 C-93.49121826 55.28050293 -92.57203613 54.7421582 -91.625 54.1875 C-90.71959473 53.82897949 -89.81418945 53.47045898 -88.88134766 53.10107422 C-85.16154722 49.9463679 -85.26460522 45.8237278 -84.67578125 41.15625 C-84.53222702 40.16878784 -84.38867279 39.18132568 -84.24076843 38.16394043 C-83.78532169 35.00768937 -83.36004625 31.84830927 -82.9375 28.6875 C-82.4992333 25.52765712 -82.05468239 22.36888324 -81.60209656 19.21105957 C-81.32211042 17.24583531 -81.05131574 15.2792753 -80.79060364 13.31140137 C-80.66674789 12.4203772 -80.54289215 11.52935303 -80.4152832 10.61132812 C-80.3104512 9.82761841 -80.2056192 9.04390869 -80.09761047 8.2364502 C-79.625 6.1875 -79.625 6.1875 -77.625 3.1875 C-72.95622461 1.6576401 -68.0786749 0.88503793 -63.25 0 C-62.53183105 -0.13257202 -61.81366211 -0.26514404 -61.07373047 -0.4017334 C-40.31653217 -4.15307587 -20.70755819 -3.82255856 0 0 Z " fill="#494F69" transform="translate(287.625,7.8125)"/>
<path d="M0 0 C6.39473218 1.63586172 10.70298268 10.35385268 14.3125 15.5625 C15.35931529 17.05863553 16.40619215 18.55472798 17.453125 20.05078125 C17.98486328 20.81342285 18.51660156 21.57606445 19.06445312 22.36181641 C21.71919464 26.16582779 24.39029074 29.95824905 27.0625 33.75 C27.53768066 34.42724121 28.01286133 35.10448242 28.50244141 35.80224609 C31.42743261 39.95698177 34.44383256 44.01719715 37.57275391 48.02124023 C38.6875 49.6875 38.6875 49.6875 38.6875 51.6875 C39.47253906 51.90664062 40.25757813 52.12578125 41.06640625 52.3515625 C45.86896851 54.12338159 50.16487319 56.5668211 54.625 59.0625 C63.59149732 64.02420411 72.62557226 68.82834351 81.74584961 73.50146484 C97.77007494 81.77007494 97.77007494 81.77007494 101.6875 85.6875 C102.3125 88.5 102.3125 88.5 101.6875 91.6875 C99.30843252 93.82137111 96.48868581 95.17679759 93.6875 96.6875 C73.84468932 108.45145205 64.71843788 125.25445433 58.875 147.0625 C56.79738698 155.39813527 56.5633216 163.91737935 56.6171875 172.46484375 C56.60860666 174.29623348 56.59813201 176.12761514 56.5859375 177.95898438 C56.56926428 180.79416694 56.56252242 183.62750614 56.58789062 186.46264648 C56.67688021 198.1293829 56.51642505 206.40654692 48.6875 215.6875 C47.57762254 217.27186219 46.48098474 218.86558969 45.3984375 220.46875 C44.28855471 222.04314662 43.17651717 223.61602609 42.0625 225.1875 C37.43195289 231.76030781 32.83968671 238.35556535 28.3125 245 C23.32334601 252.31376058 18.29937284 259.60267297 13.25 266.875 C12.58758301 267.83124268 11.92516602 268.78748535 11.24267578 269.77270508 C7.49603764 275.16093107 3.67199606 280.47242946 -0.3125 285.6875 C-1.9625 285.3575 -3.6125 285.0275 -5.3125 284.6875 C-5.40605641 262.0603521 -5.4765346 239.43323622 -5.51974869 216.80593395 C-5.54034954 206.29902355 -5.56842275 195.79223352 -5.61425781 185.28540039 C-5.65420144 176.12467961 -5.67995081 166.96404604 -5.68885398 157.8032406 C-5.69405599 152.95532291 -5.70623083 148.10765465 -5.73542023 143.25981712 C-5.76270835 138.69043151 -5.77091808 134.12139647 -5.76493073 129.5519371 C-5.766025 127.88109109 -5.77389877 126.21023251 -5.7893219 124.53945732 C-5.92017125 109.62446209 -3.3485152 98.79761006 7.3125 87.8125 C8.72507856 86.39053554 10.17438862 85.001979 11.6875 83.6875 C12.3475 83.6875 13.0075 83.6875 13.6875 83.6875 C13.6875 82.6975 13.6875 81.7075 13.6875 80.6875 C12.81931641 80.31625 12.81931641 80.31625 11.93359375 79.9375 C3.41423321 75.19629065 -1.65819848 65.20583523 -4.35668945 56.2043457 C-5.61119452 51.06786947 -5.6182063 46.03015331 -5.61328125 40.765625 C-5.61756638 39.74321716 -5.6218515 38.72080933 -5.62626648 37.66741943 C-5.63198111 35.51933531 -5.63253133 33.37123184 -5.62817383 31.22314453 C-5.62499622 27.93358764 -5.64856996 24.64491585 -5.67382812 21.35546875 C-5.67609961 19.26302196 -5.67680532 17.17057277 -5.67578125 15.078125 C-5.684991 14.09579895 -5.69420074 13.1134729 -5.70368958 12.10137939 C-5.69434639 10.72910187 -5.69434639 10.72910187 -5.68481445 9.32910156 C-5.68544388 8.5271637 -5.6860733 7.72522583 -5.6867218 6.89898682 C-5.07296123 3.27193084 -3.54839589 1.05492851 0 0 Z " fill="#FE004F" transform="translate(264.3125,20.3125)"/>
<path d="M0 0 C2.625 0.25 2.625 0.25 4.26281738 1.47036743 C6.02014643 3.76624169 6.01619051 5.09943853 6.04492188 7.97412109 C6.06878967 9.41239761 6.06878967 9.41239761 6.09313965 10.87973022 C6.09334106 11.91715363 6.09354248 12.95457703 6.09375 14.0234375 C6.10517029 15.63552597 6.10517029 15.63552597 6.11682129 17.28018188 C6.12764006 19.56160155 6.13046822 21.84307082 6.12597656 24.12451172 C6.12501329 27.57736949 6.16642699 31.02793721 6.2109375 34.48046875 C6.30945695 52.59998772 3.79642241 65.04575796 -9.25 78.25 C-10.28663162 79.25521854 -11.32641503 80.25725683 -12.375 81.25 C-10.26323762 84.09275705 -8.33152427 86.28307936 -5.5 88.4375 C0.26227298 93.05901843 3.65178005 100.27232646 5.625 107.25 C5.79893752 109.72556942 5.86902913 112.20946162 5.86550903 114.69113159 C5.86721788 115.41904691 5.86892673 116.14696223 5.87068737 116.89693558 C5.87396915 119.32445846 5.86300038 121.751702 5.85205078 124.17919922 C5.85148638 125.92390435 5.85180379 127.66860996 5.85293579 129.41331482 C5.85350919 134.14218929 5.84175693 138.87096212 5.82778788 143.59981298 C5.81527839 148.54457425 5.81410984 153.4893379 5.81173706 158.43411255 C5.80552294 167.79437534 5.78911302 177.15459136 5.76903808 186.51483357 C5.74667699 197.17256265 5.73568512 207.83029398 5.72564721 218.48804069 C5.70474675 240.40871988 5.66957206 262.32935699 5.625 284.25 C3.975 284.58 2.325 284.91 0.625 285.25 C-5.41841193 276.8874458 -11.32426822 268.44160803 -17.13354492 259.91479492 C-21.50869066 253.49930767 -25.93401373 247.12004963 -30.375 240.75 C-32.38927302 237.85572359 -34.40284434 234.96096081 -36.41601562 232.06591797 C-37.70531174 230.21263514 -38.99564874 228.36007592 -40.28710938 226.50830078 C-42.07166972 223.94663868 -43.8492122 221.38024834 -45.625 218.8125 C-46.14964844 218.06226563 -46.67429688 217.31203125 -47.21484375 216.5390625 C-47.70597656 215.82621094 -48.19710937 215.11335937 -48.703125 214.37890625 C-49.1249707 213.77119385 -49.54681641 213.16348145 -49.98144531 212.53735352 C-53.85308307 206.18252272 -55.97683952 201.55769294 -55.58984375 194.03515625 C-55.54950868 192.45762281 -55.51007397 190.88006614 -55.47143555 189.30249023 C-55.44447601 188.48738983 -55.41751648 187.67228943 -55.38973999 186.83248901 C-54.74948577 165.9439106 -56.19498715 145.41431685 -65.375 126.25 C-65.99955078 124.86748047 -65.99955078 124.86748047 -66.63671875 123.45703125 C-72.88632903 110.76083157 -82.88349814 101.29185248 -95.5859375 95.1875 C-99.18610069 93.42415476 -100.24365731 92.61775953 -101.625 88.75 C-101.375 85.25 -101.375 85.25 -99.23803711 83.234375 C-96.34206959 81.22717589 -93.45916907 79.59154126 -90.31640625 78 C-89.73895157 77.70503128 -89.16149689 77.41006256 -88.56654358 77.1061554 C-87.33170923 76.47578527 -86.09564578 75.84781792 -84.85845947 75.22207642 C-81.59570272 73.57100104 -78.34289751 71.90055972 -75.08984375 70.23046875 C-74.43661133 69.89548874 -73.78337891 69.56050873 -73.11035156 69.21537781 C-67.02488989 66.08678332 -61.00106109 62.85006944 -55 59.5625 C-54.12287354 59.08232422 -53.24574707 58.60214844 -52.34204102 58.10742188 C-50.73296089 57.22283003 -49.12730011 56.33197659 -47.52587891 55.43359375 C-46.17555238 54.69053098 -44.80937341 53.97489915 -43.42333984 53.30078125 C-38.2833935 50.71057207 -35.81363193 47.30356556 -32.75 42.625 C-31.70958166 41.0942029 -30.66787047 39.56428386 -29.625 38.03515625 C-28.82642578 36.85203857 -28.82642578 36.85203857 -28.01171875 35.64501953 C-25.33505642 31.72824485 -22.5413162 27.89798134 -19.75 24.0625 C-15.25625594 17.86226235 -10.7869954 11.64558477 -6.35693359 5.3996582 C-2.72028751 0.28634605 -2.72028751 0.28634605 0 0 Z " fill="#FE004F" transform="translate(245.375,20.75)"/>
<path d="M0 0 C2.50860777 1.91137008 4.00088769 3.69076189 5.76489258 6.29785156 C6.38831543 7.20752686 7.01173828 8.11720215 7.65405273 9.05444336 C8.64284424 10.52844604 8.64284424 10.52844604 9.65161133 12.03222656 C11.08234491 14.12745348 12.51334189 16.22250056 13.94458008 18.31738281 C15.03778564 19.92830811 15.03778564 19.92830811 16.15307617 21.57177734 C19.55238683 26.56406404 23.00876792 31.51613814 26.46411133 36.46972656 C27.78583038 38.36939347 29.10744562 40.2691326 30.42895508 42.16894531 C34.28802252 47.71147917 38.15477663 53.24860495 42.02661133 58.78222656 C42.5907373 59.58877686 43.15486328 60.39532715 43.73608398 61.22631836 C44.5353833 62.36774292 44.5353833 62.36774292 45.35083008 63.53222656 C45.85388672 64.25321533 46.35694336 64.9742041 46.87524414 65.71704102 C47.83583225 67.0722136 48.8139514 68.41516286 49.81079102 69.74389648 C52.85375048 73.81692271 54.37718389 76.34578903 54.07739258 81.39941406 C52.47202331 86.58076461 48.10351759 90.0635187 44.33911133 93.78222656 C42.78570711 95.47989385 41.24370704 97.18807682 39.71411133 98.90722656 C38.9690332 99.73480469 38.22395508 100.56238281 37.45629883 101.41503906 C34.99506399 104.16689942 32.56660803 106.94577298 30.14379883 109.73144531 C28.10952992 112.04311453 26.03688823 114.31754086 23.96411133 116.59472656 C20.91052266 119.97163638 17.99481928 123.41439788 15.15161133 126.96972656 C10.26005278 133.02184822 4.94087641 138.63859769 -0.39526367 144.29785156 C-3.91850961 148.03903023 -7.33290368 151.86621415 -10.66088867 155.78222656 C-11.65088867 155.45222656 -12.64088867 155.12222656 -13.66088867 154.78222656 C-14.30409818 152.47405847 -14.78355965 150.2551088 -15.22338867 147.90722656 C-18.36342097 133.73144588 -26.39361785 121.68448468 -34.03588867 109.53222656 C-49.85854985 84.34470335 -67.64402281 50.95750445 -61.66088867 19.78222656 C-58.55750228 14.66967567 -55.83379007 13.05624999 -50.12402344 11.57763672 C-48.84289673 11.27672119 -48.84289673 11.27672119 -47.53588867 10.96972656 C-37.41472503 8.36161894 -27.5840427 5.14299867 -17.72485352 1.67749023 C-16.63253418 1.30213135 -15.54021484 0.92677246 -14.41479492 0.54003906 C-13.44872314 0.20117676 -12.48265137 -0.13768555 -11.48730469 -0.48681641 C-7.20069352 -1.59540359 -4.07906571 -1.86681161 0 0 Z " fill="#FE004F" transform="translate(184.660888671875,233.2177734375)"/>
<path d="M0 0 C2.49063538 0.67873885 4.85268797 1.40671614 7.27734375 2.265625 C7.96574844 2.5002948 8.65415314 2.7349646 9.36341858 2.97674561 C11.5578367 3.72592085 13.7478622 4.48697739 15.9375 5.25 C18.79858841 6.24086152 21.6618102 7.2251933 24.52734375 8.203125 C25.23006912 8.44380203 25.93279449 8.68447906 26.65681458 8.93244934 C32.69403106 10.96763443 38.79550853 12.59086688 44.98291016 14.10131836 C48.27427529 15.08169666 50.58707578 15.91807971 52.40234375 18.89453125 C59.00206973 42.14454631 47.14798519 73.80276052 36 94 C32.5273858 99.93493273 28.92348632 105.78816106 25.32055664 111.64453125 C16.54400184 125.91889486 8.3242609 139.40350339 5 156 C1 156 1 156 -1.55078125 153.65625 C-2.48270819 152.61421065 -3.40270999 151.56142168 -4.3125 150.5 C-4.80105469 149.94828125 -5.28960937 149.3965625 -5.79296875 148.828125 C-7.20624031 147.22791276 -8.60486639 145.61602539 -10 144 C-10.62261719 143.2884375 -11.24523437 142.576875 -11.88671875 141.84375 C-12.96909876 140.60674427 -14.04849466 139.36712154 -15.125 138.125 C-17.54550075 135.38176582 -20.02200642 132.69115432 -22.5 130 C-26.10012756 126.09018405 -29.64417605 122.14133532 -33.125 118.125 C-35.54550175 115.38176469 -38.02205946 112.69120421 -40.5 110 C-44.15961312 106.02414689 -47.79282372 102.03289545 -51.30078125 97.921875 C-52.54417543 96.5155533 -53.84180391 95.15667933 -55.16796875 93.828125 C-55.89628906 93.08046875 -56.62460937 92.3328125 -57.375 91.5625 C-58.04273438 90.90378906 -58.71046875 90.24507813 -59.3984375 89.56640625 C-61.81181065 85.69912293 -62.64337567 82.55308704 -62 78 C-59.9966943 73.69792353 -57.3326454 69.9658151 -54.5625 66.125 C-53.5115918 64.60712891 -53.5115918 64.60712891 -52.43945312 63.05859375 C-49.00512699 58.12352713 -45.4683159 53.26496778 -41.921875 48.41015625 C-38.06171807 43.12029399 -34.35829382 37.73487484 -30.6875 32.3125 C-30.04304932 31.36640869 -29.39859863 30.42031738 -28.73461914 29.44555664 C-25.73527903 25.04193776 -22.74889367 20.63080453 -19.796875 16.1953125 C-19.31001221 15.47045654 -18.82314941 14.74560059 -18.3215332 13.9987793 C-17.43236525 12.67451664 -16.55007361 11.34559648 -15.67651367 10.01098633 C-11.56362383 3.91416373 -7.90529029 -0.65591553 0 0 Z " fill="#FE004F" transform="translate(334,232)"/>
<path d="M0 0 C4.77019482 0.86420693 6.6555344 3.50373023 9.71484375 7.09375 C10.57396362 8.06115112 10.57396362 8.06115112 11.45043945 9.0480957 C13.07523934 10.88353063 14.67850295 12.73570964 16.27734375 14.59375 C16.9528125 15.36074219 17.62828125 16.12773437 18.32421875 16.91796875 C19.40185693 18.14185782 20.47368124 19.37089543 21.5390625 20.60546875 C23.74990864 23.13427928 26.01330818 25.61247564 28.27734375 28.09375 C31.12258603 31.21282011 33.94933955 34.34130391 36.71484375 37.53125 C39.67617885 40.9406358 42.71886861 44.2716931 45.77734375 47.59375 C49.41525999 51.54560744 53.00614302 55.53012313 56.5234375 59.58984375 C59.36072796 62.83155869 62.26548158 66.01232428 65.1640625 69.19921875 C76.10931008 81.60113514 72.51148751 98.16641512 71.63955688 113.95303345 C71.56514728 115.33111872 71.49670131 116.70953979 71.43441772 118.08822632 C71.34328049 120.04804734 71.22478858 122.00653652 71.10546875 123.96484375 C71.04262695 125.09849365 70.97978516 126.23214355 70.91503906 127.40014648 C69.96011713 132.18243356 67.73957034 135.44051305 63.9296875 138.4453125 C60.74139494 139.82581031 58.30799868 139.92865572 54.83984375 139.96875 C38.74161683 140.84438577 26.3114078 148.61547976 14.76171875 159.30078125 C12.20404672 161.66139993 9.61999591 163.96815504 6.96484375 166.21875 C6.18496094 166.89164063 5.40507812 167.56453125 4.6015625 168.2578125 C2.27734375 169.59375 2.27734375 169.59375 -0.390625 169.4921875 C-2.72265625 168.59375 -2.72265625 168.59375 -4.72265625 165.59375 C-4.97433853 162.70297241 -4.97433853 162.70297241 -4.97662354 159.10302734 C-4.97974352 158.44104528 -4.9828635 157.77906322 -4.98607802 157.0970211 C-4.99406783 154.87448652 -4.98773069 152.65222422 -4.98144531 150.4296875 C-4.98415474 148.8380721 -4.9877154 147.24645795 -4.99206543 145.65484619 C-5.00119742 141.32848294 -4.99764185 137.00221487 -4.99130726 132.67584991 C-4.98625146 128.15287516 -4.99093754 123.62990867 -4.99407959 119.10693359 C-4.99772046 111.51072727 -4.99291697 103.9145598 -4.98339844 96.31835938 C-4.97251365 87.53022078 -4.97603915 78.74217497 -4.98705125 69.95403862 C-4.99612068 62.41513206 -4.99741109 54.87625347 -4.99217391 47.33734322 C-4.98905231 42.83187463 -4.98865006 38.32644969 -4.99524689 33.82098389 C-5.00101472 29.58568721 -4.9970338 25.35051044 -4.98545837 21.11522675 C-4.98280877 19.55875599 -4.98358199 18.00227519 -4.9879837 16.44580841 C-4.99342885 14.32522589 -4.98661792 12.20503035 -4.97662354 10.08447266 C-4.97586948 8.89649078 -4.97511543 7.70850891 -4.97433853 6.48452759 C-4.63375115 2.57260194 -3.96500586 0.86467847 0 0 Z " fill="#9EA9CC" transform="translate(263.72265625,321.40625)"/>
<path d="M0 0 C2.9375 0.375 2.9375 0.375 4.9375 2.375 C5.18918228 5.17675781 5.18918228 5.17675781 5.19146729 8.828125 C5.19458727 9.49812531 5.19770725 10.16812561 5.20092177 10.85842896 C5.20892903 13.11404089 5.20256768 15.36938583 5.19628906 17.625 C5.19899772 19.23779458 5.20255794 20.85058792 5.20690918 22.46337891 C5.21605038 26.85171524 5.21248183 31.23995786 5.20615101 35.6282959 C5.20109995 40.2131374 5.20577996 44.79797069 5.20892334 49.3828125 C5.2125656 57.08334804 5.20775708 64.78384527 5.19824219 72.484375 C5.18735714 81.39691234 5.19088253 90.30935819 5.201895 99.22189331 C5.21096048 106.86352321 5.21225678 114.5051255 5.20701766 122.14675903 C5.20389388 126.71536764 5.20349976 131.28393319 5.21009064 135.85253906 C5.21585276 140.14691467 5.21188812 144.4411719 5.20030212 148.73553467 C5.19764944 150.31500044 5.19843094 151.89447611 5.20282745 153.47393799 C5.20826054 155.62338647 5.20147648 157.77245123 5.19146729 159.921875 C5.19071323 161.12682617 5.18995918 162.33177734 5.18918228 163.57324219 C4.9375 166.375 4.9375 166.375 2.9375 168.375 C-0.58337827 168.82478253 -2.39106458 168.84063587 -5.34375 166.79296875 C-6.0759375 166.05691406 -6.808125 165.32085937 -7.5625 164.5625 C-16.79624238 155.77308808 -25.99951741 147.90597395 -38.0625 143.375 C-38.805 143.02308594 -39.5475 142.67117188 -40.3125 142.30859375 C-44.86323807 140.76366989 -49.60726812 140.66095489 -54.38085938 140.33984375 C-59.58993813 139.87778321 -63.04714295 139.00138804 -67.0625 135.375 C-69.75714887 130.16987183 -70.56975093 125.82872242 -70.79296875 120.01953125 C-70.833116 119.2366423 -70.87326324 118.45375336 -70.91462708 117.6471405 C-71.03872411 115.16101016 -71.14431029 112.67447309 -71.25 110.1875 C-71.33154135 108.53835465 -71.41421449 106.88926485 -71.49804688 105.24023438 C-72.8066863 78.65784131 -72.8066863 78.65784131 -68.0625 72.375 C-66.40327038 70.70092933 -64.73495566 69.03585749 -63.0625 67.375 C-60.58517454 64.78861662 -58.13622223 62.17594551 -55.6875 59.5625 C-55.05328125 58.88896484 -54.4190625 58.21542969 -53.765625 57.52148438 C-49.96958942 53.47367093 -46.26482002 49.36129641 -42.62548828 45.17211914 C-40.671253 42.9251454 -38.68338754 40.71000574 -36.6875 38.5 C-35.92953125 37.65953125 -35.1715625 36.8190625 -34.390625 35.953125 C-32.83854167 34.234375 -31.28645833 32.515625 -29.734375 30.796875 C-26.33905062 27.0319915 -22.95191658 23.26306449 -19.625 19.4375 C-15.92626024 15.18438239 -12.11289816 11.03847626 -8.296875 6.890625 C-6.07216359 4.48513323 -6.07216359 4.48513323 -4.45703125 2.0703125 C-3.0625 0.375 -3.0625 0.375 0 0 Z " fill="#9EAACD" transform="translate(246.0625,321.625)"/>
<path d="M0 0 C6.50185815 4.91419512 12.14983628 10.02463162 15.5 17.5625 C15.8125 20.25 15.8125 20.25 14.5 22.5625 C11.17227197 24.71272426 7.38909923 25.87587825 3.68505859 27.22216797 C-12.52254292 33.12136242 -25.92181987 38.62211888 -34.5 54.5625 C-35.88226254 58.21562243 -36.77032209 61.71230594 -37.375 65.5625 C-39.81334862 77.77243973 -51.55830092 84.88727358 -60.76171875 92.28125 C-64.37439826 95.29095732 -67.75231475 98.52571443 -71.11328125 101.8125 C-74.03444721 103.95436964 -75.87739239 104.5625 -79.5 104.5625 C-82.57857333 102.52958002 -83.38911685 100.89721816 -84.546875 97.40234375 C-89.51650989 69.82087013 -87.70583727 44.16360615 -72.44921875 20.36328125 C-54.71678305 -4.8753117 -27.74641497 -18.60988682 0 0 Z " fill="#FE004F" transform="translate(152.5,122.4375)"/>
<path d="M0 0 C2.46886668 1.90532102 4.78074265 3.89595718 7.078125 6.00390625 C7.83351563 6.66777344 8.58890625 7.33164063 9.3671875 8.015625 C22.64767407 20.36054465 31.9605391 38.58913533 33.36572266 56.71337891 C33.47993719 60.73201983 33.49914533 64.73462048 33.453125 68.75390625 C33.44913696 69.45679779 33.44514893 70.15968933 33.44104004 70.88388062 C33.26410322 97.42326856 33.26410322 97.42326856 28.34375 102.953125 C25.05223125 104.4797087 23.51639229 104.15706125 20.078125 103.00390625 C17.62100082 101.22663348 15.52804929 99.14852725 13.390625 97.00390625 C12.16002352 95.8138453 10.92692397 94.62636238 9.69140625 93.44140625 C8.7799585 92.56355469 8.7799585 92.56355469 7.85009766 91.66796875 C3.25087988 87.34883561 -1.71601014 83.36647471 -6.79296875 79.625 C-13.55138886 74.51826361 -15.01962178 67.85839312 -16.796875 60.00390625 C-18.30449768 53.48727803 -20.12351891 48.7464675 -24.921875 44.00390625 C-25.49679687 43.40449219 -26.07171875 42.80507812 -26.6640625 42.1875 C-34.81545817 34.35742491 -45.31173456 30.62100459 -55.87084961 27.18334961 C-60.60911269 25.61063288 -64.65454883 23.60334938 -68.921875 21.00390625 C-68.73247748 13.61740279 -63.78418298 8.7989267 -58.76171875 3.89453125 C-39.99408261 -12.27258102 -20.26886357 -13.84677712 0 0 Z " fill="#FE004F" transform="translate(410.921875,122.99609375)"/>
<path d="M0 0 C16.57368402 4.01842395 34.02101389 9.85839057 43.49609375 24.84765625 C48.45574968 33.25411709 49.80603688 40.83135343 49.796875 50.48828125 C49.80116013 51.49227966 49.80544525 52.49627808 49.80986023 53.53070068 C49.8155796 55.64187874 49.81612153 57.7530765 49.81176758 59.86425781 C49.80859022 63.1012485 49.83215675 66.33733972 49.85742188 69.57421875 C49.8596933 71.6289051 49.8603991 73.6835939 49.859375 75.73828125 C49.86858475 76.70703186 49.87779449 77.67578247 49.88728333 78.67388916 C49.88105453 79.57202332 49.87482574 80.47015747 49.8684082 81.39550781 C49.86903763 82.1849176 49.86966705 82.97432739 49.87031555 83.78765869 C49.3944569 86.40714172 48.62906029 87.28603678 46.49609375 88.84765625 C40.0220212 89.51741836 34.82849464 88.0089764 28.73828125 85.92578125 C27.37825485 85.47389435 27.37825485 85.47389435 25.99075317 85.01287842 C24.08450134 84.37635971 22.18021069 83.73394027 20.27783203 83.0859375 C17.37780501 82.09993806 14.47095744 81.13658901 11.5625 80.17578125 C9.7039787 79.55211585 7.84589016 78.92715901 5.98828125 78.30078125 C5.12564667 78.01519348 4.26301208 77.72960571 3.37423706 77.43536377 C-2.7076415 75.34493653 -7.81811018 73.37635035 -11.50390625 67.84765625 C-12.90464399 60.4301132 -12.74470678 52.92890304 -12.75390625 45.41015625 C-12.755578 44.69311523 -12.75724976 43.97607422 -12.75897217 43.23730469 C-12.76043578 32.78828696 -12.19116776 22.99206844 -9.50390625 12.84765625 C-9.34921875 12.00847656 -9.19453125 11.16929687 -9.03515625 10.3046875 C-8.07835653 5.25388896 -5.92794256 -0.36067045 0 0 Z " fill="#FD004F" transform="translate(340.50390625,152.15234375)"/>
<path d="M0 0 C3.51393344 3.36877957 4.69640166 6.48407957 5.6875 11.1875 C6.03361328 12.75564453 6.03361328 12.75564453 6.38671875 14.35546875 C7.98504987 23.85383138 8.18633491 33.28561256 8.18530273 42.89624023 C8.18750564 45.19338076 8.20577101 47.49005231 8.22460938 49.78710938 C8.22754149 51.26822755 8.2295275 52.74934797 8.23046875 54.23046875 C8.23765427 54.9066777 8.24483978 55.58288666 8.25224304 56.27958679 C8.2256414 61.88156216 7.8740777 66.93525308 3.99389648 71.21020508 C-0.11991994 73.66950445 -4.36519079 75.13231649 -8.90234375 76.63671875 C-9.85766495 76.96162796 -10.81298615 77.28653717 -11.79725647 77.62129211 C-13.81200638 78.30423396 -15.82844552 78.98221008 -17.84643555 79.65551758 C-20.92701625 80.6839999 -24.00186215 81.72833064 -27.07617188 82.77539062 C-29.0387453 83.43843964 -31.0016261 84.10057966 -32.96484375 84.76171875 C-33.88063705 85.07211594 -34.79643036 85.38251312 -35.73997498 85.70231628 C-38.15069464 86.50370793 -40.56884246 87.26333999 -43 88 C-44.0938501 88.33491455 -45.1877002 88.6698291 -46.31469727 89.01489258 C-49 89 -49 89 -51.83569336 87.16821289 C-54.81473489 82.80735311 -54.70513842 79.47764448 -54.62890625 74.30859375 C-54.63131821 73.36750259 -54.63373016 72.42641144 -54.63621521 71.45680237 C-54.63523705 69.46554351 -54.62185081 67.47425737 -54.59692383 65.4831543 C-54.56288456 62.47152425 -54.57619951 59.46287639 -54.59570312 56.45117188 C-54.58377925 40.1635877 -52.01344475 27.72468417 -40.875 15.3125 C-33.7677912 8.62064756 -24.08927573 5.51056306 -15.125 2.0625 C-14.31643555 1.74345703 -13.50787109 1.42441406 -12.67480469 1.09570312 C-8.15854283 -0.57892902 -4.71297589 -1.7656484 0 0 Z " fill="#FD004F" transform="translate(174,153)"/>
<path d="M0 0 C2.65532243 0.27118187 3.83506395 0.84442713 5.7890625 2.6875 C24.7646936 26.58872045 32.51317813 52.58318757 34.31762695 82.71679688 C35.13296668 96.12227986 37.91117838 107.19828905 42.98632812 119.61523438 C43.38658203 120.62779297 43.78683594 121.64035156 44.19921875 122.68359375 C44.56877686 123.58650146 44.93833496 124.48940918 45.3190918 125.41967773 C46.09489569 128.35961011 45.8741283 130.11205713 45 133 C44 134 44 134 41.8203125 134.35546875 C37.91943773 133.86380725 35.72067645 131.83566074 32.875 129.3125 C32.3087793 128.81919189 31.74255859 128.32588379 31.15917969 127.81762695 C17.28926109 115.42046552 7.16729205 100.08400433 0 83 C-0.56847656 81.8553125 -0.56847656 81.8553125 -1.1484375 80.6875 C-2.3798385 76.80124364 -2.25031196 73.11221858 -2.1875 69.0625 C-2.18685547 68.27681641 -2.18621094 67.49113281 -2.18554688 66.68164062 C-2.16180819 63.52967036 -2.11845129 60.5875184 -1.4934082 57.48730469 C-0.75641173 52.27836966 -0.89875612 47.10890804 -0.9375 41.85546875 C-0.94128662 40.68993973 -0.94507324 39.52441071 -0.94897461 38.32356262 C-0.96116788 34.61150378 -0.97981159 30.89952345 -1 27.1875 C-1.02647359 22.28515856 -1.04650728 17.38285428 -1.0625 12.48046875 C-1.07079834 11.34514206 -1.07909668 10.20981537 -1.08764648 9.04008484 C-1.09094971 7.99842667 -1.09425293 6.95676849 -1.09765625 5.88354492 C-1.10289307 4.96232346 -1.10812988 4.04110199 -1.11352539 3.09196472 C-1 1 -1 1 0 0 Z " fill="#9DA9CC" transform="translate(396,211)"/>
<path d="M0 0 C2.125 0.375 2.125 0.375 4 1 C3.99333817 1.87751167 3.99333817 1.87751167 3.98654175 2.77275085 C3.94191656 8.92212453 3.91197287 15.07145139 3.89013672 21.22094727 C3.88014712 23.50872672 3.86655083 25.79649364 3.84912109 28.08422852 C3.59424108 44.38217928 3.59424108 44.38217928 5.52416992 60.52124023 C8.59347357 76.51028074 0.73541067 92.03298813 -8 105 C-25.06222865 128.53111433 -25.06222865 128.53111433 -36 134 C-40.28571429 133.71428571 -40.28571429 133.71428571 -42 132 C-42.72637202 126.08525641 -40.41011025 121.51594753 -38.1875 116.1875 C-32.6820523 102.2921686 -30.94323768 89.59033119 -30.40136719 74.7331543 C-29.33037303 48.42384515 -18.96228728 18.96228728 0 0 Z " fill="#9DA9CC" transform="translate(111,211)"/>
<path d="M0 0 C5.94820513 0.34547656 9.21667976 2.19959219 13.5 6.125 C14.06895996 6.62999023 14.63791992 7.13498047 15.22412109 7.65527344 C16.82915883 9.08983622 18.4149843 10.54341231 20 12 C20.99386719 12.87011719 20.99386719 12.87011719 22.0078125 13.7578125 C42.00910562 32.21311195 52.37433509 60.34618666 54.20410156 86.96972656 C54.31725916 89.83670258 54.36995185 92.69338512 54.375 95.5625 C54.37661133 96.43640381 54.37822266 97.31030762 54.37988281 98.21069336 C54.28367477 103.64163739 54.01787219 107.98212781 50 112 C46.22166249 111.90645107 44.46576026 111.41451899 41.62109375 108.8828125 C35.27990829 100.87408811 31.39191016 93.12303244 28.125 83.5 C26.35285766 78.4429109 23.82874799 74.28960506 20.78125 69.8984375 C16.2002138 62.44420754 14.18215737 55.11789254 12.625 46.5625 C9.94380119 32.84981224 6.32460718 19.68067602 -0.21484375 7.26171875 C-1.18173034 4.47650812 -0.79717616 2.79754368 0 0 Z " fill="#9DA9CC" transform="translate(423,229)"/>
<path d="M0 0 C1.11469347 4.01039056 0.8852577 6.1799632 -0.73046875 9.9921875 C-1.11968506 10.93715088 -1.50890137 11.88211426 -1.90991211 12.85571289 C-2.33151611 13.85207764 -2.75312012 14.84844238 -3.1875 15.875 C-7.77066613 27.14978286 -11.49235216 37.88480976 -12.8125 50.0625 C-13.97274638 59.19944026 -17.99326768 67.0821227 -23.55078125 74.39453125 C-26.25927768 78.10708802 -27.53883905 81.89013062 -28.875 86.25 C-32.10082026 96.00895296 -36.65916823 105.61127779 -45 112 C-48.25 112.0625 -48.25 112.0625 -51 111 C-53.28526561 107.57210159 -53.25681715 106.28992192 -53.265625 102.2578125 C-53.26820312 101.10796875 -53.27078125 99.958125 -53.2734375 98.7734375 C-53.26570313 97.56945312 -53.25796875 96.36546875 -53.25 95.125 C-53.25773437 93.9596875 -53.26546875 92.794375 -53.2734375 91.59375 C-53.20708709 61.66971593 -41.97249212 34.31892464 -21 13 C-6.73932689 -0.36428794 -6.73932689 -0.36428794 0 0 Z " fill="#9DA9CC" transform="translate(87,229)"/>
<path d="M0 0 C0.66 0 1.32 0 2 0 C2.16604736 0.97646484 2.33209473 1.95292969 2.50317383 2.95898438 C3.1336594 6.66445613 3.7659324 10.36962121 4.39868164 14.07470703 C4.66965916 15.6628431 4.9401843 17.25105645 5.21020508 18.83935547 C5.60371865 21.15353771 5.99876116 23.46745265 6.39453125 25.78125 C6.52560776 26.54976791 6.65668427 27.31828583 6.79173279 28.11009216 C7.56523596 32.60534615 8.39732424 37.08470462 9.27587891 41.56053162 C11.62504003 53.59332478 11.4739967 65.0313649 10.1875 77.1875 C10.11764893 77.88222412 10.04779785 78.57694824 9.97583008 79.29272461 C9.41338451 83.87791524 8.38370064 88.61629936 5 92 C2.54507499 92.18063984 0.14495751 92.27801743 -2.3125 92.3125 C-3.32860352 92.35600586 -3.32860352 92.35600586 -4.36523438 92.40039062 C-7.56916661 92.44110531 -9.70230721 92.17486521 -12.48046875 90.54296875 C-15.91876452 84.78890565 -13.84158346 76.48632972 -12.93359375 70.09375 C-12.81933044 69.26275787 -12.70506714 68.43176575 -12.58734131 67.57559204 C-12.21261959 64.88243984 -11.82632904 62.19114947 -11.4375 59.5 C-11.30638824 58.5799115 -11.17527649 57.659823 -11.04019165 56.71185303 C-8.30277583 37.62868561 -4.75615198 18.69153615 0 0 Z " fill="#9CA8CB" transform="translate(354,368)"/>
<path d="M0 0 C2.22207478 3.33311217 2.66672086 5.59418617 3.40234375 9.51171875 C3.52457809 10.1519397 3.64681244 10.79216064 3.77275085 11.45178223 C4.16771147 13.52915106 4.55285789 15.60819805 4.9375 17.6875 C5.20763731 19.12355419 5.47830919 20.55950793 5.74951172 21.99536133 C6.27590977 24.78666882 6.79870293 27.57861469 7.31884766 30.37109375 C7.83598079 33.12617152 8.36509263 35.87697668 8.91796875 38.625 C10.60105015 47.10549855 11.91298742 55.63713458 13.1875 64.1875 C13.36684082 65.35240967 13.54618164 66.51731934 13.73095703 67.7175293 C16.1391969 84.35274632 16.1391969 84.35274632 15 91 C12.4042513 93.64926929 11.1905952 93.97682797 7.43359375 94.43359375 C5.45552734 94.43552734 5.45552734 94.43552734 3.4375 94.4375 C2.76525391 94.45748047 2.09300781 94.47746094 1.40039062 94.49804688 C-0.56640625 94.49609375 -0.56640625 94.49609375 -4 94 C-10.97318827 86.9822513 -9.56468449 71.71681703 -9.65795898 62.39282227 C-9.37706465 45.35151999 -5.83139948 28.47778715 -2.84765625 11.74609375 C-2.67777695 10.79208679 -2.50789764 9.83807983 -2.33287048 8.85516357 C-2.17283035 7.98055481 -2.01279022 7.10594604 -1.84790039 6.20483398 C-1.70800186 5.43799789 -1.56810333 4.6711618 -1.42396545 3.88108826 C-1 2 -1 2 0 0 Z " fill="#9DA8CB" transform="translate(155,366)"/>
</svg>
