<?xml version="1.0" encoding="UTF-8"?>
<svg version="1.1" xmlns="http://www.w3.org/2000/svg" width="512" height="512">
<path d="M0 0 C3.66682475 1.38857083 7.16573206 3.09345645 10.6875 4.8125 C20.56473833 9.61079804 30.16709451 13.61175249 41.3125 13.4375 C42.40340942 13.4228772 42.40340942 13.4228772 43.51635742 13.40795898 C55.74555408 13.01364124 66.16955948 8.31148616 76.9855957 2.99829102 C81.8340795 0.68067031 85.49544044 -0.69071298 91 0 C93.36497439 1.86708505 94.66030715 3.32061431 96 6 C96.084915 7.8863912 96.107193 9.77578515 96.09765625 11.6640625 C96.09443359 12.78554688 96.09121094 13.90703125 96.08789062 15.0625 C96.07951172 16.238125 96.07113281 17.41375 96.0625 18.625 C96.05798828 19.80835937 96.05347656 20.99171875 96.04882812 22.2109375 C96.03701467 25.14067507 96.02054258 28.07031272 96 31 C96.75764648 31.21736816 97.51529297 31.43473633 98.29589844 31.65869141 C103.48436444 33.53750977 108.32897053 36.00505378 113.265625 38.4609375 C114.92498077 39.27964828 114.92498077 39.27964828 116.61785889 40.11489868 C120.16371667 41.86462927 123.70711633 43.61925602 127.25 45.375 C146.0536705 54.69094357 164.96029746 63.71211469 184.06565857 72.39292908 C185.54510704 73.06552513 185.54510704 73.06552513 187.05444336 73.75170898 C188.36994423 74.3486985 188.36994423 74.3486985 189.71202087 74.95774841 C212.1704427 85.28668621 234.04383257 102.04472136 243.4375 125.60546875 C252.46314682 151.5273413 253.32451192 179.00351378 248.65625 205.9375 C247.78010801 210.46045903 247.78010801 210.46045903 248 215 C249.74242931 216.9819385 251.4155133 218.63783911 253.375 220.375 C264.52458148 230.93062099 271.70860201 243.68047735 277 258 C277.36134033 258.97694824 277.36134033 258.97694824 277.72998047 259.97363281 C281.62288942 270.88242277 283.09934695 281.89032045 284.32421875 293.37109375 C284.82049594 297.8922565 285.58221446 302.29329989 286.54760742 306.73681641 C290.81813246 328.10096487 287.14802513 351.2918199 276 370 C273.52397353 373.51989099 270.85328933 376.78090434 268 380 C267.48050781 380.61359375 266.96101563 381.2271875 266.42578125 381.859375 C256.02693621 393.27976905 238.23859547 402.18732331 223.125 404.625 C219.53002451 404.47463981 217.67224873 403.37882534 215 401 C206.39406139 391.4114936 201.75360725 378.36937862 199 366 C198.78730469 365.06027344 198.57460938 364.12054688 198.35546875 363.15234375 C197.32612991 357.65019441 196.97073928 352.58915331 197.1171875 347 C197.36711467 331.5249638 195.30735374 322.44187185 184.40454102 311.14794922 C183.04423431 309.78905513 183.04423431 309.78905513 181 310 C178.80695198 312.45755111 177.00860333 315.23857197 175.125 317.9375 C174.59519531 318.67291016 174.06539063 319.40832031 173.51953125 320.16601562 C161.21759107 337.6420969 163.38538808 354.18538608 166.84375 374.296875 C167.22819045 376.4897547 167.61361542 378.68246202 168 380.875 C168.5760823 384.17587426 169.1483723 387.47726463 169.71191406 390.78030396 C170.06033972 392.81961769 170.41599651 394.8577146 170.78027344 396.89425659 C171.52109648 401.20471573 172.16594515 405.51067648 172.421875 409.87939453 C172.4640918 410.55680695 172.50630859 411.23421936 172.54980469 411.93215942 C171.63033576 415.39032413 169.77235257 416.80760415 167 419 C164.20940959 420.09725629 161.38320717 420.64466206 158.44042969 421.18823242 C157.16356293 421.44785515 157.16356293 421.44785515 155.86090088 421.71272278 C153.05125512 422.27899401 150.2370707 422.81752845 147.421875 423.35546875 C145.45162882 423.74560474 143.48168226 424.13725665 141.51202393 424.53034973 C137.37838753 425.35124254 133.24255082 426.15946681 129.10449219 426.95776367 C123.8463662 427.9723214 118.59291535 429.00888485 113.34080124 430.05407238 C109.26655304 430.86382923 105.19084882 431.66603663 101.11460114 432.465662 C99.18022983 432.84514876 97.24609418 433.22583912 95.31221771 433.60783958 C78.25192454 436.96449942 61.59642204 439.36552932 44.17285156 439.31567383 C41.89598871 439.31252899 39.62045277 439.33605869 37.34375 439.36132812 C12.18107663 439.48578092 -12.3908105 433.79908511 -36.921875 428.78515625 C-41.71608686 427.80617195 -46.51501439 426.85269547 -51.31545448 425.90479469 C-55.04302872 425.16447175 -58.76696377 424.40699582 -62.49009323 423.64466476 C-64.25982043 423.28522053 -66.03082344 422.93199657 -67.80308914 422.58528519 C-70.26554597 422.10172855 -72.72189818 421.59424193 -75.17822266 421.08056641 C-75.90022354 420.94429337 -76.62222443 420.80802032 -77.36610413 420.6676178 C-82.25497026 419.60853503 -84.87373178 417.88792397 -88 414 C-88.39477539 411.41064453 -88.39477539 411.41064453 -88.03515625 408.5078125 C-87.89867676 407.3621582 -87.76219727 406.21650391 -87.62158203 405.03613281 C-87.42048121 403.68983095 -87.21280197 402.34450198 -87 401 C-86.82002472 399.85428528 -86.82002472 399.85428528 -86.63641357 398.6854248 C-85.48109491 391.47410682 -84.23096696 384.27825899 -82.93579102 377.09082031 C-77.81805225 348.91306224 -77.81805225 348.91306224 -87.375 322.875 C-88.58165446 321.24875295 -89.78999165 319.62375314 -91 318 C-92.15675295 316.29904162 -93.30328541 314.59106936 -94.4375 312.875 C-94.93121094 312.12992187 -95.42492187 311.38484375 -95.93359375 310.6171875 C-96.28550781 310.08351563 -96.63742188 309.54984375 -97 309 C-107.6271292 319.44152327 -113.23889829 327.33836862 -114.97564697 342.16873169 C-115.44467072 346.15418142 -116.04701479 350.12018034 -116.6328125 354.08984375 C-116.74402435 354.86605576 -116.85523621 355.64226776 -116.96981812 356.44200134 C-118.36018711 365.91400859 -120.96701853 374.93673773 -124 384 C-124.37125 385.175625 -124.7425 386.35125 -125.125 387.5625 C-127.96517279 396.08301836 -127.96517279 396.08301836 -132 399 C-138.27816574 399.73821652 -143.1719239 398.30788119 -149 396.0625 C-149.82306641 395.75038574 -150.64613281 395.43827148 -151.49414062 395.11669922 C-164.29431143 390.09369147 -175.90889716 383.41622017 -186 374 C-186.78890625 373.26523437 -187.5778125 372.53046875 -188.390625 371.7734375 C-201.02964387 358.91946933 -206.47692641 342.01560432 -206.43115234 324.29223633 C-206.20525581 316.11689439 -204.25773119 308.82790012 -202 301 C-200.66266041 295.67085796 -199.7201338 290.35760543 -199.01293945 284.91137695 C-195.85464068 260.90309379 -186.89839654 236.2253901 -168.3125 219.875 C-164.9186336 216.64034267 -164.9186336 216.64034267 -163.52734375 212.31640625 C-163.7738995 209.1284836 -164.3414684 206.12893469 -165 203 C-165.38414139 200.39546691 -165.74382352 197.7997883 -166.0625 195.1875 C-166.14943115 194.48004639 -166.2363623 193.77259277 -166.32592773 193.04370117 C-169.77860386 162.44423366 -166.08176581 130.02192449 -146.6875 105.25 C-131.40451069 87.46757803 -112.48292681 77.62059194 -91.29638672 68.54663086 C-90.6829541 68.28374268 -90.06952148 68.02085449 -89.4375 67.75 C-88.49608154 67.34696655 -88.49608154 67.34696655 -87.53564453 66.93579102 C-79.89882891 63.60852068 -72.49954999 59.79836911 -65.06396484 56.04882812 C-54.1194519 50.53472638 -43.07600745 45.24372321 -32 40 C-30.11453478 39.10557109 -28.22911771 38.21104068 -26.34375 37.31640625 C-21.89739123 35.20763304 -17.44926724 33.10262921 -13 31 C-12.98541748 30.29915283 -12.97083496 29.59830566 -12.95581055 28.8762207 C-12.88114513 25.68776991 -12.78454525 22.50034487 -12.6875 19.3125 C-12.65366211 17.65831055 -12.65366211 17.65831055 -12.61914062 15.97070312 C-12.58369141 14.90400391 -12.54824219 13.83730469 -12.51171875 12.73828125 C-12.48553467 11.75899658 -12.45935059 10.77971191 -12.43237305 9.77075195 C-11.92687008 6.53136561 -10.92636192 4.63713577 -9 2 C-5.3469597 -0.4353602 -4.33218219 -0.52997515 0 0 Z " fill="#484F69" transform="translate(214,37)"/>
<path d="M0 0 C15.56184522 9.88930164 31.83138658 24.24818335 36.95703125 42.65234375 C40.15563085 52.13129872 45.35713092 61.27595359 51.5625 69.07421875 C53.13840029 71.73847517 53.44080044 73.14907836 52.8125 76.1875 C49.43460093 78.90477674 45.8328843 79.85786674 41.6875 80.9375 C29.93107198 84.51324859 22.90341676 90.86728045 14.88549805 99.82592773 C8.89910769 106.42166639 2.91486945 110.66990192 -6.11767578 111.43603516 C-11.52934908 111.39262157 -16.44412006 109.36900982 -21.5 107.609375 C-23.12977783 107.0576059 -23.12977783 107.0576059 -24.79248047 106.49468994 C-28.26096864 105.31891123 -31.72443557 104.1291491 -35.1875 102.9375 C-39.72700722 101.38422437 -44.26884207 99.83796463 -48.8125 98.296875 C-49.90028748 97.92640549 -50.98807495 97.55593597 -52.10882568 97.17424011 C-59.12853854 94.80751561 -66.13818785 92.74050954 -73.35644531 91.07836914 C-79.23049916 89.22993671 -82.85388131 85.62398666 -85.75512695 80.32348633 C-87.9527177 75.04628468 -87.63581214 69.56835523 -87.62109375 63.9375 C-87.6263356 62.76541992 -87.63157745 61.59333984 -87.63697815 60.38574219 C-87.64338397 57.91472158 -87.6420801 55.44367042 -87.63354492 52.97265625 C-87.62502814 49.19996736 -87.6538304 45.4287898 -87.68554688 41.65625 C-87.68715892 39.25000045 -87.6865813 36.84374823 -87.68359375 34.4375 C-87.69482773 33.3144043 -87.70606171 32.19130859 -87.71763611 31.03417969 C-87.6599048 24.52315411 -87.06994181 20.48252464 -83.1875 15.1875 C-80.51017713 12.68143446 -77.3670545 11.00184719 -74.1875 9.1875 C-73.09050781 8.5584375 -71.99351562 7.929375 -70.86328125 7.28125 C-47.31325679 -5.87577598 -25.07221564 -14.21018433 0 0 Z " fill="#9EAACD" transform="translate(349.1875,143.8125)"/>
<path d="M0 0 C4.48744443 2.98061479 8.44037365 5.91640987 10.58984375 11.01171875 C11.17460366 15.13604286 11.12656723 19.22315545 11.0859375 23.3828125 C11.08739273 24.57850357 11.08884796 25.77419464 11.09034729 27.00611877 C11.08869015 29.53022706 11.07714982 32.05434563 11.05639648 34.57836914 C11.02747117 38.43224242 11.03578729 42.28473694 11.04882812 46.13867188 C11.04258945 48.59505874 11.0341975 51.05144128 11.0234375 53.5078125 C11.02637314 54.65591904 11.02930878 55.80402557 11.03233337 56.98692322 C10.94299522 64.60244251 10.30837715 69.77886822 5.27734375 75.76171875 C0.07148831 80.12010935 -5.49077724 81.6982454 -11.94140625 83.24609375 C-22.81198372 85.98353227 -33.33177507 89.57384274 -43.91015625 93.26171875 C-45.77321668 93.90558724 -47.63649724 94.54881909 -49.5 95.19140625 C-53.54228793 96.58630079 -57.58247115 97.98709394 -61.62072754 99.39361572 C-68.7720629 101.86382424 -74.04839025 101.30571998 -80.92578125 98.3359375 C-86.59482185 95.3142319 -90.74216781 90.87050782 -94.84765625 86.01171875 C-103.17779902 76.26488504 -112.85477431 71.65646549 -125.125 68.72265625 C-127.41015625 68.01171875 -127.41015625 68.01171875 -129.41015625 66.01171875 C-129.12694211 61.61286075 -128.05542789 59.05381553 -125.34765625 55.63671875 C-119.25097142 47.31963636 -114.58919483 37.83552776 -111.28515625 28.07421875 C-104.55954244 8.56702717 -85.67980421 -4.91466464 -68.44140625 -14.66796875 C-45.94638825 -25.60648025 -19.51721872 -11.37945513 0 0 Z " fill="#9EAACD" transform="translate(239.41015625,153.98828125)"/>
<path d="M0 0 C15.57054369 15.16364795 21.2090114 36.47507629 21.53320312 57.59106445 C21.63226843 74.4445497 19.9035293 90.55905504 17.2421875 107.18359375 C-3.64996113 93.77989598 -23.36997368 74.18822123 -31.7800293 50.59326172 C-36.79526757 36.57212929 -43.66731081 24.23183798 -53.7578125 13.18359375 C-54.53898437 12.30960938 -55.32015625 11.435625 -56.125 10.53515625 C-64.46531553 1.66191321 -73.87141367 -4.05518528 -85.7578125 -6.81640625 C-85.7578125 -7.47640625 -85.7578125 -8.13640625 -85.7578125 -8.81640625 C-55.04040075 -20.99744884 -26.63506401 -22.39965219 0 0 Z " fill="#9EAACD" transform="translate(429.7578125,141.81640625)"/>
<path d="M0 0 C0.75627686 0.27005859 1.51255371 0.54011719 2.29174805 0.81835938 C4.05078125 1.65625 4.05078125 1.65625 5.05078125 3.65625 C4.468125 3.71941406 3.88546875 3.78257812 3.28515625 3.84765625 C-12.62630742 6.22436859 -25.61912496 18.4606135 -35.0234375 30.90234375 C-41.99651183 40.87398148 -47.0808948 50.66001393 -51.12304688 62.15942383 C-58.85031024 83.96223955 -78.13556155 103.60405304 -96.94921875 116.65625 C-98.43421875 117.15125 -98.43421875 117.15125 -99.94921875 117.65625 C-102.75342935 103.25128721 -103.25912202 89.09858693 -103.26171875 74.46875 C-103.26494141 73.57407013 -103.26816406 72.67939026 -103.27148438 71.75759888 C-103.32012807 49.61230475 -99.69879027 28.7932181 -83.94921875 11.96875 C-77.63334887 5.97299955 -70.65029771 1.65915268 -62.94921875 -2.34375 C-61.93472656 -2.89417969 -60.92023438 -3.44460937 -59.875 -4.01171875 C-41.16932725 -12.7410327 -18.34791168 -6.56745751 0 0 Z " fill="#9EAACD" transform="translate(164.94921875,131.34375)"/>
<path d="M0 0 C2.63568488 1.66108205 5.05592897 3.57149128 7.5 5.5 C8.9188131 6.59733125 10.33941294 7.69235587 11.76171875 8.78515625 C12.82398682 9.60137451 12.82398682 9.60137451 13.90771484 10.43408203 C17.95393455 13.46237295 22.1920193 16.20785196 26.42578125 18.96484375 C30.82583226 22.44348803 32.56030606 27.0870519 34.6015625 32.20703125 C35.33101074 34.02871826 35.33101074 34.02871826 36.07519531 35.88720703 C37.94110716 40.60305059 39.79670155 45.32302089 41.64379883 50.04626465 C43.29753894 54.2628228 45.01888757 58.44383452 46.7890625 62.61328125 C52.20396491 75.62028689 54.40314085 86.00367 53 100 C52.88163394 101.33322922 52.76453747 102.66657153 52.6484375 104 C52.25053776 108.48447845 51.78884341 112.9607681 51.3125 117.4375 C51.23899323 118.17217499 51.16548645 118.90684998 51.0897522 119.66378784 C50.87126567 121.77805427 50.62198923 123.88641439 50.36328125 125.99609375 C50.22188721 127.22513428 50.08049316 128.4541748 49.93481445 129.72045898 C48.79169841 133.73076919 47.22292306 135.40731611 44 138 C40.6875 138.75 40.6875 138.75 37 138 C34.00344475 135.9845654 31.5399699 133.55505883 29 131 C28.40058594 130.44828125 27.80117188 129.8965625 27.18359375 129.328125 C7.3069562 110.65208972 -2.04422861 81.15639981 -9.2265625 55.671875 C-9.72902776 53.93608591 -10.26890947 52.21054101 -10.8515625 50.5 C-13.4119861 42.52749618 -13.45845307 34.78263781 -13.39111328 26.49121094 C-13.37488529 24.10815449 -13.39111172 21.72675831 -13.41015625 19.34375 C-13.40817606 17.81510046 -13.40433703 16.28645194 -13.3984375 14.7578125 C-13.40451019 14.05254425 -13.41058289 13.347276 -13.4168396 12.62063599 C-13.35453331 8.2401521 -12.66088117 5.49475731 -10 2 C-6.30118861 -0.92011426 -4.45449933 -1.45174491 0 0 Z " fill="#FD004F" transform="translate(415,233)"/>
<path d="M0 0 C4.08293112 0.18558778 5.71390725 0.74569533 8.8125 3.5 C9.8953125 4.7375 9.8953125 4.7375 11 6 C11.495 6.495 11.495 6.495 12 7 C13.79963534 29.94215328 11.92637623 50.30219547 4 72 C3.35604822 73.88342354 2.71403084 75.7675099 2.07421875 77.65234375 C-3.77793127 94.36017123 -11.59272819 111.32938061 -23 125 C-23.7528125 125.90234375 -24.505625 126.8046875 -25.28125 127.734375 C-34.51973448 138.3894271 -34.51973448 138.3894271 -41.5625 139.625 C-45.26640862 138.95156207 -46.59821123 138.05513249 -48.89624023 135.12207031 C-51.29680647 130.50678129 -51.32388576 125.16734864 -51.75 120.0625 C-51.97353053 117.76167715 -52.1974771 115.46089467 -52.421875 113.16015625 C-52.51960205 112.07992187 -52.6173291 110.9996875 -52.71801758 109.88671875 C-52.9366935 107.64808312 -53.23218976 105.41688801 -53.55859375 103.19140625 C-54.081029 99.41415316 -54.25943449 95.68156566 -54.3125 91.875 C-54.34150391 91.2046875 -54.37050781 90.534375 -54.40039062 89.84375 C-54.55608987 76.9566436 -47.81898114 64.10038352 -43.08203125 52.36889648 C-41.99599307 49.67757036 -40.91931976 46.98263386 -39.84375 44.28710938 C-39.14638071 42.54925941 -38.44848251 40.81162158 -37.75 39.07421875 C-37.43321289 38.28133957 -37.11642578 37.48846039 -36.79003906 36.67155457 C-30.70387892 21.64504949 -30.70387892 21.64504949 -22.5625 16.625 C-21.13334229 15.69589138 -19.70629127 14.76353505 -18.28125 13.828125 C-17.56710938 13.36341797 -16.85296875 12.89871094 -16.1171875 12.41992188 C-12.82357489 10.21101379 -9.68898339 7.81247691 -6.5625 5.375 C-6.01343994 4.94912598 -5.46437988 4.52325195 -4.89868164 4.08447266 C-2.3637485 2.1413472 -2.3637485 2.1413472 0 0 Z " fill="#FD004F" transform="translate(98,232)"/>
<path d="M0 0 C1.28198776 0.40738403 1.28198776 0.40738403 2.58987427 0.82299805 C3.93313278 1.23908325 3.93313278 1.23908325 5.30352783 1.66357422 C8.32914368 2.63092495 11.33663326 3.64347531 14.34378052 4.66674805 C15.44407089 5.03650757 16.54436127 5.40626709 17.67799377 5.78723145 C21.17092983 6.96149211 24.66180928 8.14170963 28.15237427 9.32299805 C31.64668098 10.50375791 35.14143541 11.68311945 38.63746643 12.85876465 C40.80555666 13.58799913 42.97265676 14.32018624 45.13859558 15.05578613 C49.45360299 16.50838936 53.72948543 17.90845387 58.15994263 18.96557617 C62.01315706 19.92881121 63.50446693 20.43421113 65.58987427 23.82299805 C67.16864765 33.45351568 62.6456073 43.42458243 57.32815552 51.3503418 C50.45828693 60.71834441 50.45828693 60.71834441 46.58987427 62.82299805 C42.60205101 62.66826769 39.07662439 60.81306205 35.45901489 59.24584961 C24.8538518 54.67583355 14.15625006 51.73713209 2.884552 49.25805664 C1.16087402 48.86481201 1.16087402 48.86481201 -0.59762573 48.46362305 C-1.62243042 48.24222656 -2.64723511 48.02083008 -3.70309448 47.79272461 C-7.03146752 46.60041782 -8.41255984 45.7656112 -10.41012573 42.82299805 C-10.98995419 39.82002191 -10.97072314 36.87396029 -10.94137573 33.82299805 C-10.94520264 32.95030273 -10.94902954 32.07760742 -10.95297241 31.1784668 C-10.95569063 29.33600713 -10.94833568 27.49350881 -10.93161011 25.65112305 C-10.91019821 22.83253871 -10.93141374 20.0165032 -10.95700073 17.19799805 C-10.95435744 15.40632576 -10.94923243 13.61465506 -10.94137573 11.82299805 C-10.94947266 10.98124023 -10.95756958 10.13948242 -10.96591187 9.2722168 C-10.90780508 5.64249206 -10.70215985 3.35664871 -8.93942261 0.13549805 C-5.50250485 -1.6479836 -3.64725194 -1.01621639 0 0 Z " fill="#9EA9CC" transform="translate(272.4101257324219,245.177001953125)"/>
<path d="M0 0 C2.36458058 2.36458058 2.25448521 2.82714207 2.2746582 6.03491211 C2.28419022 6.86594955 2.29372223 7.696987 2.30354309 8.5532074 C2.30263168 9.45217239 2.30172028 10.35113739 2.30078125 11.27734375 C2.30506638 12.19963272 2.3093515 13.12192169 2.31376648 14.07215881 C2.31951559 16.02490416 2.32000578 17.97767092 2.31567383 19.93041992 C2.31251627 22.92208335 2.3359573 25.91275599 2.36132812 28.90429688 C2.36360126 30.79947792 2.36430455 32.69466162 2.36328125 34.58984375 C2.372491 35.48678452 2.38170074 36.38372528 2.39118958 37.30784607 C2.38496078 38.14203568 2.37873199 38.97622528 2.37231445 39.83569336 C2.37294388 40.5691246 2.3735733 41.30255585 2.3742218 42.05821228 C1.88873041 44.57736328 1.00181858 45.43707752 -1 47 C-3.99243164 47.94799805 -3.99243164 47.94799805 -7.66015625 48.76171875 C-9.0173291 49.07491888 -10.37433806 49.38882985 -11.73120117 49.70336914 C-12.4394101 49.86386749 -13.14761902 50.02436584 -13.87728882 50.18972778 C-24.99208499 52.72158227 -35.59537224 55.36703574 -45.78344727 60.64916992 C-48.59043276 62.08467811 -50.56084073 63.01497134 -53.75 62.90625 C-62.36688758 59.43555917 -66.57509092 47.8702568 -70.19873047 39.9362793 C-72.50676033 34.35889209 -74.30708003 28.61960623 -72.1875 22.75 C-69.74660931 19.15289793 -66.55979908 18.52921188 -62.55615234 17.62792969 C-56.24826206 16.11526717 -50.21022844 14.12120005 -44.1015625 11.953125 C-41.88949433 11.18310114 -39.67724959 10.41358438 -37.46484375 9.64453125 C-34.02639562 8.44312198 -30.58959898 7.23747885 -27.15576172 6.02294922 C-23.80848412 4.84164095 -20.45563809 3.67746613 -17.1015625 2.515625 C-16.0764859 2.14802063 -15.0514093 1.78041626 -13.99526978 1.40167236 C-4.93370729 -1.71426263 -4.93370729 -1.71426263 0 0 Z " fill="#9EAACD" transform="translate(248,245)"/>
<path d="M0 0 C1.26521484 -0.00515625 2.53042969 -0.0103125 3.83398438 -0.015625 C5.8052832 0.00757813 5.8052832 0.00757813 7.81640625 0.03125 C9.7819043 0.00804687 9.7819043 0.00804687 11.78710938 -0.015625 C13.05361328 -0.01046875 14.32011719 -0.0053125 15.625 0 C16.77669678 0.00451172 17.92839355 0.00902344 19.11499023 0.01367188 C23.08882062 0.64382525 25.25223263 2.03917449 28.37890625 4.53125 C30.58558545 7.8412688 30.63808511 8.89422798 30.66943359 12.74951172 C30.6821933 13.81426727 30.694953 14.87902283 30.70809937 15.9760437 C30.71032501 17.12605865 30.71255066 18.27607361 30.71484375 19.4609375 C30.72150055 20.64342072 30.72815735 21.82590393 30.73501587 23.04421997 C30.74514856 25.54753054 30.7498327 28.05086816 30.74951172 30.55419922 C30.75388114 34.38424229 30.79018629 38.21312994 30.828125 42.04296875 C30.8339937 44.47395439 30.83796274 46.90494551 30.83984375 49.3359375 C30.85421478 50.48190399 30.86858582 51.62787048 30.88339233 52.80856323 C30.83793128 60.72168759 30.83793128 60.72168759 28.60009766 64.66845703 C22.76219814 69.56438727 16.78250713 68.9035706 9.47949219 68.90185547 C7.38524516 68.90623674 5.29309435 68.94260393 3.19921875 68.98046875 C1.86328842 68.98633617 0.52734814 68.99030607 -0.80859375 68.9921875 C-2.01902344 69.00040527 -3.22945313 69.00862305 -4.4765625 69.01708984 C-8.31941835 68.42335668 -9.24764394 67.5526926 -11.62109375 64.53125 C-12.13575745 61.79931641 -12.13575745 61.79931641 -12.15454102 58.6328125 C-12.17829552 56.85076416 -12.17829552 56.85076416 -12.20252991 55.03271484 C-12.19757004 53.75348145 -12.19261017 52.47424805 -12.1875 51.15625 C-12.19369858 49.83963379 -12.19989716 48.52301758 -12.20628357 47.16650391 C-12.2166816 44.3823089 -12.21213532 41.59862518 -12.19750977 38.81445312 C-12.18031419 35.24957614 -12.20382606 31.68630982 -12.23899937 28.12161255 C-12.26626067 24.71639639 -12.25623833 21.31157032 -12.25 17.90625 C-12.26325821 16.6270166 -12.27651642 15.3477832 -12.29017639 14.02978516 C-12.27137672 12.24773682 -12.27137672 12.24773682 -12.25219727 10.4296875 C-12.2512355 9.38474121 -12.25027374 8.33979492 -12.24928284 7.26318359 C-10.80445169 0.97975264 -5.73475286 0.02248765 0 0 Z " fill="#9DA9CC" transform="translate(273.62109375,359.46875)"/>
<path d="M0 0 C2.08554987 0.00853634 4.16838061 -0.0203212 6.25366211 -0.05200195 C7.57172852 -0.05135742 8.88979492 -0.05071289 10.24780273 -0.05004883 C11.45186768 -0.05190186 12.65593262 -0.05375488 13.89648438 -0.05566406 C17.71943939 0.55738101 18.66026646 1.43678877 21.02514648 4.44604492 C21.53308105 7.17797852 21.53308105 7.17797852 21.54272461 10.34448242 C21.55533325 11.53251465 21.56794189 12.72054688 21.58093262 13.94458008 C21.57283569 15.22381348 21.56473877 16.50304687 21.55639648 17.82104492 C21.56022339 19.13766113 21.56405029 20.45427734 21.56799316 21.81079102 C21.57388372 24.59499927 21.56534062 27.37869342 21.54663086 30.1628418 C21.52384024 33.72753825 21.53696589 37.2910301 21.56092072 40.85568237 C21.57886979 44.26089922 21.56629426 47.66579386 21.55639648 51.07104492 C21.56449341 52.35027832 21.57259033 53.62951172 21.58093262 54.94750977 C21.56832397 56.13554199 21.55571533 57.32357422 21.54272461 58.54760742 C21.53795105 60.11502686 21.53795105 60.11502686 21.53308105 61.71411133 C20.8940511 65.15114337 19.76663313 66.33661971 17.02514648 68.44604492 C13.91235352 68.96362305 13.91235352 68.96362305 10.28295898 68.97729492 C8.9694043 68.98245117 7.65584961 68.98760742 6.30249023 68.99291992 C5.27937744 68.98035156 5.27937744 68.98035156 4.2355957 68.9675293 C2.16294306 68.94617675 0.09378316 68.96730256 -1.97875977 68.99291992 C-3.29489258 68.98776367 -4.61102539 68.98260742 -5.96704102 68.97729492 C-7.7669751 68.97052734 -7.7669751 68.97052734 -9.60327148 68.96362305 C-13.67118297 68.33915003 -15.8157223 67.05234253 -18.97485352 64.44604492 C-20.93572015 61.35031604 -21.23091784 58.92918529 -21.24951172 55.29785156 C-21.25904373 54.27321304 -21.26857574 53.24857452 -21.27839661 52.19288635 C-21.2774852 51.09178024 -21.27657379 49.99067413 -21.27563477 48.85620117 C-21.27991989 47.71952499 -21.28420502 46.58284882 -21.28862 45.41172791 C-21.29436143 43.00854152 -21.29486494 40.60533776 -21.29052734 38.20214844 C-21.2873685 34.52598411 -21.31082607 30.85062532 -21.33618164 27.17456055 C-21.33845475 24.8392751 -21.33915808 22.5039875 -21.33813477 20.16870117 C-21.34734451 19.06961929 -21.35655426 17.97053741 -21.36604309 16.83815002 C-21.3598143 15.81035934 -21.35358551 14.78256866 -21.34716797 13.72363281 C-21.34779739 12.82302628 -21.34842682 11.92241974 -21.34907532 10.99452209 C-20.74267467 6.86489038 -18.95901835 4.2250467 -15.71923828 1.66064453 C-10.7094448 -0.55657125 -5.39784977 -0.03379634 0 0 Z " fill="#9EAACD" transform="translate(228.974853515625,359.553955078125)"/>
<path d="M0 0 C14.56283736 2.48107599 27.94462846 7.97521394 39 18 C39.5465625 18.46921875 40.093125 18.9384375 40.65625 19.421875 C43.48472318 22.2189207 44.40536083 24.7793205 44.6875 28.625 C44.35693821 35.03206532 41.65270856 40.79429605 38 46 C33.50708988 49.59894833 29.36702027 49.43821059 23.8671875 49.3984375 C22.55670944 49.40274277 22.55670944 49.40274277 21.21975708 49.40713501 C19.37908273 49.40917095 17.53838652 49.40367403 15.69775391 49.39111328 C12.87744027 49.37501393 10.05855126 49.39099747 7.23828125 49.41015625 C5.4479135 49.40817449 3.65754664 49.40433221 1.8671875 49.3984375 C1.02340546 49.40451019 0.17962341 49.41058289 -0.68972778 49.4168396 C-6.52631396 49.34648137 -6.52631396 49.34648137 -8.72155762 47.74075317 C-10.30601229 45.58332744 -10.37969882 44.41947293 -10.38818359 41.75976562 C-10.39764008 40.90878296 -10.40709656 40.05780029 -10.4168396 39.18103027 C-10.41076691 38.26535278 -10.40469421 37.34967529 -10.3984375 36.40625 C-10.40130768 35.46317993 -10.40417786 34.52010986 -10.40713501 33.54846191 C-10.40917646 31.55460001 -10.40364093 29.56071812 -10.39111328 27.56689453 C-10.37506089 24.51158956 -10.39095933 21.45760748 -10.41015625 18.40234375 C-10.40817383 16.46614291 -10.40433019 14.52994289 -10.3984375 12.59375 C-10.40451019 11.67807251 -10.41058289 10.76239502 -10.4168396 9.81896973 C-10.40738312 8.96798706 -10.39792664 8.11700439 -10.38818359 7.24023438 C-10.38579681 6.49205444 -10.38341003 5.74387451 -10.38095093 4.97302246 C-9.27668353 -0.74620334 -4.93839552 -0.37203599 0 0 Z " fill="#9EAACD" transform="translate(272,302)"/>
<path d="M0 0 C2.08579374 1.53613055 2.88655616 2.41245123 3.38095093 4.97302246 C3.3845311 6.09529236 3.3845311 6.09529236 3.38818359 7.24023438 C3.39764008 8.09121704 3.40709656 8.94219971 3.4168396 9.81896973 C3.41076691 10.73464722 3.40469421 11.65032471 3.3984375 12.59375 C3.40130768 13.53682007 3.40417786 14.47989014 3.40713501 15.45153809 C3.40917646 17.44539999 3.40364093 19.43928188 3.39111328 21.43310547 C3.37506089 24.48841044 3.39095933 27.54239252 3.41015625 30.59765625 C3.40817383 32.53385709 3.40433019 34.47005711 3.3984375 36.40625 C3.40754654 37.77976624 3.40754654 37.77976624 3.4168396 39.18103027 C3.40738312 40.03201294 3.39792664 40.88299561 3.38818359 41.75976562 C3.38579681 42.50794556 3.38341003 43.25612549 3.38095093 44.02697754 C2.88597221 46.59057316 2.09240646 47.46619828 0 49 C-3.01346844 49.32303931 -5.81576195 49.46802731 -8.83203125 49.46875 C-10.13608162 49.48017029 -10.13608162 49.48017029 -11.46647644 49.49182129 C-13.30647918 49.50262706 -15.14654329 49.50547345 -16.98657227 49.50097656 C-19.79223082 49.500007 -22.59512906 49.54156215 -25.40039062 49.5859375 C-27.19009848 49.59114681 -28.97981582 49.59383266 -30.76953125 49.59375 C-31.60410355 49.61014526 -32.43867584 49.62654053 -33.29853821 49.64343262 C-37.46913743 49.59435018 -40.16722717 49.29575447 -43.47192383 46.6262207 C-48.11074794 41.80730898 -51.18560543 35.4456096 -51.5625 28.6875 C-50.4829929 21.61073126 -46.32861216 17.94736325 -40.8046875 13.86328125 C-28.90629068 5.95863601 -14.7120231 -1.68826495 0 0 Z " fill="#9EAACD" transform="translate(247,302)"/>
<path d="M0 0 C4.61862807 3.30083021 6.05882265 7.12570724 7.4375 12.4375 C9.01565313 18.0395237 10.88068439 23.20823224 13.3125 28.5 C15.61751008 33.71003567 16.96072186 37.34241569 16 43 C14.77674866 44.68789673 14.77674866 44.68789673 13 46 C5.65669683 47.14490664 -1.95263541 45.53762661 -9.15234375 44.1015625 C-10.68442223 43.80903091 -10.68442223 43.80903091 -12.24745178 43.5105896 C-15.47938042 42.89153794 -18.70842835 42.2587679 -21.9375 41.625 C-25.16353054 41.00143471 -28.39009902 40.38072933 -31.61683655 39.76083374 C-33.6131754 39.37627762 -35.60901716 38.98912733 -37.60423279 38.5987854 C-43.54573089 37.44185373 -49.48880079 36.43271447 -55.47877502 35.55673218 C-58 35 -58 35 -61 33 C-61.6875 30.1875 -61.6875 30.1875 -61 27 C-55.7278778 22.5796109 -48.7822219 19.73851351 -42.65625 16.69921875 C-41.68772095 16.2179805 -40.71919189 15.73674225 -39.72131348 15.24092102 C-37.68541013 14.23255584 -35.64823761 13.22674945 -33.60986328 12.22338867 C-30.5021331 10.68855349 -27.40559236 9.13252286 -24.30859375 7.57617188 C-22.32096948 6.59502213 -20.33270901 5.61515993 -18.34375 4.63671875 C-17.42581665 4.17118088 -16.5078833 3.70564301 -15.56213379 3.22599792 C-10.07235781 0.56231609 -6.11481849 -0.72202627 0 0 Z " fill="#9DA9CC" transform="translate(206,84)"/>
<path d="M0 0 C5.69989038 1.20920387 10.81874492 4.14950687 15.9765625 6.77539062 C17.25366275 7.41389981 18.53133994 8.05125624 19.80957031 8.6875 C21.76573223 9.66254315 23.72067972 10.63967964 25.67218018 11.62402344 C29.97670955 13.79382773 34.3120052 15.8761507 38.6796875 17.91601562 C39.78634766 18.44163086 40.89300781 18.96724609 42.03320312 19.50878906 C44.12354914 20.50154361 46.22105319 21.47939724 48.32617188 22.44042969 C50.87241609 23.67302334 53.21100548 24.83156056 55.4765625 26.52539062 C56.6171875 29.86914062 56.6171875 29.86914062 56.4765625 32.52539062 C51.59660065 36.22813961 46.10224376 36.74050065 40.21875 37.71679688 C39.11991486 37.90757309 38.02107971 38.0983493 36.88894653 38.29490662 C33.37807204 38.90225701 29.86496226 39.4953415 26.3515625 40.08789062 C24.01025222 40.4899289 21.66910426 40.89291373 19.328125 41.296875 C14.99561506 42.04378348 10.66211626 42.78439242 6.32763672 43.51977539 C1.4907818 44.34223065 -3.33447954 45.21822043 -8.15646362 46.12364197 C-16.10292115 47.47240153 -16.10292115 47.47240153 -19.9609375 44.90039062 C-22.04308041 41.73553341 -21.88745988 40.31122333 -21.5234375 36.52539062 C-20.47234061 33.23148376 -19.1313678 30.07806717 -17.7734375 26.90039062 C-15.01307236 20.27358227 -12.47610278 13.74699119 -10.5078125 6.83789062 C-8.36012581 1.79253142 -5.64371425 -0.30717633 0 0 Z " fill="#9EAACD" transform="translate(311.5234375,83.474609375)"/>
<path d="M0 0 C2.98735701 0.21384551 3.95994054 0.95779587 6.04296875 3.15234375 C6.75066406 4.07144531 7.45835937 4.99054688 8.1875 5.9375 C11.24076996 9.82576636 14.36350306 13.52366686 17.75 17.125 C25.42939803 25.5817193 29.28830216 34.10638082 29.1953125 45.68359375 C29.1924826 46.38396255 29.18965271 47.08433136 29.18673706 47.80592346 C29.17564885 50.0166317 29.15056703 52.22691671 29.125 54.4375 C29.11495546 55.94725972 29.1058322 57.45702588 29.09765625 58.96679688 C29.07574714 62.64466597 29.04129758 66.3222916 29 70 C24.13866503 69.23646887 22.07253789 67.61452721 18.5 64.1875 C14.55136852 60.43024314 14.55136852 60.43024314 10.3515625 56.96484375 C7.90732128 54.92256247 6.49948687 53.10023207 4.875 50.375 C4.39804688 49.59898437 3.92109375 48.82296875 3.4296875 48.0234375 C-0.98077442 38.69639509 -1.41871975 29.93511798 -1.28125 19.77416992 C-1.24964744 17.41113758 -1.24022517 15.04877117 -1.234375 12.68554688 C-1.22522068 11.1848876 -1.21484997 9.68423514 -1.203125 8.18359375 C-1.19887512 7.47641708 -1.19462524 6.76924042 -1.19024658 6.04063416 C-1.1172906 1.1172906 -1.1172906 1.1172906 0 0 Z " fill="#9DA9CC" transform="translate(155,330)"/>
<path d="M0 0 C0.99 0 1.98 0 3 0 C3.07494594 4.78308809 3.1289721 9.56582384 3.16479492 14.34936523 C3.17975066 15.97182175 3.20012277 17.59423877 3.22631836 19.21655273 C3.43440421 32.44836473 3.0621159 44.47454632 -6 55 C-9.80905628 58.878386 -13.86951542 62.46990887 -18 66 C-18.86496094 66.78761719 -19.72992188 67.57523437 -20.62109375 68.38671875 C-23 70 -23 70 -25.14868164 69.60083008 C-26.06508423 69.30341919 -26.06508423 69.30341919 -27 69 C-27.08817767 64.56262836 -27.14078435 60.12548653 -27.1875 55.6875 C-27.21263672 54.44419922 -27.23777344 53.20089844 -27.26367188 51.91992188 C-27.41159233 33.13402371 -20.61303199 22.36901813 -8 9 C-6.07655664 6.83352228 -4.17556114 4.64947049 -2.27734375 2.4609375 C-1.54167701 1.61953273 -0.79030613 0.79030613 0 0 Z " fill="#9DA9CC" transform="translate(355,330)"/>
<path d="M0 0 C4.0015486 0.55145924 5.51428848 2.43875991 7.96875 5.57617188 C8.4328125 6.19041016 8.896875 6.80464844 9.375 7.4375 C9.83132812 8.01693359 10.28765625 8.59636719 10.7578125 9.19335938 C12.22484661 11.09514657 13.61850462 13.03527453 15 15 C15.47308594 15.64638428 15.94617188 16.29276855 16.43359375 16.95874023 C22.33622808 25.78219479 25.02420164 36.17578563 28.25 46.1875 C28.87911964 48.10647705 29.50931987 50.02510019 30.140625 51.94335938 C37.59837332 74.69171207 37.59837332 74.69171207 37 79 C35.8125 80.8125 35.8125 80.8125 34 82 C31.58203125 82.28125 31.58203125 82.28125 29 82 C13.69983686 69.81111406 1.94306314 38.85809888 -1 20 C-1.43591974 13.66729774 -1.40491008 7.33252811 -1 1 C-0.67 0.67 -0.34 0.34 0 0 Z " fill="#9DA8CB" transform="translate(218,60)"/>
<path d="M0 0 C0.57891799 21.69870375 0.57891799 21.69870375 -3 32 C-3.39058594 33.19238281 -3.78117187 34.38476562 -4.18359375 35.61328125 C-9.23007986 50.37480892 -17.54243491 71.99418974 -30 82 C-33.0625 81.875 -33.0625 81.875 -36 81 C-38.17685153 77.7347227 -38.15671758 76.79650353 -37.48986816 73.0836792 C-36.50783353 68.90654483 -35.15533801 64.85639247 -33.796875 60.7890625 C-33.31737396 59.33770401 -33.31737396 59.33770401 -32.82818604 57.85702515 C-32.15202043 55.81708008 -31.47273809 53.77816576 -30.79052734 51.74023438 C-29.75683775 48.64547153 -28.7392282 45.54573388 -27.72265625 42.4453125 C-27.0608698 40.45540499 -26.39813974 38.465811 -25.734375 36.4765625 C-25.43521179 35.56065338 -25.13604858 34.64474426 -24.82781982 33.70108032 C-21.55713323 24.02634452 -16.59846666 16.0268705 -10.4375 7.9375 C-9.59155273 6.78217773 -9.59155273 6.78217773 -8.72851562 5.60351562 C-8.17744141 4.87712891 -7.62636719 4.15074219 -7.05859375 3.40234375 C-6.56673584 2.74741943 -6.07487793 2.09249512 -5.56811523 1.41772461 C-4 0 -4 0 0 0 Z " fill="#9DA9CC" transform="translate(295,60)"/>
<path d="M0 0 C1.828125 0.75 1.828125 0.75 2.828125 1.75 C3.13802269 5.07381299 3.10676378 8.41354153 3.140625 11.75 C3.16962891 12.67167969 3.19863281 13.59335937 3.22851562 14.54296875 C3.32871031 25.47189706 -0.88819522 32.02602869 -8.171875 39.75 C-9.23087961 40.96352129 -10.28658831 42.17992297 -11.33984375 43.3984375 C-12.49153086 44.70370467 -13.64387988 46.0083881 -14.796875 47.3125 C-15.34722412 47.95727295 -15.89757324 48.6020459 -16.46459961 49.26635742 C-17.96675536 50.93408734 -19.35826842 52.42692079 -21.171875 53.75 C-23.83971142 53.71692765 -25.25991534 53.66195966 -27.171875 51.75 C-27.48284195 48.09217083 -27.45052446 44.41939804 -27.484375 40.75 C-27.51337891 39.73292969 -27.54238281 38.71585937 -27.57226562 37.66796875 C-27.65429404 27.83717823 -25.01713869 20.90641204 -18.171875 13.75 C-16.24802149 11.97508999 -14.29235475 10.25586853 -12.29296875 8.56640625 C-10.83640434 7.31907208 -9.41292409 6.03237128 -8.01953125 4.71484375 C-6.98119141 3.74224609 -6.98119141 3.74224609 -5.921875 2.75 C-5.29796875 2.151875 -4.6740625 1.55375 -4.03125 0.9375 C-2.171875 -0.25 -2.171875 -0.25 0 0 Z " fill="#9DA9CB" transform="translate(355.171875,392.25)"/>
<path d="M0 0 C3.56643635 1.3473204 5.34398635 3.35385282 7.921875 6.10546875 C9.8088229 8.05869375 11.7865801 9.76629264 13.875 11.5 C19.75069992 16.5770611 25.31329847 22.77896989 26.07128906 30.80151367 C26.07354492 31.76806885 26.07580078 32.73462402 26.078125 33.73046875 C26.08199219 35.31698242 26.08199219 35.31698242 26.0859375 36.93554688 C26.07820313 38.02931641 26.07046875 39.12308594 26.0625 40.25 C26.07023437 41.35537109 26.07796875 42.46074219 26.0859375 43.59960938 C26.08335937 44.65341797 26.08078125 45.70722656 26.078125 46.79296875 C26.07586914 47.75614014 26.07361328 48.71931152 26.07128906 49.71166992 C25.8125 52.0625 25.8125 52.0625 23.8125 54.0625 C20.17858163 54.01297471 18.89138145 53.13513225 16.19921875 50.65625 C15.28742479 49.6356425 14.38818855 48.60371514 13.5 47.5625 C12.53387229 46.46092161 11.56772631 45.35935923 10.6015625 44.2578125 C10.13008789 43.71286133 9.65861328 43.16791016 9.17285156 42.60644531 C7.9720779 41.24361462 6.71995627 39.92639971 5.4609375 38.6171875 C-4.65221857 28.04950757 -4.7527512 17.96885142 -4.47802734 3.96679688 C-4.02752187 1.01390387 -2.96158084 0.0846166 0 0 Z " fill="#9DA9CC" transform="translate(158.1875,391.9375)"/>
<path d="M0 0 C5.53445986 0.92036472 8.52837258 4.86000318 12 9 C17.49667086 16.79527867 20.67797872 24.79791566 23 34 C23.2990625 35.1240625 23.598125 36.248125 23.90625 37.40625 C27.76178427 53.25677978 26.59538446 65.07816404 18.6875 79.25 C18.130625 80.1575 17.57375 81.065 17 82 C15.68 82 14.36 82 13 82 C12.9906543 80.68507568 12.98130859 79.37015137 12.97167969 78.01538086 C12.93135572 73.06681277 12.86548586 68.11883908 12.79248047 63.1706543 C12.76451404 61.04215212 12.74318054 58.91355079 12.72900391 56.78491211 C12.60410541 39.07846865 11.18770447 21.81385428 1.34765625 6.4140625 C0 4 0 4 0 0 Z " fill="#F88264" transform="translate(461,277)"/>
<path d="M0 0 C2.0625 0.4375 2.0625 0.4375 4 1 C2.83282359 4.04796327 1.54355512 7.01453746 0.16015625 9.96875 C-0.18080078 10.70609375 -0.52175781 11.4434375 -0.87304688 12.203125 C-1.57008147 13.70718498 -2.27551578 15.20738739 -2.99023438 16.703125 C-9.4989195 30.9217215 -9.51974455 44.95985939 -9.6875 60.3125 C-9.72073538 62.42124435 -9.75523059 64.52996925 -9.79101562 66.63867188 C-9.87520063 71.75900593 -9.94234237 76.87930135 -10 82 C-11.32 82 -12.64 82 -14 82 C-15.14829977 79.730384 -16.29371978 77.45939222 -17.4375 75.1875 C-17.76298828 74.54490234 -18.08847656 73.90230469 -18.42382812 73.24023438 C-25.27339565 59.61171341 -22.99613702 42.47969182 -18.54296875 28.28125 C-14.64308748 16.99989789 -8.41233002 8.41233002 0 0 Z " fill="#FA8364" transform="translate(48,277)"/>
<path d="M0 0 C0.99 0 1.98 0 3 0 C3.18473877 0.54076172 3.36947754 1.08152344 3.55981445 1.63867188 C7.86886059 14.1350366 12.71340486 26.20545833 18.40551758 38.140625 C18.85822021 39.09582031 19.31092285 40.05101562 19.77734375 41.03515625 C20.18202881 41.8744165 20.58671387 42.71367676 21.00366211 43.57836914 C22.02010679 46.0488702 22.56626228 48.3697136 23 51 C11.96114377 46.18881709 6.40718744 32.76018276 1.83203125 22.33984375 C-0.74149348 15.1025606 -0.27262527 7.57292409 0 0 Z " fill="#F68264" transform="translate(400,297)"/>
<path d="M0 0 C0.66 0 1.32 0 2 0 C3.59185075 18.70424636 -2.1737958 32.05357686 -13.703125 46.59375 C-15.77783958 48.76726051 -17.23005205 49.93268061 -20 51 C-19.42983974 46.62579539 -18.33966251 43.10212709 -16.48828125 39.10546875 C-15.98014893 37.99220215 -15.4720166 36.87893555 -14.94848633 35.73193359 C-14.1386731 33.97743896 -14.1386731 33.97743896 -13.3125 32.1875 C-9.07778107 22.86823547 -5.19022873 13.58823493 -1.98828125 3.8671875 C-1 1 -1 1 0 0 Z " fill="#F68264" transform="translate(110,297)"/>
</svg>
