<svg width="18" height="18" viewBox="0 0 18 18" fill="none" xmlns="http://www.w3.org/2000/svg">
<path d="M18 8.99995C18 13.9641 13.9641 17.9999 9 17.9999C4.03585 17.9999 0 13.9641 0 8.99995C0 4.03583 4.03585 0 9 0C9.34568 0 9.66943 0.0219199 9.99318 0.0649178C10.4898 0.129836 10.8346 0.561502 10.7916 1.05809C10.7267 1.55467 10.295 1.92141 9.79841 1.85649C9.53958 1.83457 9.25883 1.81349 9 1.81349C5.02911 1.81349 1.81256 5.05096 1.81256 9.00089C1.81256 12.9508 5.05005 16.1883 9 16.1883C12.95 16.1883 16.1874 12.9508 16.1874 9.00089C16.1874 8.72014 16.1655 8.46131 16.1444 8.20249C16.0795 7.7059 16.4463 7.27424 16.9429 7.20932C17.4394 7.16632 17.8711 7.51114 17.936 8.00772C17.979 8.33063 18 8.65428 18 8.99995ZM9.45347 7.2733C9.30255 7.2303 9.15165 7.20838 8.99987 7.20838C8.0067 7.20838 7.20829 8.00679 7.20829 8.99996C7.20829 9.99312 8.0067 10.7915 8.99987 10.7915C9.99305 10.7915 10.7915 9.99312 10.7915 8.99996C10.7915 8.84904 10.7695 8.69814 10.7265 8.54636L12.0645 7.20838H14.3957C14.6335 7.20838 14.8704 7.12239 15.0213 6.94956L17.7192 4.25167C17.978 3.99284 18.0649 3.60417 17.9131 3.28042C17.7833 2.93475 17.4385 2.71892 17.0928 2.71892H15.3012V0.927345C15.3012 0.560605 15.0854 0.236858 14.7397 0.107014C14.3957 -0.0649782 14.007 0.0210178 13.7701 0.280691L11.0722 2.97858C10.8994 3.15142 10.8134 3.36725 10.8134 3.60415V5.93534L9.45347 7.2733ZM8.28747 5.48173C8.78406 5.37381 9.08588 4.89916 8.99989 4.4245C8.91391 3.94984 8.41732 3.60417 7.92073 3.71208C5.41664 4.22973 3.60408 6.45293 3.60408 8.99995C3.60408 11.9786 6.02119 14.3957 8.99989 14.3957C11.5469 14.3957 13.7702 12.5831 14.2878 10.0791C14.3957 9.58252 14.072 9.10787 13.5754 9.02188C13.1007 8.93588 12.6041 9.23771 12.5181 9.7343C12.1725 11.396 10.7055 12.6051 8.99985 12.6051C7.01436 12.6051 5.39566 10.9863 5.39566 9.0009C5.39566 7.29534 6.60391 5.80547 8.28747 5.48173Z" fill="#90D077"/>
</svg>
