<?xml version="1.0" encoding="UTF-8"?>
<svg version="1.1" xmlns="http://www.w3.org/2000/svg" width="512" height="512">
<path d="M0 0 C0.73061142 -0.00511093 1.46122284 -0.01022186 2.213974 -0.01548767 C4.62605007 -0.02937181 7.03783992 -0.02842742 9.44995117 -0.02612305 C11.13140468 -0.03001145 12.81285721 -0.03434642 14.49430847 -0.03910828 C18.01902448 -0.04656855 21.54364033 -0.04628122 25.06835938 -0.04101562 C29.5741465 -0.03523 34.07952135 -0.05213081 38.58524036 -0.0753603 C42.05891803 -0.09013151 45.53249728 -0.09096459 49.00620079 -0.08785057 C50.66670229 -0.08836237 52.32720951 -0.0935735 53.98768044 -0.10366249 C56.31627342 -0.11607164 58.64407486 -0.10920841 60.97265625 -0.09765625 C61.65186127 -0.10529999 62.33106628 -0.11294373 63.03085327 -0.12081909 C67.86741134 -0.06808445 71.48954756 0.85390494 75.68041992 3.2746582 C78.47996541 7.43267084 79.34639205 11.63832177 80.22680664 16.52880859 C80.35576324 17.23103043 80.48471985 17.93325226 80.61758423 18.65675354 C81.04105604 20.97703278 81.45092681 23.29947566 81.86010742 25.62231445 C82.15714233 27.2739849 82.45477226 28.92554844 82.75296021 30.57701111 C83.37913263 34.05697534 83.99869907 37.5380333 84.61352539 41.02001953 C85.38069649 45.36245435 86.16271459 49.70203893 86.94960117 54.04093838 C105.23246818 155.03632046 105.23246818 155.03632046 96.68041992 204.2746582 C96.42228516 205.79373779 96.42228516 205.79373779 96.15893555 207.34350586 C92.98304073 225.42660522 88.12103559 243.01311938 83.24359131 260.69415283 C66.22009909 322.459628 68.21690314 390.8114953 78.76611328 453.90625 C80.61370292 465.06995985 80.52045506 477.68975459 73.68041992 487.2746582 C60.93048636 497.4225645 38.82678395 491.70781073 23.74467468 490.01063538 C-62.36995899 479.96061455 -62.36995899 479.96061455 -83.81958008 463.3371582 C-86.61795061 457.62381837 -86.33637774 451.49151806 -84.43676758 445.48168945 C-81.42937886 438.89929228 -77.44746793 434.03726441 -70.67919922 431.1472168 C-67.4355694 430.05316588 -64.17467949 429.08615016 -60.88208008 428.1496582 C-58.98514829 427.58318571 -57.08821942 427.01670335 -55.19137573 426.44993591 C-52.35815309 425.60862338 -49.5199966 424.78464347 -46.68170166 423.96063232 C-39.6214333 421.91028851 -32.56711244 419.84012285 -25.51705933 417.75494385 C-22.8519962 416.97168526 -20.18290403 416.2034892 -17.51318359 415.4362793 C-15.85472987 414.94938786 -14.19643765 414.46194588 -12.53833008 413.97387695 C-11.78116196 413.76060257 -11.02399384 413.54732819 -10.24388123 413.32759094 C-5.2865747 411.8482806 -1.11289929 410.03502328 1.82495117 405.51293945 C5.83253535 393.9589102 3.8770962 381.15950177 2.02075195 369.35766602 C0.92888657 362.33975959 0.1255877 355.31191256 -0.60400391 348.24951172 C-4.13243296 314.12944751 -9.94301773 280.50933384 -16.67288208 246.88595581 C-22.35297178 218.48646878 -26.87834461 190.15768367 -29.31958008 161.2746582 C-29.41529297 160.15406006 -29.51100586 159.03346191 -29.60961914 157.87890625 C-30.4627018 146.70398203 -30.56280214 135.54017013 -30.56958008 124.3371582 C-30.57025482 123.3274295 -30.57092957 122.31770081 -30.57162476 121.27737427 C-30.53692035 88.37078177 -26.21183293 56.55039365 -19.2076416 24.40652466 C-18.91084804 23.04339309 -18.61738702 21.67953101 -18.32751465 20.31491089 C-17.92057605 18.41439911 -17.49347719 16.51823859 -17.06567383 14.62231445 C-16.82518311 13.53958252 -16.58469238 12.45685059 -16.33691406 11.34130859 C-14.9893543 7.27922599 -13.25403161 3.60560171 -9.64324951 1.12130737 C-6.43754222 -0.04671996 -3.36716687 -0.01217299 0 0 Z " fill="#484E68" transform="translate(131.319580078125,8.725341796875)"/>
<path d="M0 0 C0.73265579 -0.00686325 1.46531158 -0.0137265 2.22016907 -0.02079773 C4.62085831 -0.03896905 7.02088821 -0.03524337 9.42163086 -0.02954102 C11.10119334 -0.0341065 12.78075396 -0.03941316 14.46031189 -0.04542542 C17.97134009 -0.05433674 21.48214057 -0.0519549 24.99316406 -0.04199219 C29.48452617 -0.0304871 33.97510384 -0.05074716 38.46636295 -0.07990932 C41.93144184 -0.09828166 45.39633291 -0.09797715 48.86144829 -0.0922718 C50.51719707 -0.09211881 52.17295875 -0.09814498 53.82866096 -0.11056328 C56.14538583 -0.12549706 58.46066317 -0.11478162 60.77734375 -0.09765625 C62.75088585 -0.097407 62.75088585 -0.097407 64.76429749 -0.09715271 C68.92883026 0.4892169 71.09002254 1.75899707 74.32397461 4.40405273 C75.66186523 7.08691406 75.66186523 7.08691406 76.48022461 10.17358398 C76.79217773 11.32938965 77.10413086 12.48519531 77.42553711 13.67602539 C78.98134232 20.13177148 80.4724494 26.59041568 81.82397461 33.09155273 C81.9739389 33.80682129 82.1239032 34.52208984 82.27841187 35.2590332 C85.12851646 48.90174801 87.60288818 62.5680437 89.32397461 76.40405273 C89.44111816 77.33830078 89.55826172 78.27254883 89.67895508 79.23510742 C96.68655919 138.64876133 87.36656276 198.39348133 75.92279053 256.56849289 C69.89902422 287.19211413 64.93800672 317.69905416 61.44897461 348.71655273 C61.33893097 349.6764209 61.22888733 350.63628906 61.11550903 351.62524414 C60.03090758 361.19823288 59.1408929 370.70429569 59.11303711 380.34545898 C59.11054962 381.0651033 59.10806213 381.78474762 59.10549927 382.52619934 C59.20573729 392.0235048 61.71402066 400.19198902 66.32397461 408.40405273 C66.82670898 409.46946289 66.82670898 409.46946289 67.33959961 410.55639648 C68.64866472 413.01349093 69.75343116 413.36194052 72.32397461 414.40405273 C73.27780029 414.85208252 74.23162598 415.3001123 75.21435547 415.76171875 C80.42500054 417.99314349 85.90713169 419.23760242 91.39038086 420.61889648 C93.75569925 421.22859668 96.12093104 421.83863291 98.48608398 422.44897461 C102.1935439 423.3990189 105.90184627 424.34544829 109.61181641 425.28564453 C113.20732246 426.19922355 116.79896332 427.12689507 120.39038086 428.05639648 C121.49676407 428.33257309 122.60314728 428.60874969 123.74305725 428.89329529 C131.22873935 430.84254075 136.89687925 432.85272538 141.57397461 439.34155273 C142.05350586 439.98995117 142.53303711 440.63834961 143.02709961 441.30639648 C146.82298826 447.44613204 147.1684247 453.33178322 146.32397461 460.40405273 C144.4391409 464.62608024 144.4391409 464.62608024 141.32397461 466.40405273 C139.34692399 467.05919054 137.3387256 467.62172751 135.32006836 468.13452148 C134.36014481 468.38089607 134.36014481 468.38089607 133.38082886 468.63224792 C131.03069981 469.2316932 128.67745051 469.81788723 126.32397461 470.40405273 C124.31182133 470.9106162 122.29969768 471.41729733 120.28759766 471.92407227 C113.17952979 473.70780358 106.06517667 475.46558717 98.94897461 477.21655273 C97.68772766 477.52708588 96.42648071 477.83761902 95.12701416 478.15756226 C80.02529646 481.86854205 64.91977155 485.52372215 49.69897461 488.71655273 C48.70936737 488.92461044 48.70936737 488.92461044 47.69976807 489.13687134 C32.86374454 492.23672832 18.06953601 495.22545204 4.07397461 487.27905273 C-4.56664996 481.25406609 -9.19019326 474.18578374 -11.13696289 463.98999023 C-11.89712094 458.3986055 -11.47126807 453.18044086 -10.70214844 447.62060547 C-9.56906537 438.7009066 -9.40147733 429.91927419 -9.44555664 420.93920898 C-9.44628869 419.30569474 -9.44622758 417.67217998 -9.44543457 416.03866577 C-9.44626321 411.7323419 -9.46020942 407.42616735 -9.47818375 403.11988449 C-9.48859002 400.44996984 -9.49572477 397.78006575 -9.50180054 395.11013794 C-9.62402691 342.47601251 -12.40639387 295.81198602 -26.57275391 244.91259766 C-30.83822018 229.56058043 -33.94892734 214.09244828 -36.67602539 198.40405273 C-36.82442871 197.58211426 -36.97283203 196.76017578 -37.12573242 195.91333008 C-45.85978783 146.10246545 -32.6738352 91.44614624 -23.89356613 42.54020309 C-23.48991125 40.28678934 -23.08915488 38.03287594 -22.68899536 35.77883911 C-22.05233007 32.19805415 -21.40542974 28.61925803 -20.75075531 25.04172325 C-20.3920262 23.07052744 -20.04200012 21.09775406 -19.69219971 19.12495422 C-19.36092072 17.33507332 -19.36092072 17.33507332 -19.02294922 15.5090332 C-18.74031975 13.95126663 -18.74031975 13.95126663 -18.45198059 12.36203003 C-17.55401982 8.93896182 -16.6346464 6.36942226 -14.67602539 3.40405273 C-9.75337311 0.56540747 -5.62153839 0.02307126 0 0 Z " fill="#484E68" transform="translate(313.676025390625,8.595947265625)"/>
<path d="M0 0 C2.98077964 0.31936925 3.9216442 0.91307647 5.96484375 3.1796875 C18.44829282 20.47920809 22.25159345 46.23897378 27.14257812 66.47119141 C29.2106789 74.98267447 31.33188708 83.48079187 33.55308533 91.9536438 C34.24510876 94.59748892 34.92793238 97.24367276 35.60986328 99.89013672 C35.95264481 101.21090157 36.29963776 102.53058075 36.65087891 103.84912109 C41.5263648 122.19455408 42.32957891 140.06028668 42.26074219 159.00097656 C42.25010138 162.46697838 42.26065514 165.93245213 42.2734375 169.3984375 C42.28108414 180.98463179 41.97293998 192.49545853 41.09765625 204.05078125 C41.01860046 205.09500244 40.93954468 206.13922363 40.85809326 207.21508789 C39.49789664 223.49402634 36.98687487 243.56527548 27 257 C24.04206277 258.47896861 22.29779776 258.4355582 19 258 C10.28282517 253.6614061 6.80582282 242.86853938 3.625 234.29296875 C-2.57389927 215.62496459 -5.05975104 195.68622669 -6.62890625 176.1484375 C-6.69339651 175.35065069 -6.75788677 174.55286388 -6.82433128 173.73090172 C-8.52473646 152.02251534 -8.41454256 130.29880923 -8.3225708 108.53820801 C-8.30913321 104.23410601 -8.31441617 99.93010729 -8.3194294 95.62599373 C-8.33689836 75.83095392 -8.23482985 56.06037197 -7.10546875 36.29296875 C-7.0667547 35.59851465 -7.02804066 34.90406055 -6.98815346 34.18856239 C-5.45722567 7.64011594 -5.45722567 7.64011594 0 0 Z " fill="#FD004F" transform="translate(166,24)"/>
<path d="M0 0 C1.9375 0 1.9375 0 4 1 C10.16972452 9.54269548 9.48203958 23.78636726 10.10546875 33.94140625 C10.14721914 34.62131685 10.18896954 35.30122746 10.23198509 36.00174141 C11.48890496 57.22956915 11.33800571 78.50784325 11.31567383 99.7644043 C11.31103404 104.54477323 11.31801227 109.32488824 11.33618164 114.10522461 C11.59407162 182.55719082 11.59407162 182.55719082 5 212 C4.82210937 212.82741699 4.64421875 213.65483398 4.4609375 214.50732422 C-2.23517696 245.44895314 -2.23517696 245.44895314 -13.5625 256.5 C-16 258 -16 258 -18.4375 258.6875 C-22.82168715 257.51125467 -24.79258984 254.74590816 -27 251 C-31.81265295 240.55502085 -34.51571648 229.36031368 -36 218 C-36.20302734 216.49010498 -36.20302734 216.49010498 -36.41015625 214.94970703 C-38.70865834 197.01466089 -39.2924789 179.19482974 -39.3125 161.125 C-39.31599457 160.10905762 -39.31948914 159.09311523 -39.3230896 158.04638672 C-39.35842292 139.55191498 -37.86367878 122.05090224 -33.5625 104.0625 C-33.21315943 102.5740261 -32.86404559 101.08549898 -32.51513672 99.59692383 C-31.36593531 94.72576362 -30.18468939 89.86262994 -29 85 C-28.78950012 84.13137329 -28.57900024 83.26274658 -28.36212158 82.36779785 C-23.68220937 63.06957997 -18.90222214 43.80783797 -12.6875 24.9375 C-12.30352051 23.75631592 -11.91954102 22.57513184 -11.52392578 21.3581543 C-8.90714628 13.69376557 -5.82326247 5.82326247 0 0 Z " fill="#FD004F" transform="translate(335,24)"/>
<path d="M0 0 C2.4375 0.375 2.4375 0.375 5 1 C6.63210106 4.26420213 6.12221066 7.85710833 6.09375 11.44140625 C6.09016479 12.29489151 6.08657959 13.14837677 6.08288574 14.02772522 C6.03782649 21.29090134 5.8533374 28.54769557 5.64355469 35.80761719 C4.23288432 85.07569897 2.92732765 134.91537118 8 184 C9.25142317 196.62619163 10.20446958 209.11521487 10.3125 221.8125 C10.33014404 222.97628174 10.34778809 224.14006348 10.3659668 225.33911133 C10.36020025 232.57088024 10.29665025 240.78771178 5.6340332 246.74536133 C3.260438 248.56784836 0.95872329 248.47415778 -1.94921875 248.3359375 C-6.21425847 247.63728337 -8.79540593 245.46317185 -11.4921875 242.1875 C-15.92732514 235.93694332 -19.01273149 229.02986836 -22 222 C-22.35964844 221.16210938 -22.71929687 220.32421875 -23.08984375 219.4609375 C-26.8305325 209.99654427 -28.82742099 199.91499847 -31 190 C-31.15887695 189.27586914 -31.31775391 188.55173828 -31.48144531 187.80566406 C-35.33723361 169.83229423 -36.35577777 151.74028206 -36.31567383 133.39941406 C-36.31249484 130.37008214 -36.33616611 127.34171379 -36.36132812 124.3125 C-36.41952197 107.01090626 -33.87926641 91.16344336 -29.5 74.4375 C-29.33281464 73.79534546 -29.16562927 73.15319092 -28.99337769 72.49157715 C-14.16490357 15.8676533 -14.16490357 15.8676533 0 0 Z " fill="#FD004F" transform="translate(146,28)"/>
<path d="M0 0 C4.52898494 0.53371876 4.52898494 0.53371876 6.5546875 2.5390625 C14.3879732 14.91472689 19.47248266 28.34234563 24 42.1875 C24.25635223 42.96391846 24.51270447 43.74033691 24.77682495 44.5402832 C28.20239083 54.94404052 31.37333715 65.37885487 34.0625 76 C34.32482422 77.02762451 34.58714844 78.05524902 34.85742188 79.11401367 C38.82514282 95.58816901 40.48471424 111.76854022 40.33618164 128.69116211 C40.31248288 131.56457565 40.31566889 134.43705922 40.32226562 137.31054688 C40.29883415 153.56044616 39.06394953 169.50608407 35.75 185.4375 C35.53456543 186.48607178 35.31913086 187.53464355 35.09716797 188.61499023 C25.42146717 234.23740648 25.42146717 234.23740648 10 247 C6.40735548 248.19754817 3.77282526 248.33094958 0 248 C-3.40728366 245.51360382 -4.69936975 242.94455142 -6 239 C-6.46980126 233.91311833 -6.38552608 228.79409269 -6.375 223.6875 C-6.37611786 222.92612732 -6.37723572 222.16475464 -6.37838745 221.38031006 C-6.36825294 207.14666532 -5.207309 193.12391567 -3.51123047 178.9987793 C-0.53329354 153.70656553 -0.82635695 128.15293672 -0.87142944 102.72056961 C-0.87505718 100.40094122 -0.87663102 98.08131913 -0.87768555 95.76168823 C-0.88986202 74.17488494 -1.08796353 52.60276562 -1.71432495 31.02375793 C-1.81975805 27.3493928 -1.91495668 23.67489261 -2 20 C-2.01772461 19.24982605 -2.03544922 18.4996521 -2.05371094 17.72674561 C-2.10010276 15.5144354 -2.13080408 13.3024837 -2.15625 11.08984375 C-2.17494141 9.81874756 -2.19363281 8.54765137 -2.21289062 7.23803711 C-2.01256629 4.1911316 -1.61669909 2.54183681 0 0 Z " fill="#FD004F" transform="translate(354,28)"/>
</svg>
