<?xml version="1.0" encoding="UTF-8"?>
<svg version="1.1" xmlns="http://www.w3.org/2000/svg" width="512" height="512">
<path d="M0 0 C4.21292797 1.10992153 7.93474962 3.01316823 11.78808594 5.01074219 C21.62088817 9.83994282 29.89314658 12.8257465 40.91308594 13.01074219 C41.58936035 13.02500244 42.26563477 13.0392627 42.96240234 13.05395508 C54.59521413 12.94143325 64.83190891 7.88443272 75.15917969 3.04394531 C85.02352131 -1.42727496 85.02352131 -1.42727496 90.41308594 -0.36425781 C93.33105469 1.30371094 93.33105469 1.30371094 95.41308594 4.63574219 C96.01526573 9.09065152 95.88239275 13.46356746 95.72558594 17.94824219 C95.70302734 19.16576172 95.68046875 20.38328125 95.65722656 21.63769531 C95.59839124 24.63829701 95.51622734 27.63639015 95.41308594 30.63574219 C96.20900146 30.87260742 97.00491699 31.10947266 97.82495117 31.35351562 C102.33590976 32.96551498 106.53427361 35.0277063 110.82324219 37.15136719 C111.73546036 37.59920563 112.64767853 38.04704407 113.58753967 38.50845337 C115.53988914 39.46737495 117.49141922 40.42796627 119.44219971 41.39007568 C122.49751217 42.89655332 125.55524056 44.39801376 128.61376953 45.89794922 C132.67753885 47.8909965 136.74073199 49.88520703 140.80322266 51.88085938 C148.04229331 55.43632064 155.28318682 58.98767251 162.53808594 62.51074219 C163.68696289 63.06890625 164.83583984 63.62707031 166.01953125 64.20214844 C172.50798408 67.3251578 179.04645458 70.19824063 185.72558594 72.88574219 C209.21830175 82.39006192 231.924618 99.91424018 242.19824219 123.59277344 C248.7544768 139.75060582 250.63575201 156.0884454 250.66308594 173.38574219 C250.6657547 174.11651978 250.66842346 174.84729736 250.6711731 175.60021973 C250.68971221 186.25714363 250.00316801 196.44523547 247.97167969 206.93261719 C247.24723249 211.41511793 247.24723249 211.41511793 248.41308594 215.63574219 C249.83715035 216.89886083 251.27104817 218.15535586 252.78173828 219.31347656 C270.9927369 234.07414231 280.46516408 262.09909984 283.15820312 284.55322266 C283.32614461 285.92538821 283.5189755 287.29476957 283.73828125 288.65966797 C285.86600266 302.57091319 279.55342377 311.69533845 272.45019531 323.21582031 C269.02055416 328.97354003 265.93569325 334.91062841 262.82727051 340.84613037 C261.01189212 344.31003326 259.18121784 347.76582041 257.35058594 351.22167969 C257.00368713 351.87705719 256.65678833 352.53243469 256.29937744 353.20767212 C252.55799193 360.26654841 248.69504167 367.25131924 244.77050781 374.20947266 C243.09847109 377.19808793 241.45175232 380.20023679 239.80371094 383.20214844 C238.52776924 385.51340155 237.25172792 387.82459966 235.97558594 390.13574219 C235.37141846 391.24232178 234.76725098 392.34890137 234.14477539 393.48901367 C233.57460693 394.51712158 233.00443848 395.54522949 232.41699219 396.60449219 C231.90982666 397.52681641 231.40266113 398.44914062 230.88012695 399.39941406 C229.41308594 401.63574219 229.41308594 401.63574219 226.41308594 403.63574219 C222.59848564 404.05958666 220.28579576 404.16465723 216.96386719 402.15136719 C213.58746796 398.82150332 211.91692262 395.29639128 209.97558594 391.01074219 C209.58870605 390.17115967 209.20182617 389.33157715 208.80322266 388.46655273 C202.17628677 373.76037159 196.33081553 357.69808138 196.36621094 341.38964844 C196.57697067 329.02207513 196.57697067 329.02207513 190.60058594 318.63574219 C188.89609912 316.9438439 187.16826736 315.27498997 185.41308594 313.63574219 C184.05344702 311.99046484 182.71107158 310.33008242 181.41308594 308.63574219 C169.95608146 323.0346569 161.81705618 335.49478535 163.41308594 354.63574219 C164.46094376 362.88512211 165.97476969 371.07247535 167.41308594 379.26074219 C167.98976447 382.55438938 168.56297587 385.84844144 169.125 389.1446228 C169.47244633 391.18194863 169.82799149 393.21791748 170.19335938 395.25210571 C171.00742456 400.02076485 171.60754552 404.75955867 171.83496094 409.59423828 C171.87717773 410.46648041 171.91939453 411.33872253 171.96289062 412.23739624 C171.41308594 414.63574219 171.41308594 414.63574219 169.42169189 416.82116699 C165.62356226 419.11192621 162.17618542 419.8924918 157.85351562 420.71044922 C156.57664886 420.96985291 156.57664886 420.96985291 155.27398682 421.23449707 C152.4635924 421.80161461 149.64959271 422.34788992 146.83496094 422.89355469 C144.86479769 423.28554245 142.89485028 423.67861641 140.92510986 424.07272339 C136.79097043 424.8967542 132.65508547 425.71111952 128.51757812 426.51806641 C123.2601003 427.54370883 118.00644259 428.58747397 112.75388718 429.6380024 C108.67957624 430.45169538 104.60387423 431.25822917 100.52768707 432.06246567 C98.59325608 432.44445045 96.6591183 432.82792365 94.72530365 433.21301651 C77.66300556 436.6001031 61.01763251 439.00129475 43.5859375 438.95141602 C41.30907464 438.94827118 39.03353871 438.97180087 36.75683594 438.99707031 C11.43859129 439.12124155 -13.2000186 433.31146401 -37.85772705 428.18762207 C-41.44089747 427.44607285 -45.02629416 426.7156188 -48.61173153 425.98512268 C-52.09326795 425.27448423 -55.57346652 424.55746681 -59.0532856 423.83847046 C-60.70140984 423.49859868 -62.34990618 423.16052568 -63.99879265 422.82437134 C-66.2950849 422.35511133 -68.58946441 421.8774013 -70.88354492 421.39746094 C-71.54800629 421.26334808 -72.21246765 421.12923523 -72.89706421 420.99105835 C-85.1385364 418.39598796 -85.1385364 418.39598796 -88.10299683 414.79321289 C-89.9185618 406.69879521 -87.10587065 397.00480292 -85.70410156 388.94824219 C-85.33764601 386.76344191 -84.97177833 384.57854295 -84.60644531 382.39355469 C-84.03552374 379.00926123 -83.46021115 375.62590976 -82.87451172 372.24414062 C-82.30452185 368.93925401 -81.75307591 365.63167581 -81.20410156 362.32324219 C-80.93857986 360.83207886 -80.93857986 360.83207886 -80.66769409 359.31079102 C-78.36438073 345.20755793 -80.61808385 332.64688484 -88.92675781 320.91699219 C-89.74853516 319.78777344 -89.74853516 319.78777344 -90.58691406 318.63574219 C-91.8803323 316.78279695 -93.17200243 314.92863023 -94.46191406 313.07324219 C-95.50256252 311.59335899 -96.54385321 310.11392605 -97.58691406 308.63574219 C-99.25505631 310.30093197 -100.92141249 311.96791124 -102.58691406 313.63574219 C-103.37453125 314.37308594 -104.16214844 315.11042969 -104.97363281 315.87011719 C-112.13421892 323.69934885 -112.50924892 330.59309184 -112.9909668 340.85498047 C-113.93597537 360.53853341 -119.68958241 381.0271584 -130.58691406 397.63574219 C-133.8751571 399.2798637 -137.05690015 399.39489396 -140.58691406 398.63574219 C-146.51507964 392.95637082 -150.32350979 385.67600906 -154.41564941 378.63357544 C-156.51706459 375.01785017 -158.64135471 371.4155817 -160.76269531 367.81152344 C-161.39049393 366.742873 -161.39049393 366.742873 -162.03097534 365.65263367 C-165.38590616 359.95039249 -168.82906135 354.30779932 -172.33691406 348.69824219 C-177.120886 341.0345383 -181.81520628 333.32100274 -186.46191406 325.57324219 C-187.06874023 324.56205322 -187.67556641 323.55086426 -188.30078125 322.5090332 C-189.47793011 320.54243181 -190.64885047 318.57208761 -191.81323242 316.59790039 C-193.037348 314.55355156 -194.29575601 312.52948366 -195.58129883 310.52319336 C-199.35673702 304.49095288 -201.727973 300.22198853 -200.77441406 293.07324219 C-200.70182373 292.31930176 -200.6292334 291.56536133 -200.55444336 290.78857422 C-200.29460764 288.39096547 -199.95782532 286.01858067 -199.58691406 283.63574219 C-199.46348633 282.84151855 -199.34005859 282.04729492 -199.21289062 281.22900391 C-195.13241851 256.6114857 -184.46820961 230.77208456 -164.58691406 214.63574219 C-163.92691406 214.63574219 -163.26691406 214.63574219 -162.58691406 214.63574219 C-162.78027344 213.91773438 -162.97363281 213.19972656 -163.17285156 212.45996094 C-170.83127999 182.01581228 -170.65720706 144.74798348 -155.40332031 116.61230469 C-152.77610007 112.30705345 -149.88514717 108.4441595 -146.58691406 104.63574219 C-145.71486328 103.5490625 -145.71486328 103.5490625 -144.82519531 102.44042969 C-132.90818182 88.10004028 -115.93807717 78.68426943 -98.99707031 71.53417969 C-94.10566229 69.45662837 -89.31463322 67.18552829 -84.52441406 64.88574219 C-83.59338867 64.43875977 -82.66236328 63.99177734 -81.703125 63.53125 C-75.16172381 60.37919761 -68.63367741 57.19981389 -62.10644531 54.01855469 C-61.26544785 53.6086731 -60.42445038 53.1987915 -59.55796814 52.77648926 C-55.35674078 50.72835637 -51.15644001 48.67835759 -46.95776367 46.625 C-38.65682593 42.56807194 -30.34415436 38.53556508 -22.00878906 34.54980469 C-21.19371887 34.1567514 -20.37864868 33.76369812 -19.53887939 33.35873413 C-18.78741638 33.00106964 -18.03595337 32.64340515 -17.26171875 32.27490234 C-16.59871765 31.95752106 -15.93571655 31.64013977 -15.25262451 31.31314087 C-13.58691406 30.63574219 -13.58691406 30.63574219 -11.58691406 30.63574219 C-11.61309814 29.8387793 -11.63928223 29.04181641 -11.66625977 28.22070312 C-11.77020351 24.60925005 -11.83523491 20.99811147 -11.89941406 17.38574219 C-11.96225586 15.50435547 -11.96225586 15.50435547 -12.02636719 13.58496094 C-12.04248047 12.3796875 -12.05859375 11.17441406 -12.07519531 9.93261719 C-12.10137939 8.82241211 -12.12756348 7.71220703 -12.15454102 6.56835938 C-11.58691406 3.63574219 -11.58691406 3.63574219 -9.32055664 1.24365234 C-5.7050403 -0.88297002 -4.0012316 -0.65721512 0 0 Z " fill="#484F69" transform="translate(213.5869140625,37.3642578125)"/>
<path d="M0 0 C0.90234375 0.42410156 1.8046875 0.84820312 2.734375 1.28515625 C22.71612921 11.41714744 37.60809396 28.2937438 45.22680664 49.07324219 C48.49285145 57.75474114 53.07049385 65.89341205 58.734375 73.25390625 C60 75 60 75 60.5 77.5625 C60 80 60 80 57.8515625 81.54296875 C54.87213333 83.06533461 52.10871065 83.90780509 48.875 84.75 C37.83717028 88.11579561 31.12274064 93.65096798 23.5625 102.125 C16.98359852 109.47563479 11.26814287 114.37664065 1.03100586 115.25463867 C-4.34693612 115.200622 -9.24884342 113.19714462 -14.27734375 111.45703125 C-15.36149063 111.09155685 -16.44563751 110.72608246 -17.56263733 110.34953308 C-21.02436841 109.1804091 -24.48099888 107.99698657 -27.9375 106.8125 C-31.35423647 105.65182981 -34.77197368 104.49415466 -38.1900177 103.33734131 C-40.40220088 102.58810289 -42.61370767 101.83686422 -44.82450867 101.08355713 C-52.17178572 98.58725581 -59.54804371 96.24451148 -66.99511719 94.06469727 C-72.63895119 92.0649605 -75.72914218 89.3376816 -78.54956055 84.1496582 C-80.75657744 78.8765149 -80.46773707 73.4174866 -80.46875 67.78515625 C-80.47636353 66.61544785 -80.48397705 65.44573944 -80.49182129 64.24058533 C-80.50259774 61.7737745 -80.50548542 59.30691814 -80.50097656 56.84008789 C-80.50000405 53.07816115 -80.54166274 49.3182734 -80.5859375 45.55664062 C-80.59114483 43.15365006 -80.59383269 40.75065245 -80.59375 38.34765625 C-80.61014526 37.22972183 -80.62654053 36.11178741 -80.64343262 34.9599762 C-80.58289285 28.07727966 -79.63968427 23.25239684 -75 18 C-72.76157987 16.22352135 -70.89368983 14.9099354 -68.4375 13.5625 C-67.7969165 13.19616455 -67.15633301 12.8298291 -66.49633789 12.45239258 C-46.52198404 1.31763182 -22.46552474 -10.79555904 0 0 Z " fill="#FE004F" transform="translate(341,140)"/>
<path d="M0 0 C0.60634277 0.24137695 1.21268555 0.48275391 1.83740234 0.73144531 C9.77649394 3.93447897 17.49571672 7.62136546 25.125 11.5 C26.17252441 12.01469849 26.17252441 12.01469849 27.24121094 12.53979492 C32.77982709 15.43449297 37.16976795 19.33953589 40 25 C40.11100736 26.74437509 40.15919538 28.49290974 40.17700195 30.24072266 C40.19625481 31.88350693 40.19625481 31.88350693 40.21589661 33.55947876 C40.22328354 34.74899139 40.23067047 35.93850403 40.23828125 37.1640625 C40.246353 38.38523773 40.25442474 39.60641296 40.26274109 40.86459351 C40.27659445 43.45545019 40.28731097 46.04632522 40.29516602 48.63720703 C40.31233883 52.58792116 40.35621107 56.53779002 40.40039062 60.48828125 C40.41052083 63.00520218 40.41903591 65.52213023 40.42578125 68.0390625 C40.44328934 69.21642975 40.46079742 70.393797 40.47883606 71.60684204 C40.4614076 78.24387399 40.06929688 83.56685529 36 89 C32.76051029 92.20531025 29.84947813 93.64781083 25.50390625 94.90234375 C23.85684692 95.39263062 23.85684692 95.39263062 22.17651367 95.89282227 C20.98388916 96.23756592 19.79126465 96.58230957 18.5625 96.9375 C15.96429812 97.71060057 13.36773551 98.48748775 10.7734375 99.2734375 C10.08406601 99.48200882 9.39469452 99.69058014 8.68443298 99.9054718 C3.04757393 101.63240498 -2.52213484 103.52826863 -8.0859375 105.4765625 C-8.93553543 105.77315262 -9.78513336 106.06974274 -10.66047668 106.37532043 C-14.04673729 107.55980247 -17.43182947 108.74675745 -20.80880737 109.95748901 C-23.17753613 110.80645621 -25.5511123 111.6404775 -27.92578125 112.47265625 C-28.62371796 112.72846466 -29.32165466 112.98427307 -30.04074097 113.24783325 C-36.17141094 115.37413224 -42.41929846 116.25163957 -48.5 113.375 C-55.77129987 109.80181828 -61.03262072 105.14405633 -66.2421875 99.01171875 C-73.67072509 90.51017018 -83.03229058 85.00755734 -94.1875 82.8125 C-98 82 -98 82 -100 79 C-99.6338191 75.89914894 -98.34615446 73.68856486 -96.671875 71.09375 C-95.97010132 69.98676758 -95.97010132 69.98676758 -95.25415039 68.85742188 C-94.75778076 68.07947266 -94.26141113 67.30152344 -93.75 66.5 C-88.93168766 58.78822655 -85.04351804 51.15947181 -82.171875 42.50390625 C-74.9260113 21.9190662 -54.74354449 7.46254001 -36 -2 C-24.54786038 -6.71920384 -11.12969301 -4.46243919 0 0 Z " fill="#FE004F" transform="translate(209,140)"/>
<path d="M0 0 C0.8161377 -0.01393799 1.63227539 -0.02787598 2.47314453 -0.04223633 C17.96386581 0.07920386 34.86225786 9.65777335 45.5625 20.375 C61.03774105 37.6434039 64.78035852 58.52981155 64.8125 80.9375 C64.81550613 81.95538605 64.81550613 81.95538605 64.818573 82.99383545 C64.82885705 97.28447006 63.55258504 111.38256322 60.5625 125.375 C54.96384361 121.3100181 49.71574513 116.98729675 44.5625 112.375 C43.40427734 111.37339844 43.40427734 111.37339844 42.22265625 110.3515625 C27.82602479 97.75166704 16.53795602 84.80698181 10.921875 66.3046875 C6.97331922 54.14534985 -0.40461477 43.18156974 -8.4375 33.375 C-9.22511719 32.37984375 -10.01273437 31.3846875 -10.82421875 30.359375 C-13.4891363 27.31603119 -16.30077318 24.76190803 -19.5 22.3125 C-20.06074219 21.88203369 -20.62148438 21.45156738 -21.19921875 21.00805664 C-27.89820413 16.0504695 -35.21470177 12.81994824 -43.4375 11.375 C-34.77306612 0.9168763 -12.55972264 0.13644267 0 0 Z " fill="#9EAACD" transform="translate(385.4375,123.625)"/>
<path d="M0 0 C0.495 0.99 0.495 0.99 1 2 C0.26136719 2.13535156 -0.47726563 2.27070313 -1.23828125 2.41015625 C-18.6709302 6.10933335 -31.95670349 18.68990047 -41.61328125 33.19140625 C-47.87189654 42.99408764 -52.86276921 52.7287953 -56.00390625 63.953125 C-59.17895266 73.66503168 -65.40441854 80.98511155 -72.3515625 88.2109375 C-74.20383726 90.16156314 -75.9244303 92.08208773 -77.62109375 94.15625 C-79.48977374 96.39007436 -81.22875469 98.25802359 -83.4375 100.125 C-84.10910156 100.69605469 -84.78070313 101.26710938 -85.47265625 101.85546875 C-86.30667969 102.56316406 -87.14070313 103.27085937 -88 104 C-89.18732152 105.03647469 -90.37342145 106.07434969 -91.55859375 107.11328125 C-92.83056475 108.2215429 -94.10270111 109.32961478 -95.375 110.4375 C-95.99431396 110.98229004 -96.61362793 111.52708008 -97.25170898 112.08837891 C-101.77331368 116 -101.77331368 116 -104 116 C-106.07366721 100.70854266 -107.31824389 85.60925176 -107.375 70.1875 C-107.38249268 69.48796204 -107.38998535 68.78842407 -107.39770508 68.06768799 C-107.59464462 45.72883593 -102.10736607 25.92411355 -86.6875 9.25 C-80.13550258 3.06609232 -72.20620889 -1.05579854 -64.125 -4.875 C-63.49464844 -5.17341797 -62.86429688 -5.47183594 -62.21484375 -5.77929688 C-43.37434451 -14.39611369 -17.99743924 -8.31541916 0 0 Z " fill="#9EAACD" transform="translate(168,133)"/>
<path d="M0 0 C2.13720703 1.28759766 2.13720703 1.28759766 4.2578125 2.9140625 C5.04929687 3.51089844 5.84078125 4.10773438 6.65625 4.72265625 C7.4709375 5.35042969 8.285625 5.97820312 9.125 6.625 C10.72889659 7.85012622 12.33569387 9.07146389 13.9453125 10.2890625 C14.75967773 10.91095459 15.57404297 11.53284668 16.41308594 12.17358398 C19.10584355 14.07472778 21.89187478 15.60280192 24.7734375 17.19921875 C31.19225553 21.23873479 33.07413451 26.21175553 35.5 33.1875 C35.93940918 34.35482666 36.37881836 35.52215332 36.83154297 36.72485352 C37.76194665 39.19742187 38.67933856 41.67146561 39.58105469 44.15429688 C41.01780231 48.0844677 42.54890703 51.97377021 44.1015625 55.859375 C44.35609192 56.49744583 44.61062134 57.13551666 44.87286377 57.79292297 C45.37707222 59.05656435 45.88144395 60.3201406 46.38598633 61.58364868 C47.56056952 64.53014707 48.72492021 67.48049807 49.8828125 70.43359375 C50.26840332 71.41384521 50.65399414 72.39409668 51.05126953 73.40405273 C55.70924287 86.14935136 52.98843282 101.35444479 51.56063843 114.56219482 C51.39579965 116.09859518 51.23805082 117.63577348 51.08755493 119.17364502 C50.86909774 121.36639459 50.62055049 123.55369141 50.36328125 125.7421875 C50.15119019 127.65813721 50.15119019 127.65813721 49.93481445 129.61279297 C48.80607469 133.70266905 47.2786591 135.36470158 44 138 C40.8125 138.875 40.8125 138.875 37 138 C33.29555028 135.35482921 30.16789742 132.25769609 27 129 C26.29488281 128.29230469 25.58976562 127.58460938 24.86328125 126.85546875 C5.69790676 106.56050441 -3.88472074 76.35535735 -11 50 C-11.52037842 48.13674072 -11.52037842 48.13674072 -12.05126953 46.23583984 C-13.08173717 42.06869694 -13.35444731 38.08903673 -13.40625 33.80859375 C-13.41765015 33.05965347 -13.42905029 32.3107132 -13.4407959 31.53907776 C-13.45954295 29.96857225 -13.47270232 28.39799078 -13.48046875 26.82739258 C-13.49998875 24.43887648 -13.56219757 22.05373445 -13.625 19.66601562 C-13.80024468 6.89271879 -13.80024468 6.89271879 -10.09375 2.47265625 C-6.04276569 -0.76506227 -4.94052059 -1.39291808 0 0 Z " fill="#9EAACD" transform="translate(414,233)"/>
<path d="M0 0 C4.86662757 0.21629456 7.48884932 1.6894865 11 5 C12.54600461 8.09200922 12.24576321 11.37205505 12.30859375 14.76953125 C12.323992 15.55332153 12.33939026 16.33711182 12.35525513 17.14465332 C12.85284097 48.31542829 12.85284097 48.31542829 6.97998047 63.4375 C5.86587358 66.35072021 4.87096988 69.29305077 3.87890625 72.25 C-0.22825203 84.32574741 -4.85220908 95.82451258 -11 107 C-11.55042969 108.04929687 -12.10085937 109.09859375 -12.66796875 110.1796875 C-18.31921803 120.51570163 -27.18909998 133.59454999 -38 139 C-44.25767057 139.57941394 -44.25767057 139.57941394 -47.15478516 137.31811523 C-49.30178602 134.62087083 -49.70102708 132.99201383 -50.1484375 129.59765625 C-50.29506836 128.53562988 -50.44169922 127.47360352 -50.59277344 126.37939453 C-50.7271582 125.26419434 -50.86154297 124.14899414 -51 123 C-51.14211914 121.90155762 -51.28423828 120.80311523 -51.43066406 119.67138672 C-51.85729474 116.26279566 -52.24586177 112.85167844 -52.625 109.4375 C-52.7590625 108.29603516 -52.893125 107.15457031 -53.03125 105.97851562 C-55.3017539 85.69457516 -50.40825341 70.23413298 -43.16259766 51.39160156 C-42.30731629 49.1387444 -41.47374485 46.87751982 -40.66259766 44.60839844 C-35.26991679 29.55082781 -30.26329755 19.93030171 -15.97990417 12.13674927 C-12.79909178 10.31050626 -9.97241611 8.10452862 -7.0625 5.875 C-6.12535156 5.17117187 -5.18820313 4.46734375 -4.22265625 3.7421875 C-1.96180766 2.04200909 -1.96180766 2.04200909 0 0 Z " fill="#9EAACD" transform="translate(97,232)"/>
<path d="M0 0 C2.62193068 3.93289602 2.32393556 7.33527876 2.3359375 11.90234375 C2.3459227 13.21350914 2.3459227 13.21350914 2.35610962 14.55116272 C2.36623288 16.39956559 2.37092674 18.24800498 2.37060547 20.09643555 C2.37497854 22.92362687 2.41130002 25.74925682 2.44921875 28.57617188 C2.45508701 30.37239049 2.45905634 32.16861653 2.4609375 33.96484375 C2.47530853 34.80973862 2.48967957 35.65463348 2.50448608 36.52513123 C2.45896324 42.3759346 2.45896324 42.3759346 0.16552734 45.49438477 C-2.71039549 47.49391308 -5.34595693 48.18186089 -8.75 49 C-9.4090332 49.16532227 -10.06806641 49.33064453 -10.74707031 49.50097656 C-14.11245497 50.33953813 -17.48883327 51.1084106 -20.875 51.859375 C-29.62528589 53.87052942 -37.54069626 56.67691286 -45.70605469 60.44628906 C-46.46821289 60.79014648 -47.23037109 61.13400391 -48.015625 61.48828125 C-48.68883789 61.80321533 -49.36205078 62.11814941 -50.05566406 62.44262695 C-52.43656739 63.12514859 -53.69684339 62.85364483 -56 62 C-64.71787529 54.75607476 -71.63527873 41.74858161 -73.37109375 30.62109375 C-73.39300781 29.90050781 -73.41492188 29.17992187 -73.4375 28.4375 C-73.49744141 27.35275391 -73.49744141 27.35275391 -73.55859375 26.24609375 C-72.69063961 22.75606834 -70.70192779 21.31339319 -68 19 C-65.48725922 18.03310212 -63.22631879 17.31332631 -60.63671875 16.6796875 C-59.11117072 16.2687818 -57.58698296 15.852803 -56.06396484 15.43261719 C-55.24764587 15.20795776 -54.4313269 14.98329834 -53.590271 14.75183105 C-48.90915116 13.39312717 -44.31377472 11.78492102 -39.70703125 10.1953125 C-37.73898024 9.52329707 -35.77088086 8.85142326 -33.80273438 8.1796875 C-30.78122267 7.14555019 -27.76138582 6.10723106 -24.74487305 5.05859375 C-21.77798507 4.02935731 -18.80569697 3.0172704 -15.83203125 2.0078125 C-14.93200882 1.6902298 -14.03198639 1.37264709 -13.10469055 1.04544067 C-8.4409458 -0.5222583 -4.84474435 -1.68951213 0 0 Z " fill="#9EAACD" transform="translate(247,245)"/>
<path d="M0 0 C1.84380069 0.53281335 3.67593165 1.10738802 5.49536133 1.71826172 C6.54697952 2.06887665 7.59859772 2.41949158 8.68208313 2.7807312 C9.80406601 3.15988678 10.92604889 3.53904236 12.08203125 3.9296875 C13.83515877 4.51618576 13.83515877 4.51618576 15.623703 5.11453247 C19.35473464 6.36379466 23.08363401 7.61929024 26.8125 8.875 C29.3104077 9.71265471 31.80845316 10.54989877 34.30664062 11.38671875 C39.9222949 13.26854678 45.53763831 15.15125625 51.14834595 17.04779053 C52.99596269 17.66473709 54.84799707 18.26866874 56.70492554 18.85699463 C57.51345978 19.11446472 58.32199402 19.37193481 59.1550293 19.63720703 C59.85452194 19.85458527 60.55401459 20.0719635 61.27470398 20.29592896 C63 21 63 21 65 23 C66.72580384 34.15414273 62.68494418 43.28657175 56.5625 52.375 C53.63220745 56.30960106 50.83178615 59.91791114 47 63 C43.64121182 62.64931604 40.69974658 61.59501455 37.5859375 60.328125 C36.7515918 59.99570801 35.91724609 59.66329102 35.05761719 59.32080078 C33.72972168 58.79075439 33.72972168 58.79075439 32.375 58.25 C21.73321069 54.09415608 10.83229136 50.57340659 -0.43945312 48.56542969 C-1.63731445 48.3435498 -1.63731445 48.3435498 -2.859375 48.1171875 C-3.58092773 47.99714355 -4.30248047 47.87709961 -5.04589844 47.75341797 C-7.87066319 46.66430952 -8.61760452 45.71689274 -10 43 C-10.44641974 39.99918376 -10.4441598 37.02968487 -10.43359375 34 C-10.4388356 33.12730469 -10.44407745 32.25460937 -10.44947815 31.35546875 C-10.45589266 29.51303164 -10.45456873 27.67055355 -10.44604492 25.828125 C-10.43752923 23.0096756 -10.46631205 20.19324951 -10.49804688 17.375 C-10.49965888 15.58333394 -10.49908137 13.79166429 -10.49609375 12 C-10.50732773 11.15824219 -10.51856171 10.31648437 -10.53013611 9.44921875 C-10.48561128 5.71094935 -10.37089299 3.58791706 -8.34399414 0.375 C-5.14945894 -1.49893212 -3.56974441 -0.77417499 0 0 Z " fill="#9EAACD" transform="translate(271,245)"/>
<path d="M0 0 C1.26521484 -0.00193359 2.53042969 -0.00386719 3.83398438 -0.00585938 C5.14818359 0.01798828 6.46238281 0.04183594 7.81640625 0.06640625 C9.12673828 0.05544922 10.43707031 0.04449219 11.78710938 0.03320312 C22.90076972 0.11804023 22.90076972 0.11804023 28.37890625 4.62890625 C32.54456958 9.24806497 31.82895544 14.9633438 31.8125 20.84375 C31.81774185 21.93224747 31.8229837 23.02074493 31.8283844 24.14222717 C31.83479943 26.44108224 31.83347436 28.73997015 31.82495117 31.03881836 C31.81644463 34.5505639 31.84520637 38.06068083 31.87695312 41.57226562 C31.87856537 43.80859326 31.87798716 46.04492378 31.875 48.28125 C31.88623398 49.32828598 31.89746796 50.37532196 31.90904236 51.4540863 C31.85316889 57.31750118 31.52991805 61.11987245 27.37890625 65.62890625 C21.99704512 69.91909129 15.99186881 69.11619798 9.40405273 69.07495117 C7.31850286 69.06641483 5.23567212 69.09527237 3.15039062 69.12695312 C1.83232422 69.12630859 0.51425781 69.12566406 -0.84375 69.125 C-2.04781494 69.12685303 -3.25187988 69.12870605 -4.49243164 69.13061523 C-8.31311221 68.51793489 -9.25328467 67.63159374 -11.62109375 64.62890625 C-12.13575745 61.94166565 -12.13575745 61.94166565 -12.15454102 58.83813477 C-12.17037735 57.67335098 -12.18621368 56.5085672 -12.20252991 55.30848694 C-12.19757004 54.05426437 -12.19261017 52.80004181 -12.1875 51.5078125 C-12.19369858 50.21576401 -12.19989716 48.92371552 -12.20628357 47.59251404 C-12.21668214 44.85959032 -12.2121357 42.12718744 -12.19750977 39.39428711 C-12.18033115 35.898998 -12.20380457 32.40535423 -12.23899937 28.91024876 C-12.26629634 25.56767371 -12.2562354 22.22549383 -12.25 18.8828125 C-12.26325821 17.63061417 -12.27651642 16.37841583 -12.29017639 15.08827209 C-12.19825204 6.52202324 -12.19825204 6.52202324 -9.49560547 2.33984375 C-6.05841006 0.29399141 -3.98861664 -0.00251366 0 0 Z " fill="#9DA8CB" transform="translate(272.62109375,359.37109375)"/>
<path d="M0 0 C1.3588297 -0.01154168 2.71761329 -0.03202852 4.07617188 -0.06152344 C6.04190824 -0.10418947 8.00820789 -0.11776453 9.97436523 -0.13061523 C11.73671509 -0.15248901 11.73671509 -0.15248901 13.53466797 -0.17480469 C17.32673402 0.40596762 18.25727326 1.31349626 20.60327148 4.29516602 C21.11120605 7.02709961 21.11120605 7.02709961 21.12084961 10.19360352 C21.13345825 11.38163574 21.14606689 12.56966797 21.15905762 13.79370117 C21.15096069 15.07293457 21.14286377 16.35216797 21.13452148 17.67016602 C21.13834839 18.98678223 21.14217529 20.30339844 21.14611816 21.65991211 C21.15200872 24.44412036 21.14346562 27.22781451 21.12475586 30.01196289 C21.10196524 33.57665934 21.11509089 37.14015119 21.13904572 40.70480347 C21.15699479 44.11002032 21.14441926 47.51491495 21.13452148 50.92016602 C21.14261841 52.19939941 21.15071533 53.47863281 21.15905762 54.79663086 C21.14644897 55.98466309 21.13384033 57.17269531 21.12084961 58.39672852 C21.11607605 59.96414795 21.11607605 59.96414795 21.11120605 61.56323242 C20.4721761 65.00026446 19.34475813 66.1857408 16.60327148 68.29516602 C13.49047852 68.81274414 13.49047852 68.81274414 9.86108398 68.82641602 C8.5475293 68.83157227 7.23397461 68.83672852 5.88061523 68.84204102 C4.85750244 68.82947266 4.85750244 68.82947266 3.8137207 68.81665039 C1.74106806 68.79529785 -0.32809184 68.81642366 -2.40063477 68.84204102 C-3.71676758 68.83688477 -5.03290039 68.83172852 -6.38891602 68.82641602 C-8.1888501 68.81964844 -8.1888501 68.81964844 -10.02514648 68.81274414 C-14.12028846 68.18409092 -16.24793036 66.96617997 -19.39672852 64.29516602 C-21.1053939 60.83953781 -21.65909157 57.98990773 -21.71899414 54.15698242 C-21.73820923 53.15889557 -21.75742432 52.16080872 -21.77722168 51.13247681 C-21.78572144 50.06467987 -21.79422119 48.99688293 -21.80297852 47.89672852 C-21.81437866 46.78840668 -21.82577881 45.68008484 -21.83752441 44.53817749 C-21.85639138 42.19647014 -21.86947926 39.85471009 -21.87719727 37.51293945 C-21.89662393 33.93940366 -21.9586988 30.36816284 -22.02172852 26.79516602 C-22.03478853 24.5165338 -22.0452895 22.23788519 -22.05297852 19.95922852 C-22.07767212 18.89548004 -22.10236572 17.83173157 -22.12780762 16.73574829 C-22.09083415 10.54870926 -21.34149043 7.01740921 -16.97912598 2.51400757 C-12.3151678 -1.07840595 -5.57491398 0.03301956 0 0 Z " fill="#9EAACD" transform="translate(228.396728515625,359.704833984375)"/>
<path d="M0 0 C14.43877021 2.17058022 29.15215123 10.02910594 39.01953125 20.69140625 C42.04369523 25.22765222 41.79871965 29.379374 41.01953125 34.69140625 C38.66018225 40.87779294 36.17432192 45.81947537 30.01953125 48.69140625 C26.97281452 49.12357 23.95995913 49.11206847 20.88671875 49.08984375 C19.57624069 49.09414902 19.57624069 49.09414902 18.23928833 49.09854126 C16.39861398 49.1005772 14.55791777 49.09508028 12.71728516 49.08251953 C9.89697152 49.06642018 7.07808251 49.08240372 4.2578125 49.1015625 C2.46744475 49.09958074 0.67707789 49.09573846 -1.11328125 49.08984375 C-1.95706329 49.09591644 -2.80084534 49.10198914 -3.67019653 49.10824585 C-9.50678271 49.03788762 -9.50678271 49.03788762 -11.70202637 47.43215942 C-13.28648104 45.27473369 -13.36016757 44.11087918 -13.36865234 41.45117188 C-13.37810883 40.60018921 -13.38756531 39.74920654 -13.39730835 38.87243652 C-13.39123566 37.95675903 -13.38516296 37.04108154 -13.37890625 36.09765625 C-13.38177643 35.15458618 -13.38464661 34.21151611 -13.38760376 33.23986816 C-13.38964521 31.24600626 -13.38410968 29.25212437 -13.37158203 27.25830078 C-13.35552964 24.20299581 -13.37142808 21.14901373 -13.390625 18.09375 C-13.38864258 16.15754916 -13.38479894 14.22134914 -13.37890625 12.28515625 C-13.38497894 11.36947876 -13.39105164 10.45380127 -13.39730835 9.51037598 C-13.38785187 8.65939331 -13.37839539 7.80841064 -13.36865234 6.93164062 C-13.36626556 6.18346069 -13.36387878 5.43528076 -13.36141968 4.66442871 C-12.0312554 -2.22476304 -5.38967014 -0.52731067 0 0 Z " fill="#9DA9CC" transform="translate(273.98046875,302.30859375)"/>
<path d="M0 0 C2.0114238 1.58239173 2.90041131 2.47252618 3.38095093 5.01771545 C3.3845311 6.171157 3.3845311 6.171157 3.38818359 7.34790039 C3.39764008 8.2221315 3.40709656 9.09636261 3.4168396 9.99708557 C3.41076691 10.9377739 3.40469421 11.87846222 3.3984375 12.84765625 C3.40130768 13.81529404 3.40417786 14.78293182 3.40713501 15.77989197 C3.40917642 17.82502833 3.40364118 19.87018419 3.39111328 21.9152832 C3.37504357 25.05398959 3.39096854 28.19141159 3.41015625 31.33007812 C3.40817417 33.31510702 3.40433124 35.30013511 3.3984375 37.28515625 C3.40754654 38.69922508 3.40754654 38.69922508 3.4168396 40.14186096 C3.40738312 41.01293991 3.39792664 41.88401886 3.38818359 42.78149414 C3.38579681 43.54965958 3.38341003 44.31782501 3.38095093 45.10926819 C3 47 3 47 0 49 C-2.98705955 49.22064562 -5.87849446 49.32805421 -8.8671875 49.3359375 C-10.17479538 49.3459227 -10.17479538 49.3459227 -11.50881958 49.35610962 C-13.35302623 49.3662339 -15.1972695 49.37092671 -17.04150391 49.37060547 C-19.85771375 49.37497319 -22.6723493 49.41127881 -25.48828125 49.44921875 C-27.28124465 49.45508812 -29.07421548 49.45905671 -30.8671875 49.4609375 C-31.70692108 49.47530853 -32.54665466 49.48967957 -33.41183472 49.50448608 C-37.42453319 49.47326184 -39.48544055 49.32316558 -42.95825195 47.14208984 C-47.53264743 42.34288551 -51.27480537 35.3435489 -51.625 28.625 C-50.26056393 20.7112708 -44.66195591 16.71353946 -38.484375 12.24609375 C-28.20278758 5.38093095 -12.66327962 -2.69094692 0 0 Z " fill="#9EAACD" transform="translate(246,302)"/>
<path d="M0 0 C5.37424051 4.09146547 6.66362028 8.97666363 8.5 15.1875 C11.16176356 23.76783143 11.16176356 23.76783143 15 31.875 C16.76008588 35.1114737 17 36.03344762 17 39.9375 C15.99540691 43.01406634 15.47188094 44.05271449 13 46 C5.95571619 46.54016589 -0.65970707 45.39786822 -7.578125 44.13671875 C-8.66655701 43.94406937 -9.75498901 43.75141998 -10.87640381 43.55293274 C-13.16971741 43.14545679 -15.46237492 42.73427272 -17.75439453 42.31958008 C-21.22412559 41.69217864 -24.69578229 41.07654161 -28.16796875 40.46289062 C-59.02733187 34.97266813 -59.02733187 34.97266813 -61 33 C-61.5625 30.25 -61.5625 30.25 -61 27 C-53.60485714 21.59475327 -44.99052739 17.99858727 -36.75 14.0625 C-34.57962375 13.0209619 -32.40989355 11.97809247 -30.24046326 10.93458557 C-28.82819769 10.25569944 -27.41533154 9.57806119 -26.00184631 8.90171814 C-22.79441397 7.36357421 -19.6000053 5.8083181 -16.43530273 4.18383789 C-15.37770752 3.64106201 -14.3201123 3.09828613 -13.23046875 2.5390625 C-11.86378052 1.82484131 -11.86378052 1.82484131 -10.46948242 1.09619141 C-6.56047107 -0.63899999 -4.21307116 -0.81304882 0 0 Z " fill="#9DA9CC" transform="translate(205,84)"/>
<path d="M0 0 C3.53561879 1.21060954 6.80051917 2.86473033 10.125 4.5625 C11.09260254 5.04122559 12.06020508 5.51995117 13.05712891 6.01318359 C15.19334344 7.07308624 17.3258213 8.14054377 19.45507812 9.21435547 C23.34173143 11.17213662 27.24032097 13.10477612 31.140625 15.03515625 C36.48103409 17.68375179 41.81961725 20.33596586 47.1484375 23.0078125 C48.25364746 23.56098145 49.35885742 24.11415039 50.49755859 24.68408203 C53 26 53 26 54 27 C54.375 29.375 54.375 29.375 54 32 C50.49564429 34.57158145 47.30690219 35.57165075 43.06738281 36.3503418 C41.89556458 36.57034348 40.72374634 36.79034515 39.51641846 37.01701355 C38.25803162 37.24214127 36.99964478 37.46726898 35.703125 37.69921875 C34.38649756 37.94090382 33.0699913 38.18324995 31.75360107 38.42622375 C28.9976674 38.93259191 26.24057476 39.4318919 23.48242188 39.92602539 C19.96900574 40.55590536 16.4587554 41.20172482 12.94920731 41.85277081 C10.23059916 42.35548914 7.51060098 42.85032391 4.79012299 43.34281349 C2.87247569 43.69116226 0.95590563 44.04542476 -0.96063232 44.39982605 C-17.80235118 47.39363096 -17.80235118 47.39363096 -22.5625 44.375 C-24.43174197 41.28668717 -24.28723337 39.58827355 -24 36 C-22.828125 32.73828125 -22.828125 32.73828125 -21.25 29.3125 C-17.99447711 22.07021074 -14.8993469 14.79087703 -13 7.0625 C-10.75082202 0.17439243 -6.8451341 -0.98188989 0 0 Z " fill="#9EA9CC" transform="translate(313,84)"/>
<path d="M0 0 C0.12491787 5.19197105 0.21495057 10.38304072 0.2746582 15.57617188 C0.2995842 17.33739486 0.33353826 19.0985168 0.37719727 20.859375 C0.67201964 33.0684896 0.031221 42.56422233 -7.03515625 53.0078125 C-18.97289767 65.47458678 -18.97289767 65.47458678 -26 70 C-28.16870117 69.60864258 -28.16870117 69.60864258 -30 69 C-30.10041887 65.08984372 -30.17218019 61.18020749 -30.21972656 57.26904297 C-30.2492475 55.30018659 -30.30012677 53.33168702 -30.3515625 51.36328125 C-30.5291437 33.8715334 -24.10452178 23.1059269 -12.46875 10.6640625 C-9.68305893 7.65798448 -7.06247175 4.53850959 -4.47265625 1.36328125 C-3 0 -3 0 0 0 Z " fill="#9DA9CB" transform="translate(357,330)"/>
<path d="M0 0 C6.01306603 0.58442326 9.4019886 6.67654022 13 11 C13.46986328 11.56041992 13.93972656 12.12083984 14.42382812 12.69824219 C23.26232855 23.31974236 29.156406 31.9933427 29.09765625 46.26953125 C29.0962413 46.95053391 29.09482635 47.63153656 29.09336853 48.33317566 C29.08780298 50.49299647 29.07525703 52.65271089 29.0625 54.8125 C29.05748054 56.28320162 29.05291841 57.75390488 29.04882812 59.22460938 C29.03784488 62.8164404 29.02060422 66.4082098 29 70 C25.12937488 69.47239619 23.07132679 68.59792573 20.22265625 65.9375 C19.54396484 65.30457031 18.86527344 64.67164063 18.16601562 64.01953125 C17.47185547 63.35308594 16.77769531 62.68664062 16.0625 62 C15.37220703 61.36449219 14.68191406 60.72898437 13.97070312 60.07421875 C5.2461472 51.82103693 -0.50007507 43.24368087 -1.24023438 31.03857422 C-1.34385141 27.28235113 -1.33207961 23.53119264 -1.28125 19.77416992 C-1.24964744 17.41113758 -1.24022517 15.04877117 -1.234375 12.68554688 C-1.22522068 11.1848876 -1.21484997 9.68423514 -1.203125 8.18359375 C-1.19887512 7.47641708 -1.19462524 6.76924042 -1.19024658 6.04063416 C-1.1172906 1.1172906 -1.1172906 1.1172906 0 0 Z " fill="#9DA9CC" transform="translate(154,330)"/>
<path d="M0 0 C4.97917914 0.67748748 6.86605149 3.9473449 9.8125 7.6875 C10.30814453 8.28111328 10.80378906 8.87472656 11.31445312 9.48632812 C20.6106132 21.12746551 25.04557967 35.11136434 29.50952148 49.09814453 C30.44632127 52.02758474 31.4045806 54.94939974 32.36523438 57.87109375 C32.97262545 59.74698468 33.57879078 61.62327304 34.18359375 63.5 C34.46786728 64.36568604 34.75214081 65.23137207 35.04502869 66.12329102 C36.4362464 70.5245594 37.46363398 74.32476022 37 79 C35.8125 80.875 35.8125 80.875 34 82 C31.62109375 82.35546875 31.62109375 82.35546875 29 82 C25.74514712 78.81791822 23.45326025 74.82092004 21 71 C20.63326172 70.44328613 20.26652344 69.88657227 19.88867188 69.31298828 C8.36388924 51.71013549 -1.23395259 30.48773043 -1.125 9.1875 C-1.12886719 8.41212891 -1.13273438 7.63675781 -1.13671875 6.83789062 C-1.12672546 1.12672546 -1.12672546 1.12672546 0 0 Z " fill="#9DA9CB" transform="translate(217,60)"/>
<path d="M0 0 C2.475 0.495 2.475 0.495 5 1 C7.14927787 29.41822961 -6.91017148 59.14464756 -24.55078125 80.75439453 C-26 82 -26 82 -29.3125 82 C-32 81 -32 81 -33 80 C-33.38884668 73.98276235 -32.50213278 69.62583328 -30.3125 64.0625 C-28.13274054 58.23845518 -26.18379102 52.42369834 -24.5 46.4375 C-20.89772687 33.91840877 -17.18624712 22.35609576 -9 12 C-8.18162798 10.91130295 -7.36671883 9.81999707 -6.5546875 8.7265625 C-4.38530349 5.80586386 -2.19727355 2.89980319 0 0 Z " fill="#9DA8CB" transform="translate(290,60)"/>
<path d="M0 0 C0.14728458 3.62456014 0.23472226 7.24833521 0.3125 10.875 C0.35439453 11.88820313 0.39628906 12.90140625 0.43945312 13.9453125 C0.57719313 22.54028892 -1.54620342 28.760634 -6.9921875 35.4453125 C-7.61351562 35.99960937 -8.23484375 36.55390625 -8.875 37.125 C-11.66594622 39.72637252 -14.2615249 42.35567918 -16.75 45.25 C-17.31976563 45.90355469 -17.88953125 46.55710937 -18.4765625 47.23046875 C-19.70831158 48.66119268 -20.91988396 50.10927183 -22.125 51.5625 C-24 53 -24 53 -26.6875 52.8125 C-29 52 -29 52 -30 51 C-30.33941884 47.36392199 -30.32540346 43.71235469 -30.375 40.0625 C-30.41238281 39.05380859 -30.44976562 38.04511719 -30.48828125 37.00585938 C-30.59007051 28.22370781 -28.40225201 21.82820749 -22.53515625 15.2265625 C-21.69855469 14.49179687 -20.86195313 13.75703125 -20 13 C-18.63681641 11.61941406 -18.63681641 11.61941406 -17.24609375 10.2109375 C-16.31925781 9.27507812 -15.39242188 8.33921875 -14.4375 7.375 C-13.73463867 6.65957031 -13.73463867 6.65957031 -13.01757812 5.9296875 C-5.7600238 -1.37861895 -5.7600238 -1.37861895 0 0 Z " fill="#9CA8CB" transform="translate(357,393)"/>
<path d="M0 0 C3.96364321 0.29056707 6.01562671 1.49611929 8.84765625 4.203125 C9.53537109 4.85410156 10.22308594 5.50507813 10.93164062 6.17578125 C11.63482422 6.86027344 12.33800781 7.54476563 13.0625 8.25 C13.76955078 8.91902344 14.47660156 9.58804687 15.20507812 10.27734375 C22.26450005 17.02522311 28.0469125 22.77953477 28.36328125 32.984375 C28.36195929 35.23964647 28.34456831 37.49495615 28.3125 39.75 C28.31733398 41.47283203 28.31733398 41.47283203 28.32226562 43.23046875 C28.26718565 51.73281435 28.26718565 51.73281435 26 54 C22.49884499 53.68605979 20.75485938 52.13981798 18.3203125 49.71875 C17.63839844 49.04070312 16.95648438 48.36265625 16.25390625 47.6640625 C15.55136719 46.94992187 14.84882813 46.23578125 14.125 45.5 C13.43019531 44.81679688 12.73539063 44.13359375 12.01953125 43.4296875 C3.47340052 34.83527355 -2.23688047 26.85377148 -2.2734375 14.4609375 C-2.26570312 13.56632812 -2.25796875 12.67171875 -2.25 11.75 C-2.25773438 10.83992188 -2.26546875 9.92984375 -2.2734375 8.9921875 C-2.27085937 8.12335938 -2.26828125 7.25453125 -2.265625 6.359375 C-2.26336914 5.57014648 -2.26111328 4.78091797 -2.25878906 3.96777344 C-2 2 -2 2 0 0 Z " fill="#9DA9CC" transform="translate(155,392)"/>
<path d="M0 0 C4.84482255 0.71775149 7.67997699 3.36741982 10.69921875 7.1015625 C22.61388279 23.38407518 27.15477309 43.0053178 26 63 C24.82060636 69.70655195 21.41350365 76.83112898 17 82 C15.68 82 14.36 82 13 82 C12.99635437 81.44448959 12.99270874 80.88897919 12.98895264 80.31663513 C12.94666877 74.45848904 12.8770145 68.60109344 12.79248047 62.7434082 C12.76450623 60.56640178 12.74317649 58.38929823 12.72900391 56.2121582 C12.61745853 40.03436117 11.84789376 25.72375168 3.75 11.3125 C0 4.48404255 0 4.48404255 0 0 Z " fill="#9BA6C9" transform="translate(460,277)"/>
<path d="M0 0 C1.32 0.33 2.64 0.66 4 1 C2.60377584 4.59128303 1.06736528 8.10624456 -0.51318359 11.61987305 C-8.34878849 29.14753755 -9.11234742 45.3197358 -9.5625 64.3125 C-9.60581405 66.035815 -9.64943181 67.7591224 -9.69335938 69.48242188 C-9.79906713 73.65486869 -9.90069031 77.8273962 -10 82 C-11.32 82 -12.64 82 -14 82 C-22.94944752 68.05644114 -24.21509737 55.06681836 -21.1015625 38.86328125 C-17.6641102 23.49988075 -11.22327606 11.06520175 0 0 Z " fill="#9DA8CB" transform="translate(47,277)"/>
<path d="M0 0 C0.99 0 1.98 0 3 0 C3.21503174 0.60134766 3.43006348 1.20269531 3.65161133 1.82226562 C8.38759212 14.97514432 13.52204586 27.79617496 19.54418945 40.41796875 C19.9949585 41.36929688 20.44572754 42.320625 20.91015625 43.30078125 C21.31371338 44.13778564 21.71727051 44.97479004 22.13305664 45.8371582 C23 48 23 48 23 51 C12.32074338 46.32191856 7.40772974 34.06524613 3 24 C2.55974487 23.02087646 2.55974487 23.02087646 2.1105957 22.02197266 C0.0433738 17.06964654 -0.38004629 12.83205112 -0.1875 7.5 C-0.17396484 6.77296875 -0.16042969 6.0459375 -0.14648438 5.296875 C-0.11162998 3.53091889 -0.05784529 1.76535258 0 0 Z " fill="#9AA6C8" transform="translate(399,297)"/>
<path d="M0 0 C0.66 0 1.32 0 2 0 C2.99232078 18.41306328 -2.07118936 33.05717607 -14.3125 47.25 C-16.30078125 49.453125 -16.30078125 49.453125 -18 51 C-18.66 51 -19.32 51 -20 51 C-19.46231993 45.05619119 -16.97665193 40.30164435 -14.4375 35 C-9.50824081 24.4806202 -5.45582328 13.76694976 -1.68920898 2.78393555 C-1 1 -1 1 0 0 Z " fill="#9AA6C9" transform="translate(109,297)"/>
</svg>
