<?xml version="1.0" encoding="UTF-8"?>
<svg version="1.1" xmlns="http://www.w3.org/2000/svg" width="512" height="512">
<path d="M0 0 C1.16982422 0.0141394 1.16982422 0.0141394 2.36328125 0.02856445 C26.85996351 0.63952106 55.93069216 6.40170297 73.875 24.375 C91.67454143 43.51801986 103.10300681 68.42936906 111.9375 92.75 C112.31986816 93.80203613 112.70223633 94.85407227 113.09619141 95.93798828 C114.91306967 101.10012382 116.37540758 105.9179136 116.875 111.375 C117.43445313 111.44976562 117.99390625 111.52453125 118.5703125 111.6015625 C140.32597615 115.16921152 159.05708402 129.84110151 171.87109375 147.32421875 C183.875 164.56131778 183.875 164.56131778 183.875 170.375 C185.03 170.375 186.185 170.375 187.375 170.375 C207.31849987 172.6327547 226.21127269 190.60607191 238.46289062 205.27636719 C247.07570252 216.09600048 253.85837286 228.0645198 260.67578125 240.0546875 C262.07515047 242.51583589 263.47482278 244.97681119 264.875 247.4375 C265.22524231 248.05310791 265.57548462 248.66871582 265.93634033 249.30297852 C272.87982008 261.49456333 279.84720492 273.57318405 288.875 284.375 C289.52726562 285.18453125 290.17953125 285.9940625 290.8515625 286.828125 C301.13628529 299.02019638 315.09552394 307.7225044 331.01171875 310.1640625 C337.57848539 310.64783521 344.12332245 310.19567576 350.4375 308.3125 C359.63748602 305.8034129 368.51571562 307.62474215 377.44140625 310.33203125 C378.48272202 310.63566086 379.52403778 310.93929047 380.59690857 311.25212097 C382.77464906 311.89090971 384.95011204 312.53751138 387.12329102 313.19165039 C390.45487708 314.19272144 393.79382404 315.16543028 397.13476562 316.13476562 C399.25829833 316.76137675 401.38136344 317.38957519 403.50390625 318.01953125 C404.50071915 318.3102803 405.49753204 318.60102936 406.52455139 318.90058899 C407.90760719 319.32068489 407.90760719 319.32068489 409.31860352 319.74926758 C410.12846207 319.99131424 410.93832062 320.2333609 411.77272034 320.48274231 C414.10282371 321.47169382 415.32882656 322.37731422 416.875 324.375 C417.42934154 328.57215741 417.17797363 330.80271647 415.1875 334.5625 C411.00466076 339.64973691 407.42849449 342.17352601 400.875 343.375 C397.82380018 343.3211553 394.88392955 342.86378289 391.875 342.375 C390.73160156 342.20355469 389.58820313 342.03210938 388.41015625 341.85546875 C385.22948071 341.37543194 382.05167792 340.88071534 378.875 340.375 C379.34059326 340.7153125 379.80618652 341.055625 380.28588867 341.40625 C389.82511088 348.38690452 399.30448881 355.43544226 408.6875 362.625 C414.60302674 367.15665135 420.5405894 371.63473569 426.625 375.9375 C427.71747356 376.71350557 428.80992279 377.48954538 429.90234375 378.265625 C431.8298115 379.63334193 433.75937585 380.99811086 435.69140625 382.359375 C436.51511719 382.96265625 437.33882813 383.5659375 438.1875 384.1875 C438.88488281 384.68894531 439.58226562 385.19039063 440.30078125 385.70703125 C442.3545619 387.88312142 442.7108395 389.41073045 442.875 392.375 C439.4046305 396.76399672 436.29665376 398.69202168 430.8984375 399.76953125 C415.45143861 401.29356626 397.36465903 385.918533 384.875 378.375 C385.59196045 379.09123535 386.3089209 379.8074707 387.04760742 380.54541016 C389.7424498 383.24019337 392.42812442 385.94400162 395.11328125 388.6484375 C396.6215923 390.16413247 398.1303905 391.67934063 399.6394043 393.19433594 C400.6670057 394.2269611 401.69370714 395.26048268 402.71948242 396.29492188 C408.07974022 401.69906683 413.46042437 407.01164022 419.24633789 411.96630859 C421.26279915 413.71042214 423.13422783 415.53652825 424.9375 417.5 C425.82115234 418.43199219 425.82115234 418.43199219 426.72265625 419.3828125 C427.875 421.375 427.875 421.375 427.7421875 424.00390625 C426.875 426.375 426.875 426.375 423.9375 428.1875 C417.92839212 430.33009174 411.93847242 430.45499357 406.08984375 427.8671875 C400.99175947 425.17425506 397.30913795 421.20803516 393.375 417.0625 C388.61020353 412.11978308 383.8245124 407.3493393 378.61132812 402.87768555 C376.610592 401.14617108 374.72631386 399.3273829 372.875 397.4375 C372.2975 396.85097656 371.72 396.26445312 371.125 395.66015625 C370.50625 395.02400391 370.50625 395.02400391 369.875 394.375 C370.26429688 394.9834375 370.65359375 395.591875 371.0546875 396.21875 C373.73616457 400.42014265 376.41391742 404.62254568 379.0390625 408.859375 C379.41708008 409.46869873 379.79509766 410.07802246 380.18457031 410.70581055 C380.98954166 412.00357096 381.79355252 413.30192757 382.59667969 414.60083008 C385.27336047 418.89948303 388.033929 423.13207985 390.8515625 427.33984375 C391.53669922 428.36883789 392.22183594 429.39783203 392.92773438 430.45800781 C394.2918206 432.50156582 395.66530169 434.5388889 397.04882812 436.56933594 C397.98758789 437.97940918 397.98758789 437.97940918 398.9453125 439.41796875 C399.51008301 440.25352295 400.07485352 441.08907715 400.65673828 441.94995117 C402.03584327 444.69517157 402.27535615 446.34341067 401.875 449.375 C398.43154891 452.59629295 394.93925905 452.74660095 390.44921875 452.87109375 C382.8560833 451.40777326 378.17161781 447.15411714 373.4375 441.3125 C372.87893311 440.64565186 372.32036621 439.97880371 371.74487305 439.29174805 C370.10760025 437.33055183 368.48923643 435.35517125 366.875 433.375 C366.05515625 432.38242187 365.2353125 431.38984375 364.390625 430.3671875 C362.94957285 428.61441839 361.5144171 426.85678059 360.0859375 425.09375 C357.5192841 421.93758256 354.9194445 418.81039747 352.3125 415.6875 C351.87010986 415.15745361 351.42771973 414.62740723 350.97192383 414.08129883 C349.94002333 412.84552554 348.90757499 411.61020975 347.875 410.375 C352.43835677 419.7737017 357.33278133 428.94054331 362.4453125 438.05078125 C363.0336084 439.10966553 363.0336084 439.10966553 363.63378906 440.18994141 C364.50483247 441.72334787 365.40541082 443.24017246 366.32714844 444.74365234 C366.79411133 445.52305176 367.26107422 446.30245117 367.7421875 447.10546875 C368.1738623 447.80438232 368.60553711 448.5032959 369.05029297 449.22338867 C370.09837421 451.95776996 369.66144997 453.60180885 368.875 456.375 C363.14905507 458.56791508 358.63162713 458.71426544 352.875 456.375 C348.55279449 453.47304528 345.88111688 449.85301329 343.0625 445.5625 C342.09867527 444.12822095 341.13376393 442.6946717 340.16796875 441.26171875 C339.64509277 440.48231934 339.1222168 439.70291992 338.58349609 438.89990234 C335.39693443 434.19063959 332.12986223 429.53718367 328.875 424.875 C323.37568157 416.98035988 317.89630348 409.07284075 312.45703125 401.13671875 C310.67025984 398.52990182 308.87501527 395.92917863 307.07421875 393.33203125 C304.76038094 389.99292392 302.46242331 386.64345205 300.17724609 383.28466797 C299.32756346 382.03865793 298.47389701 380.79535253 297.61572266 379.55517578 C292.34355349 371.91358713 288.40265258 364.50311289 285.26171875 355.75 C281.86038044 347.47181323 276.6363516 341.41595841 268.37109375 337.87304688 C264.85366578 336.58825441 261.29279646 335.45234756 257.71517944 334.34783936 C255.32380793 333.60918769 252.94137602 332.84631682 250.55981445 332.07666016 C247.27351382 331.01588951 243.98483572 329.96312736 240.69384766 328.91699219 C195.3430647 314.45653353 147.32544074 297.6129121 122.875 253.375 C121.80979158 251.02127321 120.82448565 248.64256336 119.83691406 246.25537109 C115.14704481 235.07166476 108.78781388 228.92193507 99.01416016 221.91650391 C96.30465629 219.96400363 93.67970278 217.91342289 91.04980469 215.85571289 C88.67673732 214.00387997 86.27752729 212.18838581 83.875 210.375 C83.73964844 211.055625 83.60429688 211.73625 83.46484375 212.4375 C80.41522771 226.16990279 74.80687039 240.88870567 64.4375 250.75 C56.63852425 258.2211427 51.04659643 268.78672156 48.875 279.375 C48.84194706 281.16069868 48.86909146 282.94791651 48.93603516 284.73266602 C48.97115204 285.81988953 49.00626892 286.90711304 49.04244995 288.02728271 C49.08258209 289.21581848 49.12271423 290.40435425 49.1640625 291.62890625 C49.93044681 322.0274363 48.8161665 351.17546536 43.625 381.1875 C43.5015345 381.90888783 43.378069 382.63027565 43.25086212 383.37352371 C42.42315637 388.19919622 41.56011334 393.01711833 40.671875 397.83203125 C40.34184982 399.62812836 40.34184982 399.62812836 40.00515747 401.46051025 C36.93549124 417.27801544 32.03472333 432.07561437 18.13085938 441.56542969 C1.65697624 452.15578313 1.65697624 452.15578313 -7.62109375 450.98046875 C-12.71204066 449.74942854 -15.95526927 446.97363199 -19 442.8125 C-21.10415894 438.25348896 -21.25085047 434.3644453 -21.25363445 429.34306622 C-21.25538749 428.63143107 -21.25714053 427.91979592 -21.25894669 427.18659607 C-21.26361753 424.78979864 -21.2611384 422.39306159 -21.25871277 419.9962616 C-21.2605802 418.26538157 -21.26288063 416.53450196 -21.26557809 414.80362302 C-21.27171097 410.03750892 -21.27156075 405.27141231 -21.27038372 400.50529516 C-21.27018008 395.36884818 -21.27569489 390.23240688 -21.28044128 385.09596252 C-21.2887566 375.02894699 -21.29149652 364.96193732 -21.29205366 354.89491864 C-21.29252842 346.71381752 -21.29458113 338.53271833 -21.29775429 330.35161781 C-21.30656335 307.16894714 -21.31117328 283.9862811 -21.31042381 260.80360874 C-21.31038386 259.55317127 -21.3103439 258.30273381 -21.31030273 257.0144043 C-21.31026185 255.76244427 -21.31022097 254.51048425 -21.31017885 253.22058604 C-21.30977233 232.92713478 -21.31934268 212.63370207 -21.3334411 192.34025618 C-21.34779503 171.51509589 -21.35471182 150.68994466 -21.35384732 129.86477929 C-21.35351501 118.16822388 -21.35627718 106.47168791 -21.36702538 94.77513695 C-21.37611746 84.81679751 -21.37831628 74.85848633 -21.37151595 64.90014454 C-21.36824418 59.81783602 -21.36821772 54.73558176 -21.3768692 49.65327835 C-21.38470615 45.00169196 -21.38333157 40.3502031 -21.37458507 35.69861916 C-21.37304388 34.01491022 -21.37488945 32.3311941 -21.38044515 30.64749362 C-21.38749479 28.35969655 -21.3822199 26.0722426 -21.37388897 23.78445721 C-21.37410634 22.51342323 -21.37432371 21.24238925 -21.37454766 19.9328391 C-20.88417254 12.94148611 -19.100555 8.350555 -14.125 3.375 C-9.43104739 0.47053079 -5.41041137 -0.10317473 0 0 Z M345.875 407.375 C346.875 409.375 346.875 409.375 346.875 409.375 Z " fill="#484F69" transform="translate(42.125,27.625)"/>
<path d="M0 0 C3.26613369 0.76117522 6.51225633 1.57013783 9.75805664 2.41210938 C20.386696 5.16395712 31.06369755 7.15398015 41.9765625 8.375 C45.45733353 9.09453923 47.30853684 9.64841444 50 12 C51.38889544 14.89993379 52.19397734 17.89447734 53 21 C53.22461914 21.82274414 53.44923828 22.64548828 53.68066406 23.49316406 C54.35765977 26.03066616 54.99626786 28.57514187 55.625 31.125 C55.8415625 31.97964844 56.058125 32.83429688 56.28125 33.71484375 C60.98222421 52.60579568 62.13533096 75.46825876 52.5 93 C50.14445244 96.62299954 47.45442254 99.90349143 44.69946289 103.22265625 C30.99385997 119.78244195 24.86447126 138.36521217 20.796875 159.2734375 C20 163 20 163 19 164 C16.4609375 164.56640625 16.4609375 164.56640625 13 164 C9.87958648 161.63125874 7.28743099 158.80127142 4.625 155.9375 C3.18222228 154.42336187 1.7369238 152.91162155 0.2890625 151.40234375 C-0.41573242 150.66483887 -1.12052734 149.92733398 -1.84667969 149.16748047 C-5.07124826 145.92170725 -8.51838903 142.96371721 -12 140 C-13.72019939 138.27980061 -13.13355588 136.00181285 -13.14044189 133.65419006 C-13.14615204 132.49455246 -13.15186218 131.33491486 -13.15774536 130.14013672 C-13.15886322 128.85647217 -13.15998108 127.57280762 -13.16113281 126.25024414 C-13.16575869 124.89375167 -13.17078303 123.53726051 -13.17617798 122.18077087 C-13.18932528 118.48659925 -13.19575133 114.79244582 -13.20018864 111.09825444 C-13.2031153 108.79279473 -13.2072193 106.48734005 -13.21169281 104.18188286 C-13.22537319 96.97588246 -13.23503749 89.76989347 -13.2388947 82.56388098 C-13.24337851 74.23195495 -13.26093896 65.90019272 -13.2898953 57.56831652 C-13.31147481 51.13689238 -13.32159696 44.70551445 -13.32293582 38.27405447 C-13.32398644 34.42861644 -13.32994844 30.58333227 -13.34775543 26.73793221 C-13.36417217 23.12231296 -13.36642314 19.50696429 -13.35761642 15.89132118 C-13.35647257 13.92599151 -13.37023886 11.96067106 -13.3843689 9.99539185 C-13.37879974 8.83293442 -13.37323059 7.67047699 -13.36749268 6.47279358 C-13.36895924 5.45827653 -13.3704258 4.44375948 -13.3719368 3.39849949 C-13.24919765 2.60699466 -13.12645851 1.81548983 -13 1 C-8.54454774 -1.97030151 -5.1380596 -0.89916043 0 0 Z " fill="#9EAACD" transform="translate(44,175)"/>
<path d="M0 0 C13.86742989 3.69120844 27.43000287 19.01900171 36.19921875 29.8515625 C37.1106616 30.95053368 38.02212156 32.04949066 38.93359375 33.1484375 C51.49520924 48.43264793 62.75193962 65.14027166 71.18237305 83.07763672 C75.33647746 91.88744116 80.49452338 98.81186025 87.19921875 105.8515625 C87.67327148 106.35059082 88.14732422 106.84961914 88.63574219 107.36376953 C93.1122338 112.03123775 97.72983752 116.51027937 102.63671875 120.7265625 C109.93948767 127.11461087 109.93948767 127.11461087 110.57421875 131.359375 C110.85160806 137.7219923 110.18497077 141.84382278 106.19921875 146.8515625 C102.26021038 150.20221266 98.50211123 151.2961808 93.38671875 151.28515625 C85.72836998 149.76716212 81.29458304 145.56048152 75.88671875 140.2265625 C74.47513985 138.85815515 73.06236735 137.49097805 71.6484375 136.125 C70.92744873 135.42528076 70.20645996 134.72556152 69.46362305 134.00463867 C67.12574756 131.78170348 64.73523041 129.6315346 62.32421875 127.48828125 C56.86506011 122.60601279 51.67812563 117.4780137 46.51171875 112.2890625 C45.61388672 111.39509766 44.71605469 110.50113281 43.79101562 109.58007812 C38.71831294 104.49994291 33.8398077 99.32879428 29.19921875 93.8515625 C28.74973877 93.32908936 28.30025879 92.80661621 27.8371582 92.26831055 C7.62224791 68.71616202 -8.53519042 39.15318821 -8.14453125 7.16796875 C-7.80078125 4.8515625 -7.80078125 4.8515625 -5.67578125 1.6640625 C-2.80078125 -0.1484375 -2.80078125 -0.1484375 0 0 Z " fill="#FD004F" transform="translate(230.80078125,210.1484375)"/>
<path d="M0 0 C0.87132568 0.17934082 1.74265137 0.35868164 2.64038086 0.54345703 C9.53406685 2.03754776 15.80530629 4.14799947 22.125 7.3125 C23.48431641 7.93898438 23.48431641 7.93898438 24.87109375 8.578125 C32.83874644 12.51109399 38.90515905 18.10138253 45.125 24.3125 C45.86878906 25.0446875 46.61257812 25.776875 47.37890625 26.53125 C62.20463816 42.08231126 72.65738076 67.77713859 72.69140625 89.28125 C72.125 91.3125 72.125 91.3125 70.52734375 93.15625 C66.29522882 95.19317036 62.10420508 93.62299885 57.78271484 92.25268555 C56.64527832 91.8225415 55.5078418 91.39239746 54.3359375 90.94921875 C53.71079254 90.7159639 53.08564758 90.48270905 52.44155884 90.24238586 C50.45847582 89.50154955 48.47905049 88.75153509 46.5 88 C43.90545495 87.01986007 41.30891996 86.04520839 38.7109375 85.07421875 C37.76068192 84.71627731 37.76068192 84.71627731 36.79122925 84.35110474 C31.50794763 82.38744684 26.15203713 80.8082079 20.70898438 79.35375977 C17.07653817 77.89000475 15.8989886 75.87762029 14.21484375 72.46484375 C10.01024197 64.16113199 2.93984173 59.04866934 -5.6015625 55.96875 C-7.02324943 55.51204822 -8.44781559 55.06422078 -9.875 54.625 C-10.52001465 54.42237549 -11.1650293 54.21975098 -11.82958984 54.01098633 C-19.34631432 51.86040283 -27.12839501 51.17924054 -34.875 50.3125 C-35.07319859 44.29869754 -35.21813071 38.28680615 -35.31445312 32.27050781 C-35.35461336 30.22557453 -35.40915582 28.18086997 -35.47851562 26.13671875 C-35.57590459 23.19213468 -35.62099788 20.25059151 -35.65625 17.3046875 C-35.71818542 15.9402803 -35.71818542 15.9402803 -35.78137207 14.54830933 C-35.78404017 10.74897559 -35.78466482 8.31313777 -33.15942383 5.425354 C-22.47266672 -2.73293334 -12.6669655 -2.64127621 0 0 Z " fill="#9EAACD" transform="translate(65.875,34.6875)"/>
<path d="M0 0 C17.13392468 1.90376941 32.10007619 5.89336647 44 19 C50.53522361 28.25894054 52.5712524 37.49787453 54.09155273 48.50195312 C54.43760728 51.00077464 54.82008546 53.49189761 55.20898438 55.984375 C58.01704229 74.55045788 58.01704229 74.55045788 57 83 C55 85 55 85 52.97080994 85.25559998 C46.79094261 85.19693047 40.99518778 84.49815879 34.94140625 83.28515625 C34.03043686 83.10995956 33.11946747 82.93476288 32.18089294 82.7542572 C29.30633686 82.19898293 26.43452123 81.63072214 23.5625 81.0625 C21.61018166 80.68474172 19.65770872 80.30778152 17.70507812 79.93164062 C15.84621787 79.57101432 13.9874889 79.20971055 12.12890625 78.84765625 C10.82113976 78.59291283 10.82113976 78.59291283 9.48695374 78.33302307 C8.67858566 78.17293259 7.87021759 78.0128421 7.03735352 77.84790039 C6.32805191 77.70800186 5.61875031 77.56810333 4.88795471 77.42396545 C3 77 3 77 0 76 C0 50.92 0 25.84 0 0 Z " fill="#9EAACD" transform="translate(31,91)"/>
<path d="M0 0 C15.82665361 1.76464431 32.64872343 21.00625939 42.46728516 32.75585938 C51.23416777 43.85953181 57.42904362 56.25265131 63 69.1875 C68.99067215 82.98855634 77.876803 94.22195795 88.03515625 105.19921875 C91.89421385 109.40495292 91.89421385 109.40495292 92.5 112.8125 C92 115 92 115 90 117 C72.41201776 117.30324107 52.74281985 103.03809479 40 92 C39.14664063 91.29101562 38.29328125 90.58203125 37.4140625 89.8515625 C36.55554688 89.11679688 35.69703125 88.38203125 34.8125 87.625 C34.05582031 86.97789062 33.29914063 86.33078125 32.51953125 85.6640625 C25.16764737 77.89044265 21.72384274 70.24433471 19.19689941 59.9390564 C15.25243017 43.95629955 9.72775075 28.92222183 2.59179688 14.06884766 C2.13353516 13.10382324 1.67527344 12.13879883 1.203125 11.14453125 C0.78192383 10.27803955 0.36072266 9.41154785 -0.07324219 8.51879883 C-1.06784647 5.81560274 -1.25520694 3.85676164 -1 1 C-0.67 0.67 -0.34 0.34 0 0 Z " fill="#9EAACC" transform="translate(90,127)"/>
<path d="M0 0 C6.4781998 0.26662224 11.86657095 2.2204391 17.8125 4.6875 C18.69615234 5.04980713 19.57980469 5.41211426 20.49023438 5.78540039 C51.70906423 18.7846317 72.96260039 42.12377927 86 72.875 C90.99243457 85.16642116 90.99243457 85.16642116 90 91 C88.68359375 92.75390625 88.68359375 92.75390625 87 94 C77.99716031 94.18373142 70.24877747 87.71400083 63.8671875 81.921875 C61.21110251 79.18799673 58.99334147 76.17946033 56.7109375 73.1328125 C53.66504812 69.33588191 50.00934922 66.43409198 46.0625 63.6171875 C38.06595092 57.90090437 32.53779094 51.19533177 27.625 42.75 C20.94842276 31.27481165 12.91353886 21.51196735 3.55786133 12.11132812 C-2.05425263 6.34021079 -2.05425263 6.34021079 -2 2 C-1.34 1.34 -0.68 0.68 0 0 Z " fill="#9DA9CC" transform="translate(125,133)"/>
<path d="M0 0 C13.38255847 3.56868226 23.1297956 14.17062985 32.58105469 23.79663086 C35.8087626 27.08278066 39.12090693 30.17437695 42.625 33.16015625 C45.3855524 35.55026687 48.06604684 38.02480336 50.75 40.5 C53.98490918 43.48024294 57.22825476 46.44316042 60.5625 49.3125 C71.65711838 58.99127796 82.52821647 68.66732471 90.75 81 C90.875 83.6875 90.875 83.6875 90.75 86 C87.2101267 87.33902652 85.02811536 86.92167359 81.66015625 85.515625 C80.03721176 84.77570847 78.421713 84.01932362 76.8125 83.25 C75.93932129 82.84313965 75.06614258 82.4362793 74.16650391 82.01708984 C71.35224472 80.69570292 68.55041036 79.3504639 65.75 78 C64.82783691 77.56010742 63.90567383 77.12021484 62.95556641 76.66699219 C29.86618896 60.82268463 6.115869 44.54106074 -7.25 9 C-7.73771042 5.66731215 -7.55298077 4.46053077 -5.6875 1.625 C-3.25 0 -3.25 0 0 0 Z " fill="#FC014F" transform="translate(180.25,250)"/>
<path d="M0 0 C2.0625 0.4375 2.0625 0.4375 4 1 C7.7304425 50.18528906 7.7304425 50.18528906 3 67 C2.74766602 67.90057129 2.49533203 68.80114258 2.23535156 69.72900391 C1.37195226 72.74496745 0.47526537 75.74862553 -0.4375 78.75 C-0.72568604 79.71607178 -1.01387207 80.68214355 -1.31079102 81.67749023 C-1.59881592 82.58313721 -1.88684082 83.48878418 -2.18359375 84.421875 C-2.56342407 85.63762207 -2.56342407 85.63762207 -2.95092773 86.87792969 C-4.22297061 89.45102642 -5.56487363 90.52046687 -8 92 C-14.25518666 92.540862 -21.57206653 90.31114067 -26.7265625 86.8359375 C-28.74834057 83.92110409 -28.21515838 81.49778626 -28 78 C-27.32253572 74.96910605 -26.37427763 72.05079571 -25.39453125 69.10546875 C-25.11874237 68.25200363 -24.84295349 67.39853851 -24.55880737 66.51921082 C-23.65509576 63.73798125 -22.73486143 60.96259552 -21.8125 58.1875 C-21.50164459 57.24134827 -21.19078918 56.29519653 -20.87051392 55.32037354 C-16.45447772 41.88597913 -11.76150936 28.57501501 -6.6875 15.375 C-6.4056485 14.64163422 -6.123797 13.90826843 -5.83340454 13.15267944 C-1.23181586 1.23181586 -1.23181586 1.23181586 0 0 Z " fill="#9DA9CC" transform="translate(73,339)"/>
<path d="M0 0 C4.47177696 2.68306618 8.08879804 5.4403419 12 8.8125 C12.60328125 9.32103516 13.2065625 9.82957031 13.828125 10.35351562 C23.22202705 18.40980771 23.22202705 18.40980771 24.6640625 23.2109375 C24.56797996 28.53391003 23.42987819 33.24961643 21.7734375 38.28125 C21.31544417 39.70705446 20.85895031 41.13334129 20.40380859 42.56005859 C20.17006531 43.29230652 19.93632202 44.02455444 19.69549561 44.7789917 C18.57414775 48.3599243 17.53873797 51.96473532 16.5 55.5703125 C15.87622709 57.70609021 15.2507034 59.84134965 14.625 61.9765625 C14.20352907 63.42536884 13.78696632 64.87561087 13.375 66.32714844 C12.76378833 68.47498445 12.13370253 70.61652034 11.5 72.7578125 C11.1390625 74.0070752 10.778125 75.25633789 10.40625 76.54345703 C8.7425863 80.63271931 7.10508776 82.87562235 4 86 C2.02 86.495 2.02 86.495 0 87 C0 58.29 0 29.58 0 0 Z " fill="#9DA9CC" transform="translate(31,328)"/>
<path d="M0 0 C0.95390625 -0.04898438 1.9078125 -0.09796875 2.890625 -0.1484375 C6.98672504 0.60139502 8.21526211 2.08861002 10.75 5.375 C12.23144099 8.48338701 13.34651705 11.67449176 14.4375 14.9375 C15.02285381 16.62695663 15.61003063 18.31578298 16.19921875 20.00390625 C16.57566528 21.1187439 16.57566528 21.1187439 16.9597168 22.25610352 C17.71500808 24.41751106 17.71500808 24.41751106 18.87036133 26.50756836 C19.97945471 28.8621216 19.60672317 29.97617512 18.75 32.375 C14.72912701 31.87580999 13.01992323 31.10013092 10.5 27.9375 C9.61441406 26.86048828 9.61441406 26.86048828 8.7109375 25.76171875 C8.06382812 24.97410156 7.41671875 24.18648438 6.75 23.375 C5.21632048 21.65949249 3.67443539 19.95129035 2.125 18.25 C1.3721875 17.40695313 0.619375 16.56390625 -0.15625 15.6953125 C-1.40291885 14.31374291 -2.66776783 12.94773744 -3.96875 11.6171875 C-5.375 10.125 -5.375 10.125 -7.25 7.375 C-7.01219665 1.07321121 -6.01286638 0.20900338 0 0 Z " fill="#F8024F" transform="translate(205.25,235.625)"/>
</svg>
