<?xml version="1.0" encoding="UTF-8"?>
<svg version="1.1" xmlns="http://www.w3.org/2000/svg" width="512" height="512">
<path d="M0 0 C1.02965063 -0.00709439 2.05930126 -0.01418877 3.12015343 -0.02149814 C6.5812922 -0.03914474 10.04131791 -0.02093848 13.50244141 -0.00291443 C15.97927361 -0.00805066 18.45610217 -0.0153297 20.93292236 -0.02459717 C26.96845813 -0.04122799 33.00355511 -0.03445155 39.03905344 -0.01650894 C43.94360039 -0.00249065 48.84805945 0.00141154 53.75262451 -0.00195122 C54.79916578 -0.00266738 54.79916578 -0.00266738 55.8668493 -0.00339801 C57.28414426 -0.00442433 58.7014392 -0.00547969 60.11873412 -0.00656378 C72.65490445 -0.01513393 85.19091848 0.0015543 97.72705078 0.03126526 C109.89508632 0.06010348 122.06289669 0.06718666 134.23095703 0.05177307 C147.47701493 0.03501696 160.72296589 0.03097063 173.96902657 0.04848343 C175.38114546 0.05032784 176.79326438 0.05216257 178.2053833 0.0539875 C179.24760278 0.05535564 179.24760278 0.05535564 180.3108772 0.05675141 C185.21026051 0.0623605 190.10959168 0.05904617 195.00897217 0.05244255 C201.60161343 0.04390956 208.19397746 0.0568494 214.78658295 0.08429146 C217.21018253 0.0911946 219.6338124 0.09125276 222.05741119 0.08407593 C225.3579767 0.07542643 228.65752743 0.09126194 231.95800781 0.11352539 C232.92414694 0.10528462 233.89028606 0.09704386 234.88570213 0.08855337 C241.31349075 0.16894639 241.31349075 0.16894639 244.57903767 2.42236328 C246.74644109 5.83738449 246.42829495 9.23070941 246.2902832 13.1342926 C246.27641068 13.99193207 246.26253815 14.84957153 246.24824524 15.73320007 C246.21628857 17.59669826 246.17546016 19.46006051 246.12683678 21.32319832 C246.05239095 24.29024293 246.00757904 27.25637737 245.97138977 30.22412109 C245.86475438 38.66211056 245.71824492 47.09883278 245.51977539 55.53517151 C245.40035409 60.70094264 245.32714675 65.86579403 245.28086281 71.03271294 C245.25451563 72.98503715 245.21134102 74.93722152 245.14969444 76.88875008 C244.71664525 90.77951992 247.15219232 100.49696052 253.92183304 112.64804745 C256.4592471 117.40076945 258.20703251 122.51051498 260.04150391 127.56568909 C260.45432617 128.69627747 260.86714844 129.82686584 261.29248047 130.99171448 C298.44480419 234.74794418 281.63972571 341.03220037 261.83056641 460.5861969 C261.61271484 461.87364807 261.39486328 463.16109924 261.17041016 464.48756409 C260.96303223 465.68445862 260.7556543 466.88135315 260.54199219 468.11451721 C260.15876196 470.50629928 259.83104056 472.90748732 259.55273438 475.31373596 C259.41367676 476.47453674 259.27461914 477.63533752 259.13134766 478.83131409 C259.02685303 479.85386292 258.9223584 480.87641174 258.81469727 481.9299469 C257.66136659 485.65375953 256.2972745 486.58545507 252.97900391 488.62818909 C249.87768775 489.21273992 246.82706875 489.18520605 243.67822266 489.16163635 C242.74918121 489.17025192 241.82013977 489.17886749 240.86294556 489.18774414 C237.79718025 489.21041557 234.73232808 489.20366338 231.66650391 489.19459534 C229.53328174 489.19983013 227.4000619 489.20610607 225.2668457 489.21337891 C220.79806621 489.22378511 216.32960511 489.21921792 211.86083984 489.2046051 C206.13390074 489.18741106 200.40796432 489.21091965 194.68113708 489.2460947 C190.27674714 489.26805271 185.87259774 489.26663114 181.46817017 489.25832939 C179.35664774 489.25750912 177.24510779 489.26438698 175.13363647 489.27910042 C172.18172504 489.29651784 169.23162369 489.28202711 166.27978516 489.2592926 C165.40794586 489.2709848 164.53610657 489.282677 163.6378479 489.29472351 C159.29777525 489.22670434 157.53096856 489.06400264 154.02001953 486.29187012 C151.67344988 483.22941778 149.83452863 480.09090742 148.16650391 476.62818909 C147.65893555 475.5865863 147.65893555 475.5865863 147.14111328 474.52394104 C131.99182848 442.69574172 124.70260766 407.99406531 118.54150391 373.50318909 C118.3774707 372.59214417 118.2134375 371.68109924 118.04443359 370.7424469 C117.22928154 365.96277457 116.8147668 361.47646859 116.97900391 356.62818909 C116.31900391 356.62818909 115.65900391 356.62818909 114.97900391 356.62818909 C114.91749146 357.77045959 114.91749146 357.77045959 114.85473633 358.93580627 C114.29111405 367.72328035 112.96396616 376.24082406 111.29150391 384.87818909 C111.15895203 385.57172485 111.02640015 386.26526062 110.88983154 386.97981262 C105.75138168 413.80593785 99.29576515 440.32290036 88.85400391 465.62818909 C88.45858398 466.58862122 88.06316406 467.54905334 87.65576172 468.53858948 C80.71874218 484.8016969 80.71874218 484.8016969 74.97900391 488.62818909 C71.92466372 488.83384888 68.96075424 488.92186695 65.90527344 488.91871643 C64.97652405 488.92543365 64.04777466 488.93215088 63.09088135 488.93907166 C60.01447224 488.95810079 56.93828074 488.96197837 53.86181641 488.96412659 C51.7257376 488.9705512 49.58965969 488.97727931 47.45358276 488.98429871 C42.97294067 488.99628386 38.49237575 488.99997827 34.01171875 488.99879456 C28.26919567 488.99859132 22.52716725 489.02589264 16.78476143 489.06033897 C12.37183355 489.08257285 7.95902537 489.08663317 3.54604721 489.0855751 C1.42893647 489.08793639 -0.68817732 489.09678948 -2.805233 489.11223984 C-5.76666679 489.13182801 -8.7270256 489.12608972 -11.68847656 489.11402893 C-12.56345795 489.12526794 -13.43843933 489.13650696 -14.3399353 489.14808655 C-18.27461203 489.10735096 -20.53797366 488.89676134 -24.03329468 486.95327759 C-26.42518429 484.15539508 -26.78758963 482.58087799 -27.15673828 478.94093323 C-27.29543335 477.78264008 -27.43412842 476.62434692 -27.57702637 475.43095398 C-27.72353638 474.17604156 -27.87004639 472.92112915 -28.02099609 471.62818909 C-28.44772885 468.94797524 -28.88756801 466.27326639 -29.34619141 463.59864807 C-29.59006546 462.14396249 -29.83343467 460.68919219 -30.07633972 459.23434448 C-30.20205038 458.4847024 -30.32776104 457.73506031 -30.45728111 456.9627018 C-52.23838067 326.97766031 -52.23838067 326.97766031 -52.27099609 265.37818909 C-52.27200821 263.65174667 -52.27200821 263.65174667 -52.27304077 261.89042664 C-52.25667288 244.27658379 -51.77778986 227.05650482 -49.02099609 209.62818909 C-48.84938965 208.52475159 -48.6777832 207.42131409 -48.50097656 206.28443909 C-42.91554863 171.46411267 -34.73210618 127.98761199 -14.96383667 98.02590942 C-13.54217439 94.41050652 -13.79451335 90.81686323 -13.85742188 86.99171448 C-13.86662155 85.68615349 -13.86662155 85.68615349 -13.87600708 84.35421753 C-13.89030254 82.46626159 -13.90907499 80.57833544 -13.93179703 78.69046211 C-13.96658491 75.70210931 -13.98717751 72.71397047 -14.00363159 69.72546387 C-14.05253535 61.22937267 -14.12370726 52.73357004 -14.21289062 44.23780823 C-14.26646448 39.03962545 -14.30054419 33.8416091 -14.32262802 28.64320183 C-14.33504301 26.66280907 -14.35504821 24.6824488 -14.3827858 22.70221138 C-14.42123535 19.93261232 -14.43501146 17.1638883 -14.44335938 14.39405823 C-14.46964417 13.16809937 -14.46964417 13.16809937 -14.49645996 11.91737366 C-14.49385162 11.15900711 -14.49124329 10.40064056 -14.48855591 9.61929321 C-14.49484072 8.9654065 -14.50112553 8.31151979 -14.50760078 7.63781834 C-12.56209372 -0.39693344 -6.9559411 -0.08521405 0 0 Z " fill="#494F69" transform="translate(140.02099609375,10.371810913085938)"/>
<path d="M0 0 C19.20170674 6.36324781 35.49646443 16.68650731 48.82348633 31.99926758 C49.70359627 32.89684784 49.70359627 32.89684784 50.60148621 33.81256104 C57.73632893 42.17477824 56.87975955 51.35546341 56.82348633 61.76879883 C56.83330045 63.69635467 56.84488783 65.62390221 56.8581543 67.55143738 C56.87743072 71.58040069 56.87058709 75.60828162 56.84594727 79.63720703 C56.81731079 84.76892385 56.86093714 89.89706848 56.925354 95.0283556 C56.96591409 99.00687789 56.96390709 102.98456118 56.94995117 106.96323204 C56.94898585 108.85326205 56.96167858 110.74335567 56.98901367 112.63318825 C57.14779155 125.51176916 55.63249846 133.26703202 46.82348633 142.99926758 C46.03063232 143.88431473 45.23777832 144.76936188 44.42089844 145.68122864 C34.42881674 156.42662735 22.08487251 163.00537938 7.3125 163.54248047 C-6.03479915 163.64096152 -16.89584511 160.95101668 -27.17651367 151.99926758 C-43.23827307 135.64347139 -46.52966775 109.56804323 -49.17651367 87.99926758 C-49.35657959 86.54423828 -49.35657959 86.54423828 -49.5402832 85.05981445 C-51.39253562 69.0824121 -51.35501266 53.06098038 -51.36401367 36.99926758 C-51.36510132 35.9376239 -51.36618896 34.87598022 -51.36730957 33.78216553 C-51.36695298 30.70862924 -51.35774783 27.6352731 -51.34448242 24.56176758 C-51.34326889 23.64593903 -51.34205536 22.73011047 -51.34080505 21.78652954 C-51.21158803 3.73365782 -51.21158803 3.73365782 -46.17651367 -2.00073242 C-34.95406206 -9.99768348 -12.25791408 -3.76481082 0 0 Z " fill="#FE004F" transform="translate(195.176513671875,71.000732421875)"/>
<path d="M0 0 C4.68133276 4.43494683 5.76890093 6.94759415 6.046875 13.51171875 C6.07948425 14.24903732 6.11209351 14.9863559 6.14569092 15.74601746 C6.56072343 26.17869971 6.61729905 36.62291545 6.625 47.0625 C6.62633942 48.14038788 6.62767883 49.21827576 6.62905884 50.3288269 C6.62453355 67.16181313 6.01739888 83.5970963 3.375 100.25 C3.24689941 101.07628906 3.11879883 101.90257812 2.98681641 102.75390625 C2.26273693 107.28957796 1.39282898 111.76939836 0.375 116.25 C0.05595703 117.673125 0.05595703 117.673125 -0.26953125 119.125 C-3.12158248 130.59991959 -7.44756146 141.79729276 -14.625 151.25 C-15.223125 152.136875 -15.82125 153.02375 -16.4375 153.9375 C-25.04893096 163.04101273 -36.57144513 166.24693602 -48.77783203 166.77368164 C-57.69275974 166.9136652 -64.76543897 165.74766788 -72.625 161.25 C-73.57890625 160.71890625 -74.5328125 160.1878125 -75.515625 159.640625 C-81.78532928 155.90621098 -86.7811982 151.6721273 -91.625 146.25 C-92.31303711 145.55789429 -93.00107422 144.86578857 -93.70996094 144.15270996 C-101.54738578 135.2099955 -100.79512364 125.91246823 -100.6875 114.65625 C-100.69289962 112.65807339 -100.70067257 110.65990194 -100.71069336 108.66174316 C-100.72243858 104.48898927 -100.70550831 100.31761234 -100.66796875 96.14501953 C-100.62238561 90.82166176 -100.64865688 85.50153095 -100.69654846 80.17829132 C-100.72558999 76.05658063 -100.71619666 71.93562312 -100.69552612 67.81388855 C-100.69022583 65.85246896 -100.69660969 63.89097883 -100.71536255 61.92964172 C-100.85298821 43.49404111 -100.85298821 43.49404111 -93.61878967 35.25917053 C-92.96083908 34.59614426 -92.30288849 33.93311798 -91.625 33.25 C-91.12048813 32.66242416 -90.61597626 32.07484833 -90.09617615 31.46946716 C-72.29339288 10.80468512 -45.31395085 0.56813873 -18.65722656 -1.60058594 C-4.27947914 -2.65767164 -4.27947914 -2.65767164 0 0 Z " fill="#FE004F" transform="translate(359.625,67.75)"/>
<path d="M0 0 C2.9375 1.4375 2.9375 1.4375 5 4 C5.98874176 7.1223424 6.55292281 9.78279746 7 13 C7.17273438 14.19367188 7.34546875 15.38734375 7.5234375 16.6171875 C9.40407336 30.38943579 10.15053913 44.15419767 10.23828125 58.046875 C10.24812042 59.35187454 10.25795959 60.65687408 10.26809692 62.00141907 C10.2957629 66.25093776 10.30708407 70.50039967 10.3125 74.75 C10.31400496 75.84945009 10.31400496 75.84945009 10.31554031 76.9711113 C10.35463753 123.78560878 6.50507265 170.09200643 0.5859375 216.5078125 C0.45581772 217.54253189 0.32569794 218.57725128 0.19163513 219.64332581 C-2.0605978 236.86158999 -2.0605978 236.86158999 -6 240 C-8.9375 240.5625 -8.9375 240.5625 -12 240 C-15.67682064 235.36134373 -17.73531894 230.22488235 -19.8984375 224.75390625 C-20.25588043 223.86573715 -20.61332336 222.97756805 -20.9815979 222.06248474 C-22.11913001 219.2316729 -23.24720679 216.39720389 -24.375 213.5625 C-25.12437684 211.69310945 -25.87437154 209.82396645 -26.625 207.95507812 C-28.08402858 204.32032133 -29.53613646 200.68291358 -30.98339844 197.04345703 C-32.23717793 193.89503612 -33.50819528 190.75517193 -34.80566406 187.62451172 C-35.07980133 186.95749741 -35.3539386 186.29048309 -35.63638306 185.60325623 C-36.35118669 183.86752295 -37.07296476 182.13466617 -37.79541016 180.40209961 C-43.68765191 163.76075612 -41.11731445 146.86683779 -37.66867065 129.97103882 C-36.8219715 125.82109189 -36.0155836 121.66356601 -35.20649719 117.50614929 C-34.78055197 115.31821111 -34.35270971 113.13064143 -33.92301941 110.94343567 C-31.80276639 100.11641326 -29.88491764 89.25692191 -27.99465942 78.38775635 C-27.07265464 73.09187238 -26.13985532 67.79789353 -25.20703125 62.50390625 C-25.02484543 61.46993713 -24.84265961 60.43596802 -24.654953 59.3706665 C-22.83788153 49.06720146 -21.01706534 38.76457143 -19.14138794 28.47158813 C-18.80059865 26.59298745 -18.46334456 24.71374157 -18.12985229 22.83383179 C-17.67164577 20.25456545 -17.20079309 17.67792359 -16.7265625 15.1015625 C-16.5956572 14.34886581 -16.46475189 13.59616913 -16.32987976 12.82066345 C-15.54682754 8.65667132 -14.54441126 5.41273584 -12 2 C-7.94995424 -0.70003051 -4.75238569 -0.64311722 0 0 Z " fill="#9EAACC" transform="translate(329,245)"/>
<path d="M0 0 C6.99226491 5.05823419 7.49783321 13.08901463 8.84765625 21.0546875 C9.02007339 22.04745193 9.19249054 23.04021637 9.37013245 24.06306458 C9.74275725 26.20939794 10.11347237 28.35606354 10.48248291 30.50302124 C11.47596005 36.27868523 12.48531675 42.05156065 13.49609375 47.82421875 C13.70331055 49.00826797 13.91052734 50.1923172 14.12402344 51.4122467 C16.01887288 62.19439392 18.0231566 72.95440916 20.0612793 83.71026611 C21.54009151 91.52046328 23.00295901 99.33367918 24.46563721 107.14691162 C24.82263003 109.05298009 25.18017632 110.95894499 25.53826904 112.86480713 C26.57448879 118.3848949 27.59573812 123.90736003 28.59515381 129.43423462 C28.89975561 131.10652116 29.20913529 132.77794665 29.52398682 134.44833374 C32.98045206 152.82208803 33.06335291 168.83467235 26.25 186.5 C25.87020996 187.49813721 25.49041992 188.49627441 25.09912109 189.5246582 C21.40563408 199.13133842 17.52605809 208.66362834 13.625 218.1875 C13.31872681 218.93773437 13.01245361 219.68796875 12.69689941 220.4609375 C11.81568093 222.61526335 10.9284581 224.76700774 10.0390625 226.91796875 C9.77684906 227.55973557 9.51463562 228.20150238 9.24447632 228.86271667 C5.75505749 237.24494251 5.75505749 237.24494251 3 240 C-2.38389517 240.4681648 -2.38389517 240.4681648 -4.62728882 238.76345825 C-6.27160557 236.65108095 -6.63340803 235.1645037 -7.08837891 232.53466797 C-7.24461731 231.64293884 -7.40085571 230.75120972 -7.56182861 229.8324585 C-8.30260449 225.0438826 -8.97654356 220.25242866 -9.5859375 215.4453125 C-9.79882164 213.78149284 -9.79882164 213.78149284 -10.01600647 212.08406067 C-18.0202399 148.75980295 -23.67279729 83.72037874 -17 20 C-16.87592773 18.76169434 -16.75185547 17.52338867 -16.62402344 16.24755859 C-16.47739258 15.00441895 -16.33076172 13.7612793 -16.1796875 12.48046875 C-16.05062012 11.35922607 -15.92155273 10.2379834 -15.78857422 9.08276367 C-14.87616387 5.51588893 -13.51989319 3.65035659 -11 1 C-7.51711927 -0.74144037 -3.80003515 -0.57855206 0 0 Z " fill="#9EAACD" transform="translate(190,245)"/>
<path d="M0 0 C3.82701632 3.83715655 5.37081921 8.02943568 7.06640625 13.04296875 C7.47946266 14.2258976 7.47946266 14.2258976 7.90086365 15.432724 C8.7986447 18.01412972 9.68112046 20.60045261 10.5625 23.1875 C11.18382941 24.99021483 11.80557909 26.79278487 12.42773438 28.59521484 C20.40865368 51.79680443 28.23406993 75.03547128 34.41210938 98.79150391 C35.27331681 102.0267541 36.23300592 105.22854789 37.1875 108.4375 C43.77264609 131.69215816 41.9954001 152.22741555 39 176 C38.81961963 177.49861468 38.63982464 178.99730009 38.4609375 180.49609375 C37.64519101 187.02897878 36.59732985 193.48359829 35.31420898 199.94116211 C34.36619264 204.79114198 33.57923285 209.6579234 32.8359375 214.54296875 C32.51762578 216.59241494 32.19810486 218.64166964 31.87832642 220.69088745 C31.66884719 222.05664183 31.46514976 223.42329635 31.26742554 224.790802 C30.98608678 226.73253361 30.68284263 228.67105206 30.37890625 230.609375 C30.2094751 231.74342773 30.04004395 232.87748047 29.86547852 234.04589844 C28.87405152 237.42989466 27.74466858 238.83119714 25 241 C22.5 241.5625 22.5 241.5625 20 241 C15.73601001 236.72727232 14.02931994 231.55258152 12 226 C11.64969727 225.05737305 11.29939453 224.11474609 10.93847656 223.14355469 C1.12843063 196.49277751 -2.16230844 171.25138608 -2.89083862 142.98226929 C-3.07336946 135.91724372 -3.29004445 128.85319592 -3.50390625 121.7890625 C-3.53516192 120.74705846 -3.53516192 120.74705846 -3.56704903 119.68400383 C-4.50874519 88.37689437 -6.65088399 57.24169534 -9.92333984 26.09204102 C-12.0430593 5.794062 -12.0430593 5.794062 -9.4375 1.3125 C-6.00285296 -0.53692533 -3.83983599 -0.6171165 0 0 Z " fill="#9EA9CC" transform="translate(353,236)"/>
<path d="M0 0 C3.625 0.375 3.625 0.375 5.859375 1.74609375 C8.66543394 5.92414168 7.8638831 9.92931871 7.5 14.8125 C7.45101562 15.71548828 7.40203125 16.61847656 7.3515625 17.54882812 C6.96511202 24.03504817 6.33149 30.49528863 5.69921875 36.9609375 C4.55932737 48.64135672 3.6753642 60.33748509 2.82006836 72.04174805 C2.56201928 75.56907108 2.29980619 79.09606726 2.03710938 82.62304688 C1.54960375 89.20588774 1.07933448 95.78978795 0.625 102.375 C0.56764679 103.20103729 0.51029358 104.02707458 0.45120239 104.87814331 C-0.55340776 119.71688595 -0.67891348 134.5748892 -0.85180664 149.44262695 C-1.00280378 161.90124703 -1.22952187 174.07229379 -3.375 186.375 C-3.49931396 187.15883057 -3.62362793 187.94266113 -3.75170898 188.75024414 C-5.49608268 199.16792775 -8.80958979 209.06113619 -12.3125 219 C-12.94091797 220.79667114 -12.94091797 220.79667114 -13.58203125 222.62963867 C-18.66778785 236.66778785 -18.66778785 236.66778785 -23.375 241.375 C-26.8125 241.125 -26.8125 241.125 -30.375 240.375 C-32.77052448 236.78171328 -33.18497654 233.5133102 -33.8125 229.33984375 C-33.93810303 228.54655167 -34.06370605 227.75325958 -34.19311523 226.93592834 C-34.5940575 224.39582267 -34.98495403 221.85429957 -35.375 219.3125 C-35.89273779 215.98779243 -36.41463851 212.66374893 -36.9375 209.33984375 C-37.12591965 208.13322838 -37.12591965 208.13322838 -37.31814575 206.90223694 C-37.93620075 202.98284824 -38.60032046 199.0923263 -39.4296875 195.2109375 C-45.98341478 163.74151308 -47.19885081 131.37905218 -38.375 100.375 C-37.97618676 98.9154672 -37.57770723 97.45584314 -37.1796875 95.99609375 C-36.22429873 92.57895159 -35.18905735 89.19078843 -34.12939453 85.8046875 C-33.26503858 83.02084594 -32.42768704 80.22943409 -31.58984375 77.4375 C-27.18487852 62.87900486 -22.45094979 48.43959219 -17.56951904 34.03433228 C-16.90259435 32.06615864 -16.23740913 30.09739465 -15.57403564 28.12802124 C-14.63247183 25.3370692 -13.68275699 22.54902731 -12.73046875 19.76171875 C-12.45155289 18.93256958 -12.17263702 18.10342041 -11.88526917 17.24914551 C-6.18174063 0.68686007 -6.18174063 0.68686007 0 0 Z " fill="#9EAACD" transform="translate(160.375,235.625)"/>
<path d="M0 0 C2.9857005 1.02733781 3.91410425 1.85237355 5.52734375 4.625 C9.25258138 13.54080418 12.02063064 22.5060231 14.43408203 31.85839844 C14.94236042 33.78187473 15.49756027 35.69280652 16.05859375 37.6015625 C18.28106465 45.26346606 19.81223254 52.94879561 21.125 60.8125 C21.28363525 61.72845947 21.44227051 62.64441895 21.60571289 63.58813477 C24.80077411 83.7474096 25.33408037 104.20996404 25.26074219 124.58105469 C25.24989885 128.15837117 25.26078654 131.73519731 25.2734375 135.3125 C25.27967192 147.3630104 24.99713382 159.09680946 23 171 C21.35 171 19.7 171 18 171 C17.62939453 169.95811523 17.25878906 168.91623047 16.87695312 167.84277344 C15.08651001 162.8111805 13.29366654 157.78044466 11.5 152.75 C11.16897278 151.82150238 10.83794556 150.89300476 10.49688721 149.93637085 C6.56953183 138.92614062 2.61987566 127.92449609 -1.3828125 116.94140625 C-1.73950012 115.96257477 -2.09618774 114.98374329 -2.46368408 113.97525024 C-4.18252494 109.26116512 -5.90474595 104.54834086 -7.63085938 99.83691406 C-9.16174901 95.65461012 -10.67547871 91.46643647 -12.17834473 87.27398682 C-12.96122084 85.10732397 -13.76412549 82.94896539 -14.56933594 80.79052734 C-19.51573744 67.24913794 -17.97147192 57.01407045 -14.5 43.3125 C-14.32281433 42.59665741 -14.14562866 41.88081482 -13.96307373 41.14328003 C-5.01137939 5.01137939 -5.01137939 5.01137939 0 0 Z " fill="#9EAACC" transform="translate(379,161)"/>
<path d="M0 0 C1.8125 0.5 1.8125 0.5 4 2 C9.82132273 15.99662295 13.61867629 31.04616924 17.4375 45.6875 C17.69635986 46.64140625 17.95521973 47.5953125 18.22192383 48.578125 C21.58489903 61.85005185 19.51855227 72.20857655 15.0625 84.8125 C14.53184952 86.35619923 14.00242489 87.9003203 13.47412109 89.44482422 C8.16352869 104.87282983 2.57485767 120.20922291 -3.03491211 135.53051758 C-7.21612468 146.96108992 -11.22856318 158.42744566 -15 170 C-16.65614657 170.38218767 -18.32457024 170.71395102 -20 171 C-26.02137063 164.97862937 -23.2781678 143.0176685 -23.27832031 135.14794922 C-23.27018821 132.99446081 -23.26072405 130.84097706 -23.25 128.6875 C-23.24689819 127.58327698 -23.24379639 126.47905396 -23.24060059 125.34136963 C-23.11644175 87.65097782 -19.7366631 50.68503761 -7.375 14.8125 C-7.09809326 14.00522461 -6.82118652 13.19794922 -6.53588867 12.36621094 C-4.86868394 7.74994355 -2.8966606 3.96551571 0 0 Z " fill="#9EAACD" transform="translate(129,161)"/>
<path d="M0 0 C25.74 0 51.48 0 78 0 C78 18 78 18 74 24 C70.06046105 27.83586687 66.84634849 28.21113445 61.5625 28.4375 C42.35702034 29.36842947 29.15770811 39.7531044 15.34765625 52.046875 C7.59048411 58.91760687 7.59048411 58.91760687 4.3125 59.375 C2 59 2 59 0 57 C-0.24050903 54.59555054 -0.24050903 54.59555054 -0.22705078 51.54052734 C-0.22680908 50.38351318 -0.22656738 49.22649902 -0.22631836 48.03442383 C-0.21097046 46.2036731 -0.21097046 46.2036731 -0.1953125 44.3359375 C-0.19329834 43.21743408 -0.19128418 42.09893066 -0.18920898 40.9465332 C-0.17872056 36.7559806 -0.15079815 32.56548631 -0.125 28.375 C-0.08375 19.01125 -0.0425 9.6475 0 0 Z " fill="#9EAACD" transform="translate(260,31)"/>
<path d="M0 0 C25.74 0 51.48 0 78 0 C78.04125 9.36375 78.0825 18.7275 78.125 28.375 C78.14320801 31.33259277 78.16141602 34.29018555 78.18017578 37.33740234 C78.1860146 39.67024555 78.19111159 42.00309077 78.1953125 44.3359375 C78.20554443 45.55643799 78.21577637 46.77693848 78.22631836 48.03442383 C78.22668091 49.76994507 78.22668091 49.76994507 78.22705078 51.54052734 C78.231492 52.548685 78.23593323 53.55684265 78.24050903 54.59555054 C78 57 78 57 76 59 C72.73147988 59.51924651 71.41840253 59.30202094 68.7109375 57.34765625 C67.94007813 56.59355469 67.16921875 55.83945313 66.375 55.0625 C50.31227322 39.90404524 35.17076777 29.29721243 12.71875 28.296875 C7.85930581 27.76624604 5.58630519 25.58630519 2.1875 22.1875 C-1.3557175 15.6605204 0 6.93686625 0 0 Z " fill="#9EAACD" transform="translate(172,31)"/>
<path d="M0 0 C2.25 0.75 2.25 0.75 3.25 1.75 C3.92188059 9.74754635 2.84301925 17.89880508 2.13305664 25.86499023 C1.94374905 27.99227813 1.76128426 30.12005552 1.58007812 32.24804688 C0.87046082 40.44741525 0.05845317 48.63279464 -0.80877686 56.81698608 C-2.02865391 68.34167492 -3.13442723 79.86622167 -4.06640625 91.41796875 C-4.17026138 92.6994429 -4.27411652 93.98091705 -4.38111877 95.30122375 C-4.80258895 100.52856198 -5.22119004 105.75609426 -5.62768555 110.98461914 C-5.93098303 114.87986269 -6.24859242 118.77388209 -6.56640625 122.66796875 C-6.65604141 123.85722458 -6.74567657 125.04648041 -6.83802795 126.27177429 C-6.92829758 127.35924454 -7.0185672 128.44671478 -7.11157227 129.56713867 C-7.18690689 130.52335617 -7.26224152 131.47957367 -7.33985901 132.46476746 C-7.75 134.75 -7.75 134.75 -9.75 136.75 C-12.375 136.375 -12.375 136.375 -14.75 135.75 C-15.14017683 132.85594031 -15.52923126 129.96173464 -15.91723633 127.06738281 C-16.17989496 125.10859776 -16.44258973 123.14981697 -16.7071228 121.19128418 C-17.82815022 112.89084769 -18.89968342 104.58749398 -19.8828125 96.26953125 C-22.52370904 74.14949665 -25.7371674 52.12558613 -31.32592773 30.52392578 C-31.94176242 27.94784357 -31.99913932 25.45697489 -32.0625 22.8125 C-32.09988281 21.79285156 -32.13726562 20.77320313 -32.17578125 19.72265625 C-31.61039047 15.77529494 -30.68796365 14.47180717 -27.75 11.75 C-24.53846994 9.95867744 -21.20475673 8.53742563 -17.8125 7.125 C-16.03135749 6.36477191 -14.25137121 5.60182813 -12.47265625 4.8359375 C-11.64427246 4.48144531 -10.81588867 4.12695312 -9.96240234 3.76171875 C-7.57306201 2.72033445 -7.57306201 2.72033445 -4.79296875 0.9609375 C-2.75 -0.25 -2.75 -0.25 0 0 Z " fill="#9DA9CC" transform="translate(239.75,233.25)"/>
<path d="M0 0 C4.83921158 0.30769553 8.48877431 2.03262012 12.75 4.25 C17.0007485 6.45878857 21.26486449 8.57650356 25.625 10.5625 C29.78733783 12.66420677 32.06966313 14.61287076 34 19 C34.30444416 24.06595084 33.59496626 28.25208378 32.25 33.125 C28.66727247 46.66745208 26.12678689 60.47203814 24.4921875 74.3828125 C24.11151034 77.18048748 23.64267466 79.89619615 23.10546875 82.6640625 C21.4742021 91.46479113 20.51811483 100.36867193 19.4375 109.25 C19.10536143 111.95735205 18.77232639 114.66459162 18.43873596 117.37176514 C18.23289838 119.04453046 18.02803354 120.71741589 17.82432556 122.39044189 C17.26822533 126.93560295 16.66377784 131.46927337 16 136 C13.625 136.625 13.625 136.625 11 137 C8.48722704 134.48722704 8.67753164 133.47725131 8.47265625 129.98828125 C7.73899796 117.89634954 6.84562083 105.85062698 5.6328125 93.796875 C4.0412134 77.71171307 2.60779328 61.61402453 1.21020508 45.51098633 C0.87346808 41.63242529 0.53289112 37.75421086 0.19147205 33.87605953 C-0.07539639 30.83843837 -0.33990028 27.80061476 -0.60372353 24.76272774 C-0.72848778 23.33020419 -0.85406779 21.89775142 -0.98052025 20.4653759 C-1.15509508 18.4848648 -1.32603729 16.50403453 -1.49682617 14.52319336 C-1.59436691 13.40424179 -1.69190765 12.28529022 -1.79240417 11.13243103 C-1.9962384 8.05675906 -2.17727139 5.0789688 -2 2 C-1.34 1.34 -0.68 0.68 0 0 Z " fill="#9DA9CC" transform="translate(269,233)"/>
<path d="M0 0 C8.58 0 17.16 0 26 0 C25.731875 3.361875 25.46375 6.72375 25.1875 10.1875 C25.11039795 11.23832764 25.0332959 12.28915527 24.95385742 13.37182617 C24.48297427 18.73886488 23.9881428 23.0118572 20 27 C17.2345034 27.18100353 14.51781799 27.27818821 11.75 27.3125 C10.60337891 27.35600586 10.60337891 27.35600586 9.43359375 27.40039062 C5.65271068 27.44283577 3.37824286 27.18960511 -0.0546875 25.46875 C-2.30931882 22.60745082 -2.43309716 20.8890887 -2.1328125 17.30273438 C-2.04773438 16.60470703 -1.96265625 15.90667969 -1.875 15.1875 C-1.7821875 14.15786133 -1.7821875 14.15786133 -1.6875 13.10742188 C-1.27167105 8.71210991 -0.62505379 4.37537653 0 0 Z " fill="#9DA9CC" transform="translate(344,31)"/>
<path d="M0 0 C8.25 0 16.5 0 25 0 C27.6619965 17.13660245 27.6619965 17.13660245 27 23 C24.21203446 26.10017386 21.97082744 27.24298022 17.8984375 27.53125 C16.39062589 27.54179414 14.88253243 27.53087097 13.375 27.5 C12.611875 27.51546875 11.84875 27.5309375 11.0625 27.546875 C5.56489838 27.50829534 5.56489838 27.50829534 3.05078125 25.24609375 C-0.66882363 17.29526547 -0.1826867 8.58627496 0 0 Z " fill="#9DA9CC" transform="translate(141,31)"/>
</svg>
