<?xml version="1.0" encoding="UTF-8"?>
<svg version="1.1" xmlns="http://www.w3.org/2000/svg" width="512" height="512">
<path d="M0 0 C1.02965063 -0.00694553 2.05930126 -0.01389106 3.12015343 -0.02104706 C6.58113442 -0.03938907 10.04143552 -0.02903241 13.50244141 -0.01878357 C15.97927363 -0.02583833 18.45610155 -0.03458146 20.93292236 -0.04489136 C26.96838677 -0.06509978 33.00358264 -0.06640071 39.03905344 -0.05826581 C43.94359567 -0.05196928 48.84808288 -0.05309963 53.75262451 -0.05953789 C54.45031869 -0.06043954 55.14801287 -0.0613412 55.8668493 -0.06227018 C57.28414426 -0.06412135 58.7014392 -0.06598391 60.11873412 -0.06785773 C73.41277986 -0.08444136 86.70671951 -0.07571205 100.00075889 -0.05887216 C112.16789801 -0.04417267 124.33479025 -0.05880596 136.50189757 -0.08764232 C148.99096756 -0.11702166 161.47992353 -0.12801303 173.96902657 -0.11846012 C175.38114546 -0.11743755 176.79326437 -0.11644294 178.2053833 -0.11547661 C178.90019629 -0.11500022 179.59500928 -0.11452383 180.3108772 -0.114033 C185.21028607 -0.11186703 190.10958721 -0.12168252 195.00897217 -0.13624763 C201.60163563 -0.15557299 208.19391295 -0.1487159 214.78658295 -0.12404823 C217.21019 -0.11902237 219.63383179 -0.12257572 222.05741119 -0.13519669 C225.35814609 -0.15102956 228.65734665 -0.13626725 231.95800781 -0.11352539 C232.92414694 -0.12536112 233.89028606 -0.13719685 234.88570213 -0.14939123 C241.35353236 -0.05843409 241.35353236 -0.05843409 244.57575703 2.89397812 C246.14465315 5.82402807 246.46002685 7.52509051 246.41137695 10.83033752 C246.40459427 11.87388901 246.39781158 12.91744049 246.39082336 13.99261475 C246.36191513 15.12008621 246.3330069 16.24755768 246.30322266 17.40919495 C246.28837326 18.59769547 246.27352386 19.78619598 246.25822449 21.01071167 C246.13836631 28.62519289 245.85338016 36.23197415 245.5329895 43.84031677 C245.31747641 48.99122406 245.1312261 54.14305199 244.94750977 59.29518127 C244.84325749 61.90605633 244.71945926 64.51622208 244.57641602 67.1252594 C243.58514545 85.71593027 245.71717593 98.68010219 254.6746521 115.04930115 C257.44417535 120.28399233 259.30373816 125.86212248 261.22900391 131.4521637 C261.83856934 133.19626526 261.83856934 133.19626526 262.46044922 134.9756012 C276.75523029 176.53990544 284.22480899 219.51753753 284.16650391 263.4521637 C284.16556732 264.37250397 284.16463074 265.29284424 284.16366577 266.24107361 C284.02900384 327.82005005 273.63052242 388.701289 263.35522461 449.25123596 C263.14772079 450.47834793 262.94021698 451.7054599 262.72642517 452.96975708 C262.32522129 455.33965978 261.92169764 457.70917115 261.51564026 460.07824707 C260.70618254 464.86074423 259.92543241 469.6232286 259.41894531 474.44825745 C259.34335892 475.15264954 259.26777252 475.85704163 259.18989563 476.58277893 C259.0169473 478.32878346 258.87651984 480.07793455 258.73999023 481.8271637 C257.67605344 485.58456385 256.30193771 486.47424438 252.97900391 488.5146637 C249.84798672 489.10454736 246.7655432 489.08185593 243.58642578 489.0639801 C242.64763077 489.07420197 241.70883575 489.08442383 240.74159241 489.09495544 C237.64338573 489.1227195 234.54607006 489.12083694 231.44775391 489.1162262 C229.2921109 489.12400078 227.13647094 489.13267026 224.98083496 489.14219666 C220.46498679 489.15711432 215.94945138 489.15654307 211.43359375 489.14601135 C205.64599547 489.13441276 199.85967538 489.16830652 194.07228851 489.2147007 C189.62156692 489.24415845 185.17115397 489.24592145 180.72035217 489.23968124 C178.58648646 489.24070823 176.45260359 489.25119446 174.3188324 489.27130508 C171.33556892 489.29597487 168.35480529 489.28249415 165.37158203 489.2592926 C164.490392 489.27458008 163.60920197 489.28986755 162.7013092 489.30561829 C156.84332414 489.20488598 156.84332414 489.20488598 154.3333931 487.20052433 C152.12781138 484.60280405 150.32363476 481.71441694 148.83837891 478.65138245 C148.49468262 477.9430426 148.15098633 477.23470276 147.796875 476.50489807 C147.44447754 475.74499573 147.09208008 474.98509338 146.72900391 474.2021637 C146.34695801 473.38167542 145.96491211 472.56118713 145.57128906 471.71583557 C129.34647623 436.01461142 121.14725285 396.25678455 115.97900391 357.5146637 C115.79837402 358.52440247 115.61774414 359.53414124 115.43164062 360.57447815 C100.39824302 444.37996228 100.39824302 444.37996228 81.60400391 480.2646637 C81.28238281 480.87922424 80.96076172 481.49378479 80.62939453 482.12696838 C78.97122389 485.15058821 77.91547209 486.55701824 74.97900391 488.5146637 C73.10614872 488.7719326 73.10614872 488.7719326 70.96266174 488.78208923 C69.7408873 488.79488419 69.7408873 488.79488419 68.49443054 488.80793762 C67.60447891 488.80703125 66.71452728 488.80612488 65.79760742 488.80519104 C64.85749817 488.81190826 63.91738892 488.81862549 62.9487915 488.82554626 C59.83511092 488.84457437 56.72164529 488.84845277 53.60791016 488.8506012 C51.44701549 488.85702532 49.2861217 488.86375339 47.12522888 488.87077332 C42.5933124 488.88275781 38.06147223 488.88645289 33.52954102 488.88526917 C27.7174199 488.88506581 21.90578684 488.91238025 16.09378147 488.94681358 C11.63028203 488.96903048 7.16690106 488.97310832 2.70335197 488.97204971 C0.56029514 488.97441306 -1.5827646 488.98327763 -3.72576714 488.99871445 C-6.72092952 489.01827064 -9.71502619 489.01257726 -12.71020508 489.00050354 C-13.59813248 489.01174255 -14.48605988 489.02298157 -15.40089417 489.03456116 C-21.41516993 488.97283181 -21.41516993 488.97283181 -24.54042053 486.60929871 C-26.78022052 483.44055568 -27.29262118 481.15518254 -27.8046875 477.33253479 C-27.95408783 476.2431662 -28.10348816 475.15379761 -28.25741577 474.03141785 C-28.4191629 472.83737335 -28.58091003 471.64332886 -28.74755859 470.4131012 C-30.22005521 459.82867213 -31.83449471 449.28018455 -33.60693359 438.7412262 C-33.7188076 438.0744838 -33.83068161 437.40774139 -33.94594574 436.72079468 C-34.40646346 433.97647703 -34.86754532 431.23225521 -35.32956314 428.4881897 C-41.91941553 389.3353665 -47.81689186 350.1103371 -51.02099609 310.5146637 C-51.11525879 309.47712952 -51.20952148 308.43959534 -51.30664062 307.37062073 C-52.30596861 295.01220503 -52.24287309 282.62269276 -52.26123047 270.23146057 C-52.27087162 266.31522345 -52.30194634 262.3995269 -52.33349609 258.4834137 C-52.54528532 207.70419723 -43.15705074 139.21874567 -14.02099609 95.5146637 C-13.85689955 92.60403084 -13.81042017 89.79262148 -13.85742188 86.88404846 C-13.86662155 85.56166672 -13.86662155 85.56166672 -13.87600708 84.21257019 C-13.89031985 82.29731185 -13.90910132 80.38208294 -13.93179703 78.46690559 C-13.96652831 75.43690168 -13.98715941 72.40710795 -14.00363159 69.37695312 C-14.05258611 60.76143998 -14.12373913 52.14621009 -14.21289062 43.53102112 C-14.26642033 38.26267304 -14.3005293 32.99448883 -14.32262802 27.72591972 C-14.33505635 25.71679056 -14.35507813 23.70769366 -14.3827858 21.69871712 C-14.42117074 18.89049047 -14.4350025 16.08312688 -14.44335938 13.27467346 C-14.46964417 12.02693901 -14.46964417 12.02693901 -14.49645996 10.7539978 C-14.48537605 7.49532652 -14.38684808 5.09165544 -12.61808586 2.30210876 C-8.59859232 -0.46430463 -4.772497 -0.04070743 0 0 Z " fill="#494E69" transform="translate(139.02099609375,10.485336303710938)"/>
<path d="M0 0 C1.0916748 -0.02231689 2.18334961 -0.04463379 3.30810547 -0.06762695 C11.02807075 -0.04539826 11.02807075 -0.04539826 14.9921875 2.21484375 C21.71020078 10.14544448 20.03502287 22.33712534 20.078125 32.18359375 C20.08518463 33.26498123 20.09224426 34.34636871 20.09951782 35.46052551 C20.47138801 109.17239728 20.47138801 109.17239728 5.875 140.4375 C5.21757812 141.87222656 5.21757812 141.87222656 4.546875 143.3359375 C-0.60542806 153.66885297 -8.09574836 161.53652889 -19.125 165.4375 C-32.74087401 169.23545407 -47.54737761 169.36528131 -60.125 162.4375 C-70.93563369 155.78924934 -82.12185447 146.37151354 -87.125 134.4375 C-88.41465493 127.89622262 -88.13651978 121.13612167 -88.08984375 114.5 C-88.09711377 112.56908375 -88.10630845 110.6381739 -88.11732483 108.70727539 C-88.13209178 104.6758793 -88.12128576 100.64557058 -88.0925293 96.61425781 C-88.05824021 91.4725221 -88.09162047 86.333822 -88.14473629 81.19233704 C-88.17768971 77.20962659 -88.17261562 73.2276301 -88.1565876 69.24484253 C-88.15378613 67.35039174 -88.16294593 65.45588079 -88.18479729 63.56155396 C-88.29655082 51.82815922 -87.65295464 44.29826157 -79.125 35.4375 C-78.23763668 34.280209 -77.3594333 33.11568102 -76.5 31.9375 C-63.99731902 17.88878858 -46.05370818 8.29597033 -28.125 3.4375 C-27.00480469 3.11910156 -25.88460937 2.80070312 -24.73046875 2.47265625 C-16.49927138 0.46797631 -8.4469764 0.10475462 0 0 Z " fill="#9EAACD" transform="translate(345.125,66.5625)"/>
<path d="M0 0 C14.5894264 6.42492819 26.96516994 14.88387517 37.4453125 27.09375 C38.01804398 27.6701976 38.59077545 28.2466452 39.18086243 28.84056091 C46.49259183 37.32340065 45.44563992 46.85909373 45.33984375 57.44140625 C45.34202313 59.42337907 45.34643008 61.40535056 45.35295105 63.38731384 C45.35873704 67.52725584 45.33990173 71.66613274 45.30297852 75.8059082 C45.25747057 81.09429815 45.27010616 86.38062759 45.30078602 91.66906071 C45.31863799 95.75716143 45.30730667 99.84478493 45.28714561 103.93285942 C45.2806607 105.88196305 45.28269538 107.83111542 45.29364967 109.78019905 C45.36837547 129.00853624 45.36837547 129.00853624 38.4453125 136.09375 C37.71828125 137.02445313 36.99125 137.95515625 36.2421875 138.9140625 C27.30831345 148.9731955 15.34460056 157.93234185 1.46923828 159.28662109 C-12.71452235 159.83637926 -25.30400862 158.79887861 -36.59765625 149.09765625 C-49.12756528 136.26762964 -54.49457312 117.80687764 -57.7421875 100.59375 C-57.89695557 99.79606201 -58.05172363 98.99837402 -58.21118164 98.17651367 C-61.59063598 78.97114263 -61.8561319 59.51499228 -61.76049805 40.07275391 C-61.7419784 36.17473943 -61.73999102 32.27696064 -61.74023438 28.37890625 C-61.7353263 25.86978963 -61.72950111 23.36067459 -61.72265625 20.8515625 C-61.72154343 19.70148712 -61.7204306 18.55141174 -61.71928406 17.3664856 C-61.61699071 -0.05083452 -61.61699071 -0.05083452 -58.2421875 -4.34375 C-45.48343036 -16.50907657 -14.0076483 -5.94159188 0 0 Z " fill="#9EAACD" transform="translate(204.5546875,74.90625)"/>
<path d="M0 0 C2.9375 1.5 2.9375 1.5 5 4 C6.72219347 9.78074499 7.5141852 15.44418082 8.0625 21.4375 C8.14048828 22.21287109 8.21847656 22.98824219 8.29882812 23.78710938 C14.12079582 84.36444261 9.5001388 146.68896927 1.29425049 206.80999756 C0.90994707 209.67023213 0.55023642 212.53331567 0.19088745 215.39677429 C-0.21003811 218.5584559 -0.63660008 221.71660001 -1.0625 224.875 C-1.20042969 225.96949463 -1.33835937 227.06398926 -1.48046875 228.19165039 C-2.50684261 235.32903088 -2.50684261 235.32903088 -4.9609375 238.66796875 C-7.56140754 240.36674324 -8.95189205 240.5470963 -12 240 C-14.60934799 237.86150671 -15.74550102 235.70129892 -16.98950195 232.59887695 C-17.3503035 231.70977127 -17.71110504 230.82066559 -18.08283997 229.90461731 C-18.46413559 228.94222641 -18.84543121 227.97983551 -19.23828125 226.98828125 C-19.8431562 225.48674751 -19.8431562 225.48674751 -20.46025085 223.95487976 C-21.75153352 220.74358923 -23.0319091 217.52806688 -24.3125 214.3125 C-25.16274842 212.19699902 -26.01365306 210.08176166 -26.86523438 207.96679688 C-28.90146864 202.89935753 -30.91824717 197.82458006 -32.91949463 192.7432251 C-33.60739499 190.99675942 -34.29753931 189.25117472 -34.99066162 187.5067749 C-35.85136329 185.33505703 -36.69955206 183.15894686 -37.54296875 180.98046875 C-38.00082764 179.80766357 -38.45868652 178.6348584 -38.93041992 177.42651367 C-43.25565384 163.57016625 -41.27278785 147.88641341 -38.5625 133.9375 C-38.29332505 132.4897528 -38.02555617 131.04174362 -37.7590332 129.59350586 C-37.01816436 125.59031168 -36.25814132 121.59097538 -35.49401855 117.59216309 C-34.62539731 113.03442351 -33.77032306 108.47413761 -32.9140625 103.9140625 C-32.54763131 101.962642 -32.1811759 100.01122605 -31.81469727 98.05981445 C-31.6296463 97.07437653 -31.44459534 96.0889386 -31.25393677 95.07363892 C-30.68544519 92.05157678 -30.11424479 89.03003561 -29.54272461 86.00854492 C-27.46948464 75.0211643 -25.45637401 64.02539212 -23.52734375 53.01171875 C-23.32499619 51.85684464 -23.12264862 50.70197052 -22.91416931 49.51210022 C-21.93740977 43.92609758 -20.9678307 38.33893766 -20.0065918 32.75024414 C-15.33130533 5.72286572 -15.33130533 5.72286572 -11.875 1.25 C-7.81270456 -0.51621541 -4.35677383 -0.75907493 0 0 Z " fill="#FD004F" transform="translate(328,245)"/>
<path d="M0 0 C3.44912932 2.02448895 4.65611384 3.82033988 5.77148438 7.64648438 C7.47839904 15.32042847 8.95495043 23.01079763 10.27481079 30.76049805 C12.62449315 44.52891997 15.15105113 58.26195468 17.74386597 71.98641968 C18.90035624 78.11545191 20.04703061 84.24633022 21.19480896 90.3769989 C22.2187704 95.84353433 23.24721328 101.3091679 24.28320312 106.7734375 C25.35365031 112.42449242 26.40885457 118.07822598 27.4546814 123.73388672 C27.85401532 125.87970755 28.25834399 128.02460602 28.66812134 130.16845703 C34.04197508 158.32111307 30.07961973 178.03115111 19.0625 204.25 C18.25483584 206.19488777 17.44818973 208.14019863 16.64257812 210.0859375 C15.11240416 213.7780926 13.57247064 217.46590567 12.02392578 221.15039062 C10.79621279 224.07621616 9.59006537 227.0075509 8.42529297 229.95898438 C7.99490723 231.03986328 7.56452148 232.12074219 7.12109375 233.234375 C6.77361084 234.12866211 6.42612793 235.02294922 6.06811523 235.94433594 C5 238 5 238 2 240 C-0.5 240.3125 -0.5 240.3125 -3 240 C-6.89438921 236.86480795 -7.11442551 232.7600427 -7.875 228.0625 C-8.03863037 227.07942871 -8.20226074 226.09635742 -8.37084961 225.08349609 C-12.40256856 199.63009843 -14.88190533 173.88057464 -16.75 148.1875 C-16.80898468 147.38096985 -16.86796936 146.5744397 -16.92874146 145.74346924 C-17.33020956 140.16473091 -17.68319585 134.58416923 -18 129 C-18.04872253 128.14467682 -18.09744507 127.28935364 -18.14764404 126.40811157 C-18.99384475 110.99054585 -19.15598223 95.59459441 -19.13037109 80.15600586 C-19.12499153 76.3064381 -19.13036432 72.45698622 -19.13671875 68.60742188 C-19.14839011 32.67996212 -19.14839011 32.67996212 -16.6875 15.5625 C-16.58244141 14.69302734 -16.47738281 13.82355469 -16.36914062 12.92773438 C-15.66188373 7.8841811 -14.78651966 4.68398335 -11 1 C-7.49842862 -0.75078569 -3.82098419 -0.53639466 0 0 Z " fill="#FD004F" transform="translate(189,245)"/>
<path d="M0 0 C3.5 0.5 3.5 0.5 5.9375 1.8125 C10.45803936 9.5878277 6.92825073 22.20554525 6.01870728 30.90054321 C1.86492398 71.08397387 -0.97068878 111.40108157 -1.0847168 151.80786133 C-1.18639374 170.15426812 -2.96794466 187.93706702 -8.5 205.5 C-8.7582959 206.32032715 -9.0165918 207.1406543 -9.28271484 207.98583984 C-18.7662743 237.77039793 -18.7662743 237.77039793 -23.5 241.5 C-28.66148547 242.14518568 -28.66148547 242.14518568 -31.12428284 240.25021362 C-32.77117397 238.1550073 -33.09463249 236.74422572 -33.51147461 234.12158203 C-33.65862915 233.23341797 -33.80578369 232.34525391 -33.95739746 231.43017578 C-34.10422974 230.4657959 -34.25106201 229.50141602 -34.40234375 228.5078125 C-34.64639954 226.99912598 -34.64639954 226.99912598 -34.89538574 225.45996094 C-35.42179307 222.18347485 -35.9301387 218.90448478 -36.4375 215.625 C-36.79300975 213.381238 -37.1492123 211.13758565 -37.50610352 208.89404297 C-48.68488956 138.19743983 -48.68488956 138.19743983 -41.25292969 111.2578125 C-40.46949061 108.38825096 -39.73371337 105.50962568 -39.0078125 102.625 C-34.25507119 83.87773723 -28.25806026 65.60933193 -22.13427734 47.27246094 C-21.00003124 43.87509358 -19.86900611 40.47666572 -18.73828125 37.078125 C-16.9767151 31.78888345 -15.20145471 26.5044156 -13.41650391 21.22302246 C-12.60024378 18.79783405 -11.79666883 16.36887217 -10.99609375 13.93847656 C-10.57457031 12.69291992 -10.15304688 11.44736328 -9.71875 10.1640625 C-9.37779297 9.14006348 -9.03683594 8.11606445 -8.68554688 7.06103516 C-6.65354308 2.67147178 -4.82966915 0.68995274 0 0 Z " fill="#FD004F" transform="translate(159.5,235.5)"/>
<path d="M0 0 C3.1734617 0.58288072 4.56394712 1.32869432 6.75738525 3.65460205 C9.84728011 8.17160262 11.21168161 13.64301638 12.8984375 18.8046875 C13.344141 20.13290248 13.79107542 21.46070497 14.23916626 22.78811646 C15.41706813 26.28971962 16.57649608 29.79718224 17.73260498 33.30603027 C18.65713213 36.10162618 19.59480231 38.89271876 20.53321171 41.68367958 C27.51036457 62.43764582 34.27633236 83.26287808 39.875 104.4375 C40.16052734 105.49839844 40.44605469 106.55929687 40.74023438 107.65234375 C41.53219887 110.61807622 42.29968759 113.58916355 43.0625 116.5625 C43.27148926 117.31789063 43.48047852 118.07328125 43.69580078 118.8515625 C45.39797054 125.47295757 45.36601617 132.00617433 45.3125 138.8125 C45.30645752 140.04887207 45.30041504 141.28524414 45.29418945 142.55908203 C45.17941441 153.32011202 44.40676345 163.89114732 43.0625 174.5625 C42.9500293 175.47757324 42.83755859 176.39264648 42.72167969 177.33544922 C41.43526899 187.67103272 39.91579098 197.91432224 37.875 208.12890625 C37.18291234 211.72724816 36.64488972 215.33776759 36.125 218.96484375 C35.9592749 220.09365967 35.7935498 221.22247559 35.62280273 222.38549805 C35.29622705 224.633729 34.98277963 226.88391441 34.68383789 229.13598633 C34.53164795 230.16876709 34.37945801 231.20154785 34.22265625 232.265625 C34.09511963 233.19020508 33.96758301 234.11478516 33.83618164 235.06738281 C32.8702909 238.18237284 31.61334642 239.56035687 29.0625 241.5625 C25.5625 241.8125 25.5625 241.8125 22.0625 240.5625 C18.70350988 234.72251321 16.4019104 228.51423779 14.125 222.1875 C13.60450073 220.74274292 13.60450073 220.74274292 13.07348633 219.26879883 C10.95984787 213.31021563 8.97518246 207.33285545 7.25 201.25 C6.97651733 200.30471436 6.97651733 200.30471436 6.69750977 199.34033203 C2.82829118 185.06578748 1.63301024 171.15194969 1.52319336 156.41705322 C1.48314615 151.27235636 1.39504786 146.1284692 1.30859375 140.984375 C1.29186615 139.94616608 1.27513855 138.90795715 1.25790405 137.83828735 C1.07431403 127.44319922 0.61529915 117.0687485 0.0625 106.6875 C0.02043427 105.87488708 -0.02163147 105.06227417 -0.06497192 104.22503662 C-0.43714925 97.09456704 -0.82342812 89.98879821 -1.69628906 82.89892578 C-2.22284389 77.7985921 -2.41805353 72.6683872 -2.69659424 67.5496521 C-3.44124932 53.97979345 -4.50923739 40.47792843 -5.97216797 26.96630859 C-6.56828221 21.29286613 -7.0785462 15.62850761 -7.2734375 9.92578125 C-7.30743652 8.98645752 -7.34143555 8.04713379 -7.37646484 7.0793457 C-6.61630332 2.720889 -4.23586459 0.81112301 0 0 Z " fill="#FD004F" transform="translate(347.9375,235.4375)"/>
<path d="M0 0 C1.93530273 0.22167969 1.93530273 0.22167969 4 1 C7.77757331 5.96586945 9.51749405 12.88530464 11.4375 18.75 C11.73825439 19.6675708 12.03900879 20.5851416 12.34887695 21.53051758 C23.47597596 56.10305129 26.14373512 91.38581159 26.25 127.5 C26.25535767 128.52144104 26.26071533 129.54288208 26.26623535 130.59527588 C26.31902735 143.86659658 25.69498779 156.8339217 24 170 C22.35 170.33 20.7 170.66 19 171 C15.5815979 162.83416747 12.67556061 154.50524886 9.77108765 146.14752197 C5.35040529 133.43298244 0.84808041 120.75353616 -3.8125 108.125 C-4.70063586 105.69926086 -5.58865965 103.27348069 -6.4765625 100.84765625 C-8.10540041 96.40486043 -9.76999211 91.97807913 -11.4609375 87.55859375 C-18.56789952 68.67166089 -17.55801251 55.21154779 -12 36 C-11.75411133 35.14116211 -11.50822266 34.28232422 -11.25488281 33.39746094 C-2.29241071 2.29241071 -2.29241071 2.29241071 0 0 Z " fill="#FD8464" transform="translate(377,161)"/>
<path d="M0 0 C3.71069146 1.49917282 3.71069146 1.49917282 4.96972656 3.67871094 C5.30182129 4.69626465 5.30182129 4.69626465 5.640625 5.734375 C5.90278809 6.52199219 6.16495117 7.30960938 6.43505859 8.12109375 C6.70398926 8.98863281 6.97291992 9.85617188 7.25 10.75 C7.54084473 11.65363281 7.83168945 12.55726563 8.13134766 13.48828125 C23.24730343 61.51401487 23.24730343 61.51401487 15.625 83.125 C15.14402141 84.52730165 14.6639078 85.92990021 14.18457031 87.33276367 C8.85620875 102.80455121 3.15270572 118.15035895 -2.54052734 133.49072266 C-7.16327898 145.94854209 -11.66135561 158.44026506 -16 171 C-17.65 171 -19.3 171 -21 171 C-22.48720005 168.02559989 -22.37322924 164.93104353 -22.54296875 161.66015625 C-22.58439499 160.87528336 -22.62582123 160.09041046 -22.66850281 159.28175354 C-24.24847455 126.05176899 -25.08350496 91.82037036 -19 59 C-18.67854004 57.23438721 -18.67854004 57.23438721 -18.35058594 55.43310547 C-9.74538718 9.74538718 -9.74538718 9.74538718 0 0 Z " fill="#FC8464" transform="translate(128,161)"/>
<path d="M0 0 C26.07 0 52.14 0 79 0 C79 16 79 16 76 23 C71.26989209 27.38400245 68.59990195 28.06556301 62.25 28.25 C44.86746326 29.1522804 31.9512786 38.03413874 19.38891602 49.29296875 C8.50854074 59.03352313 8.50854074 59.03352313 4.1875 58.9375 C2 58 2 58 0 56 C-0.24050903 53.6335144 -0.24050903 53.6335144 -0.22705078 50.63232422 C-0.22680908 49.49561279 -0.22656738 48.35890137 -0.22631836 47.18774414 C-0.21608643 45.98883545 -0.20585449 44.78992676 -0.1953125 43.5546875 C-0.19329834 42.45584229 -0.19128418 41.35699707 -0.18920898 40.22485352 C-0.17872104 36.1081934 -0.15079862 31.99159264 -0.125 27.875 C-0.08375 18.67625 -0.0425 9.4775 0 0 Z " fill="#9EAACC" transform="translate(258,31)"/>
<path d="M0 0 C25.74 0 51.48 0 78 0 C78.061875 9.36375 78.12375 18.7275 78.1875 28.375 C78.22846802 32.81138916 78.22846802 32.81138916 78.27026367 37.33740234 C78.27902189 39.67024323 78.28666739 42.00308868 78.29296875 44.3359375 C78.30831665 45.55643799 78.32366455 46.77693848 78.33947754 48.03442383 C78.34002136 49.76994507 78.34002136 49.76994507 78.34057617 51.54052734 C78.35056892 53.05276382 78.35056892 53.05276382 78.36076355 54.59555054 C78.24171158 55.38901886 78.12265961 56.18248718 78 57 C75 59 75 59 72.72265625 58.96875 C68.93243403 57.62014869 66.35944632 55.1670687 63.4375 52.5 C62.19374639 51.40229073 60.94761445 50.3072708 59.69921875 49.21484375 C59.07837402 48.67069824 58.4575293 48.12655273 57.81787109 47.56591797 C45.4359229 36.90008186 32.84480711 29.41790243 16.25 28.5625 C10.64024953 28.2160546 7.40225179 27.54094165 3 24 C0 18 0 18 0 0 Z " fill="#9EAACD" transform="translate(171,31)"/>
<path d="M0 0 C0.495 0.495 0.495 0.495 1 1 C0.97129011 2.70454364 0.86727795 4.40787268 0.73376465 6.10742188 C0.65113625 7.19075806 0.56850784 8.27409424 0.48337555 9.39025879 C0.33981754 11.16161194 0.33981754 11.16161194 0.19335938 12.96875 C0.05116093 14.79666077 0.05116093 14.79666077 -0.09391022 16.66149902 C-0.38990048 20.44150717 -0.69391115 24.22079736 -1 28 C-1.08772675 29.09489746 -1.17545349 30.18979492 -1.26583862 31.31787109 C-1.85914847 38.71326709 -2.4723302 46.10691748 -3.09375 53.5 C-3.18871262 54.62991364 -3.28367523 55.75982727 -3.3815155 56.92398071 C-3.88109918 62.86045994 -4.38291349 68.79674637 -4.88623047 74.73291016 C-5.30011908 79.62022355 -5.70898845 84.50792009 -6.11376953 89.39599609 C-6.60772673 95.36052279 -7.11003495 101.32428942 -7.6184845 107.28759766 C-7.80960442 109.54564827 -7.99776826 111.80395113 -8.1829071 114.0625 C-8.44005833 117.19215078 -8.70793612 120.32070448 -8.97851562 123.44921875 C-9.05233963 124.37784225 -9.12616364 125.30646576 -9.20222473 126.26322937 C-9.27781113 127.11182022 -9.35339752 127.96041107 -9.43127441 128.8347168 C-9.49320229 129.57118942 -9.55513016 130.30766205 -9.61893463 131.06645203 C-10 133 -10 133 -12 136 C-13.65 135.67 -15.3 135.34 -17 135 C-18.57666224 126.27156451 -19.69851379 117.51911764 -20.6882019 108.70956421 C-22.1867578 95.42765175 -23.82379317 82.18970577 -26 69 C-26.18175781 67.87722656 -26.36351562 66.75445312 -26.55078125 65.59765625 C-29.54672676 46.57647644 -29.54672676 46.57647644 -34.30078125 27.9453125 C-35.47552745 22.99694025 -35.70159993 19.46616396 -33.4765625 14.81640625 C-30.43569528 11.35825915 -27.51884686 9.80646444 -23.375 7.9375 C-21.93859148 7.26086357 -20.50239325 6.58378055 -19.06640625 5.90625 C-18.37047363 5.58398438 -17.67454102 5.26171875 -16.95751953 4.9296875 C-13.60134772 3.33573611 -10.35980925 1.51975185 -7.11328125 -0.28515625 C-4.39838484 -1.20350384 -2.71449622 -0.80926208 0 0 Z " fill="#FC014F" transform="translate(241,234)"/>
<path d="M0 0 C5.2465486 0.27244689 9.32023902 2.42233495 13.875 4.8125 C14.54402344 5.15603516 15.21304687 5.49957031 15.90234375 5.85351562 C17.25378133 6.5474619 18.60243648 7.24685383 19.94824219 7.95166016 C21.34670362 8.66620006 22.75990377 9.35243637 24.18457031 10.01318359 C24.88936523 10.3427002 25.59416016 10.6722168 26.3203125 11.01171875 C27.27188232 11.44230591 27.27188232 11.44230591 28.24267578 11.8815918 C30.49353384 13.31409815 31.63553195 14.70867475 33 17 C34.09408119 23.63814807 32.49112107 30.10592924 30.8125 36.5 C27.57312856 49.75577258 25.76721248 63.19591311 23.8868866 76.69380188 C23.09386982 82.3811228 22.24385469 88.05873768 21.38061523 93.73583984 C19.68324184 104.90358967 18.20241356 116.07357593 17.03857422 127.31079102 C16.9304541 128.29233154 16.82233398 129.27387207 16.7109375 130.28515625 C16.62118652 131.15019775 16.53143555 132.01523926 16.43896484 132.90649414 C16 135 16 135 14 137 C10.46428571 136.46428571 10.46428571 136.46428571 9 135 C8.77064315 133.41738056 8.60379348 131.82565468 8.46214294 130.23278809 C8.32124741 128.68520309 8.32124741 128.68520309 8.17750549 127.10635376 C8.07824265 125.96459686 7.9789798 124.82283997 7.87670898 123.64648438 C7.76927368 122.45135223 7.66183838 121.25622009 7.55114746 120.02487183 C7.25648851 116.73545915 6.96592586 113.44573455 6.67738605 110.1557827 C6.37452976 106.71107167 6.06718258 103.26676096 5.76051331 99.8223877 C5.24541224 94.02868264 4.73405796 88.23465577 4.22485352 82.44042969 C3.63746995 75.75717051 3.04406702 69.07446674 2.44740242 62.39203024 C1.87297245 55.95684986 1.30304343 49.52127814 0.73506355 43.08552551 C0.49372921 40.35198218 0.25081362 37.61858634 0.00658989 34.88529968 C-0.33555935 31.0534889 -0.67113758 27.22111758 -1.00610352 23.38867188 C-1.10739059 22.26310883 -1.20867767 21.13754578 -1.31303406 19.97787476 C-1.83260389 13.96569314 -2.29319333 8.0336189 -2 2 C-1.34 1.34 -0.68 0.68 0 0 Z " fill="#FC004F" transform="translate(268,233)"/>
<path d="M0 0 C8.58 0 17.16 0 26 0 C28.6619965 17.13660245 28.6619965 17.13660245 28 23 C25.22611641 26.0730279 22.97755918 27.24136597 18.93359375 27.56640625 C17.43502567 27.58617628 15.93603895 27.58436709 14.4375 27.5625 C13.68275391 27.58634766 12.92800781 27.61019531 12.15039062 27.63476562 C8.43316238 27.62494035 6.41856842 27.35448139 3.55078125 24.92578125 C1.69096167 21.41695287 1.18198545 18.5688672 0.75 14.625 C0.60046875 13.35914063 0.4509375 12.09328125 0.296875 10.7890625 C0.01585339 7.20233936 0 3.59771539 0 0 Z " fill="#9DA9CB" transform="translate(139,31)"/>
<path d="M0 0 C8.25 0 16.5 0 25 0 C25 11.5862069 25 11.5862069 24.25 16.875 C24.11078125 17.94492187 23.9715625 19.01484375 23.828125 20.1171875 C22.82171539 23.62063227 22.0181164 24.94241499 19 27 C16.18948221 27.40192473 13.85923562 27.56118656 11.0625 27.5 C10.35931641 27.51546875 9.65613281 27.5309375 8.93164062 27.546875 C5.34413996 27.51997715 3.12763824 27.07520941 0.0234375 25.24609375 C-2 23 -2 23 -2.55859375 20.87890625 C-2.51863281 20.11449219 -2.47867187 19.35007812 -2.4375 18.5625 C-2.39496094 17.70011719 -2.35242188 16.83773437 -2.30859375 15.94921875 C-1.74803037 10.59193578 -0.90388889 5.31034722 0 0 Z " fill="#9EAACD" transform="translate(343,31)"/>
</svg>
