<?xml version="1.0" encoding="UTF-8"?>
<svg version="1.1" xmlns="http://www.w3.org/2000/svg" width="512" height="512">
<path d="M0 0 C1.29194596 -0.00576172 1.29194596 -0.00576172 2.60999185 -0.01163983 C4.03773377 -0.01034011 4.03773377 -0.01034011 5.49431896 -0.00901413 C6.50113742 -0.01198525 7.50795587 -0.01495637 8.54528397 -0.01801753 C11.94083544 -0.02673401 15.33635178 -0.02821526 18.73191357 -0.02970505 C21.15756335 -0.03433113 23.5832124 -0.0393555 26.00886059 -0.04475021 C32.61423829 -0.05789627 39.21960865 -0.06435987 45.82499623 -0.06876087 C49.94813144 -0.07152174 54.0712643 -0.07575882 58.19439793 -0.08026505 C69.6062588 -0.09245927 81.01811779 -0.10275812 92.42998505 -0.10614014 C93.16065697 -0.1063597 93.8913289 -0.10657927 94.6441424 -0.10680549 C95.37658106 -0.10702377 96.10901971 -0.10724204 96.86365348 -0.10746694 C98.34789773 -0.10791041 99.83214198 -0.10835697 101.31638622 -0.10880661 C102.42074516 -0.10913875 102.42074516 -0.10913875 103.54741438 -0.10947761 C115.4779122 -0.11342586 127.40834895 -0.13087999 139.33882318 -0.15416613 C151.58259744 -0.1778712 163.82634105 -0.19034161 176.07013863 -0.19150805 C182.94661546 -0.19242532 189.82301273 -0.19819046 196.69946766 -0.21632767 C203.16643363 -0.23332445 209.63328879 -0.23498757 216.10027218 -0.22618866 C218.47669981 -0.22541567 220.8531354 -0.22979525 223.22954273 -0.23964691 C226.46837423 -0.2522886 229.7066637 -0.24653177 232.94549084 -0.23606491 C233.89062662 -0.24412132 234.8357624 -0.25217772 235.80953866 -0.26047826 C240.6447434 -0.22381678 244.0313788 -0.0933945 247.91038036 3.13142776 C249.96540898 6.2139707 250.15436015 6.73102631 250.07013988 10.18281937 C250.05554729 11.00616776 250.0409547 11.82951614 250.02591991 12.67781448 C249.99987682 13.57838577 249.97383373 14.47895706 249.94700146 15.40681839 C249.90762622 17.38130372 249.86835513 19.35579113 249.82917309 21.3302803 C249.80471489 22.38069 249.78025669 23.4310997 249.75505733 24.51334 C249.63307676 30.11986121 249.57217068 35.72720674 249.50022411 41.33455276 C249.40513293 48.4508365 249.29330849 55.56552317 249.11497021 62.68025589 C247.84274747 99.08482818 247.84274747 99.08482818 260.46549511 132.54756546 C262.65071039 136.45534663 264.1000139 140.52231752 265.49631786 144.76424026 C265.73687405 145.47731842 265.97743023 146.19039658 266.22527599 146.92508316 C266.9267218 149.03103573 267.60792448 151.14264808 268.28538036 153.25642776 C268.53152081 154.01003586 268.77766125 154.76364395 269.03126049 155.54008865 C273.39607913 168.91347354 277.07635358 182.34572018 279.91038036 196.13142776 C280.13274364 197.17427933 280.35510693 198.21713089 280.58420849 199.29158401 C297.01811476 277.10683251 284.37040539 356.88633673 270.91038036 434.13142776 C270.74370861 435.08922134 270.57703686 436.04701492 270.40531445 437.03383255 C269.00221441 445.09385705 267.59830675 453.15373967 266.168437 461.20906448 C265.96423893 462.36348038 265.96423893 462.36348038 265.75591564 463.5412178 C265.49342697 465.02225877 265.22915527 466.50298507 264.96291637 467.98335648 C263.98707083 473.47411727 263.24445734 478.97959546 262.62864208 484.52327347 C261.68931063 487.93417692 260.7620127 489.01001543 257.91038036 491.13142776 C254.91544597 491.74615032 251.95607897 491.7157854 248.90671825 491.70906448 C247.99732998 491.72261475 247.0879417 491.73616501 246.15099621 491.75012589 C243.14487367 491.78981595 240.13939295 491.80098602 237.13303661 491.81111526 C235.04321423 491.83117739 232.95340532 491.85269205 230.86361217 491.87559891 C226.48312165 491.91944052 222.10280939 491.94994332 217.72214794 491.97029495 C212.10846053 491.99683264 206.49541806 492.04973171 200.88202286 492.1117878 C196.56610858 492.15772212 192.25016119 492.19301646 187.93412113 492.22475433 C185.86445519 492.2406152 183.794807 492.25899989 181.72518635 492.279953 C178.83122068 492.30698583 175.93750617 492.32051384 173.043437 492.33015823 C171.76137371 492.3455439 171.76137371 492.3455439 170.45341015 492.36124039 C166.1732683 492.36061452 162.76686126 492.22329099 158.91038036 490.13142776 C131.78376125 462.74195382 124.96505742 400.72764396 119.91038036 364.13142776 C119.74022411 365.11498245 119.57006786 366.09853714 119.39475536 367.11189651 C102.13045825 466.30085621 102.13045825 466.30085621 80.91038036 490.13142776 C76.3067046 492.63080899 71.87013287 492.39127554 66.77732372 492.33015823 C65.86618313 492.32712189 64.95504253 492.32408554 64.01629162 492.32095718 C61.01075979 492.30769642 58.00562802 492.27904237 55.00022411 492.24861526 C52.90945205 492.23259265 50.81867743 492.21690111 48.72790051 492.20152664 C44.34909205 492.16655814 39.97045636 492.12319344 35.59177685 492.07478714 C29.97722619 492.01401501 24.36288406 491.98081428 18.7480793 491.95472908 C14.43198463 491.93050297 10.11620315 491.88830366 5.80030537 491.84099579 C3.7298857 491.82111993 1.65939435 491.80765054 -0.41110897 491.80067444 C-3.30328221 491.78890703 -6.19410469 491.75215429 -9.08595753 491.70906448 C-9.94269062 491.71095276 -10.79942371 491.71284103 -11.68211842 491.71478653 C-17.48815653 491.59116868 -17.48815653 491.59116868 -20.58984852 489.22032547 C-22.82249413 486.11067211 -23.35286439 483.86564371 -23.87331104 480.10213089 C-24.02271137 479.04812088 -24.1721117 477.99411087 -24.32603931 476.90816116 C-24.48778645 475.75465164 -24.64953358 474.60114212 -24.81618214 473.41267776 C-26.27145575 463.31821035 -27.88373287 453.26533861 -29.67555714 443.22517776 C-29.9002367 441.96604568 -30.12491627 440.7069136 -30.3564043 439.40962601 C-30.82050286 436.81491363 -31.28521102 434.22031021 -31.75050831 431.62581253 C-38.31385172 394.9727234 -44.13305949 358.2728756 -47.08961964 321.13142776 C-47.23101368 319.54140945 -47.23101368 319.54140945 -47.37526417 317.91926956 C-48.32553857 306.02383998 -48.31113659 294.11178944 -48.32985401 282.18489456 C-48.33948132 278.49691394 -48.3705553 274.80951089 -48.40211964 271.12166214 C-48.50573435 248.19496835 -46.47269366 225.60580948 -41.90211964 203.13142776 C-41.6806023 202.01550247 -41.6806023 202.01550247 -41.45460987 200.87703323 C-38.49933734 186.04585633 -34.68058451 171.54649704 -30.08961964 157.13142776 C-29.8011919 156.22054398 -29.51276417 155.30966019 -29.2155962 154.37117386 C-24.60591738 140.0338356 -19.44910153 124.46251907 -11.53522205 111.60628128 C-9.60543704 106.9675783 -9.72180707 103.02886085 -9.81252003 98.05867386 C-9.81850712 97.0596051 -9.82449421 96.06053635 -9.83066273 95.03119278 C-9.8453924 92.86878283 -9.86698602 90.70641105 -9.89469051 88.54412842 C-9.93767382 85.12319468 -9.96095448 81.70263379 -9.9788866 78.2814827 C-10.02694688 69.78852465 -10.10388785 61.2958992 -10.18941212 52.80324173 C-10.2617111 45.61952419 -10.3185553 38.43605892 -10.35231304 31.25205231 C-10.3745329 27.87924856 -10.42001343 24.50724624 -10.4658556 21.13469315 C-10.47718773 19.07159943 -10.48733807 17.00849878 -10.49611378 14.94539261 C-10.51520802 14.00607391 -10.53430225 13.06675522 -10.55397511 12.09897232 C-10.54541346 5.74322974 -10.54541346 5.74322974 -8.18921375 2.58055496 C-5.20689803 0.52217864 -3.57608761 0.00596845 0 0 Z " fill="#494F69" transform="translate(135.08961963653564,8.868572235107422)"/>
<path d="M0 0 C4.14328284 0.76101113 5.38180728 2.35184978 8.0625 5.5625 C9.26928711 8.93041992 9.26928711 8.93041992 10.08984375 12.79296875 C10.24406799 13.49211899 10.39829224 14.19126923 10.55718994 14.91160583 C11.05537011 17.18772569 11.52765884 19.46839186 12 21.75 C12.34292517 23.33878645 12.68775193 24.92716359 13.03442383 26.51513672 C13.72910494 29.70399242 14.41540584 32.89447234 15.09570312 36.08642578 C16.16760885 41.08719249 17.32924407 46.06514058 18.50683594 51.04199219 C25.44750882 80.41900581 30.33596557 108.9522935 30.3125 139.1875 C30.31190582 140.02604523 30.31131165 140.86459045 30.31069946 141.72854614 C30.26515738 158.53233661 29.46603867 174.96627558 26.75 191.5625 C26.58334839 192.60216919 26.58334839 192.60216919 26.41333008 193.6628418 C24.74049065 204.08186534 22.89457901 214.3863986 20.0625 224.5625 C19.87187988 225.25746582 19.68125977 225.95243164 19.48486328 226.66845703 C14.62453337 244.147629 14.62453337 244.147629 8.125 250.4375 C3.17902901 253.13530236 -1.31786988 254.24073122 -6.9375 253.5625 C-12.05752853 251.23783414 -15.83363973 248.28334136 -18.9375 243.5625 C-20.21420425 240.14628716 -21.12934666 236.64826495 -22.0625 233.125 C-24.34492117 224.81808568 -26.90319282 216.69406365 -29.796875 208.57958984 C-37.49130319 186.75513635 -40.25816293 165.52578652 -40.3125 142.4375 C-40.31485657 141.67629852 -40.31721313 140.91509705 -40.31964111 140.13082886 C-40.3138432 123.65961652 -38.53021189 107.63779694 -34.9375 91.5625 C-34.79586426 90.90991211 -34.65422852 90.25732422 -34.50830078 89.58496094 C-28.84103267 63.54683852 -20.27630475 37.73632689 -10.5625 12.9375 C-10.25328613 12.133125 -9.94407227 11.32875 -9.62548828 10.5 C-7.58955081 5.45715651 -5.78648026 1.10804941 0 0 Z " fill="#FD004F" transform="translate(164.9375,133.4375)"/>
<path d="M0 0 C3.9890733 0.69983742 4.95825499 1.73991354 7.38684082 4.85250854 C9.29408655 7.72798199 10.45732406 10.82866228 11.578125 14.06640625 C11.83526276 14.77799896 12.09240051 15.48959167 12.35733032 16.2227478 C13.18953571 18.53967506 14.00202742 20.8628894 14.8125 23.1875 C15.38793137 24.81397272 15.96361799 26.44035516 16.53955078 28.06665039 C23.36043365 47.43705201 29.56536443 66.92987346 34.5 86.875 C34.92418213 88.56870728 34.92418213 88.56870728 35.35693359 90.29663086 C39.29508875 106.85307997 39.88712114 123.02796134 39.82324219 139.98291016 C39.81247366 143.3833175 39.8232221 146.78320185 39.8359375 150.18359375 C39.84336091 160.87057394 39.71987219 171.12877444 37.5625 181.625 C37.42134766 182.54273193 37.28019531 183.46046387 37.13476562 184.40600586 C36.01370659 191.57938869 33.80547511 198.13500329 31.3125 204.9375 C27.94414478 214.33080817 24.98485886 223.70689546 22.67871094 233.41918945 C20.89055907 240.56834224 18.34767481 246.45256365 12.4375 251.0625 C7.86899293 253.54538427 3.71479573 254.44238738 -1.4375 253.625 C-7.30440728 251.06817422 -11.91548584 247.34073758 -14.37792969 241.32910156 C-16.76377817 234.7935385 -18.76357204 228.25207882 -20.4375 221.5 C-20.69241211 220.47302002 -20.94732422 219.44604004 -21.20996094 218.38793945 C-23.96875874 206.91701126 -25.92843264 195.32277048 -27.4375 183.625 C-27.5688031 182.63950165 -27.5688031 182.63950165 -27.70275879 181.63409424 C-29.37006519 168.8459345 -29.74994602 156.18846764 -29.69824219 143.30029297 C-29.68751146 140.1283864 -29.69821275 136.95704594 -29.7109375 133.78515625 C-29.71980704 121.27405705 -29.11276773 109.02553721 -27.4375 96.625 C-27.30214844 95.60841309 -27.16679687 94.59182617 -27.02734375 93.54443359 C-26.66402507 91.04099936 -26.25494012 88.55308987 -25.8125 86.0625 C-25.6484668 85.13018555 -25.48443359 84.19787109 -25.31542969 83.23730469 C-23.3203193 72.36727243 -20.71818927 61.63376739 -18.12466431 50.89454651 C-17.94946259 50.16879929 -17.77426086 49.44305206 -17.59375 48.6953125 C-17.41701752 47.96348251 -17.24028503 47.23165253 -17.05819702 46.47764587 C-15.72891982 40.93464806 -14.49092223 35.37488301 -13.28125 29.8046875 C-12.92700429 28.19037558 -12.572515 26.57611709 -12.21777344 24.96191406 C-11.70392544 22.62332244 -11.19471823 20.28427527 -10.70129395 17.94128418 C-10.24629279 15.78328204 -9.77341252 13.62989484 -9.296875 11.4765625 C-9.03358398 10.24760254 -8.77029297 9.01864258 -8.49902344 7.75244141 C-6.85935906 2.92169148 -5.03759184 0.91592579 0 0 Z " fill="#FE004F" transform="translate(345.4375,133.375)"/>
<path d="M0 0 C2.0625 0.4375 2.0625 0.4375 4 1 C4.03440186 1.90314941 4.06880371 2.80629883 4.10424805 3.73681641 C5.48384121 37.59566872 7.04096042 73.89683938 27.5 102.375 C37.01029294 115.67554094 43.11292573 133.38612995 42.51171875 149.9296875 C41.19659719 157.82041686 37.25626807 165.11837148 30.7578125 169.88671875 C23.38552031 174.55583714 16.68468213 175.00579838 8 174 C-0.07911627 171.6353806 -5.89352007 166.46598186 -10.0234375 159.19921875 C-14.81638085 148.11850319 -14.62256817 133.89028641 -15.625 121.9375 C-15.72305435 120.77204147 -15.72305435 120.77204147 -15.8230896 119.58303833 C-19.06973143 80.17460529 -16.99822634 37.85865873 -1 1 C-0.67 0.67 -0.34 0.34 0 0 Z " fill="#FC8464" transform="translate(303,294)"/>
<path d="M0 0 C1.9375 0.11328125 1.9375 0.11328125 4 1 C5.125 3.23046875 5.125 3.23046875 6 6.1875 C6.32782471 7.26990967 6.65564941 8.35231934 6.9934082 9.4675293 C7.49167114 11.21610229 7.49167114 11.21610229 8 13 C8.52436646 14.78434448 8.52436646 14.78434448 9.05932617 16.60473633 C10.06379103 20.06351789 11.0389802 23.52892414 12 27 C12.23283691 27.83321777 12.46567383 28.66643555 12.70556641 29.52490234 C18.07354199 49.13408631 19.56588078 69.31170759 19.4375 89.5625 C19.43512329 90.55994232 19.43274658 91.55738464 19.43029785 92.58505249 C19.37750964 106.89647585 18.72747446 121.07681227 17.25 135.3125 C17.17167938 136.09746857 17.09335876 136.88243713 17.01266479 137.69119263 C15.82881698 149.18058554 14.29312735 161.07469226 5 169 C-2.42112886 174.39469515 -10.02337038 175.25734651 -19 174 C-27.21690308 171.56287773 -32.64779194 166.41142158 -37.09375 159.234375 C-42.86177177 146.95062494 -38.24289186 131.0828455 -34 119 C-31.09540167 111.54638184 -27.08542322 104.9836576 -22.4375 98.5 C-17.82084584 92.03040302 -14.75517597 85.43473639 -12 78 C-11.63261719 77.04480469 -11.26523438 76.08960938 -10.88671875 75.10546875 C-6.97080664 63.81131298 -5.67041697 51.78647774 -4 40 C-3.88382324 39.19449707 -3.76764648 38.38899414 -3.64794922 37.55908203 C-2.26015629 27.73896249 -1.66432645 17.9523741 -1.34106445 8.04418945 C-1.30972412 7.14273193 -1.27838379 6.24127441 -1.24609375 5.3125 C-1.22216553 4.50425781 -1.1982373 3.69601562 -1.17358398 2.86328125 C-1 1 -1 1 0 0 Z " fill="#FD8464" transform="translate(204,294)"/>
<path d="M0 0 C0.65169159 -0.00145523 1.30338318 -0.00291046 1.974823 -0.00440979 C3.34475197 -0.00275754 4.7147008 0.00872823 6.08447266 0.02954102 C8.18081236 0.05860935 10.27463723 0.05011712 12.37109375 0.03710938 C13.70574144 0.04334436 15.04038117 0.05173344 16.375 0.0625 C18.18895264 0.0771228 18.18895264 0.0771228 20.03955078 0.09204102 C23.0546875 0.49609375 23.0546875 0.49609375 24.71932411 1.67262268 C26.57433447 4.20568429 26.43214198 5.95042734 26.43563843 9.07568359 C26.44832764 10.81709625 26.44832764 10.81709625 26.46127319 12.59368896 C26.4552005 13.86859192 26.44912781 15.14349487 26.44287109 16.45703125 C26.44693584 17.81219913 26.45227718 19.1673637 26.45880127 20.52252197 C26.47249241 24.20432898 26.46716894 27.88588414 26.45766401 31.56769562 C26.45007667 35.41802151 26.45711045 39.26832562 26.46182251 43.11865234 C26.46728277 49.58500038 26.4600814 56.05124568 26.44580078 62.51757812 C26.42947369 69.99701102 26.43476201 77.47619859 26.45128 84.95562553 C26.4648872 91.37353556 26.4668183 97.79137167 26.45896399 104.20929146 C26.45428323 108.04408922 26.4536736 111.87877163 26.46357346 115.71356201 C26.47222978 119.31857556 26.46624602 122.92327237 26.44889069 126.52825165 C26.44302155 128.48499616 26.45195278 130.44176742 26.46127319 132.39849854 C26.45281372 133.55944031 26.44435425 134.72038208 26.43563843 135.91650391 C26.43450735 136.92750153 26.43337627 137.93849915 26.43221092 138.98013306 C26.0546875 141.49609375 26.0546875 141.49609375 24.67931557 143.30184937 C23.0546875 144.49609375 23.0546875 144.49609375 20.6796875 145.18359375 C18.0546875 144.49609375 18.0546875 144.49609375 15.7421875 141.43359375 C14.83024619 139.79663078 13.93674577 138.14935051 13.0546875 136.49609375 C12.47976562 135.50867188 11.90484375 134.52125 11.3125 133.50390625 C-1.07701909 111.56102303 -9.28848223 87.38605306 -12.9453125 62.49609375 C-13.11522705 61.44921387 -13.2851416 60.40233398 -13.46020508 59.32373047 C-14.92216696 49.64727654 -15.28664891 40.17650085 -15.26098633 30.40380859 C-15.25777241 27.83910585 -15.28158369 25.27550308 -15.30664062 22.7109375 C-15.30890935 21.06380352 -15.30961911 19.41666648 -15.30859375 17.76953125 C-15.3178035 17.01118988 -15.32701324 16.25284851 -15.33650208 15.4715271 C-15.28350647 9.41374764 -13.88100075 6.45589946 -9.69189453 2.21459961 C-6.24058806 0.0551555 -4.05292212 -0.00619878 0 0 Z " fill="#9EA9CC" transform="translate(222.9453125,17.50390625)"/>
<path d="M0 0 C1.03846069 0.00326294 1.03846069 0.00326294 2.09790039 0.0065918 C4.19861363 0.00973839 6.29789988 -0.01365377 8.3984375 -0.0390625 C9.74023261 -0.04133698 11.08203148 -0.0420383 12.42382812 -0.04101562 C14.25071167 -0.04548706 14.25071167 -0.04548706 16.11450195 -0.05004883 C20.55360335 0.45233556 22.90841296 1.99859178 26.19628906 4.90795898 C28.14092343 8.79447661 27.79069665 12.66890305 27.73242188 16.95117188 C27.73054871 17.89604965 27.72867554 18.84092743 27.72674561 19.81443787 C27.7200253 21.81586225 27.70611124 23.8172735 27.68554688 25.81860352 C27.65465886 28.84924848 27.64459765 31.87937009 27.63867188 34.91015625 C27.62948934 36.86133432 27.61910964 38.8125072 27.60742188 40.76367188 C27.60104706 42.10335777 27.60104706 42.10335777 27.59454346 43.47010803 C27.22077813 77.20595512 15.93468935 117.03281367 -4.59570312 144.32226562 C-7.72070313 144.82226562 -7.72070313 144.82226562 -10.59570312 144.32226562 C-13.24238902 141.67557973 -12.84695995 140.47533616 -12.84967041 136.78027344 C-12.85531006 135.60243286 -12.86094971 134.42459229 -12.86676025 133.21105957 C-12.86068756 131.26290344 -12.86068756 131.26290344 -12.85449219 129.27539062 C-12.8572011 127.89904596 -12.86076147 126.52270275 -12.8651123 125.1463623 C-12.87425049 121.40262821 -12.87068621 117.65900402 -12.86435413 113.91526794 C-12.85930151 110.00307919 -12.86398353 106.09090005 -12.86712646 102.17871094 C-12.87076827 95.60805567 -12.86596141 89.03744532 -12.85644531 82.46679688 C-12.84556034 74.86301194 -12.84908576 67.25933425 -12.86009812 59.65555191 C-12.86916491 53.13493047 -12.87045927 46.61434137 -12.86522079 40.09371567 C-12.86209772 36.19580069 -12.86170091 32.29793618 -12.86829376 28.40002441 C-12.87405779 24.73599714 -12.87008778 21.07210855 -12.85850525 17.40809631 C-12.85458551 15.41655673 -12.86055235 13.42500545 -12.86676025 11.43347168 C-12.86112061 10.2556311 -12.85548096 9.07779053 -12.84967041 7.86425781 C-12.84891636 6.83629089 -12.84816231 5.80832397 -12.84738541 4.74920654 C-12.16524016 -1.82863515 -5.05359138 0.0210508 0 0 Z " fill="#9EAACD" transform="translate(273.595703125,17.677734375)"/>
<path d="M0 0 C2.24609375 0 2.24609375 0 5 1 C6.90406622 3.3101467 8.47204451 5.48858441 10.0625 8 C11.02860547 9.46572948 11.99610115 10.93054339 12.96484375 12.39453125 C13.71096924 13.53462646 13.71096924 13.53462646 14.47216797 14.69775391 C16.94160949 18.41888423 19.53501984 22.04975702 22.125 25.6875 C23.12794578 27.10913405 24.13055525 28.53100544 25.1328125 29.953125 C26.94411718 32.51782567 28.77186701 35.06906367 30.6171875 37.609375 C43.61444636 55.62977931 41.21221665 71.46730852 39.46157837 92.67678833 C38.98982981 98.39675932 38.5368243 104.11819524 38.0859375 109.83984375 C37.99377457 111.00748764 37.90161163 112.17513153 37.80665588 113.37815857 C36.68334638 127.79488383 35.80435263 142.2271808 34.9519043 156.66210938 C34.89453094 157.60916245 34.83715759 158.55621552 34.77804565 159.53196716 C34.67131653 161.29515253 34.56793239 163.05854486 34.46853638 164.82215881 C34.27025258 168.07570041 34.03580368 170.89258895 33 174 C32.01 173.67 31.02 173.34 30 173 C28.8107605 170.19776917 28.8107605 170.19776917 27.65576172 166.40063477 C27.44235138 165.71119781 27.22894104 165.02176086 27.00906372 164.31143188 C26.30435146 162.02479899 25.61710953 159.73329051 24.9296875 157.44140625 C24.44424528 155.85544597 23.95766834 154.26983261 23.47000122 152.68455505 C22.18724397 148.50458889 20.91897862 144.32036446 19.65393066 140.13500977 C18.11422076 135.04993745 16.55847049 129.96975599 15.00424385 124.8891058 C13.79518027 120.93609461 12.58884294 116.98232069 11.39059448 113.02601624 C11.16980225 112.29911087 10.94901001 111.57220551 10.7215271 110.82327271 C10.12498004 108.85892907 9.53006802 106.8940891 8.93527222 104.92921448 C8.11583488 102.10335905 8.11583488 102.10335905 7 100 C6.67288592 97.43183953 6.39519871 94.87646609 6.15209961 92.30004883 C6.07392502 91.50455124 5.99575043 90.70905365 5.91520691 89.88945007 C5.65667727 87.24570326 5.40421222 84.60142046 5.15234375 81.95703125 C4.9745567 80.11250935 4.79662179 78.26800169 4.61854553 76.42350769 C4.24508004 72.54407678 3.87485422 68.66435195 3.5065918 64.78442383 C3.03783653 59.85054524 2.5590357 54.91770199 2.07739925 49.98506641 C1.70610678 46.1667065 1.34143153 42.34773467 0.97851753 38.52857018 C0.80496888 36.71258578 0.62918984 34.89681292 0.45100212 33.08127785 C-0.59239914 22.41681577 -1.63117406 11.72532484 -1 1 C-0.67 0.67 -0.34 0.34 0 0 Z " fill="#9DA9CC" transform="translate(199,160)"/>
<path d="M0 0 C1.67542976 0.28604898 3.34385343 0.61781233 5 1 C5.26312111 18.17397359 3.8093598 35.27442722 2.375 52.375 C2.29851982 53.29458118 2.22203964 54.21416237 2.14324188 55.16160965 C-1.35414229 96.51562255 -11.40997498 135.53387415 -27 174 C-27.99 173.67 -28.98 173.34 -30 173 C-30.91931659 160.10803112 -31.83249288 147.2156429 -32.73806 134.3227005 C-33.15884138 128.33454827 -33.58165279 122.34655447 -34.00927734 116.35888672 C-34.42269384 110.56907086 -34.83055084 104.77888663 -35.23472595 98.98841858 C-35.38905712 96.79096287 -35.54531464 94.59364148 -35.70362854 92.39646912 C-38.36039406 55.46698607 -38.36039406 55.46698607 -33 47 C-32.46375 46.13890625 -31.9275 45.2778125 -31.375 44.390625 C-29.31435985 41.21380476 -27.1736123 38.09988706 -25 35 C-24.55591797 34.36529785 -24.11183594 33.7305957 -23.65429688 33.07666016 C-20.65592138 28.79871657 -17.63711606 24.53550214 -14.61279297 20.27587891 C-12.93620642 17.90997824 -11.26607619 15.53963461 -9.59765625 13.16796875 C-9.04754883 12.38639404 -8.49744141 11.60481934 -7.93066406 10.79956055 C-6.86821802 9.28972662 -5.80635025 7.77948558 -4.74511719 6.26879883 C-1.11186423 1.11186423 -1.11186423 1.11186423 0 0 Z " fill="#9EAACC" transform="translate(307,160)"/>
<path d="M0 0 C2.0625 0.4375 2.0625 0.4375 4 1 C4.64014568 4.39314481 5.25884785 7.78992344 5.875 11.1875 C6.04902344 12.10853516 6.22304688 13.02957031 6.40234375 13.97851562 C9.55783738 31.56747086 10.38324532 49.22692314 10.3125 67.0625 C10.31034485 68.05146271 10.3081897 69.04042542 10.30596924 70.05935669 C10.14063792 117.81956084 6.5499807 172.84725312 -24 212 C-27.49124017 214.32749345 -28.89222251 214.50299316 -33 214 C-36.8036015 211.46426567 -37.57767048 208.58298294 -38.59423828 204.24707031 C-39.26473059 200.53394684 -39.32875553 196.88978138 -39.3125 193.125 C-39.32861328 192.38636719 -39.34472656 191.64773438 -39.36132812 190.88671875 C-39.37057798 180.21238812 -34.91016484 171.26397196 -30.375 161.8125 C-24.70219442 149.73219427 -19.50767605 137.56370221 -15 125 C-14.70899414 124.18998535 -14.41798828 123.3799707 -14.11816406 122.54541016 C-10.41367023 111.95771372 -8.13620071 101.2363481 -6.25 90.1875 C-6.05116211 89.02726318 -5.85232422 87.86702637 -5.64746094 86.67163086 C-2.38700631 66.24904904 -1.67581945 45.77145735 -1.4375 25.125 C-1.39346107 21.65194079 -1.3469863 18.17896924 -1.29469299 14.70602417 C-1.2628634 12.57045345 -1.23593425 10.43480275 -1.21446228 8.29910278 C-1.20097244 7.35235687 -1.1874826 6.40561096 -1.17358398 5.43017578 C-1.15931618 4.17855148 -1.15931618 4.17855148 -1.14476013 2.90164185 C-1 1 -1 1 0 0 Z " fill="#FB8364" transform="translate(400,227)"/>
<path d="M0 0 C1.32 0.66 2.64 1.32 4 2 C4.07046478 6.439281 4.0570965 10.69346633 3.50439453 15.09887695 C2.96923538 19.83349966 2.83923511 24.50426451 2.83203125 29.265625 C2.82567909 30.56058899 2.82567909 30.56058899 2.81919861 31.88171387 C2.80934858 34.67119258 2.80927488 37.460507 2.8125 40.25 C2.81340637 41.68478699 2.81340637 41.68478699 2.81433105 43.14855957 C2.8423292 59.49879087 3.24335978 75.72918432 5 92 C5.14550293 93.41659912 5.14550293 93.41659912 5.29394531 94.86181641 C8.40598565 122.69728829 20.01591154 150.0019066 31.06713867 175.52514648 C33.2170335 181.22875389 33.18305236 186.73678708 33.1875 192.75 C33.19974609 193.6059375 33.21199219 194.461875 33.22460938 195.34375 C33.25588347 209.10435144 33.25588347 209.10435144 29.66479492 213.71386719 C27.28157124 215.55502019 24.98925772 215.6688119 22.04296875 215.5078125 C17.9227441 214.48366488 16.08309826 211.4110734 14 208 C8.27584493 197.76345655 3.70674137 187.12503025 0 176 C-0.31880127 175.04585205 -0.63760254 174.0917041 -0.96606445 173.10864258 C-3.51881787 165.17414932 -5.27324358 157.2706442 -6.6875 149.0625 C-6.89955078 147.90298828 -7.11160156 146.74347656 -7.33007812 145.54882812 C-9.59258437 132.70892678 -10.15467484 119.94247527 -10.1328125 106.921875 C-10.13376923 105.63041565 -10.13472595 104.3389563 -10.13571167 103.00836182 C-10.13717083 100.29576395 -10.13509377 97.5831994 -10.13037109 94.87060547 C-10.12469695 91.45082162 -10.12804834 88.03111593 -10.13380337 84.6113348 C-10.18587591 48.36531898 -10.18587591 48.36531898 -7.6875 30.9375 C-7.55996338 30.02701904 -7.43242676 29.11653809 -7.30102539 28.1784668 C-6.41839658 22.16598462 -5.30984631 16.2323117 -3.9375 10.3125 C-3.77531982 9.61181396 -3.61313965 8.91112793 -3.44604492 8.18920898 C-2.65264587 4.9725414 -1.86055912 2.79083868 0 0 Z " fill="#FC8464" transform="translate(113,225)"/>
<path d="M0 0 C3 2.4375 3 2.4375 5 5 C5.495 5.495 5.495 5.495 6 6 C8.7846746 21.80000155 7.71549971 36.20287364 -1.6875 49.6875 C-5.38362362 54.43271134 -9.40816316 58.85660303 -13.50390625 63.2578125 C-15.90173923 65.89205155 -18.14774591 68.59596687 -20.375 71.375 C-23.92555122 75.73421769 -27.5289739 80.03572957 -31.25 84.25 C-31.7454834 84.83571777 -32.2409668 85.42143555 -32.75146484 86.02490234 C-34.203125 87.640625 -34.203125 87.640625 -37 90 C-39.60260816 89.92730145 -41.12460687 89.87539313 -43 88 C-45.51117587 57.03644058 -35.9242493 29.49619531 -16 6 C-11.407841 0.74771814 -7.13222728 -1.84315986 0 0 Z " fill="#9DA9CC" transform="translate(357,20)"/>
<path d="M0 0 C1.12535156 -0.04253906 1.12535156 -0.04253906 2.2734375 -0.0859375 C10.22034002 1.471761 16.21809224 12.0621123 20.625 18.375 C32.48109351 36.64832641 38.8933335 56.60706048 39.0625 78.4375 C39.0725708 79.28836182 39.0826416 80.13922363 39.09301758 81.01586914 C39.00853269 86.89206301 39.00853269 86.89206301 37.2421875 89.11621094 C35.625 90.375 35.625 90.375 33.31640625 90.48046875 C29.31447427 88.83671439 27.25463105 85.9933896 24.5625 82.6875 C23.99813232 82.01485107 23.43376465 81.34220215 22.85229492 80.64916992 C21.67864348 79.25031358 20.50949153 77.84767057 19.34472656 76.44140625 C17.23775215 73.90968686 15.0900783 71.41525253 12.93603516 68.92358398 C11.44486614 67.19603383 9.96345447 65.46056231 8.484375 63.72265625 C6.61580122 61.52765252 4.72971104 59.35003398 2.828125 57.18359375 C-7.589421 45.1999124 -11.72734588 34.4887518 -11.75 18.6875 C-11.77449219 17.77677734 -11.79898438 16.86605469 -11.82421875 15.92773438 C-11.84902045 10.23574506 -11.26629282 6.83523636 -7.375 2.375 C-4.32767415 0.34344943 -3.48080195 0.05939935 0 0 Z " fill="#9DA9CC" transform="translate(157.375,19.625)"/>
<path d="M0 0 C0.99 0.33 1.98 0.66 3 1 C2.99887207 1.93569824 2.99774414 2.87139648 2.99658203 3.83544922 C3.00667802 7.40372366 3.0438367 10.96981 3.09765625 14.53759766 C3.11550741 16.06355328 3.12344265 17.58966625 3.12011719 19.11572266 C3.10379798 31.46120114 5.56027617 41.52960178 10 53 C10.59635088 54.58772892 11.19138577 56.17595271 11.78515625 57.76464844 C13.63190864 62.67030874 15.53119288 67.55473775 17.4375 72.4375 C21.30663862 82.38176964 25.15584741 92.33100383 28.85546875 102.33984375 C29.14441513 103.11911728 29.43336151 103.89839081 29.73106384 104.70127869 C34.89270238 118.74375012 36.17647884 131.11695153 36 146 C34.35 146 32.7 146 31 146 C30.62230469 144.88109375 30.24460937 143.7621875 29.85546875 142.609375 C18.22651573 108.55988756 3.78684498 75.54813949 -11.05224609 42.79516602 C-11.55836426 41.67682373 -12.06448242 40.55848145 -12.5859375 39.40625 C-13.0298584 38.42978516 -13.4737793 37.45332031 -13.93115234 36.44726562 C-15.90660106 31.92421905 -16.97074789 27.89418728 -16 23 C-14.0450435 19.06028583 -11.56746387 15.56271672 -9 12 C-8.27039063 10.97261719 -7.54078125 9.94523437 -6.7890625 8.88671875 C-1.43375576 1.43375576 -1.43375576 1.43375576 0 0 Z " fill="#9DA9CB" transform="translate(364,70)"/>
<path d="M0 0 C2.75516101 0.35325477 3.82583105 0.81147996 5.73925781 2.88256836 C7.60105615 5.55194162 9.44044673 8.23236498 11.25 10.9375 C12.22453125 12.30745117 12.22453125 12.30745117 13.21875 13.70507812 C16.74726947 18.94226091 19.00735471 23.08727814 18.51074219 29.49975586 C17.53817891 34.26075996 15.59076519 38.44873696 13.5 42.8125 C12.48253852 45.03301359 11.46703518 47.2544251 10.453125 49.4765625 C10.17974304 50.06920395 9.90636108 50.6618454 9.62469482 51.27244568 C6.04831452 59.02546971 2.64476171 66.85362377 -0.75 74.6875 C-1.08536774 75.46019226 -1.42073547 76.23288452 -1.76626587 77.0289917 C-7.13047908 89.4110008 -12.24047155 101.88325736 -17.1875 114.4375 C-17.49755981 115.22329437 -17.80761963 116.00908875 -18.1270752 116.81869507 C-21.93283501 126.48460749 -25.57359678 136.19278986 -29 146 C-30.32 146 -31.64 146 -33 146 C-34.86582594 144.13417406 -34.30450692 141.25521555 -34.375 138.75 C-34.29868745 118.80218183 -25.94924497 99.9433588 -18.80804443 81.66235352 C-17.56482655 78.47344621 -16.3343162 75.27965345 -15.10351562 72.0859375 C-14.862719 71.46172944 -14.62192238 70.83752138 -14.37382889 70.19439793 C-12.30331376 64.82515559 -10.24630116 59.4507704 -8.18981934 54.07614136 C-7.15154687 51.39180703 -6.08421265 48.72212186 -5.00292969 46.05493164 C-1.00420406 35.93636662 -0.1015336 26.76841522 -0.125 15.9375 C-0.10680271 14.37692016 -0.08597856 12.81636869 -0.0625 11.25585938 C-0.01158779 7.50374152 0.00449826 3.75251092 0 0 Z " fill="#9DA9CB" transform="translate(146,70)"/>
</svg>
