<?xml version="1.0" encoding="UTF-8"?>
<svg version="1.1" xmlns="http://www.w3.org/2000/svg" width="512" height="512">
<path d="M0 0 C17.04627207 8.28096793 32.84149528 11.31141773 51.17724609 5.00634766 C56.37842532 3.01174954 61.43356034 0.63052908 66.43652344 -1.81420898 C71.67338336 -4.32323234 75.77603849 -5.9913205 81.5625 -4.0625 C83.76471545 -2.48948896 84.31929175 -1.32963025 85.3125 1.1875 C85.53955078 3.93652344 85.53955078 3.93652344 85.5078125 7.046875 C85.50136719 8.16191406 85.49492187 9.27695312 85.48828125 10.42578125 C85.47152344 11.58464844 85.45476562 12.74351563 85.4375 13.9375 C85.42847656 15.11183594 85.41945313 16.28617188 85.41015625 17.49609375 C85.38660063 20.39343536 85.35370652 23.29036441 85.3125 26.1875 C86.1897876 26.46279541 87.0670752 26.73809082 87.97094727 27.02172852 C91.06853961 28.10238925 93.85766628 29.35303548 96.77734375 30.83984375 C97.8125415 31.36328369 98.84773926 31.88672363 99.91430664 32.42602539 C101.01508545 32.98668701 102.11586426 33.54734863 103.25 34.125 C114.55408387 39.83035936 125.93065285 45.35461687 137.36914062 50.78417969 C140.47513081 52.26503831 143.57417931 53.75968496 146.671875 55.2578125 C156.05775638 59.79330528 165.43455634 64.29195596 175 68.4375 C199.41385145 79.13640738 221.12251962 95.15912708 232.125 120.125 C242.4066323 146.85724397 242.13133729 175.01680765 237.58789062 202.92114258 C237.28585566 205.40677251 237.11751794 207.68741388 237.3125 210.1875 C239.07578819 212.18947357 240.76952345 213.8682071 242.75 215.625 C249.27777873 221.78932095 253.89421324 228.41105515 258.3125 236.1875 C258.93898438 237.26386719 259.56546875 238.34023438 260.2109375 239.44921875 C267.6580463 253.18897188 272.32803776 269.57189211 273.3125 285.1875 C273.40200928 286.12029785 273.49151855 287.0530957 273.58374023 288.01416016 C274.12559147 297.47412806 271.33513234 303.50673048 266.625 311.5625 C265.93296091 312.7923766 265.24346773 314.02368888 264.55639648 315.25634766 C262.82692982 318.34490216 261.06756137 321.41505325 259.29663086 324.47998047 C257.8446375 326.99926639 256.4144063 329.53069856 254.984375 332.0625 C253.43006115 334.81408181 251.87392785 337.56437726 250.30664062 340.30859375 C245.7513146 348.30954396 241.43089553 356.42587789 237.125 364.5625 C232.70628093 372.90433813 228.27294985 381.22827147 223.5 389.375 C223.10981689 390.04515137 222.71963379 390.71530273 222.31762695 391.40576172 C218.78525201 397.3345671 218.78525201 397.3345671 216.3125 399.1875 C210.78682024 399.9896148 210.78682024 399.9896148 208.3125 399.1875 C204.42926379 395.19555734 201.81938292 390.91162919 199.375 385.9375 C199.03509033 385.24857666 198.69518066 384.55965332 198.3449707 383.84985352 C191.65870765 369.87633263 186.55246456 354.25819916 186.11328125 338.703125 C185.60423986 324.33103107 182.75741235 315.4098645 172.3125 305.1875 C171.6525 305.1875 170.9925 305.1875 170.3125 305.1875 C168.42902764 307.4835425 166.67166126 309.78249215 164.9375 312.1875 C164.45539063 312.83589844 163.97328125 313.48429687 163.4765625 314.15234375 C152.72420982 328.90761034 151.83401691 343.47280564 154.54541016 361.12002563 C155.42506364 366.50442487 156.36052588 371.87797488 157.3125 377.25 C157.88841587 380.54774647 158.46013409 383.84610084 159.02441406 387.14585876 C159.37318072 389.18063093 159.72887349 391.21423288 160.09277344 393.24635315 C161.93066839 403.8668875 161.93066839 403.8668875 161.3125 409.1875 C157.41635902 414.25515816 153.73100926 415.27150116 147.75292969 416.37573242 C146.47606293 416.63535515 146.47606293 416.63535515 145.17340088 416.90022278 C142.36375512 417.46649401 139.5495707 418.00502845 136.734375 418.54296875 C134.76412882 418.93310474 132.79418226 419.32475665 130.82452393 419.71784973 C126.69088753 420.53874254 122.55505082 421.34696681 118.41699219 422.14526367 C113.1588662 423.1598214 107.90541535 424.19638485 102.65330124 425.24157238 C98.57905304 426.05132923 94.50334882 426.85353663 90.42710114 427.653162 C88.49272983 428.03264876 86.55859418 428.41333912 84.62471771 428.79533958 C67.56442454 432.15199942 50.90892204 434.55302932 33.48535156 434.50317383 C31.20848871 434.50002899 28.93295277 434.52355869 26.65625 434.54882812 C2.18242105 434.66751487 -21.5801395 429.19503307 -45.40734863 424.20294189 C-48.71693814 423.51163634 -52.02820151 422.82855577 -55.33954906 422.14572906 C-59.3455432 421.31921238 -63.35053514 420.48788747 -67.35546875 419.65625 C-68.09696859 419.50269547 -68.83846844 419.34914093 -69.60243797 419.19093323 C-74.30329979 418.21544917 -78.99655669 417.20962722 -83.6875 416.1875 C-84.86720367 415.94265869 -86.04690735 415.69781738 -87.26235962 415.44555664 C-88.87526382 415.08675415 -88.87526382 415.08675415 -90.52075195 414.72070312 C-91.4523262 414.51997192 -92.38390045 414.31924072 -93.34370422 414.11242676 C-96.21933555 412.97762296 -97.18375558 411.86288964 -98.6875 409.1875 C-99.22442442 402.73336819 -98.07345818 396.62866812 -96.9375 390.28515625 C-96.57249912 388.15567049 -96.20792989 386.0261107 -95.84375 383.89648438 C-95.26994489 380.58515075 -94.69187743 377.274702 -94.10546875 373.96557617 C-88.53914746 344.72163892 -88.53914746 344.72163892 -98.35009766 317.61791992 C-101.64187948 313.02036192 -105.13540351 308.58650839 -108.6875 304.1875 C-110.66964165 306.64344795 -112.64769753 309.10265493 -114.625 311.5625 C-115.18896484 312.26117188 -115.75292969 312.95984375 -116.33398438 313.6796875 C-116.87216797 314.35 -117.41035156 315.0203125 -117.96484375 315.7109375 C-118.46234131 316.32888184 -118.95983887 316.94682617 -119.47241211 317.58349609 C-121.83554259 320.70299926 -121.94997622 323.19935701 -122.265625 327.05859375 C-124.16699718 348.69429916 -126.65731349 375.01095702 -140.71875 392.75 C-143.24029822 394.59113045 -145.51468632 394.71247449 -148.58984375 394.81640625 C-154.77523753 392.96193996 -157.91268919 385.85619888 -160.9375 380.625 C-162.00029505 378.82102092 -163.06415869 377.0176711 -164.12890625 375.21484375 C-164.70012207 374.24401855 -165.27133789 373.27319336 -165.85986328 372.27294922 C-168.80091301 367.30781611 -171.80179652 362.37911817 -174.80236816 357.4498291 C-175.88177515 355.67636847 -176.96010199 353.90225562 -178.03808594 352.12792969 C-179.50734264 349.70961136 -180.97688352 347.29146629 -182.44677734 344.87353516 C-184.33235356 341.77179062 -186.21776522 338.66994624 -188.10272217 335.56782532 C-188.85679413 334.32697062 -189.61106503 333.0862368 -190.36553955 331.84562683 C-192.19488484 328.83661192 -194.02017702 325.82529034 -195.83642578 322.80834961 C-198.7322628 318.00402349 -201.62972389 313.21523247 -204.75390625 308.5546875 C-210.08988553 300.5179886 -212.02179358 294.83465435 -210.6875 285.1875 C-210.60918945 284.48641113 -210.53087891 283.78532227 -210.45019531 283.06298828 C-207.6374857 257.92641674 -198.32074357 232.2583815 -179.0625 215.125 C-175.71130555 211.93338828 -175.71130555 211.93338828 -174.2109375 207.71875 C-174.4665892 204.79197878 -175.03912411 202.05324979 -175.6875 199.1875 C-176.07740601 196.66555473 -176.43705632 194.15625953 -176.75 191.625 C-176.88039673 190.57070801 -176.88039673 190.57070801 -177.01342773 189.49511719 C-180.33369467 159.73164007 -177.74390592 126.44074085 -158.8125 102 C-157.45540784 100.38065551 -156.08105889 98.77557094 -154.6875 97.1875 C-154.10613281 96.52234375 -153.52476562 95.8571875 -152.92578125 95.171875 C-138.64318555 79.92884444 -119.42536515 70.87149225 -100.43457031 62.99902344 C-90.61676617 58.86129233 -81.16426407 54.01707872 -71.66040039 49.21484375 C-70.2918615 48.52337403 -68.92329077 47.83196729 -67.5546875 47.140625 C-66.88451096 46.80196411 -66.21433441 46.46330322 -65.52384949 46.11437988 C-58.44365 42.54515498 -51.29385421 39.1265145 -44.12866211 35.73168945 C-38.26711843 32.95312702 -32.45901446 30.09828487 -26.69921875 27.11328125 C-24.6875 26.1875 -24.6875 26.1875 -22.6875 26.1875 C-22.69797363 25.45112305 -22.70844727 24.71474609 -22.71923828 23.95605469 C-22.76083702 20.61657124 -22.78683864 17.27714235 -22.8125 13.9375 C-22.82925781 12.77863281 -22.84601563 11.61976562 -22.86328125 10.42578125 C-22.86972656 9.31074219 -22.87617188 8.19570313 -22.8828125 7.046875 C-22.89328613 6.02045898 -22.90375977 4.99404297 -22.91455078 3.93652344 C-22.68322304 1.13571664 -22.19297877 -0.46349753 -20.6875 -2.8125 C-13.76382858 -7.75797959 -6.61778001 -3.23026736 0 0 Z " fill="#484F69" transform="translate(224.6875,41.8125)"/>
<path d="M0 0 C7.71420843 4.80648849 14.30394482 10.58679474 20.72387695 16.98803711 C21.85116211 18.08051758 21.85116211 18.08051758 23.0012207 19.19506836 C30.41493015 26.86491364 34.51129221 36.42870738 38.03637695 46.36303711 C41.46282353 55.69952912 47.23805469 63.75930372 52.72387695 71.98803711 C52.84887695 74.48803711 52.84887695 74.48803711 51.72387695 76.98803711 C49.01420708 78.2425139 46.56327213 79.13712862 43.72387695 79.98803711 C31.15416717 83.93477634 22.9785557 90.12021222 14.45288086 100.01293945 C9.53103057 105.61558639 4.08298222 109.18580725 -3.27612305 110.98803711 C-9.58007666 111.37462427 -14.28615202 110.32016791 -20.18237305 108.17163086 C-21.43419373 107.73381538 -21.43419373 107.73381538 -22.71130371 107.28715515 C-25.40352909 106.34411125 -28.08974173 105.38508716 -30.77612305 104.42553711 C-34.47122821 103.12185599 -38.16959098 101.82772757 -41.86987305 100.53881836 C-42.77439209 100.22317932 -43.67891113 99.90754028 -44.61083984 99.58233643 C-52.64267115 96.80633336 -60.75151093 94.4016891 -69.03198242 92.47021484 C-75.78405936 90.72223159 -80.84050436 87.4357703 -85.27612305 81.98803711 C-88.12116445 76.23352548 -87.59994969 69.85729437 -87.61206055 63.58178711 C-87.61871735 62.38372437 -87.62537415 61.18566162 -87.63223267 59.95129395 C-87.6423393 57.42302991 -87.6470503 54.8947393 -87.64672852 52.36645508 C-87.65110769 48.50158847 -87.68746739 44.63785857 -87.7253418 40.77319336 C-87.73120912 38.31356184 -87.73517908 35.85392491 -87.73706055 33.39428711 C-87.75143158 32.24101929 -87.76580261 31.08775146 -87.78060913 29.89953613 C-87.74489523 23.62347634 -87.53635583 19.73847344 -83.27612305 14.98803711 C-61.06300223 -4.6201335 -26.3242852 -15.68216963 0 0 Z " fill="#9EAACD" transform="translate(349.276123046875,144.011962890625)"/>
<path d="M0 0 C16.37951343 8.37230811 16.37951343 8.37230811 20.3125 16.23828125 C20.41833117 17.95746285 20.46127305 19.68068457 20.47363281 21.40307617 C20.48324036 22.48147263 20.4928479 23.55986908 20.50274658 24.67094421 C20.50699646 25.84172012 20.51124634 27.01249603 20.515625 28.21875 C20.52132507 29.42010086 20.52702515 30.62145172 20.53289795 31.85920715 C20.54235989 34.40718706 20.54888665 36.95517926 20.55273438 39.50317383 C20.56241667 43.39230924 20.59342014 47.28091111 20.625 51.16992188 C20.63153224 53.64452811 20.63678184 56.11913813 20.640625 58.59375 C20.6529718 59.75440475 20.6653186 60.91505951 20.67803955 62.11088562 C20.65769163 69.52944422 20.15970169 75.92007602 14.6875 81.48828125 C12.2837569 83.66008082 10.23038945 84.79394596 7.14453125 85.76171875 C6.34660156 86.01308594 5.54867187 86.26445312 4.7265625 86.5234375 C1.82253423 87.3833682 -1.09231241 88.19001179 -4.01708984 88.97607422 C-12.20741937 91.18944759 -20.25031587 93.73353053 -28.26171875 96.51953125 C-29.10508286 96.81227936 -29.94844696 97.10502747 -30.81736755 97.40664673 C-35.09225757 98.89427169 -39.36094065 100.3976322 -43.6237793 101.91943359 C-45.22565611 102.48170916 -46.82762184 103.04373148 -48.4296875 103.60546875 C-49.15818405 103.87081421 -49.8866806 104.13615967 -50.63725281 104.4095459 C-58.01754633 106.97649263 -63.96860977 106.71804578 -71.13671875 103.62890625 C-77.17967034 100.33443341 -81.76636834 95.42039645 -86.125 90.17578125 C-93.82726373 81.16324737 -103.56309615 77.15370532 -114.75 74.11328125 C-117.6875 73.23828125 -117.6875 73.23828125 -119.6875 71.23828125 C-120.16850863 68.03335859 -119.91557205 66.60260413 -118.18359375 63.8359375 C-117.50425781 62.99933594 -116.82492188 62.16273438 -116.125 61.30078125 C-109.80781797 52.9746014 -105.51889876 44.03889105 -102.3125 34.11328125 C-96.15222246 16.21247476 -78.77310513 0.76182383 -62.01171875 -7.68359375 C-39.7322174 -18.09225956 -20.80285917 -10.33289177 0 0 Z " fill="#9EAACD" transform="translate(229.6875,148.76171875)"/>
<path d="M0 0 C0.95044189 -0.0100708 1.90088379 -0.0201416 2.88012695 -0.03051758 C18.21429358 0.1580337 32.78577889 7.35329948 44.125 17.4375 C44.79917969 18.00726563 45.47335937 18.57703125 46.16796875 19.1640625 C55.80756973 27.92733612 61.18078074 39.94945891 64.125 52.4375 C64.42277344 53.65179688 64.72054687 54.86609375 65.02734375 56.1171875 C70.12705858 79.04591654 66.71292055 102.55973531 63.125 125.4375 C45.99834605 114.35853691 29.66665287 98.96634541 19.125 81.4375 C18.48884766 80.385625 18.48884766 80.385625 17.83984375 79.3125 C15.76308025 75.5222092 14.63648192 71.72441095 13.5 67.5625 C9.50018293 54.07292086 1.62939728 41.71570661 -7.875 31.4375 C-8.59300781 30.63957031 -9.31101562 29.84164062 -10.05078125 29.01953125 C-17.95845557 20.63430644 -28.23351423 13.20136148 -39.875 11.4375 C-39.875 10.7775 -39.875 10.1175 -39.875 9.4375 C-26.68886368 3.3439067 -14.47525587 0.09886675 0 0 Z " fill="#FD004F" transform="translate(383.875,123.5625)"/>
<path d="M0 0 C0 0.66 0 1.32 0 2 C-0.60585937 2.14695313 -1.21171875 2.29390625 -1.8359375 2.4453125 C-13.33529086 5.52360094 -21.59124176 11.73000015 -30 20 C-30.67804688 20.66515625 -31.35609375 21.3303125 -32.0546875 22.015625 C-43.01138091 33.54435461 -50.86960597 48.48025611 -55.4375 63.625 C-59.32070643 75.58351071 -67.3940092 84.25084115 -76 93 C-77.01868861 94.05684901 -78.03692406 95.11413501 -79.0546875 96.171875 C-94.20743767 111.76834751 -94.20743767 111.76834751 -103 116 C-103.48612169 112.91772323 -103.96252669 109.83401275 -104.4375 106.75 C-104.57220703 105.89664063 -104.70691406 105.04328125 -104.84570312 104.1640625 C-109.14407304 76.06740061 -110.46262911 43.64644828 -94 19 C-91.24101087 15.36725183 -88.30347111 12.14070885 -85 9 C-84.43796875 8.44183594 -83.8759375 7.88367188 -83.296875 7.30859375 C-78.19136538 2.56245252 -72.14186854 -0.77926406 -66 -4 C-65.04609375 -4.51304687 -64.0921875 -5.02609375 -63.109375 -5.5546875 C-42.90232881 -14.91763822 -19.43697834 -7.64162788 0 0 Z " fill="#FD004F" transform="translate(168,133)"/>
<path d="M0 0 C2.76953125 1.8984375 2.76953125 1.8984375 5.8125 4.375 C9.51271656 7.36030352 13.21964178 10.1982536 17.23046875 12.7578125 C17.94033936 13.21623535 18.65020996 13.6746582 19.3815918 14.14697266 C20.75251453 15.02258102 22.1350361 15.88039556 23.53051758 16.71630859 C31.8924613 22.11960514 34.6412137 32.21724168 38.13671875 41.13671875 C38.50223343 42.06039749 38.86774811 42.98407623 39.24433899 43.93574524 C40.00858505 45.87011941 40.77062298 47.80536735 41.53051758 49.74145508 C42.68952354 52.69265259 43.85693485 55.64042357 45.02539062 58.58789062 C45.77133278 60.47896973 46.51679233 62.37023929 47.26171875 64.26171875 C47.60756516 65.13479172 47.95341156 66.00786469 48.30973816 66.90739441 C54.31850666 82.26174602 53.26043228 96.24210358 51.40087891 112.29272461 C51.12103112 114.72195198 50.85864932 117.15266627 50.59765625 119.58398438 C50.42289638 121.14334397 50.24715264 122.7025937 50.0703125 124.26171875 C49.95455368 125.34135139 49.95455368 125.34135139 49.8364563 126.4427948 C49.41621638 129.97597102 49.03042159 133.02602955 47 136 C43.09168591 138.60554272 41.65785128 138.73934147 37 138 C12.58345296 124.19030048 0.49614029 88.58298598 -7.20507812 63.51708984 C-7.93260678 61.21339805 -8.72784458 58.94811692 -9.546875 56.67578125 C-13.20714427 45.79948146 -13.5011945 35.05727975 -13.5625 23.6875 C-13.57135223 22.90775818 -13.58020447 22.12801636 -13.58932495 21.324646 C-13.60666721 19.07359143 -13.59255063 16.82514874 -13.56640625 14.57421875 C-13.55552979 13.26026123 -13.54465332 11.94630371 -13.53344727 10.5925293 C-12.82521026 5.8228691 -10.96536245 2.45817214 -7.0625 -0.4375 C-4.2821291 -1.19578297 -2.77434769 -0.82041425 0 0 Z " fill="#9EAACD" transform="translate(415,233)"/>
<path d="M0 0 C3.74676204 1.09784157 5.39926194 2.91480505 7.90625 5.8515625 C9.37911469 8.79729188 9.12957947 11.80214559 9.1796875 15.03515625 C9.19235153 15.75764557 9.20501556 16.48013489 9.21806335 17.22451782 C9.62449261 46.03994706 9.62449261 46.03994706 4.77929688 59.41162109 C3.75884669 62.26351684 2.84190466 65.14151739 1.921875 68.02734375 C-5.95167923 92.25928509 -17.08512469 122.81107694 -39.21484375 137.921875 C-42.37209927 139.48409291 -44.68057625 139.50794207 -48.09375 138.8515625 C-52.3357884 135.50258482 -53.1907461 132.78164751 -53.81690979 127.52095032 C-53.94041054 126.42583382 -53.94041054 126.42583382 -54.06640625 125.30859375 C-54.15377548 124.54794113 -54.24114471 123.78728851 -54.3311615 123.00358582 C-54.51556085 121.38389024 -54.69783624 119.76395168 -54.87817383 118.14379883 C-55.15022283 115.71780965 -55.4350539 113.29356047 -55.72070312 110.86914062 C-57.53666417 95.06011081 -58.07452515 81.98005776 -52.09375 66.8515625 C-51.45087473 65.17321445 -50.8090051 63.49448096 -50.16796875 61.81542969 C-48.39550571 57.21026554 -46.57260901 52.62699646 -44.72802734 48.05029297 C-43.58352432 45.20110615 -42.45781255 42.34490864 -41.33203125 39.48828125 C-40.59749365 37.65839635 -39.86185661 35.82895231 -39.125 34 C-38.79463745 33.15416351 -38.4642749 32.30832703 -38.12390137 31.43685913 C-35.49109367 24.99722242 -32.01096875 20.96737695 -26.23828125 17.01953125 C-25.53807861 16.53444092 -24.83787598 16.04935059 -24.11645508 15.54956055 C-23.3870874 15.05109619 -22.65771973 14.55263184 -21.90625 14.0390625 C-16.0462334 10.00244028 -10.52273161 5.89346339 -5.26953125 1.08203125 C-3.09375 -0.1484375 -3.09375 -0.1484375 0 0 Z " fill="#9EAACD" transform="translate(101.09375,232.1484375)"/>
<path d="M0 0 C2.94250868 2.39829916 2.9868465 2.87144537 3.40405273 6.94897461 C3.43063771 8.59991298 3.43931703 10.25120126 3.43359375 11.90234375 C3.4388356 12.77645401 3.44407745 13.65056427 3.44947815 14.55116272 C3.45590058 16.39957619 3.45455848 18.24803052 3.44604492 20.09643555 C3.43754134 22.92375584 3.46628148 25.74905161 3.49804688 28.57617188 C3.49965915 30.37239523 3.49908085 32.16862216 3.49609375 33.96484375 C3.50732773 34.80973862 3.51856171 35.65463348 3.53013611 36.52513123 C3.48623602 40.22605205 3.44235516 42.34692552 1.33227539 45.4621582 C-1.39598511 47.2611023 -3.61823969 47.95054424 -6.8125 48.640625 C-7.96161865 48.90278809 -9.1107373 49.16495117 -10.29467773 49.43505859 C-11.51743408 49.70398926 -12.74019043 49.97291992 -14 50.25 C-24.8448418 52.77498413 -34.91419297 55.97662749 -45.12109375 60.3984375 C-51.24664837 62.97166362 -51.24664837 62.97166362 -54 63 C-58.35743738 60.37341487 -60.9172302 56.61822636 -63.5625 52.375 C-63.95236084 51.75254395 -64.34222168 51.13008789 -64.74389648 50.48876953 C-69.91061942 42.06530736 -74.40315677 33.17983177 -72 23 C-68.29129797 19.38753175 -64.54435603 18.00297453 -59.640625 16.7421875 C-52.5636129 14.791826 -45.61498657 12.57823517 -38.671875 10.1953125 C-37.69947876 9.86416443 -36.72708252 9.53301636 -35.72521973 9.1918335 C-31.70386087 7.82200083 -27.68396831 6.4483138 -23.66943359 5.05859375 C-20.69466523 4.0308172 -17.71509961 3.01816185 -14.734375 2.0078125 C-13.37659943 1.53143845 -13.37659943 1.53143845 -11.99139404 1.04544067 C-3.94220249 -1.66002092 -3.94220249 -1.66002092 0 0 Z " fill="#9DA9CC" transform="translate(247,245)"/>
<path d="M0 0 C1.05161819 0.35061493 2.10323639 0.70122986 3.1867218 1.06246948 C4.30870468 1.44162506 5.43068756 1.82078064 6.58666992 2.21142578 C8.33979744 2.79792404 8.33979744 2.79792404 10.12834167 3.39627075 C13.85937331 4.64553295 17.58827268 5.90102852 21.31713867 7.15673828 C23.81504638 7.99439299 26.31309183 8.83163705 28.8112793 9.66845703 C34.42693357 11.55028506 40.04227698 13.43299453 45.65298462 15.32952881 C47.50060136 15.94647537 49.35263574 16.55040702 51.20956421 17.13873291 C52.01809845 17.396203 52.82663269 17.6536731 53.65966797 17.91894531 C54.35916061 18.13632355 55.05865326 18.35370178 55.77934265 18.57766724 C57.50463867 19.28173828 57.50463867 19.28173828 59.50463867 21.28173828 C61.77571627 31.87389529 56.923021 41.48652734 51.50463867 50.28173828 C48.68874003 54.40004445 45.63878669 58.44356143 41.50463867 61.28173828 C36.78560502 61.34329089 32.71735224 59.17796511 28.47265625 57.29785156 C17.82519562 52.58286181 7.31311673 49.50719005 -4.10180664 47.22241211 C-5.15335937 47.00738037 -6.20491211 46.79234863 -7.28833008 46.57080078 C-8.22185303 46.39242676 -9.15537598 46.21405273 -10.1171875 46.03027344 C-12.800676 45.18563985 -13.74912774 44.45402979 -15.49536133 42.28173828 C-15.88304138 40.34667969 -15.88304138 40.34667969 -15.89941406 38.13330078 C-15.91209824 37.30233887 -15.92478241 36.47137695 -15.93785095 35.61523438 C-15.93491531 34.72143066 -15.93197968 33.82762695 -15.92895508 32.90673828 C-15.93419693 31.98586426 -15.93943878 31.06499023 -15.94483948 30.11621094 C-15.95126231 28.16944385 -15.94991931 26.22263797 -15.94140625 24.27587891 C-15.93289277 21.29275661 -15.96165916 18.31154647 -15.9934082 15.32861328 C-15.99502017 13.43798886 -15.99444277 11.54736103 -15.99145508 9.65673828 C-16.00268906 8.76293457 -16.01392303 7.86913086 -16.02549744 6.94824219 C-15.95699875 0.8806487 -15.95699875 0.8806487 -13.83935547 -1.86669922 C-9.25939447 -3.53057839 -4.45899376 -1.49710761 0 0 Z " fill="#9EAACD" transform="translate(277.495361328125,246.71826171875)"/>
<path d="M0 0 C1.26392578 -0.00515625 2.52785156 -0.0103125 3.83007812 -0.015625 C5.80717773 0.00757813 5.80717773 0.00757813 7.82421875 0.03125 C9.13068359 0.01578125 10.43714844 0.0003125 11.78320312 -0.015625 C18.81924406 0.01299133 23.90766365 0.06741391 29.51171875 4.53125 C31.70769486 7.82521417 31.76720349 8.83002124 31.78637695 12.65771484 C31.80067497 14.22481705 31.80067497 14.22481705 31.81526184 15.82357788 C31.81435043 16.95171906 31.81343903 18.07986023 31.8125 19.2421875 C31.81678513 20.40247467 31.82107025 21.56276184 31.82548523 22.75820923 C31.83123236 25.21445055 31.83172599 27.6707089 31.82739258 30.12695312 C31.82423709 33.88441062 31.84767262 37.64107765 31.87304688 41.3984375 C31.87532026 43.78385317 31.87602318 46.16927096 31.875 48.5546875 C31.88420975 49.67878021 31.89341949 50.80287292 31.90290833 51.96102905 C31.89667953 53.01206818 31.89045074 54.0631073 31.8840332 55.14599609 C31.88466263 56.06738373 31.88529205 56.98877136 31.88594055 57.93807983 C31.28596966 62.09557843 29.51791602 64.73480876 26.25610352 67.31665039 C21.24631003 69.53386617 15.93471501 69.01109126 10.53686523 68.97729492 C8.45131536 68.96875858 6.36848462 68.99761612 4.28320312 69.02929688 C2.96513672 69.02865234 1.64707031 69.02800781 0.2890625 69.02734375 C-0.91500244 69.02919678 -2.11906738 69.0310498 -3.35961914 69.03295898 C-7.18257416 68.41991392 -8.12340122 67.54050615 -10.48828125 64.53125 C-10.99621582 61.79931641 -10.99621582 61.79931641 -11.00585938 58.6328125 C-11.01846802 57.44478027 -11.03107666 56.25674805 -11.04406738 55.03271484 C-11.031922 53.11386475 -11.031922 53.11386475 -11.01953125 51.15625 C-11.02335815 49.83963379 -11.02718506 48.52301758 -11.03112793 47.16650391 C-11.03701849 44.38229566 -11.02847539 41.59860151 -11.00976562 38.81445312 C-10.98697501 35.24975667 -11.00010065 31.68626482 -11.02405548 28.12161255 C-11.04200455 24.7163957 -11.02942902 21.31150106 -11.01953125 17.90625 C-11.02762817 16.6270166 -11.0357251 15.3477832 -11.04406738 14.02978516 C-11.03145874 12.84175293 -11.0188501 11.6537207 -11.00585938 10.4296875 C-11.002677 9.38474121 -10.99949463 8.33979492 -10.99621582 7.26318359 C-9.82929493 0.98688232 -5.76980669 0.02264731 0 0 Z " fill="#9EAACD" transform="translate(272.48828125,359.46875)"/>
<path d="M0 0 C2.01974313 -0.00436544 4.03728522 -0.04067029 6.05664062 -0.07861328 C7.97476563 -0.08441406 7.97476563 -0.08441406 9.93164062 -0.09033203 C11.10130371 -0.0985498 12.2709668 -0.10676758 13.47607422 -0.11523438 C17.39561256 0.48319138 18.86889972 1.58401152 21.65820312 4.37060547 C22.28639221 7.10253906 22.28639221 7.10253906 22.28930664 10.26904297 C22.30183975 11.4570752 22.31437286 12.64510742 22.32728577 13.86914062 C22.31402756 15.14837402 22.30076935 16.42760742 22.28710938 17.74560547 C22.28952133 19.06222168 22.29193329 20.37883789 22.29441833 21.73535156 C22.29727414 24.51968304 22.28259893 27.30320912 22.25512695 30.08740234 C22.22104238 33.65213947 22.22706322 37.21543685 22.24578953 40.78024292 C22.25891381 44.18550645 22.24064118 47.59035197 22.22460938 50.99560547 C22.22956924 52.27483887 22.23452911 53.55407227 22.23963928 54.87207031 C22.21588478 56.65411865 22.21588478 56.65411865 22.19165039 58.47216797 C22.18545181 59.51711426 22.17925323 60.56206055 22.17286682 61.63867188 C21.52605403 65.07207822 20.39784912 66.26162913 17.65820312 68.37060547 C14.54541016 68.88818359 14.54541016 68.88818359 10.91601562 68.90185547 C9.60246094 68.90701172 8.28890625 68.91216797 6.93554688 68.91748047 C5.91243408 68.90491211 5.91243408 68.90491211 4.86865234 68.89208984 C2.79599971 68.8707373 0.7268398 68.89186311 -1.34570312 68.91748047 C-2.66183594 68.91232422 -3.97796875 68.90716797 -5.33398438 68.90185547 C-7.13391846 68.89508789 -7.13391846 68.89508789 -8.97021484 68.88818359 C-13.03812633 68.26371058 -15.18266566 66.97690308 -18.34179688 64.37060547 C-20.3176543 61.25569131 -20.60581451 58.78536519 -20.64819336 55.13061523 C-20.66418076 54.08595596 -20.68016815 53.04129669 -20.69664001 51.96498108 C-20.70200272 50.84200119 -20.70736542 49.7190213 -20.71289062 48.56201172 C-20.7219191 47.4031395 -20.73094757 46.24426727 -20.74024963 45.05027771 C-20.75475349 42.6000324 -20.7636392 40.14974834 -20.76733398 37.69946289 C-20.77924159 33.95050973 -20.82843903 30.20319622 -20.87890625 26.45458984 C-20.88836913 24.0737385 -20.89560481 21.69287705 -20.90039062 19.31201172 C-20.91992294 18.19105606 -20.93945526 17.0701004 -20.95957947 15.91517639 C-20.91443413 8.13203732 -20.91443413 8.13203732 -17.99438477 4.24926758 C-11.76441682 -0.1630291 -7.54385671 -0.00182926 0 0 Z " fill="#9EAACD" transform="translate(228.341796875,359.62939453125)"/>
<path d="M0 0 C1.60658249 2.16095036 1.67735089 3.31130661 1.68588257 5.98571777 C1.69533905 6.83670044 1.70479553 7.68768311 1.71453857 8.56445312 C1.70846588 9.48013062 1.70239319 10.39580811 1.69613647 11.3392334 C1.69900665 12.28230347 1.70187683 13.22537354 1.70483398 14.19702148 C1.70687544 16.19088339 1.70133991 18.18476528 1.68881226 20.17858887 C1.67275987 23.23389384 1.6886583 26.28787591 1.70785522 29.34313965 C1.70587281 31.27934049 1.70202916 33.21554051 1.69613647 35.1517334 C1.70524551 36.52524963 1.70524551 36.52524963 1.71453857 37.92651367 C1.70508209 38.77749634 1.69562561 39.628479 1.68588257 40.50524902 C1.68349579 41.25342896 1.68110901 42.00160889 1.6786499 42.77246094 C1.18315417 45.33873427 0.39405253 46.21148662 -1.70230103 47.7454834 C-3.57920837 48.15335083 -3.57920837 48.15335083 -5.71133423 48.19714355 C-6.51259232 48.2195108 -7.3138504 48.24187805 -8.13938904 48.2649231 C-9.43316719 48.27463638 -9.43316719 48.27463638 -10.75308228 48.2845459 C-12.09042671 48.30308121 -12.09042671 48.30308121 -13.45478821 48.32199097 C-15.34183181 48.34156206 -17.2289776 48.35279017 -19.11611938 48.35632324 C-21.99490202 48.37038619 -24.8693162 48.43767677 -27.7472229 48.50720215 C-29.58249009 48.51960402 -31.41778211 48.52882185 -33.25308228 48.5345459 C-34.10952835 48.56126373 -34.96597443 48.58798157 -35.84837341 48.61550903 C-39.36810324 48.57576525 -41.74541156 48.52358533 -44.53833008 46.25250244 C-46.07882563 44.48249415 -47.40880316 42.70146644 -48.70230103 40.7454834 C-49.11341629 40.18785309 -49.52453156 39.63022278 -49.94810486 39.05569458 C-53.08971679 34.36715621 -53.48916948 30.1738797 -52.70230103 24.7454834 C-49.8114037 15.71142924 -40.6152044 10.71230318 -32.78823853 6.3157959 C-25.47887558 2.59634792 -7.83683234 -5.77538058 0 0 Z " fill="#9EAACD" transform="translate(248.70230102539063,303.2545166015625)"/>
<path d="M0 0 C14.89772216 2.59983211 31.13188588 9.32489981 41.4375 20.6875 C44.4719933 25.17855009 44.85393793 29.74747612 44 35 C41.4817426 40.78016129 38.36523102 45.57284079 33 49 C29.95170334 49.57086424 26.96113091 49.53748461 23.8671875 49.49609375 C22.55670944 49.4982766 22.55670944 49.4982766 21.21975708 49.50050354 C19.37905531 49.49884803 17.5383392 49.48732574 15.69775391 49.46655273 C12.87733436 49.43752403 10.05878687 49.44596515 7.23828125 49.45898438 C5.44790752 49.45274882 3.65753972 49.44435932 1.8671875 49.43359375 C0.60151443 49.43799721 0.60151443 49.43799721 -0.68972778 49.44248962 C-6.52441079 49.34814746 -6.52441079 49.34814746 -8.72155762 47.73976135 C-10.30642593 45.58300194 -10.37969977 44.41917712 -10.38818359 41.75976562 C-10.39764008 40.90878296 -10.40709656 40.05780029 -10.4168396 39.18103027 C-10.41076691 38.26535278 -10.40469421 37.34967529 -10.3984375 36.40625 C-10.40130768 35.46317993 -10.40417786 34.52010986 -10.40713501 33.54846191 C-10.40917646 31.55460001 -10.40364093 29.56071812 -10.39111328 27.56689453 C-10.37506089 24.51158956 -10.39095933 21.45760748 -10.41015625 18.40234375 C-10.40817383 16.46614291 -10.40433019 14.52994289 -10.3984375 12.59375 C-10.40451019 11.67807251 -10.41058289 10.76239502 -10.4168396 9.81896973 C-10.40738312 8.96798706 -10.39792664 8.11700439 -10.38818359 7.24023438 C-10.38579681 6.49205444 -10.38341003 5.74387451 -10.38095093 4.97302246 C-9.2769402 -0.74487399 -4.93937977 -0.37083977 0 0 Z " fill="#9EAACD" transform="translate(272,302)"/>
<path d="M0 0 C5.94457979 3.80216001 7.18186393 10.52822312 9.125 16.9375 C11.07949653 23.21226397 12.96834851 29.14928234 16 35 C16.37543482 38.62920322 16.57189498 40.96692054 14.78874207 44.18803406 C13 46 13 46 10.69038391 46.45613098 C3.95252008 46.23111563 -2.4705584 45.44231936 -9.08203125 44.13671875 C-10.09867355 43.94406937 -11.11531586 43.75141998 -12.1627655 43.55293274 C-15.38122282 42.94050674 -18.59677405 42.31409099 -21.8125 41.6875 C-23.95621109 41.27840968 -26.10009038 40.87019972 -28.24414062 40.46289062 C-34.16768593 39.33307544 -40.0846429 38.1718215 -46 37 C-46.78630798 36.84646057 -47.57261597 36.69292114 -48.38275146 36.534729 C-50.3857104 36.14208774 -52.38634144 35.73762007 -54.38671875 35.33203125 C-55.97359497 35.01262573 -55.97359497 35.01262573 -57.5925293 34.68676758 C-60 34 -60 34 -62 32 C-62.125 29.6875 -62.125 29.6875 -61 27 C-55.01070154 22.23007967 -47.50781062 19.11812258 -40.6875 15.75 C-39.54555176 15.18514893 -38.40360352 14.62029785 -37.22705078 14.03833008 C-34.91499695 12.89718832 -32.60185689 11.75824452 -30.28759766 10.62158203 C-27.3013804 9.14865355 -24.32728795 7.65403529 -21.35546875 6.15234375 C-19.69582577 5.32969287 -18.03570358 4.50800772 -16.375 3.6875 C-15.63725342 3.30883789 -14.89950684 2.93017578 -14.1394043 2.54003906 C-9.18363469 0.13162766 -5.51693441 -0.79057101 0 0 Z " fill="#9DA9CC" transform="translate(206,84)"/>
<path d="M0 0 C3.60386539 1.24491326 6.94678112 2.91391647 10.34375 4.63671875 C11.31227905 5.11317337 12.28080811 5.58962799 13.27868652 6.08052063 C15.31948079 7.08791665 17.35658274 8.10282329 19.39013672 9.12475586 C22.48301807 10.67896637 25.58583585 12.21156151 28.69140625 13.74023438 C30.68030426 14.72531823 32.66860588 15.7116073 34.65625 16.69921875 C35.57418335 17.15463547 36.4921167 17.61005219 37.43786621 18.07926941 C52.52825154 25.67320744 52.52825154 25.67320744 54 29.8125 C54 30.534375 54 31.25625 54 32 C50.82083748 34.76879514 48.34887747 35.54765708 44.20703125 36.17578125 C43.03479004 36.36116455 41.86254883 36.54654785 40.65478516 36.73754883 C39.38683105 36.92728271 38.11887695 37.1170166 36.8125 37.3125 C34.10717076 37.73392625 31.40318725 38.16368991 28.69921875 38.59375 C27.99667969 38.70447342 27.29414063 38.81519684 26.5703125 38.92927551 C21.35047756 39.759975 16.15227955 40.68420189 10.95703125 41.65625 C10.21602676 41.79443649 9.47502228 41.93262299 8.71156311 42.07499695 C5.80557205 42.61840143 2.90001501 43.16361808 -0.00326538 43.72134399 C-18.4703332 47.2648334 -18.4703332 47.2648334 -23 45 C-24.71655871 41.56688259 -24.70012623 38.67566269 -24 35 C-22.68648969 31.55422462 -21.18821567 28.22955031 -19.6484375 24.87890625 C-17.57257098 20.21480615 -16.19419967 15.35292603 -14.91333008 10.41796875 C-12.60264125 2.22808022 -8.49922135 -1.30322624 0 0 Z " fill="#9DA9CC" transform="translate(314,84)"/>
<path d="M0 0 C0.99 0.33 1.98 0.66 3 1 C3.09988492 5.92547891 3.17194055 10.85035096 3.21972656 15.77661133 C3.239675 17.44761442 3.26684401 19.11854924 3.30175781 20.78930664 C3.5932189 35.1094756 2.20919557 46.11405851 -8 57 C-11.23200545 60.12595527 -14.55884304 63.1065513 -18 66 C-18.84304688 66.76699219 -19.68609375 67.53398437 -20.5546875 68.32421875 C-23 70 -23 70 -25.15283203 69.60473633 C-25.76239746 69.40517334 -26.37196289 69.20561035 -27 69 C-27.07505712 65.05315009 -27.12902215 61.10658573 -27.16479492 57.15917969 C-27.18701479 55.16847095 -27.22516595 53.17796032 -27.26367188 51.1875 C-27.39890578 33.33662473 -20.98570708 22.77643081 -9 10 C-7.68079155 8.50589649 -6.36766928 7.00638288 -5.0625 5.5 C-3.41582723 3.60029241 -1.77871894 1.77871894 0 0 Z " fill="#9DA9CC" transform="translate(355,330)"/>
<path d="M0 0 C4.61728023 2.07029048 7.42000809 5.26955128 10.8125 8.9375 C11.43616455 9.60974609 12.0598291 10.28199219 12.70239258 10.97460938 C22.28902507 21.50975589 29.16168746 32.29694748 29.09765625 46.83203125 C29.09443359 48.12431641 29.09121094 49.41660156 29.08789062 50.74804688 C29.07953665 52.10286526 29.07107172 53.45768297 29.0625 54.8125 C29.05748 56.18684735 29.05291797 57.56119645 29.04882812 58.93554688 C29.03705668 62.29040924 29.02061283 65.64518221 29 69 C27.15942383 69.61743164 27.15942383 69.61743164 25 70 C22.44921875 68.12109375 22.44921875 68.12109375 19.6875 65.4375 C16.58459588 62.46057069 13.50399306 59.54106266 10.125 56.875 C3.80186493 51.47461909 -0.47220373 43.37413178 -1.1607666 35.05844116 C-1.36656706 30.37100869 -1.34069532 25.68572482 -1.28125 20.99511719 C-1.24972906 18.47836685 -1.24023514 15.96224188 -1.234375 13.4453125 C-1.22521797 11.84895061 -1.21484639 10.25259512 -1.203125 8.65625 C-1.19887512 7.90218872 -1.19462524 7.14812744 -1.19024658 6.37121582 C-1.11726225 1.11726225 -1.11726225 1.11726225 0 0 Z " fill="#9DA9CC" transform="translate(155,330)"/>
<path d="M0 0 C1.32 0 2.64 0 4 0 C5.5133594 30.03177648 -6.5537026 57.61273008 -25 81 C-26 82 -26 82 -28.375 82.25 C-31 82 -31 82 -32.875 81 C-34.97730973 77.26256049 -33.40841937 72.57217044 -32.37200928 68.58261108 C-31.5749138 65.88931409 -30.73172175 63.21538247 -29.8671875 60.54296875 C-29.55226349 59.55935867 -29.23733948 58.5757486 -28.91287231 57.56233215 C-28.24589767 55.48944857 -27.57499596 53.41782491 -26.90039062 51.34741211 C-25.88313672 48.21257465 -24.89034681 45.07066846 -23.8984375 41.92773438 C-20.63624604 31.76475914 -17.58951473 22.52454654 -11 14 C-10.50048828 13.29721924 -10.00097656 12.59443848 -9.48632812 11.87036133 C-8.1356768 9.9819762 -6.73829437 8.14449191 -5.3125 6.3125 C-4.85294922 5.69439453 -4.39339844 5.07628906 -3.91992188 4.43945312 C-2.55078125 2.67578125 -2.55078125 2.67578125 0 0 Z " fill="#9DA9CB" transform="translate(291,60)"/>
<path d="M0 0 C2.81134583 0.34605306 4.5465686 0.59139827 6.68164062 2.51538086 C7.16826172 3.15870361 7.65488281 3.80202637 8.15625 4.46484375 C8.70410156 5.18349609 9.25195312 5.90214844 9.81640625 6.64257812 C10.37199219 7.39990234 10.92757812 8.15722656 11.5 8.9375 C12.05558594 9.66001953 12.61117187 10.38253906 13.18359375 11.12695312 C19.56876671 19.63801309 23.5222782 28.77783849 26.76953125 38.86328125 C27.09539719 39.85829147 27.42126312 40.8533017 27.75700378 41.87846375 C28.43714442 43.96207665 29.11339867 46.04696191 29.78588867 48.13305664 C30.81652779 51.32497416 31.8634728 54.5112214 32.91210938 57.69726562 C33.57389292 59.73145349 34.23473392 61.76594828 34.89453125 63.80078125 C35.20695267 64.74979813 35.51937408 65.698815 35.84126282 66.67658997 C36.12543564 67.56488998 36.40960846 68.45319 36.70239258 69.3684082 C36.95378494 70.14432816 37.20517731 70.92024811 37.46418762 71.71968079 C38.05964905 74.25385544 38.20792984 76.4057832 38 79 C36.3125 80.875 36.3125 80.875 34 82 C30.76141167 81.80578968 29.38263963 81.38652825 27.078125 79.05859375 C10.35752947 55.08526127 -1.49659447 29.69908579 0 0 Z " fill="#9DA9CB" transform="translate(217,60)"/>
<path d="M0 0 C4.44934653 0.22136052 6.35777536 1.93800267 9.3125 5.125 C12.175072 8.13998848 15.03342844 10.92965409 18.25 13.5625 C22.90956361 17.55242573 26.06031331 22.18093994 28 28 C28.23230094 32.01704943 28.18516508 36.03943887 28.1875 40.0625 C28.19974609 41.17689453 28.21199219 42.29128906 28.22460938 43.43945312 C28.22750977 45.03370117 28.22750977 45.03370117 28.23046875 46.66015625 C28.23457764 47.63605713 28.23868652 48.61195801 28.24291992 49.61743164 C28 52 28 52 26 54 C23.1768883 54.08554884 21.534228 53.45085044 19.37939453 51.63232422 C17.54345478 49.78491311 15.79664606 47.88071426 14.0625 45.9375 C13.46759766 45.29361328 12.87269531 44.64972656 12.25976562 43.98632812 C3.15455303 34.00542295 -2.55270296 26.10966368 -2.3125 12.1875 C-2.31572266 11.23423828 -2.31894531 10.28097656 -2.32226562 9.29882812 C-2.26744978 2.26744978 -2.26744978 2.26744978 0 0 Z " fill="#9DA9CC" transform="translate(156,392)"/>
<path d="M0 0 C4.55555556 0.55555556 4.55555556 0.55555556 6 2 C7.30967963 13.61249276 7.43992731 25.46587092 0 35 C-2.88914871 38.26114211 -5.96553804 41.30426879 -9.140625 44.28515625 C-12.36758556 47.34900542 -15.18614319 50.56084168 -18 54 C-22.875 53.125 -22.875 53.125 -24 52 C-24.33990701 48.19691381 -24.32540844 44.37879575 -24.375 40.5625 C-24.41238281 39.50611328 -24.44976562 38.44972656 -24.48828125 37.36132812 C-24.58481305 28.6573776 -22.83800288 22.36572827 -17.02734375 15.75610352 C-14.85412835 13.58460433 -12.61621389 11.53211404 -10.3125 9.5 C-9.54099609 8.79875 -8.76949219 8.0975 -7.97460938 7.375 C-6.55865011 6.08888853 -5.13718062 4.80879574 -3.70825195 3.53710938 C-2.43842145 2.39449785 -1.20789705 1.20789705 0 0 Z " fill="#9DA9CC" transform="translate(352,392)"/>
<path d="M0 0 C5.57663879 0.96234032 8.57802529 4.72873084 12 9 C22.39741846 24.73219499 27.79375829 44.15446538 26 63 C24.2326232 69.83067249 20.56135397 75.95737483 17 82 C15.68 82 14.36 82 13 82 C12.9906543 80.72060547 12.98130859 79.44121094 12.97167969 78.12304688 C12.93129693 73.29930939 12.86541337 68.47617792 12.79248047 63.65283203 C12.7645472 61.57967005 12.74319782 59.50640704 12.72900391 57.43310547 C12.61081756 41.13126892 11.51406087 26.44420409 3.75 11.75 C0 4.47606383 0 4.47606383 0 0 Z " fill="#9BA7CA" transform="translate(461,277)"/>
<path d="M0 0 C-0.54999507 4.82529006 -2.10293649 8.61336807 -4.3125 12.875 C-12.19377765 28.15886599 -12.63482514 43.67643491 -12.75 60.5 C-12.77822853 62.59507596 -12.80816525 64.69012962 -12.83984375 66.78515625 C-12.91288014 71.85672976 -12.96295043 76.9280412 -13 82 C-15.37597656 81.6887207 -15.37597656 81.6887207 -18 81 C-19.51671435 78.69208623 -20.63487354 76.67528213 -21.75 74.1875 C-22.05292969 73.55779297 -22.35585938 72.92808594 -22.66796875 72.27929688 C-28.98886962 58.89303347 -26.19246939 43.1887321 -21.8984375 29.484375 C-11.06886848 0 -11.06886848 0 0 0 Z " fill="#9BA7CA" transform="translate(51,277)"/>
<path d="M0 0 C3 1 3 1 4.09985352 3.13525391 C4.43944092 4.07288574 4.77902832 5.01051758 5.12890625 5.9765625 C5.51965332 7.0298877 5.91040039 8.08321289 6.31298828 9.16845703 C6.72532715 10.30911621 7.13766602 11.44977539 7.5625 12.625 C12.27162434 25.289036 17.48766124 37.6672498 23 50 C21.68 50 20.36 50 19 50 C17.15808941 48.11553703 15.66847229 46.35853308 14.125 44.25 C13.68663818 43.66379883 13.24827637 43.07759766 12.79663086 42.47363281 C8.79719026 36.98371288 5.68583518 31.24035633 3 25 C2.49146484 23.9171875 2.49146484 23.9171875 1.97265625 22.8125 C-1.00716521 15.56205884 -0.25471747 7.68869394 0 0 Z " fill="#9BA6C9" transform="translate(400,297)"/>
<path d="M0 0 C0.66 0 1.32 0 2 0 C2.62497493 10.81901053 1.85988546 19.06166281 -3 29 C-3.44601563 29.94488281 -3.89203125 30.88976562 -4.3515625 31.86328125 C-7.97289513 39.01490743 -12.75259765 44.97131774 -18 51 C-18.99 50.67 -19.98 50.34 -21 50 C-20.73896484 49.41323486 -20.47792969 48.82646973 -20.20898438 48.22192383 C-15.02644003 36.53510481 -10.02232797 24.8280849 -5.6015625 12.8293457 C-3.96334218 8.40465675 -2.21496705 4.17931091 0 0 Z " fill="#9BA7C9" transform="translate(110,297)"/>
</svg>
